<svg xmlns="http://www.w3.org/2000/svg" xmlns:xlink="http://www.w3.org/1999/xlink" width="609.355" height="299.946" viewBox="0 0 609.355 299.946"><symbol id="d" viewBox="-232.689 -383.22 465.376 766.439"><path fill="#040204" d="M85.162-145.282h-194.842l-17.536 317.692 225.626 5.19z"/><path fill="#881726" d="M-170.354 45.093c13.824-23.426 61.948-84.941 129.874 46.986l9.261-14.674s-88.179-156.172-149.521-39.475c5.302.272 8.763 3.29 10.386 7.163z"/><path fill="#fff" d="M-166.481 39.272l-3.757 9.08-12.523-7.201 5.008-9.392z"/><path fill="#E8BF9B" d="M-169.904 46.645c-1.174-3.881-5.369-6.326-9.325-5.432l-2.971.67c-3.955.895-9.677-.57-12.715-3.256l-8.001-7.072c-3.038-2.686-7.854-2.521-10.7.367l-.967.979c-2.847 2.889-2.428 7.107.932 9.377l10.203 6.895c3.359 2.27 2.909 5.004-1.001 6.076l-22.584 6.191c-3.91 1.072-6.372 5.184-5.469 9.137l.477 2.094c.903 3.953 4.805 6.188 8.67 4.967l22.35-7.062c3.866-1.223 4.681.119 1.81 2.982l-11.668 11.637c-2.871 2.863-3.362 7.605-1.094 10.539 2.27 2.936 6.544 3.062 9.498.287l20.105-18.898c2.954-2.777 5.864-1.77 6.467 2.24l.555 3.686c.602 4.012 4.382 6.836 8.398 6.279l2.237-.309c4.017-.557 6.343-4.188 5.169-8.07l-10.376-34.304zM-42.035-93.276l2.405-197.192h-8.156l-1.437 197.192zM28.025-88.7l2.359-194.096h-8.154l-1.436 191.928z"/><path fill="#6D6E70" d="M-49.881-81.966l-1.3-19.498 82.547 9.088-.982 17.613-40.096-3.765z"/><path fill="#BE1E2D" d="M-60.69-82.31l-6.247 215.393 105.493-14.393-.394-195.447z"/><path fill="#881726" d="M-49.223 77.366l7.188-168.855h-28.724l5.438 168.855zM45.73 101.288l7.187-183.598h-28.723l5.437 183.598z"/><path opacity=".15" fill="#231F20" d="M23.125-375.062c-79.003 0-143.051-1.828-143.051-4.08 0-2.254 64.048-4.078 143.051-4.078 79.004 0 143.061 1.824 143.061 4.078.001 2.252-64.057 4.08-143.061 4.08z"/><path fill="#070507" d="M-44.792-370.167s-5.633-9.637-19.993-10.086l-.303-2.941s18.432-.9 23.696 8.104l-.145-6.746 6.089.81-2.301 12.127-7.043-1.268zM31.778-367.644s6.246-9.256 20.61-8.832l.488-2.908s-18.361-2.033-24.176 6.611l.579-6.721-6.149.471 1.534 12.209 7.114-.83zM-37.748-368.899l4.776 200.9-22.016-1.758 9.683-203.861zM32.023-368.899l4.759 200.9-22.012-1.758 9.69-203.861z"/><path fill="#040204" d="M105.714 259.743c0-68.194-54.766-123.476-122.322-123.476s-122.322 55.282-122.322 123.476c0 68.193 54.766 123.476 122.322 123.476s122.322-55.283 122.322-123.476z"/><path fill="#E8BF9B" d="M-120.195 233.703s-65.901-59.513 27.909-145.722c93.809-86.201 165.133 53.406 165.133 53.406l24.031 64.85s-17.826 136.565-128.694 135.04c-110.865-1.527-100.01-77.821-88.379-107.574zM81.62 209.295s17.107 29.363 41.796 7.46c30.78-27.324-25.006-44.875-25.006-44.875s-17.669-5.798-11.447-24.578c6.23-18.767 6.183-25.619-.432-27.865-6.618-2.234-20.063 4.037-20.479 15.237-1.779 48.368 15.568 74.621 15.568 74.621z"/><g fill="#D09E78"><path d="M78.73 176.169s28.126 59.927 26.947 12.08c0 0-4.48 26.789-26.947-12.08zM78.546 176.013s19.475 29.602 11.172-9.072c0 0 2.838 24.913-11.172 9.072z"/></g><path fill="#E8BF9B" d="M-45.803 68.079s1.029-36.871 26.345-36.871c25.312 0 40.294 57.709 40.294 57.709l-66.639-20.838z"/><path fill="#D09E78" d="M-45.388 61.62s28.752-9.248 62.342 15.746l-1.935-6.5c.001 0-28.754-23.24-60.407-9.246zM66.803 130.505s-2.552 6.54-2.044 10.563c0 0-2.301-8.55.512-12.829l1.532 2.266z"/><path fill="#040204" d="M-79.468 333.952s34.815-77.023 69.561-111.488c0 0-75.964 55.403-76.418 109.228l6.857 2.26z"/><path opacity=".4" fill="#C69677" d="M-38.9 211.591s56.603-50.605 71.254 18.396l-71.254-18.396z"/><path fill="#fff" d="M25.437 227.149s-15.136-40.863-64.194-17.148c0 0 28.056 28.392 64.378 17.615"/><path fill="#8A5D3B" d="M22.646 229.204c-11.092-1.636-22.846-1.537-34.146-1.84l-.079-.729c-.512-9.759 7.12-18.073 17.031-18.572 9.917-.504 18.365 7.005 18.873 16.76.081 1.618-.065 3.193-.404 4.704-.394-.146-.82-.256-1.275-.323z"/><path fill="#211F1F" d="M-2.294 227.571c-.11-.479-.19-.968-.215-1.472-.254-4.783 3.488-8.856 8.344-9.102 4.855-.243 9 3.433 9.25 8.214.058 1.088-.102 2.133-.426 3.109-5.6-.461-11.294-.63-16.953-.749z"/><path fill="#fff" d="M-3.77 220.069c-.103-1.918 1.396-3.556 3.347-3.658 1.956-.099 3.618 1.381 3.716 3.303.101 1.917-1.4 3.555-3.349 3.654-1.956.098-3.618-1.379-3.714-3.299z"/><path fill="#211F1F" d="M-38.758 210.001c.524.381-.065.689 1.165 2.424 1.334 1.879 3.256 3.626 5.108 5.325 7.116 6.534 16.255 10.921 28.393 13.106 4.913.889 9.949 1.467 14.979 1.934 6.445.596 12.984.565 19.401 1.343 6.181.745 11.889 2.54 16.716 5.132 2.413 1.299 4.893 2.872 6.62 4.562 1.658 1.616 2.846 3.584 3.369 5.461 0 0 1.083-13.949-22.156-21.33 0 0 6.723-1.211 18.476 3.781 0 0-3.863-4.38-15.751-8.295-3.491-1.152-7.175-2.447-9.489-4.528-3.285-2.963-5.159-6.45-8.721-9.35-3.152-2.575-7.236-4.752-12.039-5.978-2.643-.673-5.689-1.196-8.518-1.345-2.162-.11-4.345-.126-6.51-.047-1.682.07-3.569.45-5.242.421 0 0 30.627.61 33.99 24.239.001 0-26.176 7.645-59.791-16.855z"/><path opacity=".2" d="M24.88 223.937s-29.755 4.186-63.638-13.936l6.084 5.529 11.809 8.084 16.25 4.689 15.466 1.284s5.611.332 5.951.29c.34-.041 8.154-.227 8.154-.227l-.076-5.713z"/><path opacity=".7" fill="#C69677" d="M-80.796 208.681s6.901 4.442-1.066 12.226c-7.962 7.792.023.574.023.574s-25.656 29.751-41.121 15.786l-4.696-7.546 1.023-6.495 45.837-14.545z"/><path fill="#fff" d="M-120.118 216.958s13.617-30.437 39.961-5.766c0 0-19.85 19.024-40.126 6.114"/><path fill="#211F1F" d="M-78.213 216.81s-41.243 54.858-49.809 11.859c.001 0 11.566 29.193 49.809-11.859z"/><defs><path id="a" d="M-120.118 216.958s13.617-30.437 39.961-5.766c0 0-19.85 19.024-40.126 6.114"/></defs><clipPath id="b"><use xlink:href="#a" overflow="visible"/></clipPath><path clip-path="url(#b)" fill="#8A5D3B" d="M-88.305 222.297c4.968-.499 8.558-4.988 8.015-10.03-.537-5.04-5.001-8.724-9.973-8.229-4.969.504-8.559 4.994-8.021 10.029.54 5.041 5.007 8.726 9.979 8.23z"/><path clip-path="url(#b)" fill="#211F1F" d="M-88.763 217.678c2.436-.243 4.194-2.444 3.934-4.911-.267-2.471-2.455-4.278-4.891-4.034-2.432.242-4.195 2.441-3.929 4.913.262 2.474 2.449 4.276 4.886 4.032z"/><path clip-path="url(#b)" fill="#fff" d="M-93.613 214.339c.973-.099 1.68-.982 1.576-1.975-.107-.991-.985-1.715-1.964-1.615-.977.093-1.685.979-1.578 1.969.105.995.984 1.717 1.966 1.621z"/><path fill="#211F1F" d="M-80.157 211.192c-.357.24-.674 1.4-.968 1.771-1.044 1.303-2.343 2.471-3.629 3.589-4.959 4.299-10.873 6.655-18.305 6.914-3.016.101-6.059-.05-9.094-.293-3.879-.305-7.752-1.124-11.636-1.286-3.75-.163-7.327.564-10.482 2.029-1.577.732-3.224 1.675-4.438 2.798-1.169 1.079-2.094 2.489-2.618 3.907 0 0 .949-11.147 15.547-14.161 0 0-3.846-1.77-11.367.751 0 0 2.784-2.997 10.272-4.648 2.199-.486 4.526-1.062 6.132-2.429 2.283-1.936 3.791-4.467 6.224-6.326 2.167-1.651 4.833-2.877 7.814-3.261 1.643-.213 3.507-.257 5.192-.03 1.299.171 2.588.425 3.86.752.988.257 2.062.784 3.055.962 0 0-18.195-3.227-22.887 15.027 0 .002 14.633 9.209 37.328-6.066z"/><path opacity=".2" d="M-118.559 214.789s14.694 6.565 38.402-3.597l-8.717 5.595-11.871 3.637-11.309.561-4.633-1.687-1.872-4.509z"/><path fill="#040204" d="M-86.325 341.29s97.723-142.296 192.039-197.396c0 0 80.77 215.139-122.322 239.326"/><path fill="#D09E78" d="M-86.325 175.383s23.332-61.203 57.772 0c0 0-30.717-38.126-57.772 0z"/><path fill="#040204" d="M-77.198 341.29s-22.738-96.716-54.723-122.817c0 0-3.28 132.226 54.723 122.817zM-45.388 225.718s19.963 26.357 57.696 26.113l2.787-6.706c.001 0-31.932 6.098-60.483-19.407z"/><path stroke="#D09E78" stroke-width="2" stroke-miterlimit="10" d="M-38.9 101.985s65.461-6.229 71.254 59.797" fill="none"/><path fill="#BE1E2D" d="M85.777 128.239c0 1.97-1.543 3.566-3.446 3.566-1.904 0-3.447-1.597-3.447-3.566 0-1.969 1.543-3.564 3.447-3.564 1.903 0 3.446 1.595 3.446 3.564z"/><path fill="#D09E78" d="M19.551 164.12s20.491 24.362 25.605-4.073c0 0-6.457 20.05-25.605 4.073z"/><path fill="#881726" d="M170.353 28.448c-13.825-23.426-61.948-84.939-129.874 46.987l-9.261-14.674s88.179-156.172 149.521-39.475c-5.301.274-8.763 3.289-10.386 7.162z"/><path fill="#fff" d="M166.481 22.63l3.756 9.078 12.522-7.201-5.008-9.393z"/><path fill="#E8BF9B" d="M169.902 30.001c1.174-3.881 5.37-6.326 9.325-5.432l2.971.672c3.955.895 9.677-.572 12.715-3.258l8.002-7.072c3.037-2.686 7.853-2.52 10.699.367l.967.978c2.848 2.889 2.428 7.108-.932 9.377l-10.203 6.895c-3.359 2.27-2.909 5.004 1.002 6.076l22.583 6.191c3.91 1.072 6.372 5.184 5.47 9.137l-.478 2.096c-.903 3.951-4.804 6.188-8.67 4.965l-22.35-7.062c-3.866-1.223-4.68.121-1.809 2.984l11.667 11.635c2.871 2.863 3.363 7.605 1.094 10.539-2.27 2.936-6.543 3.064-9.498.287l-20.105-18.898c-2.954-2.777-5.863-1.77-6.467 2.242l-.555 3.686c-.602 4.01-4.381 6.834-8.397 6.277l-2.238-.309c-4.017-.557-6.343-4.188-5.169-8.07l10.376-34.303z"/></symbol><radialGradient id="c" cx="-389.921" cy="797.625" r="231.349" gradientTransform="matrix(1 0 0 -1 694 904.946)" gradientUnits="userSpaceOnUse"><stop offset="0" stop-color="#752104"/><stop offset="1" stop-color="#3D1004"/></radialGradient><path fill="url(#c)" d="M-3.359-4.604h614.875v223.85h-614.875z"/><path fill="#BC9F77" d="M0 215.923h609.355v83.81h-609.355z"/><path fill="#9C8156" d="M0 277.725h609.355v22.008h-609.355z"/><path fill="#7F6846" d="M0 296.494h609.355v3.452h-609.355z"/><path stroke="#9C8156" stroke-miterlimit="10" fill="none" d="M0 222.478h609.355M609.355 272.106h-609.355M287.844 222.478c.535 0-12.678 49.629-12.678 49.629M267.463 222.478c.535 0-25.795 49.629-25.795 49.629M241.982 222.478c.535 0-43.982 49.629-43.982 49.629M211.629 222.478c.543 0-74.246 50.711-73.275 49.629M174.985 222.478c.543 0-101.504 50.711-100.534 49.629M134.214 222.478c.543 0-128.185 50.711-127.214 49.629M81.699 222.478c-26.699 9.522-54.699 17.522-82.869 26.757"/><g stroke="#9C8156" stroke-miterlimit="10" fill="none"><path d="M308.435 222.478c-.535 0 12.678 49.629 12.678 49.629M328.815 222.478c-.535 0 25.795 49.629 25.795 49.629M354.296 222.478c-.535 0 43.982 49.629 43.982 49.629M384.649 222.478c-.543 0 74.246 50.711 73.275 49.629M421.293 222.478c-.543 0 101.504 50.711 100.534 49.629M462.064 222.478c-.543 0 128.185 50.711 127.214 49.629M514.58 222.478c31.42 11.522 63.42 19.522 95.65 30.845"/></g><path opacity=".15" enable-background="new" d="M500.954-1.279s-13.218 105.294 83.593 126.872l-13.856 128.995h17.101l12.201-167.899-64.803-88.291-34.236.323z"/><path fill="#E31F26" d="M519.607-1.602s3.014 105.23 67.561 125.326l-10.67 130.847h32.979v-255.85l-89.87-.323z"/><path opacity=".1" fill="#1D1C1A" stroke="#636463" stroke-width=".645" stroke-miterlimit="10" enable-background="new" d="M535.19-1.602s4.022 92.336 56.202 125.941c0 0-45.244-36.001-46.148-125.941h-10.054z"/><path opacity=".1" fill="#1D1C1A" stroke="#636463" stroke-width=".604" stroke-miterlimit="10" enable-background="new" d="M563.292-1.444s-1.334 81.545 29.911 125.784c0 0-24.182-50.475-16.704-125.619l-13.207-.165z"/><path opacity=".1" fill="#1D1C1A" stroke="#636463" stroke-width=".483" stroke-miterlimit="10" enable-background="new" d="M588.774-1.113s-5.903 80.316 11.218 126.075c0 0-12.487-51.726-3.014-126.285l-8.204.21z"/><path fill="#F2BD38" d="M609.478 108.997s-8.749 14.889-24.931 13.847c0 0 16.674 9.919 24.931-13.847z"/><path opacity=".1" fill="#1D1C1A" stroke="#636463" stroke-width=".699" stroke-miterlimit="10" enable-background="new" d="M589.214 126.697l-4.779 127.896 4.684-.279v-129.483M595.12 126.743l3.908 127.845 4.679-.414-8.712-129.292"/><path opacity=".15" enable-background="new" d="M107.147-1.279s13.218 105.294-83.593 126.872l13.856 128.995h-17.101l-12.201-167.9 64.802-88.29 34.237.323z"/><path fill="#E31F26" d="M88.494-1.602s-3.014 105.23-67.561 125.326l10.67 130.847h-32.98v-255.85l89.871-.323z"/><path opacity=".1" fill="#1D1C1A" stroke="#636463" stroke-width=".645" stroke-miterlimit="10" enable-background="new" d="M72.911-1.602s-4.022 92.336-56.202 125.941c0 0 45.244-36.001 46.148-125.941h10.054z"/><path opacity=".1" fill="#1D1C1A" stroke="#636463" stroke-width=".604" stroke-miterlimit="10" enable-background="new" d="M44.81-1.444s1.334 81.545-29.911 125.784c0 0 24.182-50.475 16.704-125.619l13.207-.165z"/><path opacity=".1" fill="#1D1C1A" stroke="#636463" stroke-width=".483" stroke-miterlimit="10" enable-background="new" d="M19.327-1.113s5.903 80.316-11.218 126.075c0 0 12.487-51.726 3.014-126.285l8.204.21z"/><path fill="#F2BD38" d="M-1.377 108.997s8.749 14.889 24.931 13.847c0 0-16.674 9.919-24.931-13.847z"/><path opacity=".1" fill="#1D1C1A" stroke="#636463" stroke-width=".699" stroke-miterlimit="10" enable-background="new" d="M18.887 126.697l4.779 127.896-4.684-.279v-129.483M12.981 126.743l-3.908 127.845-4.679-.414 8.712-129.292"/><use xlink:href="#d" width="465.376" height="766.439" x="-232.689" y="-383.22" transform="matrix(.271 0 0 -.271 375.403 168.085)" overflow="visible"/><path fill="#B42025" d="M256.631 152.919s9.298 13.633 8.678 13.427c-.62-.206-8.056 5.992-8.056 5.992l-3.929-7.024 3.307-12.395z"/><path fill="#231F20" d="M227.609 203.446l25.483-1.196-.906 36.091-2.187-.199.545-22.734-19.658-1.594-.547 24.328h-2.728z"/><path opacity=".15" fill="#231F20" d="M287.519 242.569c0 2.071-21.229 3.747-47.421 3.747-26.188 0-47.416-1.675-47.416-3.747 0-2.065 21.228-3.742 47.416-3.742 26.192.001 47.421 1.677 47.421 3.742z"/><path fill="#231F20" d="M251.752 238.569s1.882 2.99 6.432 2.99l.122.932s-5.825.464-7.583-2.331l.117 2.13-1.937-.201.606-3.853 2.243.333zM227.498 238.517s-1.883 2.991-6.433 2.991l-.122.933s5.825.465 7.583-2.329l-.119 2.129 1.94-.204-.606-3.848-2.243.328z"/><path fill="#B42025" d="M256.839 150.648l-34.967 5.033 3.136 49.919 13.556-.782 1.835-6.537 1.838 8.046 9.633-1.509zM221.872 155.681l-14.383 16.608 8.235 2.528 11.919-5.658z"/><image overflow="visible" opacity=".3" width="188" height="85" xlink:href="5AE4D407CC08F0E7.png" transform="translate(149.632 147.927)"/><path fill="#fff" d="M156.517 174.746l170.254-24.071 7.08 50.075-170.254 24.071zM161.628 178.713l161.474-23.247 5.989 41.599-161.474 23.247z"/><text transform="matrix(.992 -.13 .13 .992 170.855 202.276)" fill="#B42025" font-family="'ChunkFive-Roman'" font-size="30.289">Front-End</text><text transform="matrix(.992 -.13 .13 .992 172.991 210.81)" fill="#B4B4B5" font-family="'Helvetica'" font-size="9.989" letter-spacing="4">design conference</text><path stroke="#BBBCBB" stroke-width=".379" fill="none" d="M161.515 178.589l162.92-23.034 5.977 42.274-162.92 23.034z"/><path fill="#E8BF9B" d="M267.928 213.964c-.7.582-1.787.521-2.416-.137l-.426-.446c-.629-.658-1.882-1.09-2.783-.961l-2.278.326c-.901.129-1.781-.496-1.956-1.39l-.047-.242c-.174-.893.427-1.633 1.338-1.644l2.654-.031c.91-.011 1.163-.579.563-1.263l-3.368-3.834c-.601-.684-.555-1.759.102-2.389l.302-.289c.657-.63 1.664-.567 2.237.14l3.22 3.969c.573.707.892.556.707-.335l-.724-3.501c-.184-.891.298-1.836 1.071-2.099s1.578.246 1.789 1.132l1.393 5.863c.21.886.881 1.056 1.489.379l.51-.568c.609-.677 1.667-.74 2.351-.14l.331.29c.685.6.672 1.567-.027 2.149l-6.032 5.021zM212.493 222.075c.875.25 1.845-.246 2.155-1.102l.211-.582c.31-.856 1.28-1.758 2.157-2.004l2.215-.623c.876-.246 1.428-1.174 1.227-2.062l-.055-.241c-.202-.888-1.051-1.321-1.888-.962l-2.44 1.045c-.837.358-1.298-.059-1.025-.928l1.53-4.87c.273-.868-.204-1.833-1.06-2.143l-.391-.142c-.856-.31-1.751.155-1.99 1.033l-1.341 4.933c-.239.878-.591.869-.783-.021l-.754-3.498c-.192-.89-1.014-1.558-1.827-1.486-.813.073-1.343.865-1.178 1.76l1.095 5.925c.165.895-.378 1.322-1.208.949l-.696-.313c-.83-.373-1.823-.003-2.207.822l-.186.399c-.383.826.019 1.705.894 1.955l7.545 2.156z"/><path fill="#E7BE9A" d="M263.473 99.387s3.055-7.442 9.459-3.036c7.986 5.5-4.406 11.338-4.406 11.338s-3.917 1.903-1.893 6.14c2.029 4.235 2.226 5.851.763 6.581-1.463.727-4.776-.342-5.218-2.967-1.915-11.343 1.295-18.056 1.295-18.056z"/><g fill="#D09D79"><path d="M263.828 107.278s4.667-14.978 5.874-3.667c0 0-1.867-6.176-5.874 3.667zM263.79 107.323s3.599-7.57 2.872 1.795c0 0-.116-5.957-2.872-1.795z"/></g><path fill="#E7BE9A" d="M264.849 99.598c-.697 8.174-.296 21.503.891 29.62l1.446 9.89c1.187 8.117-4.241 16.785-12.062 19.262l-7.022 2.224c-7.821 2.477-19.243 2.556-25.382.175-6.139-2.38-12.746-10.851-14.682-18.823l-4.06-16.724c-1.936-7.972-2.814-21.169-1.953-29.328l1.047-9.913c.861-8.158 5.754-17.622 10.872-21.03 5.118-3.408 15.744-4.299 23.613-1.981l9.366 2.76c7.869 2.319 15.675 4.396 17.347 4.616s2.469 7.088 1.772 15.261l-1.193 13.991z"/><path fill="#D19E78" d="M233.883 123.213s7.156 5.668 18.708 0c0 0-9.355 14.732-18.708 0z"/><path fill="#CA8C84" d="M233.296 135.067s-3.282 12.553 2.326 16.595c0 0-9.935 2.425-11.08 1.686 0 0-1.574-.721-1.757-5.041 0 0 .304-14.028 1.76-18.192 0-.001 6.612 5.105 8.751 4.952z"/><path fill="#6C302A" d="M230.442 152.632s-3.658-12.033-7.498-9.097c0 0-.791 10.583 2.657 10.012l4.841-.915z"/><path fill="#fff" d="M242.75 150.246l-1.346-4.76-17.956 6.483s.458 2.012 2.689 1.747l16.613-3.47z"/><path fill="#A37F5F" d="M228.586 127.164s-6.686-1.866-7.656 6.148c-.001-.001 1.494-5.586 7.656-6.148z"/><path fill="#fff" d="M252.855 135.186l1.189 4.657s-17.447 9.505-30.382-5.114l.884-4.616c-.001.001 15.522 13.264 28.309 5.073z"/><path stroke="#A37F5F" stroke-width=".515" d="M242.392 153.63c4.298.439 1.526-3.67 1.526-3.67s-12.584 2.899-18.318 3.588c-5.742.686-1.056-23.433-1.056-23.433 17.053 11.987 26.76 7.803 32.031 1.657" fill="none"/><path fill="#CA8C84" d="M223.614 142.706l.386 3.226-.693.197.121.753 2.442-.468-.265-1.083-.881.052-.181-2.216z"/><path fill="#D19E78" d="M204.012 125.323s2.881-3.527 3.117-5.817c0 0 .293 5.693-2.587 8.044l-.53-2.227zM238.25 111.665s-12.358-17.339-22.268 1.986c.001 0 13.76 16.475 22.268-1.986z"/><path fill="#fff" d="M238.25 111.665s-11.007-12.164-21.548 1.688c.001 0 9.186 8.419 21.548-1.688z"/><defs><path id="e" d="M238.089 111.728s-13.396-14.807-26.227 2.055c0 0 11.182 10.248 26.227-2.055z"/></defs><clipPath id="f"><use xlink:href="#e" overflow="visible"/></clipPath><path clip-path="url(#f)" fill="#008AC0" d="M232.239 112.708c-.56-2.078.588-4.236 2.566-4.826 1.973-.587 4.025.622 4.583 2.699.558 2.079-.59 4.238-2.565 4.826-1.975.589-4.027-.621-4.584-2.699z"/><path clip-path="url(#f)" fill="#231F20" d="M234.299 112.096c-.238-.881.248-1.796 1.087-2.045.838-.249 1.707.264 1.944 1.144.235.882-.25 1.796-1.088 2.046-.837.249-1.707-.263-1.943-1.145z"/><path clip-path="url(#f)" fill="#fff" d="M233.393 111.001c-.13-.483.137-.985.597-1.123.458-.136.936.144 1.066.628.131.485-.137.986-.597 1.124-.459.137-.936-.144-1.066-.629z"/><path fill="#D19E78" d="M263.159 109.913s-10.445-14.657-18.822 1.68c0 0 11.631 13.925 18.822-1.68z"/><path fill="#fff" d="M263.159 109.913s-9.303-10.283-18.213 1.425c0 0 7.765 7.117 18.213-1.425z"/><path fill="#3B2517" d="M212.507 105.939l-1.37-3.503s12.302-12.422 24.936-.875l-.488.525c-.001 0-14.6-6.47-23.078 3.853zM264.393 103.929l1.338-3.64s-11.771-9.713-21.841 1.531l.131.434s12.111-6.557 20.372 1.675z"/><defs><path id="g" d="M263.565 110.089s-11.021-12.182-21.578 1.691c0 0 9.199 8.43 21.578-1.691z"/></defs><clipPath id="h"><use xlink:href="#g" overflow="visible"/></clipPath><path clip-path="url(#h)" fill="#008ABF" d="M257.917 110.802c-.462-1.709.482-3.485 2.109-3.97 1.623-.483 3.311.513 3.771 2.222.459 1.711-.485 3.487-2.111 3.97-1.623.483-3.312-.511-3.769-2.222z"/><path clip-path="url(#h)" fill="#231F20" d="M261.286 110.299c-.195-.724.205-1.477.896-1.682.688-.205 1.402.216 1.598.94.195.726-.205 1.479-.895 1.684-.688.205-1.404-.217-1.599-.942z"/><path clip-path="url(#h)" fill="#fff" d="M260.541 109.399c-.107-.397.114-.811.492-.923.377-.113.77.119.878.516.106.398-.113.812-.492.925-.379.112-.771-.12-.878-.518z"/><path fill="#3B2517" d="M204.012 125.323l2.292-.376 1.022-41.33 56.123-8.038 1.422 23.834s.931-30.844 10.783-49.387c0 0-11.568 8.588-20.36 13.074l-6.941-15.281-4.262 7.851-5.984-4.913-4.672 5.194s-6.717-4.622-18.918-1.484c0 0 2.401 2.044 3.733 2.886 0 0-18.382 1.682-23.178 11.496 0 0 2.665-2.524 5.328-2.524 0 0-7.192 17.104-1.865 25.515 0 0 2.93 3.365 2.93 6.45l2.547 27.033z"/><path opacity=".55" fill="#D19E78" d="M207.603 89.817l55.847-14.237-56.123 8.038.276 6.672"/><path fill="#E7BE9A" d="M202.196 98.394s-4.427-10.781-13.704-4.396c-11.568 7.967 6.383 16.425 6.383 16.425s5.675 2.756 2.742 8.894c-2.941 6.136-3.226 8.475-1.106 9.534 2.119 1.053 6.919-.495 7.561-4.298 2.772-16.433-1.876-26.159-1.876-26.159z"/><g fill="#D09D79"><path d="M201.68 109.825s-6.76-21.696-8.509-5.311c0 0 2.705-8.948 8.509 5.311zM201.737 109.891s-5.213-10.964-4.161 2.602c0-.001.166-8.63 4.161-2.602z"/></g></svg>