<svg xmlns="http://www.w3.org/2000/svg" width="16" height="16"><path fill="#010101" d="M8 .784c-3.985 0-7.216 3.23-7.216 7.216s3.231 7.216 7.216 7.216 7.216-3.23 7.216-7.216-3.231-7.216-7.216-7.216zm1.48 11.752l-.192.078c-.389.156-.695.263-.935.326-.258.068-.477.102-.67.102-.434 0-.774-.126-1.014-.374-.234-.243-.353-.545-.353-.897l.028-.353.085-.41.639-2.574.089-.431.038-.337-.01-.152-.157-.01-.276.035-.308.065-.643.17.288-1.227.181-.081c.33-.149.634-.261.902-.335.287-.078.516-.116.698-.116.442 0 .782.121 1.009.36.221.234.333.54.333.91l-.027.347-.082.424-.642 2.567-.101.443-.037.294.02.169.23.029.272-.026.245-.051.698-.258-.308 1.313zm.256-7.541c-.224.258-.52.394-.857.394-.316 0-.603-.13-.826-.375-.218-.238-.328-.517-.328-.828 0-.322.109-.607.326-.848.225-.249.511-.38.828-.38.34 0 .635.125.854.359.213.228.325.509.325.814.001.328-.108.619-.322.864z"/></svg>