<?xml version="1.0" encoding="utf-8"?>
<!-- Generator: Adobe Illustrator 18.1.0, SVG Export Plug-In . SVG Version: 6.00 Build 0)  -->
<svg version="1.1" id="Layer_1" xmlns="http://www.w3.org/2000/svg" xmlns:xlink="http://www.w3.org/1999/xlink" x="0px" y="0px"
	 viewBox="0 0 405.3 175.3" enable-background="new 0 0 405.3 175.3" xml:space="preserve">
<g>
	<g>
		<g>
			<g>
				<ellipse fill="#B9333A" cx="56.3" cy="17.9" rx="11.8" ry="13.9"/>
				<g>
					<g>
						<path fill="#FFFFFF" d="M57.5,14.7c0-0.7-0.2-1.3-0.6-1.8c-0.4-0.5-0.9-0.7-1.5-0.7c-0.5,0-0.9,0.1-1.2,0.5
							c-0.2,0.2-0.3,0.4-0.4,0.7c0.2-0.1,0.4-0.2,0.6-0.2c0.4,0,0.7,0.1,0.9,0.3c0.2,0.2,0.3,0.5,0.3,0.8c0,0.4-0.1,0.7-0.4,1
							c-0.3,0.3-0.7,0.4-1.1,0.4c-0.4,0-0.8-0.2-1.1-0.5c-0.3-0.4-0.4-0.8-0.4-1.3c0-0.9,0.3-1.7,1-2.2c0.7-0.6,1.6-0.9,2.7-0.9
							c1.1,0,2,0.3,2.7,1c0.7,0.7,1,1.6,1,2.7c0,1-0.3,1.8-1,2.4c-0.4,0.4-1,0.6-1.6,0.8c0.7,0.1,1.3,0.4,1.7,0.8
							c0.7,0.6,1,1.4,1,2.5c0,1.2-0.4,2.1-1.1,2.9c-0.8,0.8-1.7,1.2-2.8,1.2c-1.1,0-2.1-0.3-2.8-0.9c-0.8-0.6-1.1-1.3-1.1-2.2
							c0-0.5,0.2-1,0.5-1.3c0.3-0.4,0.7-0.5,1.2-0.5c0.4,0,0.7,0.1,0.9,0.4c0.2,0.3,0.4,0.6,0.4,1c0,0.3-0.1,0.6-0.3,0.8
							s-0.4,0.3-0.7,0.3c-0.2,0-0.4-0.1-0.6-0.2c0.1,0.3,0.2,0.5,0.5,0.7c0.4,0.3,0.8,0.5,1.4,0.5c0.6,0,1.2-0.2,1.5-0.7
							c0.4-0.5,0.6-1.1,0.6-1.9c0-0.9-0.2-1.5-0.7-1.9c-0.4-0.4-1.1-0.6-2-0.6h-0.1v-1.2h0c0.9,0,1.5-0.2,2-0.6
							C57.3,16.2,57.5,15.6,57.5,14.7z"/>
					</g>
				</g>
			</g>
			<g>
				<ellipse fill="#111424" cx="84.2" cy="17.9" rx="11.9" ry="13.9"/>
				<g>
					<g>
						<path fill="#FFFFFF" d="M84.6,10.9c1,0,1.8,0.3,2.5,0.8c0.7,0.5,1,1.2,1,2c0,0.5-0.1,0.9-0.4,1.2c-0.3,0.3-0.6,0.5-1,0.5
							c-0.4,0-0.7-0.1-1-0.3c-0.3-0.2-0.4-0.5-0.4-0.9c0-0.4,0.1-0.7,0.3-0.9c0.2-0.2,0.4-0.3,0.7-0.3c0.2,0,0.3,0,0.4,0.1
							c-0.1-0.2-0.2-0.4-0.3-0.5c-0.3-0.3-0.7-0.4-1.2-0.4c-0.8,0-1.3,0.4-1.7,1.2c-0.4,0.8-0.5,2.1-0.5,3.8l0,0.2
							c0.5-0.5,1.1-0.7,1.8-0.7c1.1,0,1.9,0.3,2.5,1c0.6,0.7,0.8,1.6,0.8,2.9c0,1.6-0.3,2.7-1,3.5c-0.6,0.8-1.6,1.1-3,1.1
							c-1.4,0-2.4-0.5-3-1.5c-0.6-1-0.9-2.5-0.9-4.7c0-2.8,0.4-4.8,1.1-6.1C82,11.5,83.1,10.9,84.6,10.9z M82.9,20.8
							c0,1,0.1,1.7,0.3,2.2c0.2,0.4,0.6,0.7,1,0.7c0.5,0,0.8-0.2,1-0.7c0.2-0.4,0.3-1.2,0.3-2.2c0-1-0.1-1.7-0.3-2.1
							c-0.2-0.5-0.6-0.7-1-0.7c-0.5,0-0.8,0.2-1,0.7C83,19.1,82.9,19.8,82.9,20.8z"/>
					</g>
				</g>
			</g>
			<g>
				<ellipse fill="#B9333A" cx="112" cy="17.9" rx="11.8" ry="13.9"/>
				<g>
					<g>
						<path fill="#FFFFFF" d="M111.6,25.1c-1,0-1.8-0.3-2.4-0.8c-0.6-0.5-0.9-1.2-0.9-2c0-0.5,0.1-0.9,0.4-1.2
							c0.3-0.3,0.6-0.5,1-0.5c0.4,0,0.7,0.1,1,0.3c0.3,0.2,0.4,0.5,0.4,0.9c0,0.4-0.1,0.7-0.3,0.9c-0.2,0.2-0.4,0.3-0.7,0.3
							c-0.2,0-0.3,0-0.5-0.1c0.1,0.2,0.2,0.4,0.4,0.5c0.3,0.3,0.7,0.4,1.1,0.4c0.8,0,1.4-0.3,1.7-1c0.3-0.6,0.5-1.8,0.5-3.3v-0.8
							c-0.5,0.5-1.1,0.7-1.8,0.7c-1.1,0-1.9-0.3-2.5-1c-0.6-0.7-0.8-1.6-0.8-2.9c0-1.5,0.3-2.6,1-3.4c0.7-0.8,1.7-1.2,2.9-1.2
							c1.4,0,2.5,0.5,3,1.5c0.6,1,0.9,2.8,0.9,5.3c0,2.7-0.3,4.6-1,5.7C114.3,24.5,113.2,25.1,111.6,25.1z M113.4,15.1
							c0-1-0.1-1.7-0.3-2.2c-0.2-0.4-0.6-0.7-1-0.7c-0.5,0-0.8,0.2-1,0.7c-0.2,0.4-0.3,1.2-0.3,2.2c0,1,0.1,1.7,0.3,2.1
							c0.2,0.4,0.6,0.7,1,0.7c0.5,0,0.8-0.2,1-0.7C113.3,16.8,113.4,16.1,113.4,15.1z"/>
					</g>
				</g>
			</g>
			<g>
				<ellipse fill="#B9333A" cx="139.9" cy="17.9" rx="11.9" ry="13.9"/>
				<g>
					<g>
						<path fill="#FFFFFF" d="M134.1,22.8v-8.7h-1.6v-1.4c0.9,0,1.6-0.1,2.2-0.4c0.3-0.2,0.6-0.6,0.9-1.2h1.1v11.6
							c0,0.2,0,0.4,0.1,0.5c0.1,0.1,0.2,0.1,0.5,0.1h0.6v1.4h-2.7h-2.7v-1.4h1c0.2,0,0.4,0,0.5-0.1C134,23.2,134.1,23,134.1,22.8z"
							/>
						<path fill="#FFFFFF" d="M147.3,14.5c0,0.7-0.2,1.4-0.6,2c-0.4,0.6-1,1.2-1.9,1.8c-1.8,1.3-3,2.3-3.5,3.1
							c-0.3,0.4-0.5,1-0.6,1.6c0-0.1,0.1-0.2,0.1-0.2c0.4-0.4,0.8-0.6,1.4-0.6c0.1,0,0.3,0,0.6,0.1c0.3,0,0.6,0.1,1,0.2
							c0.1,0,0.3,0,0.5,0.1c0.2,0,0.3,0,0.5,0c0.5,0,0.9-0.2,1.1-0.6c0.3-0.4,0.4-0.9,0.4-1.6h1.2c0,1.6-0.2,2.8-0.6,3.6
							c-0.4,0.8-1,1.2-1.9,1.2c-0.2,0-0.5,0-0.8-0.1c-0.3-0.1-0.6-0.2-0.8-0.3c-0.4-0.2-0.7-0.4-1.1-0.5c-0.4-0.1-0.6-0.2-0.8-0.2
							c-0.2,0-0.5,0.1-0.6,0.2c-0.2,0.2-0.3,0.4-0.4,0.6h-0.6h-0.6c0-1.5,0.3-2.7,0.8-3.8c0.5-1,1.6-2.3,3-3.7
							c0.5-0.5,0.9-1,1.2-1.5c0.3-0.5,0.4-1,0.4-1.6c0-0.6-0.2-1.1-0.5-1.4c-0.4-0.4-0.8-0.6-1.4-0.6c-0.6,0-1,0.2-1.4,0.5
							c-0.3,0.2-0.4,0.5-0.5,0.8c0.2-0.2,0.4-0.3,0.7-0.3c0.3,0,0.5,0.1,0.8,0.4c0.2,0.2,0.3,0.5,0.3,0.8c0,0.4-0.1,0.7-0.4,1
							c-0.3,0.3-0.7,0.4-1.1,0.4c-0.5,0-0.8-0.2-1.1-0.6c-0.3-0.4-0.4-0.8-0.4-1.4c0-0.9,0.4-1.6,1.1-2.2c0.7-0.6,1.6-0.9,2.6-0.9
							c1.2,0,2.1,0.4,2.9,1.1C146.9,12.6,147.3,13.5,147.3,14.5z"/>
					</g>
				</g>
			</g>
			<g>
				<ellipse fill="#111424" cx="167.8" cy="17.9" rx="11.9" ry="13.9"/>
				<g>
					<g>
						<path fill="#FFFFFF" d="M162.1,22.8v-8.7h-1.6v-1.4c0.9,0,1.6-0.1,2.2-0.4c0.3-0.2,0.6-0.6,0.9-1.2h1.1v11.6
							c0,0.2,0,0.4,0.1,0.5c0.1,0.1,0.3,0.1,0.5,0.1h0.6v1.4h-2.7h-2.7v-1.4h1c0.2,0,0.4,0,0.5-0.1C162.1,23.2,162.1,23,162.1,22.8z
							"/>
						<path fill="#FFFFFF" d="M175.2,20.1c0,1.5-0.4,2.7-1.1,3.6c-0.7,0.9-1.7,1.3-3,1.3c-1.1,0-2-0.3-2.7-0.8c-0.6-0.5-1-1.3-1-2.3
							c0-0.5,0.2-1,0.5-1.4c0.3-0.4,0.7-0.6,1.2-0.6c0.4,0,0.7,0.1,1,0.4c0.3,0.3,0.4,0.6,0.4,1c0,0.4-0.1,0.7-0.3,0.9
							c-0.2,0.2-0.5,0.3-0.8,0.3c-0.3,0-0.6-0.1-0.8-0.4c0.1,0.3,0.2,0.6,0.5,0.9c0.4,0.3,0.8,0.5,1.4,0.5c0.7,0,1.2-0.3,1.6-0.9
							c0.3-0.6,0.5-1.4,0.5-2.6c0-1-0.2-1.8-0.5-2.3c-0.3-0.5-0.8-0.8-1.4-0.8c-0.4,0-0.8,0.2-1.2,0.5c-0.3,0.3-0.5,0.7-0.6,1.2
							h-1.2l0.3-7.7c1.8,0.2,3.3,0.4,4.6,0.4c0.6,0,1.4-0.1,2.3-0.4c-0.2,1.1-0.7,1.8-1.5,2.1c-0.8,0.3-2.2,0.3-4.1,0.2l-0.2,3.3
							c0.6-0.7,1.4-1,2.3-1c1.2,0,2.2,0.4,2.8,1.1C174.8,17.6,175.2,18.7,175.2,20.1z"/>
					</g>
				</g>
			</g>
			<g>
				<ellipse fill="#B9333A" cx="195.7" cy="17.9" rx="11.8" ry="13.9"/>
				<g>
					<g>
						<path fill="#FFFFFF" d="M189.8,22.8v-8.7h-1.6v-1.4c0.9,0,1.6-0.1,2.2-0.4c0.3-0.2,0.6-0.6,0.9-1.2h1.1v11.6
							c0,0.2,0,0.4,0.1,0.5c0.1,0.1,0.3,0.1,0.5,0.1h0.6v1.4h-2.7h-2.7v-1.4h1c0.2,0,0.4,0,0.5-0.1C189.8,23.2,189.8,23,189.8,22.8z
							"/>
						<path fill="#FFFFFF" d="M195.4,14.4c0-1,0.3-1.9,1-2.5c0.7-0.7,1.6-1,2.7-1c1.1,0,1.9,0.3,2.7,0.9c0.7,0.6,1.1,1.4,1.1,2.3
							c0,0.8-0.3,1.5-0.8,2.2c-0.3,0.4-0.7,0.8-1.2,1.1c0.6,0.4,1.1,0.9,1.5,1.4c0.6,0.8,0.9,1.6,0.9,2.5c0,1.1-0.4,2.1-1.2,2.8
							c-0.8,0.7-1.8,1.1-3,1.1c-1.2,0-2.2-0.3-3-1c-0.8-0.7-1.2-1.6-1.2-2.6c0-0.9,0.3-1.7,0.9-2.4c0.4-0.5,0.9-0.9,1.5-1.3
							c-0.5-0.3-0.8-0.7-1.1-1.1C195.6,15.9,195.4,15.2,195.4,14.4z M197.2,21.5c0,0.6,0.2,1.2,0.5,1.6c0.3,0.4,0.8,0.6,1.3,0.6
							c0.5,0,1-0.2,1.3-0.6c0.3-0.4,0.5-0.9,0.5-1.5c0-0.6-0.2-1.2-0.6-1.7c-0.3-0.4-0.9-0.9-1.5-1.3c-0.4,0.4-0.7,0.7-1,1.1
							C197.4,20.4,197.2,21,197.2,21.5z M200.9,14c0-0.5-0.1-0.9-0.4-1.2c-0.3-0.3-0.7-0.5-1.1-0.5c-0.5,0-0.8,0.2-1.1,0.5
							c-0.3,0.3-0.4,0.7-0.4,1.2c0,0.4,0.2,0.9,0.6,1.4c0.3,0.4,0.7,0.8,1.2,1.1c0.3-0.3,0.6-0.5,0.8-0.8
							C200.7,15.1,200.9,14.6,200.9,14z"/>
					</g>
				</g>
			</g>
			<g>
				<ellipse fill="#B9333A" cx="223.6" cy="17.9" rx="11.9" ry="13.9"/>
				<g>
					<g>
						<path fill="#FFFFFF" d="M224,14.5c0,0.7-0.2,1.4-0.6,2c-0.4,0.6-1,1.2-1.9,1.8c-1.8,1.3-3,2.3-3.5,3.1c-0.3,0.4-0.5,1-0.6,1.6
							c0-0.1,0.1-0.2,0.1-0.2c0.4-0.4,0.8-0.6,1.4-0.6c0.1,0,0.3,0,0.6,0.1c0.3,0,0.6,0.1,1,0.2c0.1,0,0.3,0,0.5,0.1
							c0.2,0,0.3,0,0.5,0c0.5,0,0.9-0.2,1.1-0.6c0.3-0.4,0.4-0.9,0.4-1.6h1.2c0,1.6-0.2,2.8-0.6,3.6c-0.4,0.8-1,1.2-1.9,1.2
							c-0.2,0-0.5,0-0.8-0.1c-0.3-0.1-0.6-0.2-0.8-0.3c-0.4-0.2-0.7-0.4-1.1-0.5c-0.4-0.1-0.6-0.2-0.8-0.2c-0.2,0-0.5,0.1-0.6,0.2
							c-0.2,0.2-0.3,0.4-0.4,0.6h-0.6h-0.6c0-1.5,0.3-2.7,0.8-3.8c0.5-1,1.6-2.3,3-3.7c0.5-0.5,0.9-1,1.2-1.5c0.3-0.5,0.4-1,0.4-1.6
							c0-0.6-0.2-1.1-0.5-1.4c-0.4-0.4-0.8-0.6-1.4-0.6c-0.6,0-1,0.2-1.4,0.5c-0.3,0.2-0.4,0.5-0.5,0.8c0.2-0.2,0.4-0.3,0.7-0.3
							c0.3,0,0.5,0.1,0.8,0.4c0.2,0.2,0.3,0.5,0.3,0.8c0,0.4-0.1,0.7-0.4,1c-0.3,0.3-0.7,0.4-1.1,0.4c-0.5,0-0.8-0.2-1.1-0.6
							c-0.3-0.4-0.4-0.8-0.4-1.4c0-0.9,0.4-1.6,1.1-2.2c0.7-0.6,1.6-0.9,2.6-0.9c1.2,0,2.1,0.4,2.9,1.1
							C223.6,12.6,224,13.5,224,14.5z"/>
						<path fill="#FFFFFF" d="M227.4,22.8v-8.7h-1.6v-1.4c0.9,0,1.6-0.1,2.2-0.4c0.3-0.2,0.6-0.6,0.9-1.2h1.1v11.6
							c0,0.2,0,0.4,0.1,0.5c0.1,0.1,0.3,0.1,0.5,0.1h0.6v1.4h-2.7h-2.7v-1.4h1c0.2,0,0.4,0,0.5-0.1C227.4,23.2,227.4,23,227.4,22.8z
							"/>
					</g>
				</g>
			</g>
			<g>
				<ellipse fill="#111424" cx="251.5" cy="17.9" rx="11.8" ry="13.9"/>
				<g>
					<g>
						<path fill="#FFFFFF" d="M251.1,14.5c0,0.7-0.2,1.4-0.6,2c-0.4,0.6-1,1.2-1.9,1.8c-1.8,1.3-3,2.3-3.5,3.1
							c-0.3,0.4-0.5,1-0.6,1.6c0-0.1,0.1-0.2,0.1-0.2c0.4-0.4,0.8-0.6,1.4-0.6c0.1,0,0.3,0,0.6,0.1c0.3,0,0.6,0.1,1,0.2
							c0.1,0,0.3,0,0.5,0.1c0.2,0,0.3,0,0.5,0c0.5,0,0.9-0.2,1.1-0.6c0.3-0.4,0.4-0.9,0.4-1.6h1.2c0,1.6-0.2,2.8-0.6,3.6
							c-0.4,0.8-1,1.2-1.9,1.2c-0.2,0-0.5,0-0.8-0.1c-0.3-0.1-0.6-0.2-0.8-0.3c-0.4-0.2-0.7-0.4-1.1-0.5c-0.4-0.1-0.6-0.2-0.8-0.2
							c-0.2,0-0.5,0.1-0.6,0.2c-0.2,0.2-0.3,0.4-0.4,0.6h-0.6H243c0-1.5,0.3-2.7,0.8-3.8c0.5-1,1.6-2.3,3-3.7c0.5-0.5,0.9-1,1.2-1.5
							c0.3-0.5,0.4-1,0.4-1.6c0-0.6-0.2-1.1-0.5-1.4c-0.4-0.4-0.8-0.6-1.4-0.6c-0.6,0-1,0.2-1.4,0.5c-0.3,0.2-0.4,0.5-0.5,0.8
							c0.2-0.2,0.4-0.3,0.7-0.3c0.3,0,0.5,0.1,0.8,0.4c0.2,0.2,0.3,0.5,0.3,0.8c0,0.4-0.1,0.7-0.4,1c-0.3,0.3-0.7,0.4-1.1,0.4
							c-0.5,0-0.8-0.2-1.1-0.6c-0.3-0.4-0.4-0.8-0.4-1.4c0-0.9,0.4-1.6,1.1-2.2c0.7-0.6,1.6-0.9,2.6-0.9c1.2,0,2.1,0.4,2.9,1.1
							C250.7,12.6,251.1,13.5,251.1,14.5z"/>
						<path fill="#FFFFFF" d="M251.6,21.5v-0.7v-0.7l4.9-9h1.1h1.1v9.1h1.2v1.3h-1.2v1.2c0,0.3,0,0.5,0.1,0.6
							c0.1,0.1,0.3,0.1,0.6,0.1h0.5v1.4h-2.7h-2.7v-1.4h1.1c0.2,0,0.3,0,0.4-0.1c0.1-0.1,0.1-0.3,0.1-0.5v-1.3H251.6z M256.1,20.2
							v-5.9l-3.1,5.8l-0.1,0.1H256.1z"/>
					</g>
				</g>
			</g>
			<g>
				<ellipse fill="#B9333A" cx="279.3" cy="17.9" rx="11.8" ry="13.9"/>
				<g>
					<g>
						<path fill="#FFFFFF" d="M278.9,14.5c0,0.7-0.2,1.4-0.6,2c-0.4,0.6-1,1.2-1.9,1.8c-1.8,1.3-3,2.3-3.5,3.1
							c-0.3,0.4-0.5,1-0.6,1.6c0-0.1,0.1-0.2,0.1-0.2c0.4-0.4,0.8-0.6,1.4-0.6c0.1,0,0.3,0,0.6,0.1c0.3,0,0.6,0.1,1,0.2
							c0.1,0,0.3,0,0.5,0.1c0.2,0,0.3,0,0.5,0c0.5,0,0.9-0.2,1.1-0.6c0.3-0.4,0.4-0.9,0.4-1.6h1.2c0,1.6-0.2,2.8-0.6,3.6
							c-0.4,0.8-1,1.2-1.9,1.2c-0.2,0-0.5,0-0.8-0.1c-0.3-0.1-0.6-0.2-0.8-0.3c-0.4-0.2-0.7-0.4-1.1-0.5c-0.4-0.1-0.6-0.2-0.8-0.2
							c-0.2,0-0.5,0.1-0.6,0.2c-0.2,0.2-0.3,0.4-0.4,0.6h-0.6h-0.6c0-1.5,0.3-2.7,0.8-3.8c0.5-1,1.6-2.3,3-3.7
							c0.5-0.5,0.9-1,1.2-1.5c0.3-0.5,0.4-1,0.4-1.6c0-0.6-0.2-1.1-0.5-1.4s-0.8-0.6-1.4-0.6c-0.6,0-1,0.2-1.4,0.5
							c-0.3,0.2-0.4,0.5-0.5,0.8c0.2-0.2,0.4-0.3,0.7-0.3c0.3,0,0.5,0.1,0.8,0.4c0.2,0.2,0.3,0.5,0.3,0.8c0,0.4-0.1,0.7-0.4,1
							c-0.3,0.3-0.7,0.4-1.1,0.4c-0.5,0-0.8-0.2-1.1-0.6c-0.3-0.4-0.4-0.8-0.4-1.4c0-0.9,0.4-1.6,1.1-2.2c0.7-0.6,1.6-0.9,2.6-0.9
							c1.2,0,2.1,0.4,2.9,1.1C278.5,12.6,278.9,13.5,278.9,14.5z"/>
						<path fill="#FFFFFF" d="M280.9,24.8c0.2-2,0.7-4.1,1.7-6.3c0.8-1.8,1.9-3.7,3.3-5.6c-0.6,0.3-1.2,0.5-1.8,0.5
							c-0.1,0-0.2,0-0.3,0c-0.1,0-0.3,0-0.4-0.1c-0.7-0.1-1.1-0.2-1.1-0.2c-0.5,0-0.8,0.2-1,0.5c-0.2,0.4-0.3,0.9-0.3,1.6h-1.2v-4.2
							h1.2v0.9c0.6-0.6,1.3-0.9,2.2-0.9c0.1,0,0.3,0,0.5,0c0.2,0,0.4,0.1,0.5,0.1c0.4,0.1,0.8,0.2,1.1,0.3c0.3,0.1,0.6,0.1,0.7,0.1
							c0.2,0,0.3-0.1,0.5-0.2c0.1-0.1,0.3-0.3,0.4-0.5h0.6h0.6c0,0.2-0.2,0.7-0.5,1.4c-0.3,0.8-0.9,1.8-1.6,3.2
							c-0.8,1.5-1.2,2.8-1.5,4c-0.2,1.2-0.4,2.9-0.4,5.1H280.9z"/>
					</g>
				</g>
			</g>
			<g>
				<ellipse fill="#B9333A" cx="307.2" cy="17.9" rx="11.9" ry="13.9"/>
				<g>
					<g>
						<path fill="#FFFFFF" d="M304.2,14.7c0-0.7-0.2-1.3-0.6-1.8c-0.4-0.5-0.9-0.7-1.5-0.7c-0.5,0-0.9,0.1-1.2,0.5
							c-0.2,0.2-0.3,0.4-0.4,0.7c0.2-0.1,0.4-0.2,0.6-0.2c0.4,0,0.7,0.1,0.9,0.3c0.2,0.2,0.3,0.5,0.3,0.8c0,0.4-0.1,0.7-0.4,1
							c-0.3,0.3-0.7,0.4-1.1,0.4c-0.4,0-0.8-0.2-1.1-0.5c-0.3-0.4-0.4-0.8-0.4-1.3c0-0.9,0.3-1.7,1-2.2c0.7-0.6,1.6-0.9,2.7-0.9
							c1.1,0,2,0.3,2.7,1c0.7,0.7,1,1.6,1,2.7c0,1-0.3,1.8-1,2.4c-0.4,0.4-1,0.6-1.6,0.8c0.7,0.1,1.3,0.4,1.7,0.8
							c0.7,0.6,1,1.4,1,2.5c0,1.2-0.4,2.1-1.1,2.9c-0.8,0.8-1.7,1.2-2.8,1.2c-1.1,0-2.1-0.3-2.8-0.9c-0.8-0.6-1.1-1.3-1.1-2.2
							c0-0.5,0.2-1,0.5-1.3c0.3-0.4,0.7-0.5,1.2-0.5c0.4,0,0.7,0.1,0.9,0.4c0.2,0.3,0.4,0.6,0.4,1c0,0.3-0.1,0.6-0.3,0.8
							c-0.2,0.2-0.4,0.3-0.7,0.3c-0.2,0-0.4-0.1-0.6-0.2c0.1,0.3,0.2,0.5,0.5,0.7c0.4,0.3,0.8,0.5,1.4,0.5c0.6,0,1.2-0.2,1.5-0.7
							c0.4-0.5,0.6-1.1,0.6-1.9c0-0.9-0.2-1.5-0.7-1.9c-0.5-0.4-1.1-0.6-2-0.6h-0.1v-1.2h0c0.9,0,1.5-0.2,2-0.6
							C304,16.2,304.2,15.6,304.2,14.7z"/>
						<path fill="#FFFFFF" d="M308.6,23.5c-0.6-1-0.8-2.9-0.8-5.6c0-2.7,0.3-4.5,0.8-5.5c0.5-1,1.6-1.5,3-1.5c1.5,0,2.5,0.5,3,1.5
							c0.5,1,0.8,2.8,0.8,5.4v0.1c0,2.7-0.3,4.6-0.8,5.6c-0.6,1-1.6,1.5-3,1.5C310.2,25.1,309.2,24.6,308.6,23.5z M312.7,22.4
							c0.2-0.8,0.3-2.3,0.3-4.5c0-2.2-0.1-3.6-0.3-4.4c-0.2-0.8-0.5-1.2-1-1.2c-0.5,0-0.8,0.4-1,1.2c-0.2,0.8-0.3,2.3-0.3,4.4
							c0,2.2,0.1,3.7,0.3,4.5c0.2,0.8,0.5,1.2,1,1.2C312.2,23.6,312.5,23.2,312.7,22.4z"/>
					</g>
				</g>
			</g>
			<g>
				<ellipse fill="#111424" cx="335.1" cy="17.9" rx="11.8" ry="13.9"/>
				<g>
					<g>
						<path fill="#FFFFFF" d="M332,14.7c0-0.7-0.2-1.3-0.6-1.8c-0.4-0.5-0.9-0.7-1.5-0.7c-0.5,0-0.9,0.1-1.2,0.5
							c-0.2,0.2-0.3,0.4-0.4,0.7c0.2-0.1,0.4-0.2,0.6-0.2c0.4,0,0.7,0.1,0.9,0.3c0.2,0.2,0.3,0.5,0.3,0.8c0,0.4-0.1,0.7-0.4,1
							c-0.3,0.3-0.7,0.4-1.1,0.4c-0.4,0-0.8-0.2-1.1-0.5c-0.3-0.4-0.4-0.8-0.4-1.3c0-0.9,0.3-1.7,1-2.2c0.7-0.6,1.6-0.9,2.7-0.9
							c1.1,0,2,0.3,2.7,1c0.7,0.7,1,1.6,1,2.7c0,1-0.3,1.8-1,2.4c-0.4,0.4-1,0.6-1.6,0.8c0.7,0.1,1.3,0.4,1.7,0.8
							c0.7,0.6,1,1.4,1,2.5c0,1.2-0.4,2.1-1.1,2.9c-0.8,0.8-1.7,1.2-2.8,1.2c-1.1,0-2.1-0.3-2.8-0.9c-0.8-0.6-1.1-1.3-1.1-2.2
							c0-0.5,0.2-1,0.5-1.3c0.3-0.4,0.7-0.5,1.2-0.5c0.4,0,0.7,0.1,0.9,0.4c0.2,0.3,0.4,0.6,0.4,1c0,0.3-0.1,0.6-0.3,0.8
							c-0.2,0.2-0.4,0.3-0.7,0.3c-0.2,0-0.4-0.1-0.6-0.2c0.1,0.3,0.2,0.5,0.5,0.7c0.4,0.3,0.8,0.5,1.4,0.5c0.6,0,1.2-0.2,1.5-0.7
							c0.4-0.5,0.6-1.1,0.6-1.9c0-0.9-0.2-1.5-0.7-1.9c-0.4-0.4-1.1-0.6-2-0.6h-0.1v-1.2h0c0.9,0,1.5-0.2,2-0.6
							C331.8,16.2,332,15.6,332,14.7z"/>
						<path fill="#FFFFFF" d="M340.7,14.7c0-0.7-0.2-1.3-0.6-1.8c-0.4-0.5-0.9-0.7-1.5-0.7c-0.5,0-0.9,0.1-1.2,0.5
							c-0.2,0.2-0.3,0.4-0.4,0.7c0.2-0.1,0.4-0.2,0.6-0.2c0.4,0,0.7,0.1,0.9,0.3c0.2,0.2,0.3,0.5,0.3,0.8c0,0.4-0.1,0.7-0.4,1
							c-0.3,0.3-0.7,0.4-1.1,0.4c-0.4,0-0.8-0.2-1.1-0.5c-0.3-0.4-0.4-0.8-0.4-1.3c0-0.9,0.3-1.7,1-2.2c0.7-0.6,1.6-0.9,2.7-0.9
							c1.1,0,2,0.3,2.7,1c0.7,0.7,1,1.6,1,2.7c0,1-0.3,1.8-1,2.4c-0.4,0.4-1,0.6-1.6,0.8c0.7,0.1,1.3,0.4,1.7,0.8
							c0.7,0.6,1,1.4,1,2.5c0,1.2-0.4,2.1-1.1,2.9c-0.8,0.8-1.7,1.2-2.8,1.2c-1.1,0-2.1-0.3-2.8-0.9c-0.8-0.6-1.1-1.3-1.1-2.2
							c0-0.5,0.2-1,0.5-1.3c0.3-0.4,0.7-0.5,1.2-0.5c0.4,0,0.7,0.1,0.9,0.4c0.2,0.3,0.4,0.6,0.4,1c0,0.3-0.1,0.6-0.3,0.8
							c-0.2,0.2-0.4,0.3-0.7,0.3c-0.2,0-0.4-0.1-0.6-0.2c0.1,0.3,0.2,0.5,0.5,0.7c0.4,0.3,0.8,0.5,1.4,0.5c0.6,0,1.2-0.2,1.5-0.7
							c0.4-0.5,0.6-1.1,0.6-1.9c0-0.9-0.2-1.5-0.7-1.9c-0.5-0.4-1.1-0.6-2-0.6h-0.1v-1.2h0c0.9,0,1.5-0.2,2-0.6
							C340.5,16.2,340.7,15.6,340.7,14.7z"/>
					</g>
				</g>
			</g>
			<g>
				<ellipse fill="#B9333A" cx="363" cy="17.9" rx="11.9" ry="13.9"/>
				<g>
					<g>
						<path fill="#FFFFFF" d="M359.9,14.7c0-0.7-0.2-1.3-0.6-1.8c-0.4-0.5-0.9-0.7-1.5-0.7c-0.5,0-0.9,0.1-1.2,0.5
							c-0.2,0.2-0.3,0.4-0.4,0.7c0.2-0.1,0.4-0.2,0.6-0.2c0.4,0,0.7,0.1,0.9,0.3c0.2,0.2,0.3,0.5,0.3,0.8c0,0.4-0.1,0.7-0.4,1
							c-0.3,0.3-0.7,0.4-1.1,0.4c-0.4,0-0.8-0.2-1.1-0.5c-0.3-0.4-0.4-0.8-0.4-1.3c0-0.9,0.3-1.7,1-2.2c0.7-0.6,1.6-0.9,2.7-0.9
							c1.1,0,2,0.3,2.7,1c0.7,0.7,1,1.6,1,2.7c0,1-0.3,1.8-1,2.4c-0.4,0.4-1,0.6-1.6,0.8c0.7,0.1,1.3,0.4,1.7,0.8
							c0.7,0.6,1,1.4,1,2.5c0,1.2-0.4,2.1-1.1,2.9c-0.8,0.8-1.7,1.2-2.8,1.2c-1.1,0-2.1-0.3-2.8-0.9c-0.8-0.6-1.1-1.3-1.1-2.2
							c0-0.5,0.2-1,0.5-1.3c0.3-0.4,0.7-0.5,1.2-0.5c0.4,0,0.7,0.1,0.9,0.4c0.2,0.3,0.4,0.6,0.4,1c0,0.3-0.1,0.6-0.3,0.8
							c-0.2,0.2-0.4,0.3-0.7,0.3c-0.2,0-0.4-0.1-0.6-0.2c0.1,0.3,0.2,0.5,0.5,0.7c0.4,0.3,0.8,0.5,1.4,0.5c0.6,0,1.2-0.2,1.5-0.7
							c0.4-0.5,0.6-1.1,0.6-1.9c0-0.9-0.2-1.5-0.7-1.9c-0.4-0.4-1.1-0.6-2-0.6h-0.1v-1.2h0c0.9,0,1.5-0.2,2-0.6
							C359.7,16.2,359.9,15.6,359.9,14.7z"/>
						<path fill="#FFFFFF" d="M367.8,10.9c1,0,1.8,0.3,2.5,0.8c0.7,0.5,1,1.2,1,2c0,0.5-0.1,0.9-0.4,1.2c-0.3,0.3-0.6,0.5-1,0.5
							c-0.4,0-0.7-0.1-1-0.3c-0.3-0.2-0.4-0.5-0.4-0.9c0-0.4,0.1-0.7,0.3-0.9c0.2-0.2,0.4-0.3,0.7-0.3c0.2,0,0.3,0,0.4,0.1
							c-0.1-0.2-0.2-0.4-0.3-0.5c-0.3-0.3-0.7-0.4-1.2-0.4c-0.8,0-1.3,0.4-1.7,1.2c-0.4,0.8-0.5,2.1-0.5,3.8l0,0.2
							c0.5-0.5,1.1-0.7,1.8-0.7c1.1,0,1.9,0.3,2.5,1c0.6,0.7,0.8,1.6,0.8,2.9c0,1.6-0.3,2.7-1,3.5c-0.6,0.8-1.6,1.1-3,1.1
							c-1.4,0-2.4-0.5-3-1.5c-0.6-1-0.9-2.5-0.9-4.7c0-2.8,0.4-4.8,1.1-6.1C365.2,11.5,366.3,10.9,367.8,10.9z M366,20.8
							c0,1,0.1,1.7,0.3,2.2c0.2,0.4,0.6,0.7,1,0.7c0.5,0,0.8-0.2,1-0.7c0.2-0.4,0.3-1.2,0.3-2.2c0-1-0.1-1.7-0.3-2.1
							c-0.2-0.5-0.6-0.7-1-0.7c-0.5,0-0.8,0.2-1,0.7C366.1,19.1,366,19.8,366,20.8z"/>
					</g>
				</g>
			</g>
			<g>
				<ellipse fill="#111424" cx="56.3" cy="52.8" rx="11.8" ry="13.9"/>
				<g>
					<g>
						<path fill="#FFFFFF" d="M60.2,49.4c0,0.7-0.2,1.4-0.6,2c-0.4,0.6-1,1.2-1.9,1.8c-1.8,1.3-3,2.3-3.5,3.1
							c-0.3,0.4-0.5,1-0.6,1.6c0-0.1,0.1-0.2,0.1-0.2c0.4-0.4,0.8-0.6,1.4-0.6c0.1,0,0.3,0,0.6,0.1c0.3,0,0.6,0.1,1,0.2
							c0.1,0,0.3,0,0.5,0.1c0.2,0,0.3,0,0.5,0c0.5,0,0.9-0.2,1.1-0.6c0.3-0.4,0.4-0.9,0.4-1.6h1.2c0,1.6-0.2,2.8-0.6,3.6
							c-0.4,0.8-1,1.2-1.9,1.2c-0.2,0-0.5,0-0.8-0.1c-0.3-0.1-0.6-0.2-0.8-0.3c-0.4-0.2-0.7-0.4-1.1-0.5c-0.4-0.1-0.6-0.2-0.8-0.2
							c-0.2,0-0.5,0.1-0.6,0.2c-0.2,0.2-0.3,0.4-0.4,0.6h-0.6h-0.6c0-1.5,0.3-2.7,0.8-3.8c0.5-1,1.6-2.3,3-3.7
							c0.5-0.5,0.9-1,1.2-1.5c0.3-0.5,0.4-1,0.4-1.6c0-0.6-0.2-1.1-0.5-1.4c-0.4-0.4-0.8-0.6-1.4-0.6c-0.6,0-1,0.2-1.4,0.5
							c-0.3,0.2-0.4,0.5-0.5,0.8c0.2-0.2,0.4-0.3,0.7-0.3c0.3,0,0.5,0.1,0.8,0.4c0.2,0.2,0.3,0.5,0.3,0.8c0,0.4-0.1,0.7-0.4,1
							c-0.3,0.3-0.7,0.4-1.1,0.4c-0.5,0-0.8-0.2-1.1-0.6c-0.3-0.4-0.4-0.8-0.4-1.4c0-0.9,0.4-1.6,1.1-2.2c0.7-0.6,1.6-0.9,2.6-0.9
							c1.2,0,2.1,0.4,2.9,1.1C59.8,47.5,60.2,48.3,60.2,49.4z"/>
					</g>
				</g>
			</g>
			<g>
				<ellipse fill="#B9333A" cx="84.2" cy="52.8" rx="11.9" ry="13.9"/>
				<g>
					<g>
						<path fill="#FFFFFF" d="M88,54.9c0,1.5-0.4,2.7-1.1,3.6c-0.7,0.9-1.7,1.3-3,1.3c-1.1,0-2-0.3-2.7-0.8c-0.6-0.5-1-1.3-1-2.3
							c0-0.5,0.2-1,0.5-1.4c0.3-0.4,0.7-0.6,1.2-0.6c0.4,0,0.7,0.1,1,0.4c0.3,0.3,0.4,0.6,0.4,1c0,0.4-0.1,0.7-0.3,0.9
							c-0.2,0.2-0.5,0.3-0.8,0.3c-0.3,0-0.6-0.1-0.8-0.4c0.1,0.3,0.2,0.6,0.5,0.9c0.4,0.3,0.8,0.5,1.4,0.5c0.7,0,1.2-0.3,1.6-0.9
							c0.3-0.6,0.5-1.4,0.5-2.6c0-1-0.2-1.8-0.5-2.3c-0.3-0.5-0.8-0.8-1.4-0.8c-0.4,0-0.8,0.2-1.2,0.5c-0.3,0.3-0.5,0.7-0.6,1.2
							h-1.2l0.3-7.7c1.8,0.2,3.3,0.4,4.6,0.4c0.6,0,1.4-0.1,2.3-0.4c-0.2,1.1-0.7,1.9-1.5,2.1c-0.8,0.3-2.2,0.3-4.1,0.2l-0.2,3.3
							c0.6-0.7,1.4-1,2.3-1c1.2,0,2.2,0.4,2.8,1.1C87.7,52.5,88,53.5,88,54.9z"/>
					</g>
				</g>
			</g>
			<g>
				<ellipse fill="#111424" cx="112" cy="52.8" rx="11.8" ry="13.9"/>
				<g>
					<g>
						<path fill="#FFFFFF" d="M108.4,49.2c0-1,0.3-1.9,1-2.5c0.7-0.7,1.6-1,2.7-1c1.1,0,1.9,0.3,2.7,0.9c0.7,0.6,1.1,1.4,1.1,2.3
							c0,0.8-0.3,1.5-0.8,2.2c-0.3,0.4-0.7,0.8-1.2,1.1c0.6,0.4,1.1,0.9,1.5,1.4c0.6,0.8,0.9,1.6,0.9,2.5c0,1.1-0.4,2.1-1.2,2.8
							c-0.8,0.7-1.8,1.1-3,1.1c-1.2,0-2.2-0.3-3-1c-0.8-0.7-1.2-1.6-1.2-2.6c0-0.9,0.3-1.7,0.9-2.4c0.4-0.5,0.9-0.9,1.5-1.3
							c-0.5-0.3-0.8-0.7-1.1-1.1C108.6,50.8,108.4,50,108.4,49.2z M110.2,56.4c0,0.6,0.2,1.2,0.5,1.6c0.3,0.4,0.8,0.6,1.3,0.6
							c0.5,0,1-0.2,1.3-0.6c0.3-0.4,0.5-0.9,0.5-1.5c0-0.6-0.2-1.2-0.6-1.7c-0.3-0.4-0.9-0.9-1.5-1.3c-0.4,0.4-0.7,0.7-1,1.1
							C110.4,55.2,110.2,55.8,110.2,56.4z M113.9,48.9c0-0.5-0.1-0.9-0.4-1.2c-0.3-0.3-0.7-0.5-1.1-0.5c-0.5,0-0.8,0.2-1.1,0.5
							c-0.3,0.3-0.4,0.7-0.4,1.2c0,0.4,0.2,0.9,0.6,1.4c0.3,0.4,0.7,0.8,1.2,1.1c0.3-0.3,0.6-0.5,0.8-0.8
							C113.7,50,113.9,49.4,113.9,48.9z"/>
					</g>
				</g>
			</g>
			<g>
				<ellipse fill="#111424" cx="139.9" cy="52.8" rx="11.9" ry="13.9"/>
				<g>
					<g>
						<path fill="#FFFFFF" d="M134.7,57.6V49h-1.6v-1.4c0.9,0,1.6-0.1,2.2-0.4c0.3-0.2,0.6-0.6,0.9-1.2h1.1v11.6
							c0,0.2,0,0.4,0.1,0.5c0.1,0.1,0.3,0.1,0.5,0.1h0.6v1.4h-2.7h-2.7v-1.4h1c0.2,0,0.4,0,0.5-0.1C134.7,58,134.7,57.8,134.7,57.6z
							"/>
						<path fill="#FFFFFF" d="M143,57.6V49h-1.6v-1.4c0.9,0,1.6-0.1,2.2-0.4c0.3-0.2,0.6-0.6,0.9-1.2h1.1v11.6c0,0.2,0,0.4,0.1,0.5
							c0.1,0.1,0.3,0.1,0.5,0.1h0.6v1.4h-2.7h-2.7v-1.4h1c0.2,0,0.4,0,0.5-0.1C143,58,143,57.8,143,57.6z"/>
					</g>
				</g>
			</g>
			<g>
				<ellipse fill="#B9333A" cx="167.8" cy="52.8" rx="11.9" ry="13.9"/>
				<g>
					<g>
						<path fill="#FFFFFF" d="M162,57.6V49h-1.6v-1.4c0.9,0,1.6-0.1,2.2-0.4c0.3-0.2,0.6-0.6,0.9-1.2h1.1v11.6c0,0.2,0,0.4,0.1,0.5
							c0.1,0.1,0.3,0.1,0.5,0.1h0.6v1.4H163h-2.7v-1.4h1c0.2,0,0.4,0,0.5-0.1C161.9,58,162,57.8,162,57.6z"/>
						<path fill="#FFFFFF" d="M167,56.4v-0.7V55l4.9-9h1.1h1.1v9.1h1.2v1.3H174v1.2c0,0.3,0,0.5,0.1,0.6c0.1,0.1,0.3,0.1,0.6,0.1
							h0.5v1.4h-2.7H170v-1.4h1.1c0.2,0,0.3,0,0.4-0.1c0.1-0.1,0.1-0.3,0.1-0.5v-1.3H167z M171.5,55.1v-5.9l-3.1,5.8l-0.1,0.1H171.5
							z"/>
					</g>
				</g>
			</g>
			<g>
				<ellipse fill="#111424" cx="195.7" cy="52.8" rx="11.8" ry="13.9"/>
				<g>
					<g>
						<path fill="#FFFFFF" d="M189.8,57.6V49h-1.6v-1.4c0.9,0,1.6-0.1,2.2-0.4c0.3-0.2,0.6-0.6,0.9-1.2h1.1v11.6
							c0,0.2,0,0.4,0.1,0.5c0.1,0.1,0.3,0.1,0.5,0.1h0.6v1.4h-2.7h-2.7v-1.4h1c0.2,0,0.4,0,0.5-0.1C189.8,58,189.8,57.8,189.8,57.6z
							"/>
						<path fill="#FFFFFF" d="M196.3,59.6c0.2-2,0.7-4.1,1.7-6.3c0.8-1.8,1.9-3.7,3.3-5.6c-0.6,0.3-1.2,0.5-1.8,0.5
							c-0.1,0-0.2,0-0.3,0c-0.1,0-0.3,0-0.4-0.1c-0.7-0.1-1.1-0.2-1.1-0.2c-0.5,0-0.8,0.2-1,0.5c-0.2,0.4-0.3,0.9-0.3,1.6H195V46
							h1.2v0.9c0.6-0.6,1.3-0.9,2.2-0.9c0.1,0,0.3,0,0.5,0c0.2,0,0.4,0.1,0.5,0.1c0.4,0.1,0.8,0.2,1.1,0.3c0.3,0.1,0.6,0.1,0.7,0.1
							c0.2,0,0.3-0.1,0.5-0.2c0.1-0.1,0.3-0.3,0.4-0.5h0.6h0.6c0,0.2-0.2,0.7-0.5,1.4c-0.3,0.8-0.9,1.8-1.6,3.2
							c-0.7,1.5-1.2,2.8-1.5,4c-0.2,1.2-0.4,2.9-0.4,5.1H196.3z"/>
					</g>
				</g>
			</g>
			<g>
				<ellipse fill="#111424" cx="223.6" cy="52.8" rx="11.9" ry="13.9"/>
				<g>
					<g>
						<path fill="#FFFFFF" d="M223.3,49.4c0,0.7-0.2,1.4-0.6,2c-0.4,0.6-1,1.2-1.9,1.8c-1.8,1.3-3,2.3-3.5,3.1
							c-0.3,0.4-0.5,1-0.6,1.6c0-0.1,0.1-0.2,0.1-0.2c0.4-0.4,0.8-0.6,1.4-0.6c0.1,0,0.3,0,0.6,0.1c0.3,0,0.6,0.1,1,0.2
							c0.1,0,0.3,0,0.5,0.1c0.2,0,0.3,0,0.5,0c0.5,0,0.9-0.2,1.1-0.6c0.3-0.4,0.4-0.9,0.4-1.6h1.2c0,1.6-0.2,2.8-0.6,3.6
							c-0.4,0.8-1,1.2-1.9,1.2c-0.2,0-0.5,0-0.8-0.1c-0.3-0.1-0.6-0.2-0.8-0.3c-0.4-0.2-0.7-0.4-1.1-0.5c-0.4-0.1-0.6-0.2-0.8-0.2
							c-0.2,0-0.5,0.1-0.6,0.2c-0.2,0.2-0.3,0.4-0.4,0.6h-0.6h-0.6c0-1.5,0.3-2.7,0.8-3.8c0.5-1,1.6-2.3,3-3.7
							c0.5-0.5,0.9-1,1.2-1.5c0.3-0.5,0.4-1,0.4-1.6c0-0.6-0.2-1.1-0.5-1.4c-0.4-0.4-0.8-0.6-1.4-0.6c-0.6,0-1,0.2-1.4,0.5
							c-0.3,0.2-0.4,0.5-0.5,0.8c0.2-0.2,0.4-0.3,0.7-0.3c0.3,0,0.5,0.1,0.8,0.4c0.2,0.2,0.3,0.5,0.3,0.8c0,0.4-0.1,0.7-0.4,1
							c-0.3,0.3-0.7,0.4-1.1,0.4c-0.5,0-0.8-0.2-1.1-0.6c-0.3-0.4-0.4-0.8-0.4-1.4c0-0.9,0.4-1.6,1.1-2.2c0.7-0.6,1.6-0.9,2.6-0.9
							c1.2,0,2.1,0.4,2.9,1.1C222.9,47.5,223.3,48.3,223.3,49.4z"/>
						<path fill="#FFFFFF" d="M225.1,58.4c-0.6-1-0.8-2.9-0.8-5.6c0-2.7,0.3-4.5,0.8-5.5c0.6-1,1.6-1.5,3-1.5c1.5,0,2.5,0.5,3,1.5
							c0.5,1,0.8,2.8,0.8,5.4v0.1c0,2.7-0.3,4.6-0.8,5.6c-0.6,1-1.6,1.5-3,1.5C226.6,59.9,225.6,59.4,225.1,58.4z M229.1,57.3
							c0.2-0.8,0.3-2.3,0.3-4.5c0-2.2-0.1-3.6-0.3-4.4c-0.2-0.8-0.5-1.2-1-1.2c-0.5,0-0.8,0.4-1,1.2c-0.2,0.8-0.3,2.3-0.3,4.4
							c0,2.2,0.1,3.7,0.3,4.5c0.2,0.8,0.5,1.2,1,1.2C228.6,58.5,228.9,58.1,229.1,57.3z"/>
					</g>
				</g>
			</g>
			<g>
				<ellipse fill="#B9333A" cx="251.5" cy="52.8" rx="11.8" ry="13.9"/>
				<g>
					<g>
						<path fill="#FFFFFF" d="M251.1,49.4c0,0.7-0.2,1.4-0.6,2c-0.4,0.6-1,1.2-1.9,1.8c-1.8,1.3-3,2.3-3.5,3.1
							c-0.3,0.4-0.5,1-0.6,1.6c0-0.1,0.1-0.2,0.1-0.2c0.4-0.4,0.8-0.6,1.4-0.6c0.1,0,0.3,0,0.6,0.1c0.3,0,0.6,0.1,1,0.2
							c0.1,0,0.3,0,0.5,0.1c0.2,0,0.3,0,0.5,0c0.5,0,0.9-0.2,1.1-0.6c0.3-0.4,0.4-0.9,0.4-1.6h1.2c0,1.6-0.2,2.8-0.6,3.6
							c-0.4,0.8-1,1.2-1.9,1.2c-0.2,0-0.5,0-0.8-0.1c-0.3-0.1-0.6-0.2-0.8-0.3c-0.4-0.2-0.7-0.4-1.1-0.5c-0.4-0.1-0.6-0.2-0.8-0.2
							c-0.2,0-0.5,0.1-0.6,0.2c-0.2,0.2-0.3,0.4-0.4,0.6h-0.6h-0.6c0-1.5,0.3-2.7,0.8-3.8c0.5-1,1.6-2.3,3-3.7
							c0.5-0.5,0.9-1,1.2-1.5c0.3-0.5,0.4-1,0.4-1.6c0-0.6-0.2-1.1-0.5-1.4c-0.4-0.4-0.8-0.6-1.4-0.6c-0.6,0-1,0.2-1.4,0.5
							c-0.3,0.2-0.4,0.5-0.5,0.8c0.2-0.2,0.4-0.3,0.7-0.3c0.3,0,0.5,0.1,0.8,0.4c0.2,0.2,0.3,0.5,0.3,0.8c0,0.4-0.1,0.7-0.4,1
							c-0.3,0.3-0.7,0.4-1.1,0.4c-0.5,0-0.8-0.2-1.1-0.6c-0.3-0.4-0.4-0.8-0.4-1.4c0-0.9,0.4-1.6,1.1-2.2c0.7-0.6,1.6-0.9,2.6-0.9
							c1.2,0,2.1,0.4,2.9,1.1C250.7,47.5,251.1,48.3,251.1,49.4z"/>
						<path fill="#FFFFFF" d="M257.1,49.6c0-0.7-0.2-1.3-0.6-1.8c-0.4-0.5-0.9-0.7-1.5-0.7c-0.5,0-0.9,0.2-1.2,0.5
							c-0.2,0.2-0.3,0.4-0.4,0.7c0.2-0.1,0.4-0.2,0.6-0.2c0.4,0,0.7,0.1,0.9,0.3c0.2,0.2,0.3,0.5,0.3,0.8c0,0.4-0.1,0.7-0.4,1
							c-0.3,0.3-0.7,0.4-1.1,0.4c-0.4,0-0.8-0.2-1.1-0.5c-0.3-0.4-0.4-0.8-0.4-1.3c0-0.9,0.3-1.7,1-2.2c0.7-0.6,1.6-0.9,2.7-0.9
							c1.1,0,2,0.3,2.7,1c0.7,0.7,1,1.6,1,2.7c0,1-0.3,1.8-1,2.4c-0.4,0.4-1,0.6-1.6,0.8c0.7,0.1,1.3,0.4,1.7,0.8
							c0.7,0.6,1,1.4,1,2.5c0,1.2-0.4,2.1-1.1,2.9c-0.8,0.8-1.7,1.2-2.8,1.2c-1.1,0-2.1-0.3-2.8-0.9c-0.8-0.6-1.1-1.3-1.1-2.2
							c0-0.5,0.2-1,0.5-1.3c0.3-0.4,0.7-0.5,1.2-0.5c0.4,0,0.7,0.1,0.9,0.4c0.2,0.3,0.4,0.6,0.4,1c0,0.3-0.1,0.6-0.3,0.8
							c-0.2,0.2-0.4,0.3-0.7,0.3c-0.2,0-0.4-0.1-0.6-0.2c0.1,0.3,0.2,0.5,0.5,0.7c0.4,0.3,0.8,0.5,1.4,0.5c0.6,0,1.2-0.2,1.5-0.7
							c0.4-0.5,0.6-1.1,0.6-1.9c0-0.9-0.2-1.5-0.7-1.9c-0.4-0.4-1.1-0.6-2-0.6h-0.1v-1.2h0c0.9,0,1.5-0.2,2-0.6
							C256.9,51.1,257.1,50.4,257.1,49.6z"/>
					</g>
				</g>
			</g>
			<g>
				<ellipse fill="#111424" cx="279.3" cy="52.8" rx="11.8" ry="13.9"/>
				<g>
					<g>
						<path fill="#FFFFFF" d="M279,49.4c0,0.7-0.2,1.4-0.6,2c-0.4,0.6-1,1.2-1.9,1.8c-1.8,1.3-3,2.3-3.5,3.1c-0.3,0.4-0.5,1-0.6,1.6
							c0-0.1,0.1-0.2,0.1-0.2c0.4-0.4,0.8-0.6,1.4-0.6c0.1,0,0.3,0,0.6,0.1c0.3,0,0.6,0.1,1,0.2c0.1,0,0.3,0,0.5,0.1
							c0.2,0,0.3,0,0.5,0c0.5,0,0.9-0.2,1.1-0.6c0.3-0.4,0.4-0.9,0.4-1.6h1.2c0,1.6-0.2,2.8-0.6,3.6c-0.4,0.8-1,1.2-1.9,1.2
							c-0.2,0-0.5,0-0.8-0.1c-0.3-0.1-0.6-0.2-0.8-0.3c-0.4-0.2-0.7-0.4-1.1-0.5c-0.4-0.1-0.6-0.2-0.8-0.2c-0.2,0-0.5,0.1-0.6,0.2
							c-0.2,0.2-0.3,0.4-0.4,0.6h-0.6H271c0-1.5,0.3-2.7,0.8-3.8c0.5-1,1.6-2.3,3-3.7c0.5-0.5,0.9-1,1.2-1.5c0.3-0.5,0.4-1,0.4-1.6
							c0-0.6-0.2-1.1-0.5-1.4c-0.4-0.4-0.8-0.6-1.4-0.6c-0.6,0-1,0.2-1.4,0.5c-0.3,0.2-0.4,0.5-0.5,0.8c0.2-0.2,0.4-0.3,0.7-0.3
							c0.3,0,0.5,0.1,0.8,0.4c0.2,0.2,0.3,0.5,0.3,0.8c0,0.4-0.2,0.7-0.4,1c-0.3,0.3-0.7,0.4-1.1,0.4c-0.5,0-0.8-0.2-1.1-0.6
							c-0.3-0.4-0.4-0.8-0.4-1.4c0-0.9,0.4-1.6,1.1-2.2c0.7-0.6,1.6-0.9,2.6-0.9c1.2,0,2.1,0.4,2.9,1.1
							C278.6,47.5,279,48.3,279,49.4z"/>
						<path fill="#FFFFFF" d="M284.2,45.7c1,0,1.8,0.3,2.5,0.8c0.7,0.5,1,1.2,1,2c0,0.5-0.1,0.9-0.4,1.2c-0.3,0.3-0.6,0.5-1,0.5
							c-0.4,0-0.7-0.1-1-0.3c-0.3-0.2-0.4-0.5-0.4-0.9c0-0.4,0.1-0.7,0.3-0.9c0.2-0.2,0.4-0.3,0.7-0.3c0.2,0,0.3,0,0.4,0.1
							c-0.1-0.2-0.2-0.4-0.3-0.5c-0.3-0.3-0.7-0.4-1.2-0.4c-0.8,0-1.3,0.4-1.7,1.2c-0.4,0.8-0.5,2.1-0.5,3.8l0,0.2
							c0.5-0.5,1.1-0.7,1.8-0.7c1.1,0,1.9,0.3,2.5,1c0.6,0.7,0.8,1.6,0.8,2.9c0,1.6-0.3,2.7-1,3.5c-0.6,0.8-1.6,1.1-3,1.1
							c-1.4,0-2.4-0.5-3-1.5c-0.6-1-0.9-2.5-0.9-4.7c0-2.8,0.4-4.8,1.1-6.1C281.6,46.4,282.7,45.7,284.2,45.7z M282.5,55.7
							c0,1,0.1,1.7,0.3,2.2c0.2,0.4,0.6,0.7,1,0.7c0.5,0,0.8-0.2,1-0.7c0.2-0.4,0.3-1.2,0.3-2.2c0-1-0.1-1.7-0.3-2.1
							c-0.2-0.5-0.6-0.7-1-0.7c-0.5,0-0.8,0.2-1,0.7C282.6,54,282.5,54.7,282.5,55.7z"/>
					</g>
				</g>
			</g>
			<g>
				<ellipse fill="#111424" cx="307.2" cy="52.8" rx="11.9" ry="13.9"/>
				<g>
					<g>
						<path fill="#FFFFFF" d="M306.9,49.4c0,0.7-0.2,1.4-0.6,2c-0.4,0.6-1,1.2-1.9,1.8c-1.8,1.3-3,2.3-3.5,3.1
							c-0.3,0.4-0.5,1-0.6,1.6c0-0.1,0.1-0.2,0.1-0.2c0.4-0.4,0.8-0.6,1.4-0.6c0.1,0,0.3,0,0.6,0.1c0.3,0,0.6,0.1,1,0.2
							c0.1,0,0.3,0,0.5,0.1c0.2,0,0.3,0,0.5,0c0.5,0,0.9-0.2,1.1-0.6c0.3-0.4,0.4-0.9,0.4-1.6h1.2c0,1.6-0.2,2.8-0.6,3.6
							c-0.4,0.8-1,1.2-1.9,1.2c-0.2,0-0.5,0-0.8-0.1c-0.3-0.1-0.6-0.2-0.8-0.3c-0.4-0.2-0.7-0.4-1.1-0.5c-0.4-0.1-0.6-0.2-0.8-0.2
							c-0.2,0-0.5,0.1-0.6,0.2c-0.2,0.2-0.3,0.4-0.4,0.6h-0.6h-0.6c0-1.5,0.3-2.7,0.8-3.8c0.5-1,1.6-2.3,3-3.7
							c0.5-0.5,0.9-1,1.2-1.5c0.3-0.5,0.4-1,0.4-1.6c0-0.6-0.2-1.1-0.5-1.4c-0.4-0.4-0.8-0.6-1.4-0.6c-0.6,0-1,0.2-1.4,0.5
							c-0.3,0.2-0.4,0.5-0.5,0.8c0.2-0.2,0.4-0.3,0.7-0.3c0.3,0,0.5,0.1,0.8,0.4c0.2,0.2,0.3,0.5,0.3,0.8c0,0.4-0.2,0.7-0.4,1
							c-0.3,0.3-0.7,0.4-1.1,0.4c-0.5,0-0.8-0.2-1.1-0.6c-0.3-0.4-0.4-0.8-0.4-1.4c0-0.9,0.4-1.6,1.1-2.2c0.7-0.6,1.6-0.9,2.6-0.9
							c1.2,0,2.1,0.4,2.9,1.1C306.5,47.5,306.9,48.3,306.9,49.4z"/>
						<path fill="#FFFFFF" d="M311.2,59.9c-1,0-1.8-0.3-2.4-0.8c-0.6-0.5-0.9-1.2-0.9-2c0-0.5,0.1-0.9,0.4-1.2
							c0.3-0.3,0.6-0.5,1-0.5c0.4,0,0.7,0.1,1,0.3c0.3,0.2,0.4,0.5,0.4,0.9c0,0.4-0.1,0.7-0.3,0.9c-0.2,0.2-0.4,0.3-0.7,0.3
							c-0.2,0-0.3,0-0.5-0.1c0.1,0.2,0.2,0.4,0.4,0.5c0.3,0.3,0.7,0.4,1.1,0.4c0.8,0,1.4-0.3,1.7-1c0.3-0.6,0.5-1.8,0.5-3.3v-0.8
							c-0.5,0.5-1.1,0.7-1.8,0.7c-1.1,0-1.9-0.3-2.5-1c-0.6-0.7-0.8-1.6-0.8-2.9c0-1.5,0.3-2.6,1-3.4c0.7-0.8,1.7-1.2,2.9-1.2
							c1.4,0,2.5,0.5,3,1.5c0.6,1,0.9,2.8,0.9,5.3c0,2.7-0.3,4.6-1,5.7C313.9,59.4,312.8,59.9,311.2,59.9z M313,50
							c0-1-0.1-1.7-0.3-2.2c-0.2-0.4-0.6-0.7-1-0.7c-0.5,0-0.8,0.2-1,0.7c-0.2,0.4-0.3,1.2-0.3,2.2c0,1,0.1,1.7,0.3,2.1
							c0.2,0.4,0.6,0.7,1,0.7c0.5,0,0.8-0.2,1-0.7C312.9,51.7,313,50.9,313,50z"/>
					</g>
				</g>
			</g>
			<g>
				<ellipse fill="#B9333A" cx="335.1" cy="52.8" rx="11.8" ry="13.9"/>
				<g>
					<g>
						<path fill="#FFFFFF" d="M331.9,49.6c0-0.7-0.2-1.3-0.6-1.8c-0.4-0.5-0.9-0.7-1.5-0.7c-0.5,0-0.9,0.2-1.2,0.5
							c-0.2,0.2-0.3,0.4-0.4,0.7c0.2-0.1,0.4-0.2,0.6-0.2c0.4,0,0.7,0.1,0.9,0.3c0.2,0.2,0.3,0.5,0.3,0.8c0,0.4-0.1,0.7-0.4,1
							c-0.3,0.3-0.7,0.4-1.1,0.4c-0.4,0-0.8-0.2-1.1-0.5c-0.3-0.4-0.4-0.8-0.4-1.3c0-0.9,0.3-1.7,1-2.2c0.7-0.6,1.6-0.9,2.7-0.9
							c1.1,0,2,0.3,2.7,1c0.7,0.7,1,1.6,1,2.7c0,1-0.3,1.8-1,2.4c-0.4,0.4-1,0.6-1.6,0.8c0.7,0.1,1.3,0.4,1.7,0.8
							c0.7,0.6,1,1.4,1,2.5c0,1.2-0.4,2.1-1.1,2.9c-0.8,0.8-1.7,1.2-2.8,1.2c-1.1,0-2.1-0.3-2.8-0.9c-0.8-0.6-1.1-1.3-1.1-2.2
							c0-0.5,0.2-1,0.5-1.3c0.3-0.4,0.7-0.5,1.2-0.5c0.4,0,0.7,0.1,0.9,0.4c0.2,0.3,0.4,0.6,0.4,1c0,0.3-0.1,0.6-0.3,0.8
							c-0.2,0.2-0.4,0.3-0.7,0.3c-0.2,0-0.4-0.1-0.6-0.2c0.1,0.3,0.2,0.5,0.5,0.7c0.4,0.3,0.8,0.5,1.4,0.5c0.6,0,1.2-0.2,1.5-0.7
							c0.4-0.5,0.6-1.1,0.6-1.9c0-0.9-0.2-1.5-0.7-1.9c-0.4-0.4-1.1-0.6-2-0.6h-0.1v-1.2h0c0.9,0,1.5-0.2,2-0.6
							C331.7,51.1,331.9,50.4,331.9,49.6z"/>
						<path fill="#FFFFFF" d="M343.3,49.4c0,0.7-0.2,1.4-0.6,2c-0.4,0.6-1,1.2-1.9,1.8c-1.8,1.3-3,2.3-3.5,3.1
							c-0.3,0.4-0.5,1-0.6,1.6c0-0.1,0.1-0.2,0.1-0.2c0.4-0.4,0.8-0.6,1.4-0.6c0.1,0,0.3,0,0.6,0.1c0.3,0,0.6,0.1,1,0.2
							c0.1,0,0.3,0,0.5,0.1c0.2,0,0.3,0,0.5,0c0.5,0,0.9-0.2,1.1-0.6c0.3-0.4,0.4-0.9,0.4-1.6h1.2c0,1.6-0.2,2.8-0.6,3.6
							c-0.4,0.8-1,1.2-1.9,1.2c-0.2,0-0.5,0-0.8-0.1c-0.3-0.1-0.6-0.2-0.8-0.3c-0.4-0.2-0.7-0.4-1.1-0.5c-0.4-0.1-0.6-0.2-0.8-0.2
							c-0.2,0-0.5,0.1-0.6,0.2c-0.2,0.2-0.3,0.4-0.4,0.6h-0.6h-0.6c0-1.5,0.3-2.7,0.8-3.8c0.5-1,1.6-2.3,3-3.7
							c0.5-0.5,0.9-1,1.2-1.5c0.3-0.5,0.4-1,0.4-1.6c0-0.6-0.2-1.1-0.5-1.4c-0.4-0.4-0.8-0.6-1.4-0.6c-0.6,0-1,0.2-1.4,0.5
							c-0.3,0.2-0.4,0.5-0.5,0.8c0.2-0.2,0.4-0.3,0.7-0.3c0.3,0,0.5,0.1,0.8,0.4c0.2,0.2,0.3,0.5,0.3,0.8c0,0.4-0.1,0.7-0.4,1
							c-0.3,0.3-0.7,0.4-1.1,0.4c-0.5,0-0.8-0.2-1.1-0.6c-0.3-0.4-0.4-0.8-0.4-1.4c0-0.9,0.4-1.6,1.1-2.2c0.7-0.6,1.6-0.9,2.6-0.9
							c1.2,0,2.1,0.4,2.9,1.1C342.9,47.5,343.3,48.3,343.3,49.4z"/>
					</g>
				</g>
			</g>
			<g>
				<ellipse fill="#111424" cx="363" cy="52.8" rx="11.9" ry="13.9"/>
				<g>
					<g>
						<path fill="#FFFFFF" d="M360,49.6c0-0.7-0.2-1.3-0.6-1.8c-0.4-0.5-0.9-0.7-1.5-0.7c-0.5,0-0.9,0.2-1.2,0.5
							c-0.2,0.2-0.3,0.4-0.4,0.7c0.2-0.1,0.4-0.2,0.6-0.2c0.4,0,0.7,0.1,0.9,0.3c0.2,0.2,0.3,0.5,0.3,0.8c0,0.4-0.1,0.7-0.4,1
							c-0.3,0.3-0.7,0.4-1.1,0.4c-0.4,0-0.8-0.2-1.1-0.5c-0.3-0.4-0.4-0.8-0.4-1.3c0-0.9,0.3-1.7,1-2.2c0.7-0.6,1.6-0.9,2.7-0.9
							c1.1,0,2,0.3,2.7,1c0.7,0.7,1,1.6,1,2.7c0,1-0.3,1.8-1,2.4c-0.4,0.4-1,0.6-1.6,0.8c0.7,0.1,1.3,0.4,1.7,0.8
							c0.7,0.6,1,1.4,1,2.5c0,1.2-0.4,2.1-1.1,2.9c-0.8,0.8-1.7,1.2-2.8,1.2c-1.1,0-2.1-0.3-2.8-0.9c-0.8-0.6-1.1-1.3-1.1-2.2
							c0-0.5,0.2-1,0.5-1.3c0.3-0.4,0.7-0.5,1.2-0.5c0.4,0,0.7,0.1,0.9,0.4c0.2,0.3,0.4,0.6,0.4,1c0,0.3-0.1,0.6-0.3,0.8
							c-0.2,0.2-0.4,0.3-0.7,0.3c-0.2,0-0.4-0.1-0.6-0.2c0.1,0.3,0.2,0.5,0.5,0.7c0.4,0.3,0.8,0.5,1.4,0.5c0.6,0,1.2-0.2,1.5-0.7
							c0.4-0.5,0.6-1.1,0.6-1.9c0-0.9-0.2-1.5-0.7-1.9c-0.4-0.4-1.1-0.6-2-0.6h-0.1v-1.2h0c0.9,0,1.5-0.2,2-0.6
							C359.7,51.1,360,50.4,360,49.6z"/>
						<path fill="#FFFFFF" d="M371.2,54.9c0,1.5-0.4,2.7-1.1,3.6c-0.7,0.9-1.7,1.3-3,1.3c-1.1,0-2-0.3-2.7-0.8c-0.6-0.5-1-1.3-1-2.3
							c0-0.5,0.2-1,0.5-1.4c0.3-0.4,0.7-0.6,1.2-0.6c0.4,0,0.7,0.1,1,0.4c0.3,0.3,0.4,0.6,0.4,1c0,0.4-0.1,0.7-0.3,0.9
							c-0.2,0.2-0.5,0.3-0.8,0.3c-0.3,0-0.6-0.1-0.8-0.4c0.1,0.3,0.2,0.6,0.5,0.9c0.4,0.3,0.8,0.5,1.4,0.5c0.7,0,1.2-0.3,1.6-0.9
							c0.3-0.6,0.5-1.4,0.5-2.6c0-1-0.2-1.8-0.5-2.3c-0.3-0.5-0.8-0.8-1.4-0.8c-0.4,0-0.8,0.2-1.2,0.5c-0.3,0.3-0.5,0.7-0.6,1.2
							h-1.2l0.3-7.7c1.8,0.2,3.3,0.4,4.6,0.4c0.6,0,1.4-0.1,2.3-0.4c-0.2,1.1-0.7,1.9-1.5,2.1c-0.8,0.3-2.2,0.3-4.1,0.2l-0.2,3.3
							c0.6-0.7,1.4-1,2.3-1c1.2,0,2.2,0.4,2.8,1.1C370.9,52.5,371.2,53.5,371.2,54.9z"/>
					</g>
				</g>
			</g>
			<g>
				<ellipse fill="#B9333A" cx="56.3" cy="87.7" rx="11.8" ry="13.9"/>
				<g>
					<g>
						<path fill="#FFFFFF" d="M55.2,92.5v-8.7h-1.6v-1.4c0.9,0,1.6-0.1,2.2-0.4c0.3-0.2,0.6-0.6,0.9-1.2h1.1v11.6
							c0,0.2,0,0.4,0.1,0.5c0.1,0.1,0.3,0.1,0.5,0.1H59v1.4h-2.7h-2.7v-1.4h1c0.2,0,0.4,0,0.5-0.1C55.2,92.9,55.2,92.7,55.2,92.5z"
							/>
					</g>
				</g>
			</g>
			<g>
				<ellipse fill="#111424" cx="84.2" cy="87.7" rx="11.9" ry="13.9"/>
				<g>
					<g>
						<path fill="#FFFFFF" d="M79.5,91.2v-0.7v-0.7l4.9-9h1.1h1.1v9.1h1.2v1.3h-1.2v1.2c0,0.3,0,0.5,0.1,0.6
							c0.1,0.1,0.3,0.1,0.6,0.1h0.5v1.4h-2.7h-2.7v-1.4h1.1c0.2,0,0.3,0,0.4-0.1c0.1-0.1,0.1-0.3,0.1-0.5v-1.3H79.5z M84,89.9V84
							l-3.1,5.8l-0.1,0.1H84z"/>
					</g>
				</g>
			</g>
			<g>
				<ellipse fill="#B9333A" cx="112" cy="87.7" rx="11.8" ry="13.9"/>
				<g>
					<g>
						<path fill="#FFFFFF" d="M109.2,94.5c0.2-2,0.7-4.1,1.7-6.3c0.8-1.8,1.9-3.7,3.3-5.6c-0.6,0.3-1.2,0.5-1.8,0.5
							c-0.1,0-0.2,0-0.3,0c-0.1,0-0.3,0-0.4-0.1c-0.7-0.1-1.1-0.2-1.1-0.2c-0.5,0-0.8,0.2-1,0.5c-0.2,0.4-0.3,0.9-0.3,1.6h-1.2v-4.2
							h1.2v0.9c0.6-0.6,1.3-0.9,2.2-0.9c0.1,0,0.3,0,0.5,0c0.2,0,0.4,0.1,0.5,0.1c0.4,0.1,0.8,0.2,1.1,0.3c0.3,0.1,0.6,0.1,0.7,0.1
							c0.2,0,0.3-0.1,0.5-0.2c0.1-0.1,0.3-0.3,0.4-0.5h0.6h0.6c0,0.2-0.2,0.7-0.5,1.4c-0.3,0.8-0.9,1.8-1.6,3.2
							c-0.7,1.5-1.2,2.8-1.5,4c-0.2,1.2-0.4,2.9-0.4,5.1H109.2z"/>
					</g>
				</g>
			</g>
			<g>
				<ellipse fill="#111424" cx="139.9" cy="87.7" rx="11.9" ry="13.9"/>
				<g>
					<g>
						<path fill="#FFFFFF" d="M134.2,92.5v-8.7h-1.6v-1.4c0.9,0,1.6-0.1,2.2-0.4c0.3-0.2,0.6-0.6,0.9-1.2h1.1v11.6
							c0,0.2,0,0.4,0.1,0.5c0.1,0.1,0.2,0.1,0.5,0.1h0.6v1.4h-2.7h-2.7v-1.4h1c0.2,0,0.4,0,0.5-0.1
							C134.1,92.9,134.2,92.7,134.2,92.5z"/>
						<path fill="#FFFFFF" d="M140.5,93.2c-0.5-1-0.8-2.9-0.8-5.6c0-2.7,0.3-4.5,0.8-5.5c0.5-1,1.6-1.5,3-1.5c1.5,0,2.5,0.5,3,1.5
							c0.5,1,0.8,2.8,0.8,5.4v0.1c0,2.7-0.3,4.6-0.8,5.6c-0.6,1-1.6,1.5-3,1.5C142,94.8,141,94.3,140.5,93.2z M144.5,92.1
							c0.2-0.8,0.3-2.3,0.3-4.5c0-2.2-0.1-3.6-0.3-4.4c-0.2-0.8-0.5-1.2-1-1.2c-0.5,0-0.8,0.4-1,1.2c-0.2,0.8-0.3,2.3-0.3,4.4
							c0,2.2,0.1,3.7,0.3,4.5c0.2,0.8,0.5,1.2,1,1.2C144,93.3,144.3,92.9,144.5,92.1z"/>
					</g>
				</g>
			</g>
			<g>
				<ellipse fill="#111424" cx="167.8" cy="87.7" rx="11.9" ry="13.9"/>
				<g>
					<g>
						<path fill="#FFFFFF" d="M162,92.5v-8.7h-1.6v-1.4c0.9,0,1.6-0.1,2.2-0.4c0.3-0.2,0.6-0.6,0.9-1.2h1.1v11.6
							c0,0.2,0,0.4,0.1,0.5c0.1,0.1,0.3,0.1,0.5,0.1h0.6v1.4h-2.7h-2.7v-1.4h1c0.2,0,0.4,0,0.5-0.1C162,92.9,162,92.7,162,92.5z"/>
						<path fill="#FFFFFF" d="M172.5,84.5c0-0.7-0.2-1.3-0.6-1.8c-0.4-0.5-0.9-0.7-1.5-0.7c-0.5,0-0.9,0.2-1.2,0.5
							c-0.2,0.2-0.3,0.4-0.4,0.7c0.2-0.1,0.4-0.2,0.6-0.2c0.4,0,0.7,0.1,0.9,0.3c0.2,0.2,0.3,0.5,0.3,0.8c0,0.4-0.1,0.7-0.4,1
							c-0.3,0.3-0.7,0.4-1.1,0.4c-0.4,0-0.8-0.2-1.1-0.5c-0.3-0.4-0.4-0.8-0.4-1.3c0-0.9,0.3-1.7,1-2.2c0.7-0.6,1.6-0.9,2.7-0.9
							c1.1,0,2,0.3,2.7,1c0.7,0.7,1,1.6,1,2.7c0,1-0.3,1.8-1,2.4c-0.4,0.4-1,0.6-1.6,0.8c0.7,0.1,1.3,0.4,1.7,0.8
							c0.7,0.6,1,1.4,1,2.5c0,1.2-0.4,2.1-1.1,2.9c-0.8,0.8-1.7,1.2-2.8,1.2c-1.1,0-2.1-0.3-2.8-0.9c-0.8-0.6-1.1-1.3-1.1-2.2
							c0-0.5,0.2-1,0.5-1.3c0.3-0.4,0.7-0.5,1.2-0.5c0.4,0,0.7,0.1,0.9,0.4c0.2,0.3,0.4,0.6,0.4,1c0,0.3-0.1,0.6-0.3,0.8
							c-0.2,0.2-0.4,0.3-0.7,0.3c-0.2,0-0.4-0.1-0.6-0.2c0.1,0.3,0.2,0.5,0.5,0.7c0.4,0.3,0.8,0.5,1.4,0.5c0.6,0,1.2-0.2,1.5-0.7
							c0.4-0.5,0.6-1.1,0.6-1.9c0-0.9-0.2-1.5-0.7-1.9c-0.4-0.4-1.1-0.6-2-0.6h-0.1v-1.2h0c0.9,0,1.5-0.2,2-0.6
							C172.3,85.9,172.5,85.3,172.5,84.5z"/>
					</g>
				</g>
			</g>
			<g>
				<ellipse fill="#B9333A" cx="195.7" cy="87.7" rx="11.8" ry="13.9"/>
				<g>
					<g>
						<path fill="#FFFFFF" d="M189.9,92.5v-8.7h-1.6v-1.4c0.9,0,1.6-0.1,2.2-0.4c0.3-0.2,0.6-0.6,0.9-1.2h1.1v11.6
							c0,0.2,0,0.4,0.1,0.5c0.1,0.1,0.3,0.1,0.5,0.1h0.6v1.4H191h-2.7v-1.4h1c0.2,0,0.4,0,0.5-0.1C189.9,92.9,189.9,92.7,189.9,92.5
							z"/>
						<path fill="#FFFFFF" d="M199.6,80.6c1,0,1.8,0.3,2.5,0.8c0.7,0.5,1,1.2,1,2c0,0.5-0.1,0.9-0.4,1.2c-0.3,0.3-0.6,0.5-1,0.5
							c-0.4,0-0.7-0.1-1-0.3c-0.3-0.2-0.4-0.5-0.4-0.9c0-0.4,0.1-0.7,0.3-0.9c0.2-0.2,0.4-0.3,0.7-0.3c0.2,0,0.3,0,0.4,0.1
							c-0.1-0.2-0.2-0.4-0.3-0.5c-0.3-0.3-0.7-0.4-1.2-0.4c-0.8,0-1.3,0.4-1.7,1.2c-0.4,0.8-0.5,2.1-0.5,3.8l0,0.2
							c0.5-0.5,1.1-0.7,1.8-0.7c1.1,0,1.9,0.3,2.5,1c0.6,0.7,0.8,1.6,0.8,2.9c0,1.6-0.3,2.7-1,3.5c-0.6,0.8-1.6,1.1-3,1.1
							c-1.4,0-2.4-0.5-3-1.5c-0.6-1-0.9-2.5-0.9-4.7c0-2.8,0.4-4.8,1.1-6.1C197,81.2,198.1,80.6,199.6,80.6z M197.8,90.5
							c0,1,0.1,1.7,0.3,2.2c0.2,0.4,0.6,0.7,1,0.7c0.5,0,0.8-0.2,1-0.7c0.2-0.4,0.3-1.2,0.3-2.2c0-1-0.1-1.7-0.3-2.1
							c-0.2-0.5-0.6-0.7-1-0.7c-0.5,0-0.8,0.2-1,0.7C198,88.8,197.8,89.6,197.8,90.5z"/>
					</g>
				</g>
			</g>
			<g>
				<ellipse fill="#B9333A" cx="223.6" cy="87.7" rx="11.9" ry="13.9"/>
				<g>
					<g>
						<path fill="#FFFFFF" d="M217.8,92.5v-8.7h-1.6v-1.4c0.9,0,1.6-0.1,2.2-0.4c0.3-0.2,0.6-0.6,0.9-1.2h1.1v11.6
							c0,0.2,0,0.4,0.1,0.5c0.1,0.1,0.2,0.1,0.5,0.1h0.6v1.4h-2.7h-2.7v-1.4h1c0.2,0,0.4,0,0.5-0.1
							C217.8,92.9,217.8,92.7,217.8,92.5z"/>
						<path fill="#FFFFFF" d="M226.6,94.8c-1,0-1.8-0.3-2.4-0.8c-0.6-0.5-0.9-1.2-0.9-2c0-0.5,0.1-0.9,0.4-1.2
							c0.3-0.3,0.6-0.5,1-0.5c0.4,0,0.7,0.1,1,0.3c0.3,0.2,0.4,0.5,0.4,0.9c0,0.4-0.1,0.7-0.3,0.9c-0.2,0.2-0.4,0.3-0.7,0.3
							c-0.2,0-0.3,0-0.5-0.1c0.1,0.2,0.2,0.4,0.4,0.5c0.3,0.3,0.7,0.4,1.1,0.4c0.8,0,1.4-0.3,1.7-1c0.3-0.6,0.5-1.8,0.5-3.3v-0.8
							c-0.5,0.5-1.1,0.7-1.8,0.7c-1.1,0-1.9-0.3-2.5-1c-0.6-0.7-0.8-1.6-0.8-2.9c0-1.5,0.3-2.6,1-3.4c0.7-0.8,1.7-1.2,2.9-1.2
							c1.4,0,2.5,0.5,3,1.5c0.6,1,0.9,2.8,0.9,5.3c0,2.7-0.3,4.6-1,5.7C229.3,94.2,228.2,94.8,226.6,94.8z M228.4,84.8
							c0-1-0.1-1.7-0.3-2.2c-0.2-0.4-0.6-0.7-1-0.7c-0.5,0-0.8,0.2-1,0.7c-0.2,0.4-0.3,1.2-0.3,2.2c0,1,0.1,1.7,0.3,2.1
							c0.2,0.4,0.6,0.7,1,0.7c0.5,0,0.8-0.2,1-0.7C228.3,86.5,228.4,85.8,228.4,84.8z"/>
					</g>
				</g>
			</g>
			<g>
				<ellipse fill="#111424" cx="251.5" cy="87.7" rx="11.8" ry="13.9"/>
				<g>
					<g>
						<path fill="#FFFFFF" d="M251,84.3c0,0.7-0.2,1.4-0.6,2c-0.4,0.6-1,1.2-1.9,1.8c-1.8,1.3-3,2.3-3.5,3.1c-0.3,0.4-0.5,1-0.6,1.6
							c0-0.1,0.1-0.2,0.1-0.2c0.4-0.4,0.8-0.6,1.4-0.6c0.1,0,0.3,0,0.6,0.1c0.3,0,0.6,0.1,1,0.2c0.1,0,0.3,0,0.5,0.1
							c0.2,0,0.3,0,0.5,0c0.5,0,0.9-0.2,1.1-0.6c0.3-0.4,0.4-0.9,0.4-1.6h1.2c0,1.6-0.2,2.8-0.6,3.6c-0.4,0.8-1,1.2-1.9,1.2
							c-0.2,0-0.5,0-0.8-0.1c-0.3-0.1-0.6-0.2-0.8-0.3c-0.4-0.2-0.7-0.4-1.1-0.5c-0.4-0.1-0.6-0.2-0.8-0.2c-0.2,0-0.5,0.1-0.6,0.2
							c-0.2,0.2-0.3,0.4-0.4,0.6h-0.6H243c0-1.5,0.3-2.7,0.8-3.8c0.5-1,1.6-2.3,3-3.7c0.5-0.5,0.9-1,1.2-1.5c0.3-0.5,0.4-1,0.4-1.6
							c0-0.6-0.2-1.1-0.5-1.4c-0.4-0.4-0.8-0.6-1.4-0.6c-0.6,0-1,0.2-1.4,0.5c-0.3,0.2-0.4,0.5-0.5,0.8c0.2-0.2,0.4-0.3,0.7-0.3
							c0.3,0,0.5,0.1,0.8,0.4c0.2,0.2,0.3,0.5,0.3,0.8c0,0.4-0.1,0.7-0.4,1c-0.3,0.3-0.7,0.4-1.1,0.4c-0.5,0-0.8-0.2-1.1-0.6
							c-0.3-0.4-0.4-0.8-0.4-1.4c0-0.9,0.4-1.6,1.1-2.2c0.7-0.6,1.6-0.9,2.6-0.9c1.2,0,2.1,0.4,2.9,1.1
							C250.7,82.3,251,83.2,251,84.3z"/>
						<path fill="#FFFFFF" d="M259.8,84.3c0,0.7-0.2,1.4-0.6,2c-0.4,0.6-1,1.2-1.9,1.8c-1.8,1.3-3,2.3-3.5,3.1
							c-0.3,0.4-0.5,1-0.6,1.6c0-0.1,0.1-0.2,0.1-0.2c0.4-0.4,0.8-0.6,1.4-0.6c0.1,0,0.3,0,0.6,0.1c0.3,0,0.6,0.1,1,0.2
							c0.1,0,0.3,0,0.5,0.1c0.2,0,0.3,0,0.5,0c0.5,0,0.9-0.2,1.1-0.6c0.3-0.4,0.4-0.9,0.4-1.6h1.2c0,1.6-0.2,2.8-0.6,3.6
							c-0.4,0.8-1,1.2-1.9,1.2c-0.2,0-0.5,0-0.8-0.1c-0.3-0.1-0.6-0.2-0.8-0.3c-0.4-0.2-0.7-0.4-1.1-0.5c-0.4-0.1-0.6-0.2-0.8-0.2
							c-0.2,0-0.5,0.1-0.6,0.2c-0.2,0.2-0.3,0.4-0.4,0.6h-0.6h-0.6c0-1.5,0.3-2.7,0.8-3.8c0.5-1,1.6-2.3,3-3.7
							c0.5-0.5,0.9-1,1.2-1.5c0.3-0.5,0.4-1,0.4-1.6c0-0.6-0.2-1.1-0.5-1.4c-0.4-0.4-0.8-0.6-1.4-0.6c-0.6,0-1,0.2-1.4,0.5
							c-0.3,0.2-0.4,0.5-0.5,0.8c0.2-0.2,0.4-0.3,0.7-0.3c0.3,0,0.5,0.1,0.8,0.4c0.2,0.2,0.3,0.5,0.3,0.8c0,0.4-0.1,0.7-0.4,1
							c-0.3,0.3-0.7,0.4-1.1,0.4c-0.5,0-0.8-0.2-1.1-0.6c-0.3-0.4-0.4-0.8-0.4-1.4c0-0.9,0.4-1.6,1.1-2.2c0.7-0.6,1.6-0.9,2.6-0.9
							c1.2,0,2.1,0.4,2.9,1.1C259.4,82.3,259.8,83.2,259.8,84.3z"/>
					</g>
				</g>
			</g>
			<g>
				<ellipse fill="#B9333A" cx="279.3" cy="87.7" rx="11.8" ry="13.9"/>
				<g>
					<g>
						<path fill="#FFFFFF" d="M279.1,84.3c0,0.7-0.2,1.4-0.6,2c-0.4,0.6-1,1.2-1.9,1.8c-1.8,1.3-3,2.3-3.5,3.1
							c-0.3,0.4-0.5,1-0.6,1.6c0-0.1,0.1-0.2,0.1-0.2c0.4-0.4,0.8-0.6,1.4-0.6c0.1,0,0.3,0,0.6,0.1c0.3,0,0.6,0.1,1,0.2
							c0.1,0,0.3,0,0.5,0.1c0.2,0,0.3,0,0.5,0c0.5,0,0.9-0.2,1.1-0.6c0.3-0.4,0.4-0.9,0.4-1.6h1.2c0,1.6-0.2,2.8-0.6,3.6
							c-0.4,0.8-1,1.2-1.9,1.2c-0.2,0-0.5,0-0.8-0.1c-0.3-0.1-0.6-0.2-0.8-0.3c-0.4-0.2-0.7-0.4-1.1-0.5c-0.4-0.1-0.6-0.2-0.8-0.2
							c-0.2,0-0.5,0.1-0.6,0.2c-0.2,0.2-0.3,0.4-0.4,0.6h-0.6H271c0-1.5,0.3-2.7,0.8-3.8c0.5-1,1.6-2.3,3-3.7c0.5-0.5,0.9-1,1.2-1.5
							c0.3-0.5,0.4-1,0.4-1.6c0-0.6-0.2-1.1-0.5-1.4c-0.4-0.4-0.8-0.6-1.4-0.6c-0.6,0-1,0.2-1.4,0.5c-0.3,0.2-0.4,0.5-0.5,0.8
							c0.2-0.2,0.4-0.3,0.7-0.3c0.3,0,0.5,0.1,0.8,0.4c0.2,0.2,0.3,0.5,0.3,0.8c0,0.4-0.1,0.7-0.4,1c-0.3,0.3-0.7,0.4-1.1,0.4
							c-0.5,0-0.8-0.2-1.1-0.6c-0.3-0.4-0.4-0.8-0.4-1.4c0-0.9,0.4-1.6,1.1-2.2c0.7-0.6,1.6-0.9,2.6-0.9c1.2,0,2.1,0.4,2.9,1.1
							C278.7,82.3,279.1,83.2,279.1,84.3z"/>
						<path fill="#FFFFFF" d="M287.7,89.8c0,1.5-0.4,2.7-1.1,3.6c-0.7,0.9-1.7,1.3-3,1.3c-1.1,0-2-0.3-2.7-0.8c-0.6-0.5-1-1.3-1-2.3
							c0-0.5,0.2-1,0.5-1.4c0.3-0.4,0.7-0.6,1.2-0.6c0.4,0,0.7,0.1,1,0.4c0.3,0.3,0.4,0.6,0.4,1c0,0.4-0.1,0.7-0.3,0.9
							c-0.2,0.2-0.5,0.3-0.8,0.3c-0.3,0-0.6-0.1-0.8-0.4c0.1,0.3,0.2,0.6,0.5,0.9c0.4,0.3,0.8,0.5,1.4,0.5c0.7,0,1.2-0.3,1.6-0.9
							c0.3-0.6,0.5-1.4,0.5-2.6c0-1-0.2-1.8-0.5-2.3c-0.3-0.5-0.8-0.8-1.4-0.8c-0.4,0-0.8,0.2-1.2,0.5c-0.3,0.3-0.5,0.7-0.6,1.2
							h-1.2l0.3-7.7c1.8,0.2,3.3,0.4,4.6,0.4c0.6,0,1.4-0.1,2.3-0.4c-0.2,1.1-0.7,1.8-1.5,2.1c-0.8,0.3-2.2,0.3-4.1,0.2l-0.2,3.3
							c0.6-0.7,1.4-1,2.3-1c1.2,0,2.2,0.4,2.8,1.1C287.3,87.3,287.7,88.4,287.7,89.8z"/>
					</g>
				</g>
			</g>
			<g>
				<ellipse fill="#111424" cx="307.2" cy="87.7" rx="11.9" ry="13.9"/>
				<g>
					<g>
						<path fill="#FFFFFF" d="M306.8,84.3c0,0.7-0.2,1.4-0.6,2c-0.4,0.6-1,1.2-1.9,1.8c-1.8,1.3-3,2.3-3.5,3.1
							c-0.3,0.4-0.5,1-0.6,1.6c0-0.1,0.1-0.2,0.1-0.2c0.4-0.4,0.8-0.6,1.4-0.6c0.1,0,0.3,0,0.6,0.1c0.3,0,0.6,0.1,1,0.2
							c0.1,0,0.3,0,0.5,0.1c0.2,0,0.3,0,0.5,0c0.5,0,0.9-0.2,1.1-0.6c0.3-0.4,0.4-0.9,0.4-1.6h1.2c0,1.6-0.2,2.8-0.6,3.6
							c-0.4,0.8-1,1.2-1.9,1.2c-0.2,0-0.5,0-0.8-0.1c-0.3-0.1-0.6-0.2-0.8-0.3c-0.4-0.2-0.7-0.4-1.1-0.5c-0.4-0.1-0.6-0.2-0.8-0.2
							c-0.2,0-0.5,0.1-0.6,0.2c-0.2,0.2-0.3,0.4-0.4,0.6h-0.6h-0.6c0-1.5,0.3-2.7,0.8-3.8c0.5-1,1.6-2.3,3-3.7
							c0.5-0.5,0.9-1,1.2-1.5c0.3-0.5,0.4-1,0.4-1.6c0-0.6-0.2-1.1-0.5-1.4c-0.4-0.4-0.8-0.6-1.4-0.6c-0.6,0-1,0.2-1.4,0.5
							c-0.3,0.2-0.4,0.5-0.5,0.8c0.2-0.2,0.4-0.3,0.7-0.3c0.3,0,0.5,0.1,0.8,0.4c0.2,0.2,0.3,0.5,0.3,0.8c0,0.4-0.1,0.7-0.4,1
							c-0.3,0.3-0.7,0.4-1.1,0.4c-0.5,0-0.8-0.2-1.1-0.6c-0.3-0.4-0.4-0.8-0.4-1.4c0-0.9,0.4-1.6,1.1-2.2c0.7-0.6,1.6-0.9,2.6-0.9
							c1.2,0,2.1,0.4,2.9,1.1C306.4,82.3,306.8,83.2,306.8,84.3z"/>
						<path fill="#FFFFFF" d="M307.9,84.1c0-1,0.3-1.9,1-2.5c0.7-0.7,1.6-1,2.7-1c1.1,0,1.9,0.3,2.7,0.9c0.7,0.6,1.1,1.4,1.1,2.3
							c0,0.8-0.3,1.5-0.8,2.2c-0.3,0.4-0.7,0.8-1.2,1.1c0.6,0.4,1.1,0.9,1.5,1.4c0.6,0.8,0.9,1.6,0.9,2.5c0,1.1-0.4,2.1-1.2,2.8
							c-0.8,0.7-1.8,1.1-3,1.1c-1.2,0-2.2-0.3-3-1c-0.8-0.7-1.2-1.6-1.2-2.6c0-0.9,0.3-1.7,0.9-2.4c0.4-0.5,0.9-0.9,1.5-1.3
							c-0.5-0.3-0.8-0.7-1.1-1.1C308.1,85.6,307.9,84.9,307.9,84.1z M309.7,91.2c0,0.6,0.2,1.2,0.5,1.6c0.3,0.4,0.8,0.6,1.3,0.6
							c0.5,0,1-0.2,1.3-0.6c0.3-0.4,0.5-0.9,0.5-1.5c0-0.6-0.2-1.2-0.6-1.7c-0.3-0.4-0.9-0.9-1.5-1.3c-0.4,0.4-0.7,0.7-1,1.1
							C309.9,90.1,309.7,90.7,309.7,91.2z M313.4,83.7c0-0.5-0.1-0.9-0.4-1.2c-0.3-0.3-0.7-0.5-1.1-0.5s-0.8,0.2-1.1,0.5
							c-0.3,0.3-0.4,0.7-0.4,1.2c0,0.4,0.2,0.9,0.6,1.4c0.3,0.4,0.7,0.8,1.2,1.1c0.3-0.3,0.6-0.5,0.8-0.8
							C313.1,84.8,313.4,84.3,313.4,83.7z"/>
					</g>
				</g>
			</g>
			<g>
				<ellipse fill="#111424" cx="335.1" cy="87.7" rx="11.8" ry="13.9"/>
				<g>
					<g>
						<path fill="#FFFFFF" d="M332.8,84.5c0-0.7-0.2-1.3-0.6-1.8c-0.4-0.5-0.9-0.7-1.5-0.7c-0.5,0-0.9,0.2-1.2,0.5
							c-0.2,0.2-0.3,0.4-0.4,0.7c0.2-0.1,0.4-0.2,0.6-0.2c0.4,0,0.7,0.1,0.9,0.3c0.2,0.2,0.3,0.5,0.3,0.8c0,0.4-0.1,0.7-0.4,1
							c-0.3,0.3-0.7,0.4-1.1,0.4c-0.4,0-0.8-0.2-1.1-0.5c-0.3-0.4-0.4-0.8-0.4-1.3c0-0.9,0.3-1.7,1-2.2c0.7-0.6,1.6-0.9,2.7-0.9
							c1.1,0,2,0.3,2.7,1c0.7,0.7,1,1.6,1,2.7c0,1-0.3,1.8-1,2.4c-0.4,0.4-1,0.6-1.6,0.8c0.7,0.1,1.3,0.4,1.7,0.8
							c0.7,0.6,1,1.4,1,2.5c0,1.2-0.4,2.1-1.1,2.9c-0.8,0.8-1.7,1.2-2.8,1.2c-1.1,0-2.1-0.3-2.8-0.9c-0.8-0.6-1.1-1.3-1.1-2.2
							c0-0.5,0.2-1,0.5-1.3c0.3-0.4,0.7-0.5,1.2-0.5c0.4,0,0.7,0.1,0.9,0.4c0.2,0.3,0.4,0.6,0.4,1c0,0.3-0.1,0.6-0.3,0.8
							c-0.2,0.2-0.4,0.3-0.7,0.3c-0.2,0-0.4-0.1-0.6-0.2c0.1,0.3,0.2,0.5,0.5,0.7c0.4,0.3,0.8,0.5,1.4,0.5c0.6,0,1.2-0.2,1.5-0.7
							c0.4-0.5,0.6-1.1,0.6-1.9c0-0.9-0.2-1.5-0.7-1.9c-0.4-0.4-1.1-0.6-2-0.6h-0.1v-1.2h0c0.9,0,1.5-0.2,2-0.6
							C332.6,85.9,332.8,85.3,332.8,84.5z"/>
						<path fill="#FFFFFF" d="M338.9,92.5v-8.7h-1.6v-1.4c0.9,0,1.6-0.1,2.2-0.4c0.3-0.2,0.6-0.6,0.9-1.2h1.1v11.6
							c0,0.2,0,0.4,0.1,0.5c0.1,0.1,0.3,0.1,0.5,0.1h0.6v1.4H340h-2.7v-1.4h1c0.2,0,0.4,0,0.5-0.1C338.8,92.9,338.9,92.7,338.9,92.5
							z"/>
					</g>
				</g>
			</g>
			<g>
				<ellipse fill="#B9333A" cx="363" cy="87.7" rx="11.9" ry="13.9"/>
				<g>
					<g>
						<path fill="#FFFFFF" d="M359.8,84.5c0-0.7-0.2-1.3-0.6-1.8c-0.4-0.5-0.9-0.7-1.5-0.7c-0.5,0-0.9,0.2-1.2,0.5
							c-0.2,0.2-0.3,0.4-0.4,0.7c0.2-0.1,0.4-0.2,0.6-0.2c0.4,0,0.7,0.1,0.9,0.3c0.2,0.2,0.3,0.5,0.3,0.8c0,0.4-0.1,0.7-0.4,1
							c-0.3,0.3-0.7,0.4-1.1,0.4c-0.4,0-0.8-0.2-1.1-0.5c-0.3-0.4-0.4-0.8-0.4-1.3c0-0.9,0.3-1.7,1-2.2c0.7-0.6,1.6-0.9,2.7-0.9
							c1.1,0,2,0.3,2.7,1c0.7,0.7,1,1.6,1,2.7c0,1-0.3,1.8-1,2.4c-0.4,0.4-1,0.6-1.6,0.8c0.7,0.1,1.3,0.4,1.7,0.8
							c0.7,0.6,1,1.4,1,2.5c0,1.2-0.4,2.1-1.1,2.9c-0.8,0.8-1.7,1.2-2.8,1.2c-1.1,0-2.1-0.3-2.8-0.9c-0.8-0.6-1.1-1.3-1.1-2.2
							c0-0.5,0.2-1,0.5-1.3c0.3-0.4,0.7-0.5,1.2-0.5c0.4,0,0.7,0.1,0.9,0.4c0.2,0.3,0.4,0.6,0.4,1c0,0.3-0.1,0.6-0.3,0.8
							c-0.2,0.2-0.4,0.3-0.7,0.3c-0.2,0-0.4-0.1-0.6-0.2c0.1,0.3,0.2,0.5,0.5,0.7c0.4,0.3,0.8,0.5,1.4,0.5c0.6,0,1.2-0.2,1.5-0.7
							c0.4-0.5,0.6-1.1,0.6-1.9c0-0.9-0.2-1.5-0.7-1.9c-0.4-0.4-1.1-0.6-2-0.6h-0.1v-1.2h0c0.9,0,1.5-0.2,2-0.6
							C359.6,85.9,359.8,85.3,359.8,84.5z"/>
						<path fill="#FFFFFF" d="M363,91.2v-0.7v-0.7l4.9-9h1.1h1.1v9.1h1.2v1.3h-1.2v1.2c0,0.3,0,0.5,0.1,0.6c0.1,0.1,0.3,0.1,0.6,0.1
							h0.5v1.4h-2.7H366v-1.4h1.1c0.2,0,0.3,0,0.4-0.1c0.1-0.1,0.1-0.3,0.1-0.5v-1.3H363z M367.6,89.9V84l-3.1,5.8l-0.1,0.1H367.6z"
							/>
					</g>
				</g>
			</g>
		</g>
		<g>
			<g>
				<g>
					<g>
						<g>
							<path fill="#111424" d="M388.3,93.8c0.5,0,1.1,0.1,1.5,0.4c0.5,0.3,0.9,0.8,1.4,1.5c1,1.4,1.8,2.3,2.3,2.7
								c0.3,0.2,0.7,0.4,1.2,0.5c-0.1,0-0.1-0.1-0.2-0.1c-0.3-0.3-0.5-0.6-0.5-1c0-0.1,0-0.2,0-0.4c0-0.2,0.1-0.5,0.1-0.7
								c0-0.1,0-0.2,0-0.4c0-0.1,0-0.3,0-0.4c0-0.4-0.1-0.6-0.4-0.9c-0.3-0.2-0.7-0.3-1.3-0.3v-0.9c1.2,0,2.1,0.2,2.7,0.5
								c0.6,0.3,0.9,0.8,0.9,1.4c0,0.2,0,0.4-0.1,0.6c-0.1,0.2-0.1,0.4-0.2,0.6c-0.2,0.3-0.3,0.5-0.4,0.8c-0.1,0.3-0.2,0.5-0.2,0.6
								c0,0.2,0.1,0.3,0.2,0.5c0.1,0.1,0.3,0.2,0.5,0.3v0.5v0.5c-1.1,0-2.1-0.2-2.9-0.6c-0.8-0.4-1.7-1.2-2.8-2.3
								c-0.4-0.4-0.8-0.7-1.1-0.9c-0.4-0.2-0.8-0.3-1.2-0.3c-0.4,0-0.8,0.1-1.1,0.4c-0.3,0.3-0.4,0.6-0.4,1c0,0.4,0.1,0.8,0.3,1.1
								c0.2,0.2,0.4,0.3,0.6,0.4c-0.1-0.1-0.2-0.3-0.2-0.5c0-0.2,0.1-0.4,0.3-0.6c0.2-0.2,0.4-0.2,0.6-0.2c0.3,0,0.6,0.1,0.8,0.3
								c0.2,0.2,0.3,0.5,0.3,0.9c0,0.3-0.1,0.6-0.4,0.9c-0.3,0.2-0.6,0.3-1.1,0.3c-0.7,0-1.2-0.3-1.7-0.8c-0.5-0.6-0.7-1.2-0.7-2
								c0-0.9,0.3-1.6,0.8-2.2C386.8,94.1,387.5,93.8,388.3,93.8z"/>
							<path fill="#111424" d="M393.9,90.9h-5v0.8h-1.1c-0.1-0.6-0.2-1-0.5-1.2c-0.3-0.2-0.8-0.4-1.4-0.4V89h1.9v-1.4h1.1V89h4.9
								c0.4,0,0.6,0,0.7-0.1c0.1-0.1,0.2-0.2,0.2-0.3c0-0.2-0.1-0.3-0.2-0.3c-0.1-0.1-0.4-0.1-0.7-0.1h-0.6v-0.9h0.6
								c0.7,0,1.2,0.1,1.6,0.4c0.3,0.3,0.5,0.7,0.5,1.4c0,0.7-0.2,1.1-0.5,1.4C395.1,90.8,394.6,90.9,393.9,90.9z"/>
							<path fill="#111424" d="M394.9,86.3c-0.7,0.5-1.7,0.7-3.2,0.7c-1.4,0-2.5-0.2-3.1-0.7c-0.7-0.5-1-1.2-1-2.2
								c0-1,0.3-1.7,1-2.2c0.7-0.5,1.7-0.7,3.1-0.7h0c1.5,0,2.5,0.2,3.2,0.7c0.7,0.5,1,1.2,1,2.2C395.9,85.1,395.5,85.8,394.9,86.3z
								 M394.1,83.4c-0.4-0.1-1.2-0.2-2.4-0.2c-1.2,0-2,0.1-2.3,0.2c-0.4,0.1-0.6,0.3-0.6,0.7c0,0.3,0.2,0.6,0.6,0.7
								c0.4,0.1,1.2,0.2,2.3,0.2c1.2,0,2-0.1,2.4-0.2c0.4-0.1,0.6-0.3,0.6-0.7C394.7,83.8,394.5,83.5,394.1,83.4z"/>
							<path fill="#111424" d="M394.5,78.4h-6.6v1.2h-1.1c0-0.7-0.1-1.2-0.3-1.6c-0.1-0.2-0.4-0.5-0.9-0.7v-0.9h8.8
								c0.2,0,0.3,0,0.4-0.1c0.1-0.1,0.1-0.2,0.1-0.4v-0.5h1.1v2.1v2.1H395v-0.7c0-0.2,0-0.3-0.1-0.4
								C394.8,78.4,394.7,78.4,394.5,78.4z"/>
						</g>
					</g>
				</g>
			</g>
			<g>
				<g>
					<g>
						<g>
							<path fill="#111424" d="M56.7,161v-6.6h-1.2v-1.1c0.7,0,1.2-0.1,1.6-0.3c0.2-0.1,0.5-0.4,0.7-0.9h0.9v8.8
								c0,0.2,0,0.3,0.1,0.4c0.1,0.1,0.2,0.1,0.4,0.1h0.5v1.1h-2.1h-2.1v-1.1h0.7c0.2,0,0.3,0,0.4-0.1
								C56.7,161.3,56.7,161.2,56.7,161z"/>
							<path fill="#111424" d="M63.3,160.4v-5h-0.8v-1.1c0.6-0.1,1-0.2,1.2-0.5c0.2-0.3,0.4-0.8,0.4-1.4h1.1v1.9h1.4v1.1h-1.4v4.9
								c0,0.4,0,0.6,0.1,0.7c0.1,0.1,0.2,0.2,0.3,0.2c0.2,0,0.3-0.1,0.3-0.2c0.1-0.1,0.1-0.4,0.1-0.7v-0.6h0.9v0.6
								c0,0.7-0.1,1.2-0.4,1.6c-0.3,0.3-0.7,0.5-1.4,0.5c-0.7,0-1.1-0.2-1.4-0.5C63.4,161.6,63.3,161.1,63.3,160.4z"/>
							<path fill="#111424" d="M67.9,161.4c-0.5-0.7-0.7-1.7-0.7-3.2c0-1.4,0.2-2.5,0.7-3.1c0.5-0.7,1.2-1,2.2-1c1,0,1.7,0.3,2.2,1
								c0.5,0.7,0.7,1.7,0.7,3.1v0c0,1.5-0.2,2.5-0.7,3.2c-0.5,0.7-1.2,1-2.2,1C69.1,162.4,68.4,162,67.9,161.4z M70.8,160.6
								c0.1-0.4,0.2-1.2,0.2-2.4c0-1.2-0.1-2-0.2-2.3c-0.1-0.4-0.3-0.6-0.7-0.6c-0.3,0-0.6,0.2-0.7,0.6c-0.1,0.4-0.2,1.2-0.2,2.3
								c0,1.2,0.1,2,0.2,2.4c0.1,0.4,0.3,0.6,0.7,0.6C70.4,161.2,70.7,161,70.8,160.6z"/>
							<path fill="#111424" d="M76.9,161v-6.6h-1.2v-1.1c0.7,0,1.2-0.1,1.6-0.3c0.2-0.1,0.5-0.4,0.7-0.9h0.9v8.8
								c0,0.2,0,0.3,0.1,0.4c0.1,0.1,0.2,0.1,0.4,0.1h0.5v1.1h-2.1h-2.1v-1.1h0.7c0.2,0,0.3,0,0.4-0.1
								C76.9,161.3,76.9,161.2,76.9,161z"/>
							<path fill="#111424" d="M81.1,154.6c0-0.8,0.3-1.4,0.8-1.9c0.5-0.5,1.2-0.7,2-0.7c0.8,0,1.5,0.2,2,0.7c0.5,0.5,0.8,1,0.8,1.7
								c0,0.6-0.2,1.2-0.6,1.7c-0.2,0.3-0.6,0.6-0.9,0.8c0.5,0.3,0.8,0.7,1.1,1.1c0.5,0.6,0.7,1.2,0.7,1.9c0,0.9-0.3,1.6-0.9,2.1
								c-0.6,0.5-1.4,0.8-2.3,0.8c-0.9,0-1.7-0.3-2.3-0.8c-0.6-0.5-0.9-1.2-0.9-2c0-0.7,0.2-1.3,0.7-1.8c0.3-0.4,0.7-0.7,1.2-1
								c-0.3-0.3-0.6-0.5-0.9-0.8C81.3,155.8,81.1,155.2,81.1,154.6z M82.5,160c0,0.5,0.1,0.9,0.4,1.2c0.3,0.3,0.6,0.5,1,0.5
								c0.4,0,0.8-0.1,1-0.4c0.3-0.3,0.4-0.7,0.4-1.1c0-0.5-0.2-0.9-0.5-1.3c-0.3-0.3-0.6-0.7-1.2-1c-0.3,0.3-0.6,0.6-0.8,0.8
								C82.7,159.2,82.5,159.6,82.5,160z M85.3,154.3c0-0.4-0.1-0.7-0.3-0.9c-0.2-0.2-0.5-0.4-0.9-0.4s-0.6,0.1-0.9,0.4
								c-0.2,0.2-0.3,0.5-0.3,0.9c0,0.3,0.1,0.7,0.4,1.1c0.2,0.3,0.5,0.6,0.9,0.8c0.3-0.2,0.5-0.4,0.6-0.6
								C85.1,155.2,85.3,154.8,85.3,154.3z"/>
						</g>
					</g>
				</g>
			</g>
			<g>
				<g>
					<g>
						<g>
							<path fill="#111424" d="M331.6,161v-6.6h-1.2v-1.1c0.7,0,1.2-0.1,1.6-0.3c0.2-0.1,0.5-0.4,0.7-0.9h0.9v8.8
								c0,0.2,0,0.3,0.1,0.4c0.1,0.1,0.2,0.1,0.4,0.1h0.5v1.1h-2h-2.1v-1.1h0.7c0.2,0,0.3,0,0.4-0.1
								C331.6,161.3,331.6,161.2,331.6,161z"/>
							<path fill="#111424" d="M338.3,162.7c-0.7,0-1.4-0.2-1.8-0.6c-0.5-0.4-0.7-0.9-0.7-1.5c0-0.4,0.1-0.7,0.3-0.9
								c0.2-0.3,0.5-0.4,0.8-0.4c0.3,0,0.5,0.1,0.8,0.3c0.2,0.2,0.3,0.4,0.3,0.7c0,0.3-0.1,0.5-0.2,0.7c-0.1,0.2-0.3,0.2-0.6,0.2
								c-0.1,0-0.3,0-0.4-0.1c0.1,0.2,0.1,0.3,0.3,0.4c0.2,0.2,0.5,0.3,0.8,0.3c0.6,0,1.1-0.2,1.3-0.7c0.3-0.5,0.4-1.3,0.4-2.5v-0.6
								c-0.4,0.4-0.9,0.5-1.4,0.5c-0.8,0-1.4-0.2-1.9-0.7c-0.4-0.5-0.6-1.2-0.6-2.2c0-1.1,0.3-2,0.8-2.6c0.5-0.6,1.3-0.9,2.2-0.9
								c1.1,0,1.9,0.4,2.3,1.2c0.4,0.8,0.7,2.1,0.7,4c0,2.1-0.3,3.5-0.8,4.3C340.4,162.3,339.5,162.7,338.3,162.7z M339.7,155.2
								c0-0.8-0.1-1.3-0.2-1.7c-0.2-0.3-0.4-0.5-0.8-0.5c-0.4,0-0.6,0.2-0.8,0.5c-0.2,0.3-0.2,0.9-0.2,1.7c0,0.7,0.1,1.3,0.2,1.6
								c0.2,0.3,0.4,0.5,0.8,0.5c0.4,0,0.6-0.2,0.8-0.5C339.6,156.5,339.7,155.9,339.7,155.2z"/>
							<path fill="#111424" d="M344.5,160.4v-5h-0.8v-1.1c0.6-0.1,1-0.2,1.2-0.5c0.2-0.3,0.4-0.8,0.4-1.4h1.1v1.9h1.4v1.1h-1.4v4.9
								c0,0.4,0,0.6,0.1,0.7c0.1,0.1,0.1,0.2,0.3,0.2c0.2,0,0.3-0.1,0.3-0.2c0.1-0.1,0.1-0.4,0.1-0.7v-0.6h0.9v0.6
								c0,0.7-0.1,1.2-0.4,1.6c-0.3,0.3-0.7,0.5-1.4,0.5c-0.7,0-1.1-0.2-1.4-0.5C344.6,161.6,344.5,161.1,344.5,160.4z"/>
							<path fill="#111424" d="M349.1,161.4c-0.5-0.7-0.7-1.7-0.7-3.2c0-1.4,0.2-2.5,0.7-3.1c0.5-0.7,1.2-1,2.2-1c1,0,1.7,0.3,2.2,1
								c0.5,0.7,0.7,1.7,0.7,3.1v0c0,1.5-0.2,2.5-0.7,3.2c-0.5,0.7-1.2,1-2.2,1C350.3,162.4,349.6,162,349.1,161.4z M352,160.6
								c0.1-0.4,0.2-1.2,0.2-2.4c0-1.2-0.1-2-0.2-2.3c-0.1-0.4-0.3-0.6-0.7-0.6c-0.3,0-0.6,0.2-0.7,0.6c-0.1,0.4-0.2,1.2-0.2,2.3
								c0,1.2,0.1,2,0.2,2.4c0.1,0.4,0.3,0.6,0.7,0.6C351.7,161.2,351.9,161,352,160.6z"/>
							<path fill="#111424" d="M360.5,154.9c0-0.5-0.2-1-0.5-1.3c-0.3-0.4-0.7-0.5-1.1-0.5c-0.4,0-0.7,0.1-0.9,0.3
								c-0.1,0.1-0.2,0.3-0.3,0.5c0.1-0.1,0.3-0.1,0.5-0.1c0.3,0,0.5,0.1,0.7,0.2c0.2,0.2,0.2,0.4,0.2,0.6c0,0.3-0.1,0.6-0.3,0.8
								c-0.2,0.2-0.5,0.3-0.8,0.3c-0.3,0-0.6-0.1-0.8-0.4c-0.2-0.3-0.3-0.6-0.3-1c0-0.7,0.3-1.3,0.8-1.7c0.5-0.4,1.2-0.7,2-0.7
								c0.9,0,1.5,0.3,2.1,0.8c0.5,0.5,0.8,1.2,0.8,2c0,0.8-0.3,1.4-0.8,1.8c-0.3,0.3-0.7,0.5-1.2,0.6c0.5,0.1,1,0.3,1.3,0.6
								c0.5,0.4,0.8,1.1,0.8,1.9c0,0.9-0.3,1.6-0.9,2.2c-0.6,0.6-1.3,0.9-2.1,0.9c-0.9,0-1.6-0.2-2.1-0.7c-0.6-0.5-0.9-1-0.9-1.7
								c0-0.4,0.1-0.7,0.4-1c0.2-0.3,0.6-0.4,0.9-0.4c0.3,0,0.5,0.1,0.7,0.3c0.2,0.2,0.3,0.5,0.3,0.8c0,0.2-0.1,0.5-0.2,0.6
								c-0.1,0.2-0.3,0.2-0.6,0.2c-0.2,0-0.3,0-0.4-0.1c0.1,0.2,0.2,0.4,0.4,0.6c0.3,0.2,0.6,0.4,1,0.4c0.5,0,0.9-0.2,1.2-0.6
								c0.3-0.4,0.4-0.9,0.4-1.4c0-0.7-0.2-1.1-0.5-1.5c-0.3-0.3-0.9-0.5-1.5-0.5h-0.1v-0.9h0c0.7,0,1.2-0.2,1.5-0.5
								C360.4,156,360.5,155.5,360.5,154.9z"/>
							<path fill="#111424" d="M366.2,151.9c0.7,0,1.4,0.2,1.9,0.6c0.5,0.4,0.8,0.9,0.8,1.5c0,0.4-0.1,0.7-0.3,0.9
								c-0.2,0.3-0.5,0.4-0.8,0.4c-0.3,0-0.5-0.1-0.8-0.3c-0.2-0.2-0.3-0.4-0.3-0.6c0-0.3,0.1-0.5,0.2-0.7c0.1-0.2,0.3-0.2,0.6-0.2
								c0.1,0,0.2,0,0.3,0.1c0-0.2-0.1-0.3-0.3-0.4c-0.2-0.2-0.5-0.3-0.9-0.3c-0.6,0-1,0.3-1.3,0.9c-0.3,0.6-0.4,1.6-0.4,2.9l0,0.1
								c0.4-0.4,0.9-0.5,1.4-0.5c0.8,0,1.4,0.2,1.9,0.7c0.4,0.5,0.6,1.2,0.6,2.2c0,1.2-0.2,2.1-0.7,2.6c-0.5,0.6-1.2,0.9-2.3,0.9
								c-1,0-1.8-0.4-2.3-1.1c-0.5-0.7-0.7-1.9-0.7-3.6c0-2.1,0.3-3.7,0.8-4.7C364.2,152.4,365.1,151.9,366.2,151.9z M364.9,159.5
								c0,0.8,0.1,1.3,0.2,1.6c0.2,0.3,0.4,0.5,0.8,0.5c0.4,0,0.6-0.2,0.8-0.5c0.2-0.3,0.2-0.9,0.2-1.6c0-0.7-0.1-1.3-0.2-1.6
								c-0.2-0.3-0.4-0.5-0.8-0.5c-0.3,0-0.6,0.2-0.8,0.5C365,158.2,364.9,158.8,364.9,159.5z"/>
						</g>
					</g>
				</g>
			</g>
			<g>
				<g>
					<g>
						<g>
							<path fill="#111424" d="M111,162.5v-1.2h0.3c0.2,0,0.3,0,0.4-0.1c0.1-0.1,0.1-0.2,0.1-0.4v-7c0-0.2,0-0.4-0.1-0.4
								c-0.1-0.1-0.2-0.1-0.4-0.1H111v-1.2h2.9h3.9v1.8v1.8h-1v-0.5c0-0.7-0.1-1.2-0.4-1.4c-0.2-0.3-0.7-0.4-1.3-0.4h-1.2v3.2h0.6
								c0.2,0,0.3-0.1,0.4-0.2c0.1-0.1,0.1-0.3,0.1-0.6v-0.7h1v2v2h-1v-0.7c0-0.3,0-0.4-0.1-0.6c-0.1-0.1-0.2-0.2-0.4-0.2h-0.6v3.6
								h1.2c0.6,0,1.1-0.2,1.3-0.5c0.3-0.3,0.4-0.9,0.4-1.7v-0.5h1v1.9v1.9h-3.9H111z"/>
							<path fill="#111424" d="M119.5,153.8c0-0.2-0.1-0.3-0.1-0.4c0-0.1-0.1-0.1-0.3-0.1h-0.3v-1.2h1.8h1.8v1.2h-0.3
								c-0.2,0-0.3,0-0.4,0.1c-0.1,0.1-0.1,0.2,0,0.4l1.1,6.1h0l1.3-6.1c0-0.2,0-0.3,0-0.4c-0.1-0.1-0.2-0.1-0.3-0.1h-0.3v-1.2h1.3
								h1.3v1.2h-0.3c-0.1,0-0.2,0-0.3,0.1c-0.1,0.1-0.1,0.2-0.2,0.3l-2,8.7h-1h-1L119.5,153.8z"/>
							<path fill="#111424" d="M126.7,162.5v-1.2h0.3c0.2,0,0.3,0,0.4-0.1c0.1-0.1,0.1-0.2,0.1-0.4v-7c0-0.2,0-0.4-0.1-0.4
								c-0.1-0.1-0.2-0.1-0.4-0.1h-0.3v-1.2h2.9h3.9v1.8v1.8h-1v-0.5c0-0.7-0.1-1.2-0.4-1.4c-0.2-0.3-0.7-0.4-1.3-0.4h-1.2v3.2h0.6
								c0.2,0,0.3-0.1,0.4-0.2c0.1-0.1,0.1-0.3,0.1-0.6v-0.7h1v2v2h-1v-0.7c0-0.3,0-0.4-0.1-0.6c-0.1-0.1-0.2-0.2-0.4-0.2h-0.6v3.6
								h1.2c0.6,0,1.1-0.2,1.3-0.5c0.3-0.3,0.4-0.9,0.4-1.7v-0.5h1v1.9v1.9h-3.9H126.7z"/>
							<path fill="#111424" d="M136.4,160.9c0,0.2,0,0.3,0.1,0.4c0.1,0.1,0.2,0.1,0.4,0.1h0.3v1.2h-1.4h-1.4v-1.2h0.3
								c0.2,0,0.3,0,0.4-0.1c0.1-0.1,0.1-0.2,0.1-0.4v-7.1c0-0.2,0-0.3-0.1-0.4c-0.1-0.1-0.2-0.1-0.4-0.1h-0.3v-1.2h1.5h1.5l2.6,6.9
								v-5.2c0-0.2,0-0.3-0.1-0.4c-0.1-0.1-0.2-0.1-0.4-0.1h-0.3v-1.2h1.4h1.4v1.2h-0.3c-0.2,0-0.3,0-0.4,0.1
								c-0.1,0.1-0.1,0.2-0.1,0.4v8.7h-0.9h-0.9l-2.9-7.2V160.9z"/>
						</g>
					</g>
				</g>
			</g>
			<g>
				<g>
					<g>
						<g>
							<path fill="#111424" d="M283.6,161.6c-0.5-0.7-0.7-2-0.7-3.7v-1.3c0-1.6,0.3-2.8,0.8-3.6c0.5-0.8,1.3-1.1,2.4-1.1
								c1.1,0,1.9,0.4,2.4,1.1c0.5,0.7,0.7,1.9,0.7,3.5v0.1v1.3c0,1.7-0.2,3-0.7,3.7c-0.5,0.7-1.3,1.1-2.4,1.1
								C284.9,162.7,284.1,162.4,283.6,161.6z M286.8,160.9c0.1-0.4,0.2-1.4,0.2-2.9v-1.3c0-1.5-0.1-2.5-0.2-2.9
								c-0.1-0.4-0.4-0.6-0.8-0.6c-0.4,0-0.7,0.2-0.8,0.6c-0.1,0.4-0.2,1.4-0.2,2.9v1.3c0,1.5,0.1,2.5,0.2,2.9
								c0.1,0.4,0.4,0.6,0.8,0.6C286.4,161.5,286.7,161.3,286.8,160.9z"/>
							<path fill="#111424" d="M291,160.9v-6.7c0-0.3,0-0.6-0.1-0.7c-0.1-0.1-0.2-0.2-0.4-0.2h-0.3v-1.2h1.8h2
								c1.1,0,1.9,0.4,2.4,1.2c0.5,0.8,0.7,2.1,0.7,3.9v0.1c0,1.8-0.2,3.2-0.7,4c-0.5,0.8-1.2,1.2-2.3,1.2h-2.1h-1.8v-1.2h0.3
								c0.2,0,0.3,0,0.4-0.1C291,161.2,291,161,291,160.9z M293.1,161.3h0.4c0.6,0,1-0.2,1.2-0.7c0.2-0.5,0.3-1.6,0.3-3.3
								c0-1.7-0.1-2.7-0.3-3.2c-0.2-0.5-0.6-0.7-1.3-0.7h-0.3V161.3z"/>
							<path fill="#111424" d="M298.7,160.9v-6.7c0-0.3,0-0.6-0.1-0.7c-0.1-0.1-0.2-0.2-0.4-0.2h-0.3v-1.2h1.8h2
								c1.1,0,1.9,0.4,2.4,1.2c0.5,0.8,0.7,2.1,0.7,3.9v0.1c0,1.8-0.2,3.2-0.7,4c-0.5,0.8-1.2,1.2-2.3,1.2h-2.1h-1.8v-1.2h0.3
								c0.2,0,0.3,0,0.4-0.1C298.7,161.2,298.7,161,298.7,160.9z M300.9,161.3h0.4c0.6,0,1-0.2,1.2-0.7c0.2-0.5,0.3-1.6,0.3-3.3
								c0-1.7-0.1-2.7-0.3-3.2c-0.2-0.5-0.6-0.7-1.3-0.7h-0.3V161.3z"/>
						</g>
					</g>
				</g>
			</g>
			<g>
				<g>
					<g>
						<g>
							<path fill="#111424" d="M388.3,58.9c0.5,0,1.1,0.1,1.5,0.4c0.5,0.3,0.9,0.8,1.4,1.5c1,1.4,1.8,2.3,2.3,2.7
								c0.3,0.2,0.7,0.4,1.2,0.5c-0.1,0-0.1-0.1-0.2-0.1c-0.3-0.3-0.5-0.6-0.5-1c0-0.1,0-0.2,0-0.4c0-0.2,0.1-0.5,0.1-0.7
								c0-0.1,0-0.2,0-0.4c0-0.1,0-0.3,0-0.4c0-0.4-0.1-0.6-0.4-0.9c-0.3-0.2-0.7-0.3-1.3-0.3v-0.9c1.2,0,2.1,0.2,2.7,0.5
								c0.6,0.3,0.9,0.8,0.9,1.4c0,0.2,0,0.4-0.1,0.6c-0.1,0.2-0.1,0.4-0.2,0.6c-0.2,0.3-0.3,0.5-0.4,0.8c-0.1,0.3-0.2,0.5-0.2,0.6
								c0,0.2,0.1,0.3,0.2,0.5c0.1,0.1,0.3,0.2,0.5,0.3v0.5V65c-1.1,0-2.1-0.2-2.9-0.6c-0.8-0.4-1.7-1.2-2.8-2.3
								c-0.4-0.4-0.8-0.7-1.1-0.9c-0.4-0.2-0.8-0.3-1.2-0.3c-0.4,0-0.8,0.1-1.1,0.4c-0.3,0.3-0.4,0.6-0.4,1c0,0.4,0.1,0.8,0.3,1.1
								c0.2,0.2,0.4,0.3,0.6,0.4c-0.1-0.1-0.2-0.3-0.2-0.5c0-0.2,0.1-0.4,0.3-0.6c0.2-0.2,0.4-0.2,0.6-0.2c0.3,0,0.6,0.1,0.8,0.3
								c0.2,0.2,0.3,0.5,0.3,0.9s-0.1,0.6-0.4,0.9c-0.3,0.2-0.6,0.3-1.1,0.3c-0.7,0-1.2-0.3-1.7-0.8c-0.5-0.6-0.7-1.2-0.7-2
								c0-0.9,0.3-1.6,0.8-2.2C386.8,59.2,387.5,58.9,388.3,58.9z"/>
							<path fill="#111424" d="M393.9,56.1h-5v0.8h-1.1c-0.1-0.6-0.2-1-0.5-1.2c-0.3-0.2-0.8-0.4-1.4-0.4v-1.1h1.9v-1.4h1.1v1.4h4.9
								c0.4,0,0.6,0,0.7-0.1c0.1-0.1,0.2-0.2,0.2-0.3c0-0.2-0.1-0.3-0.2-0.3c-0.1-0.1-0.4-0.1-0.7-0.1h-0.6v-0.9h0.6
								c0.7,0,1.2,0.1,1.6,0.4c0.3,0.3,0.5,0.7,0.5,1.4c0,0.7-0.2,1.1-0.5,1.4C395.1,55.9,394.6,56.1,393.9,56.1z"/>
							<path fill="#111424" d="M394.9,51.4c-0.7,0.5-1.7,0.7-3.2,0.7c-1.4,0-2.5-0.2-3.1-0.7c-0.7-0.5-1-1.2-1-2.2
								c0-1,0.3-1.7,1-2.2c0.7-0.5,1.7-0.7,3.1-0.7h0c1.5,0,2.5,0.2,3.2,0.7c0.7,0.5,1,1.2,1,2.2C395.9,50.2,395.5,51,394.9,51.4z
								 M394.1,48.6c-0.4-0.1-1.2-0.2-2.4-0.2c-1.2,0-2,0.1-2.3,0.2c-0.4,0.1-0.6,0.3-0.6,0.7c0,0.3,0.2,0.6,0.6,0.7
								c0.4,0.1,1.2,0.2,2.3,0.2c1.2,0,2-0.1,2.4-0.2c0.4-0.1,0.6-0.3,0.6-0.7C394.7,48.9,394.5,48.7,394.1,48.6z"/>
							<path fill="#111424" d="M394.5,43.5h-6.6v1.2h-1.1c0-0.7-0.1-1.2-0.3-1.6c-0.1-0.2-0.4-0.5-0.9-0.7v-0.9h8.8
								c0.2,0,0.3,0,0.4-0.1c0.1-0.1,0.1-0.2,0.1-0.4v-0.5h1.1v2.1v2.1H395V44c0-0.2,0-0.3-0.1-0.4
								C394.8,43.5,394.7,43.5,394.5,43.5z"/>
						</g>
					</g>
				</g>
			</g>
			<g>
				<g>
					<g>
						<g>
							<path fill="#111424" d="M84.8,126.1v-6.6h-1.2v-1.1c0.7,0,1.2-0.1,1.6-0.3c0.2-0.1,0.5-0.4,0.7-0.9h0.9v8.8
								c0,0.2,0,0.3,0.1,0.4c0.1,0.1,0.2,0.1,0.4,0.1h0.5v1.1h-2.1h-2.1v-1.1h0.7c0.2,0,0.3,0,0.4-0.1
								C84.8,126.4,84.8,126.3,84.8,126.1z"/>
							<path fill="#111424" d="M93.1,122.6c-0.1-0.6-0.3-1-0.6-1.3c-0.3-0.3-0.6-0.5-1-0.5c-0.3,0-0.5,0.1-0.6,0.2
								c-0.2,0.1-0.2,0.3-0.2,0.5c0,0.2,0.1,0.4,0.4,0.6c0.3,0.2,0.6,0.4,1.1,0.6c0.8,0.3,1.4,0.7,1.8,1.1c0.4,0.4,0.5,0.9,0.5,1.6
								c0,0.7-0.2,1.3-0.6,1.8c-0.4,0.4-1,0.7-1.7,0.7c-0.8,0-1.4-0.3-1.9-0.9l-0.1-0.1l-0.3,0.8h-0.8v-3.1H90
								c0.2,0.7,0.4,1.2,0.8,1.6c0.4,0.4,0.8,0.5,1.3,0.5c0.3,0,0.5-0.1,0.6-0.2c0.1-0.1,0.2-0.3,0.2-0.6c0-0.2-0.1-0.4-0.4-0.7
								c-0.3-0.2-0.6-0.4-1.2-0.6c-0.8-0.3-1.4-0.7-1.8-1.1c-0.3-0.4-0.5-0.9-0.5-1.5c0-0.7,0.2-1.3,0.6-1.7
								c0.4-0.4,0.9-0.6,1.6-0.6c0.7,0,1.2,0.3,1.6,0.8l0,0l0.4-0.6H94v2.8H93.1z"/>
							<path fill="#111424" d="M95.6,125.9v-5h-0.8v-1.1c0.6-0.1,1-0.2,1.2-0.5c0.2-0.3,0.4-0.8,0.4-1.4h1.1v1.9h1.4v1.1h-1.4v4.9
								c0,0.4,0,0.6,0.1,0.7c0.1,0.1,0.2,0.2,0.3,0.2c0.2,0,0.3-0.1,0.3-0.2c0.1-0.1,0.1-0.4,0.1-0.7v-0.6h0.9v0.6
								c0,0.7-0.1,1.2-0.4,1.6c-0.3,0.3-0.7,0.5-1.4,0.5c-0.7,0-1.1-0.2-1.4-0.5C95.7,127.1,95.6,126.6,95.6,125.9z"/>
							<path fill="#111424" d="M104.6,126.1v-6.6h-1.2v-1.1c0.7,0,1.2-0.1,1.6-0.3c0.2-0.1,0.5-0.4,0.7-0.9h0.9v8.8
								c0,0.2,0,0.3,0.1,0.4c0.1,0.1,0.2,0.1,0.4,0.1h0.5v1.1h-2.1h-2.1v-1.1h0.7c0.2,0,0.3,0,0.4-0.1
								C104.5,126.4,104.6,126.3,104.6,126.1z"/>
							<path fill="#111424" d="M114.6,119.9c0,0.5-0.1,1.1-0.4,1.5c-0.3,0.5-0.8,0.9-1.5,1.4c-1.4,1-2.3,1.8-2.7,2.3
								c-0.2,0.3-0.4,0.7-0.5,1.2c0-0.1,0.1-0.1,0.1-0.2c0.3-0.3,0.6-0.5,1-0.5c0.1,0,0.2,0,0.4,0c0.2,0,0.5,0.1,0.7,0.1
								c0.1,0,0.2,0,0.4,0c0.1,0,0.3,0,0.4,0c0.4,0,0.6-0.1,0.9-0.4c0.2-0.3,0.3-0.7,0.3-1.3h0.9c0,1.2-0.2,2.1-0.5,2.7
								c-0.3,0.6-0.8,0.9-1.4,0.9c-0.2,0-0.4,0-0.6-0.1c-0.2-0.1-0.4-0.1-0.6-0.2c-0.3-0.2-0.5-0.3-0.8-0.4
								c-0.3-0.1-0.5-0.2-0.6-0.2c-0.2,0-0.3,0.1-0.5,0.2c-0.1,0.1-0.2,0.3-0.3,0.5H109h-0.5c0-1.1,0.2-2.1,0.6-2.9
								c0.4-0.8,1.2-1.7,2.3-2.8c0.4-0.4,0.7-0.8,0.9-1.2c0.2-0.4,0.3-0.8,0.3-1.2c0-0.4-0.1-0.8-0.4-1.1c-0.3-0.3-0.6-0.4-1-0.4
								c-0.4,0-0.8,0.1-1.1,0.4c-0.2,0.2-0.3,0.4-0.4,0.6c0.1-0.1,0.3-0.2,0.5-0.2c0.2,0,0.4,0.1,0.6,0.3c0.2,0.2,0.2,0.4,0.2,0.6
								c0,0.3-0.1,0.6-0.3,0.8c-0.2,0.2-0.5,0.3-0.9,0.3s-0.6-0.1-0.9-0.4c-0.2-0.3-0.3-0.6-0.3-1.1c0-0.7,0.3-1.2,0.8-1.7
								c0.6-0.5,1.2-0.7,2-0.7c0.9,0,1.6,0.3,2.2,0.8C114.3,118.4,114.6,119.1,114.6,119.9z"/>
						</g>
					</g>
				</g>
			</g>
			<g>
				<g>
					<g>
						<g>
							<path fill="#111424" d="M197.6,119.9c0,0.5-0.1,1.1-0.4,1.5c-0.3,0.5-0.8,0.9-1.5,1.4c-1.4,1-2.3,1.8-2.7,2.3
								c-0.2,0.3-0.4,0.7-0.5,1.2c0-0.1,0.1-0.1,0.1-0.2c0.3-0.3,0.6-0.5,1-0.5c0.1,0,0.2,0,0.4,0c0.2,0,0.5,0.1,0.7,0.1
								c0.1,0,0.2,0,0.4,0c0.1,0,0.3,0,0.4,0c0.4,0,0.7-0.1,0.9-0.4c0.2-0.3,0.3-0.7,0.3-1.3h0.9c0,1.2-0.2,2.1-0.5,2.7
								c-0.3,0.6-0.8,0.9-1.4,0.9c-0.2,0-0.4,0-0.6-0.1c-0.2-0.1-0.4-0.1-0.6-0.2c-0.3-0.2-0.5-0.3-0.8-0.4
								c-0.3-0.1-0.5-0.2-0.6-0.2c-0.2,0-0.3,0.1-0.5,0.2c-0.1,0.1-0.2,0.3-0.3,0.5H192h-0.5c0-1.1,0.2-2.1,0.6-2.9
								c0.4-0.8,1.2-1.7,2.3-2.8c0.4-0.4,0.7-0.8,0.9-1.2c0.2-0.4,0.3-0.8,0.3-1.2c0-0.4-0.1-0.8-0.4-1.1c-0.3-0.3-0.6-0.4-1-0.4
								c-0.4,0-0.8,0.1-1.1,0.4c-0.2,0.2-0.3,0.4-0.4,0.6c0.1-0.1,0.3-0.2,0.5-0.2c0.2,0,0.4,0.1,0.6,0.3c0.2,0.2,0.2,0.4,0.2,0.6
								c0,0.3-0.1,0.6-0.3,0.8c-0.2,0.2-0.5,0.3-0.9,0.3c-0.3,0-0.6-0.1-0.9-0.4c-0.2-0.3-0.3-0.6-0.3-1.1c0-0.7,0.3-1.2,0.8-1.7
								c0.6-0.5,1.2-0.7,2-0.7c0.9,0,1.6,0.3,2.2,0.8C197.3,118.4,197.6,119.1,197.6,119.9z"/>
							<path fill="#111424" d="M199.9,126.1v-4.8c0-0.2,0-0.3-0.1-0.4c-0.1-0.1-0.2-0.1-0.3-0.1h-0.3v-1.1h1.1h1.1h0.5v1l0.2-0.2
								c0.5-0.7,1.2-1,1.9-1c0.5,0,0.9,0.2,1.2,0.5c0.3,0.3,0.4,0.7,0.4,1.3v4.8c0,0.2,0,0.3,0.1,0.4c0.1,0.1,0.2,0.1,0.3,0.1h0.3
								v1.1h-1.6h-1.6v-1.1h0.2c0.1,0,0.2,0,0.3-0.1c0.1-0.1,0.1-0.2,0.1-0.4v-4.3c0-0.2-0.1-0.4-0.2-0.5c-0.1-0.1-0.3-0.2-0.4-0.2
								c-0.4,0-0.6,0.2-0.8,0.5c-0.2,0.4-0.3,0.9-0.2,1.6v2.9c0,0.2,0,0.3,0.1,0.4c0.1,0.1,0.1,0.1,0.3,0.1h0.2v1.1h-1.6h-1.6v-1.1
								h0.3c0.1,0,0.3,0,0.3-0.1C199.8,126.4,199.9,126.3,199.9,126.1z"/>
							<path fill="#111424" d="M208.9,127.9c-0.7,0-1.2-0.3-1.6-1c-0.4-0.7-0.6-1.6-0.6-2.9c0-1.5,0.2-2.6,0.6-3.3
								c0.4-0.8,0.9-1.1,1.7-1.1c0.7,0,1.2,0.2,1.5,0.7v-1.5c0-0.2,0-0.3-0.1-0.4c0-0.1-0.1-0.1-0.2-0.1h-0.4v-1.1h1.1h1.1h0.5v8.8
								c0,0.2,0,0.3,0.1,0.4c0.1,0.1,0.2,0.1,0.3,0.1h0.3v1.1h-1.3h-1.3V127C210.1,127.6,209.6,127.9,208.9,127.9z M209.6,120.9
								c-0.3,0-0.6,0.2-0.7,0.6c-0.1,0.4-0.2,1.1-0.2,2.2c0,1.1,0.1,1.9,0.2,2.2c0.1,0.4,0.4,0.6,0.7,0.6c0.3,0,0.5-0.2,0.7-0.6
								c0.2-0.4,0.2-0.9,0.2-1.7v-1.1c0-0.8-0.1-1.4-0.2-1.7C210.2,121.1,209.9,120.9,209.6,120.9z"/>
							<path fill="#111424" d="M218.5,126.1v-6.6h-1.2v-1.1c0.7,0,1.2-0.1,1.6-0.3c0.2-0.1,0.5-0.4,0.7-0.9h0.9v8.8
								c0,0.2,0,0.3,0.1,0.4c0.1,0.1,0.2,0.1,0.4,0.1h0.5v1.1h-2.1h-2.1v-1.1h0.7c0.2,0,0.3,0,0.4-0.1
								C218.5,126.4,218.5,126.3,218.5,126.1z"/>
							<path fill="#111424" d="M228.6,119.9c0,0.5-0.1,1.1-0.4,1.5c-0.3,0.5-0.8,0.9-1.5,1.4c-1.4,1-2.3,1.8-2.7,2.3
								c-0.2,0.3-0.4,0.7-0.5,1.2c0-0.1,0.1-0.1,0.1-0.2c0.3-0.3,0.6-0.5,1-0.5c0.1,0,0.2,0,0.4,0c0.2,0,0.5,0.1,0.7,0.1
								c0.1,0,0.2,0,0.4,0c0.1,0,0.3,0,0.4,0c0.4,0,0.6-0.1,0.9-0.4c0.2-0.3,0.3-0.7,0.3-1.3h0.9c0,1.2-0.2,2.1-0.5,2.7
								c-0.3,0.6-0.8,0.9-1.4,0.9c-0.2,0-0.4,0-0.6-0.1c-0.2-0.1-0.4-0.1-0.6-0.2c-0.3-0.2-0.5-0.3-0.8-0.4
								c-0.3-0.1-0.5-0.2-0.6-0.2c-0.2,0-0.3,0.1-0.5,0.2c-0.1,0.1-0.2,0.3-0.3,0.5h-0.5h-0.5c0-1.1,0.2-2.1,0.6-2.9
								c0.4-0.8,1.2-1.7,2.3-2.8c0.4-0.4,0.7-0.8,0.9-1.2c0.2-0.4,0.3-0.8,0.3-1.2c0-0.4-0.1-0.8-0.4-1.1c-0.3-0.3-0.6-0.4-1-0.4
								c-0.4,0-0.8,0.1-1.1,0.4c-0.2,0.2-0.3,0.4-0.4,0.6c0.1-0.1,0.3-0.2,0.5-0.2c0.2,0,0.4,0.1,0.6,0.3c0.2,0.2,0.2,0.4,0.2,0.6
								c0,0.3-0.1,0.6-0.3,0.8c-0.2,0.2-0.5,0.3-0.9,0.3s-0.6-0.1-0.9-0.4c-0.2-0.3-0.3-0.6-0.3-1.1c0-0.7,0.3-1.2,0.8-1.7
								c0.6-0.5,1.2-0.7,2-0.7c0.9,0,1.6,0.3,2.2,0.8C228.3,118.4,228.6,119.1,228.6,119.9z"/>
						</g>
					</g>
				</g>
			</g>
			<g>
				<g>
					<g>
						<g>
							<path fill="#111424" d="M308.2,120c0-0.5-0.1-1-0.4-1.3c-0.3-0.4-0.7-0.5-1.1-0.5c-0.4,0-0.7,0.1-0.9,0.3
								c-0.1,0.1-0.2,0.3-0.3,0.5c0.1-0.1,0.3-0.1,0.5-0.1c0.3,0,0.5,0.1,0.7,0.2c0.2,0.2,0.2,0.4,0.2,0.6c0,0.3-0.1,0.6-0.3,0.8
								c-0.2,0.2-0.5,0.3-0.8,0.3c-0.3,0-0.6-0.1-0.8-0.4c-0.2-0.3-0.3-0.6-0.3-1c0-0.7,0.3-1.3,0.8-1.7c0.5-0.4,1.2-0.7,2-0.7
								c0.9,0,1.5,0.3,2.1,0.8c0.5,0.5,0.8,1.2,0.8,2c0,0.8-0.2,1.4-0.8,1.8c-0.3,0.3-0.7,0.5-1.2,0.6c0.5,0.1,1,0.3,1.3,0.6
								c0.5,0.4,0.8,1.1,0.8,1.9c0,0.9-0.3,1.6-0.9,2.2c-0.6,0.6-1.3,0.9-2.2,0.9c-0.9,0-1.6-0.2-2.1-0.7c-0.6-0.5-0.9-1-0.9-1.7
								c0-0.4,0.1-0.7,0.4-1c0.2-0.3,0.6-0.4,0.9-0.4c0.3,0,0.5,0.1,0.7,0.3c0.2,0.2,0.3,0.5,0.3,0.8c0,0.2-0.1,0.5-0.2,0.6
								c-0.2,0.2-0.3,0.2-0.6,0.2c-0.2,0-0.3,0-0.4-0.1c0.1,0.2,0.2,0.4,0.4,0.6c0.3,0.2,0.6,0.4,1,0.4c0.5,0,0.9-0.2,1.2-0.5
								c0.3-0.4,0.4-0.9,0.4-1.5c0-0.7-0.2-1.1-0.5-1.5c-0.3-0.3-0.9-0.5-1.5-0.5h-0.1v-0.9h0c0.7,0,1.2-0.2,1.5-0.5
								C308.1,121.2,308.2,120.7,308.2,120z"/>
							<path fill="#111424" d="M312.2,126.1v-4.8c0-0.2,0-0.3-0.1-0.4c-0.1-0.1-0.2-0.1-0.3-0.1h-0.3v-1.1h0.9h0.9h0.5v0.7l0-0.1
								c0.3-0.5,0.7-0.8,1.3-0.8c0.5,0,0.8,0.1,1.1,0.4c0.3,0.3,0.4,0.7,0.4,1.2c0,0.4-0.1,0.7-0.3,0.9c-0.2,0.2-0.5,0.4-0.8,0.4
								c-0.3,0-0.5-0.1-0.7-0.2c-0.2-0.2-0.3-0.4-0.3-0.7c0-0.3,0.1-0.5,0.2-0.7c0.1-0.2,0.3-0.3,0.6-0.3c0.1,0,0.2,0,0.3,0.1
								l-0.1-0.1c-0.1-0.1-0.3-0.2-0.5-0.2c-0.5,0-0.8,0.2-1,0.6c-0.2,0.4-0.3,1.1-0.2,2.2v2.9c0,0.2,0,0.3,0.1,0.4
								c0.1,0.1,0.3,0.1,0.5,0.1h0.4v1.1h-1.8h-1.8v-1.1h0.3c0.2,0,0.3,0,0.3-0.1C312.2,126.4,312.2,126.3,312.2,126.1z"/>
							<path fill="#111424" d="M319.2,127.9c-0.7,0-1.2-0.3-1.6-1c-0.4-0.7-0.6-1.6-0.6-2.9c0-1.5,0.2-2.6,0.6-3.3
								c0.4-0.8,0.9-1.1,1.7-1.1c0.7,0,1.2,0.2,1.5,0.7v-1.5c0-0.2,0-0.3-0.1-0.4c0-0.1-0.1-0.1-0.2-0.1h-0.4v-1.1h1.1h1.1h0.5v8.8
								c0,0.2,0,0.3,0.1,0.4c0.1,0.1,0.2,0.1,0.3,0.1h0.3v1.1h-1.3h-1.3V127C320.5,127.6,319.9,127.9,319.2,127.9z M320,120.9
								c-0.3,0-0.6,0.2-0.7,0.6c-0.1,0.4-0.2,1.1-0.2,2.2c0,1.1,0.1,1.9,0.2,2.2c0.1,0.4,0.4,0.6,0.7,0.6c0.3,0,0.5-0.2,0.7-0.6
								c0.2-0.4,0.2-0.9,0.2-1.7v-1.1c0-0.8-0.1-1.4-0.2-1.7C320.5,121.1,320.3,120.9,320,120.9z"/>
							<path fill="#111424" d="M328.9,126.1v-6.6h-1.2v-1.1c0.7,0,1.2-0.1,1.6-0.3c0.2-0.1,0.5-0.4,0.7-0.9h0.9v8.8
								c0,0.2,0,0.3,0.1,0.4c0.1,0.1,0.2,0.1,0.4,0.1h0.5v1.1h-2h-2.1v-1.1h0.7c0.2,0,0.3,0,0.4-0.1
								C328.9,126.4,328.9,126.3,328.9,126.1z"/>
							<path fill="#111424" d="M338.9,119.9c0,0.5-0.1,1.1-0.4,1.5c-0.3,0.5-0.8,0.9-1.5,1.4c-1.4,1-2.3,1.8-2.7,2.3
								c-0.2,0.3-0.4,0.7-0.5,1.2c0-0.1,0.1-0.1,0.1-0.2c0.3-0.3,0.6-0.5,1-0.5c0.1,0,0.2,0,0.4,0c0.2,0,0.5,0.1,0.7,0.1
								c0.1,0,0.2,0,0.4,0c0.1,0,0.3,0,0.4,0c0.4,0,0.6-0.1,0.9-0.4c0.2-0.3,0.3-0.7,0.3-1.3h0.9c0,1.2-0.2,2.1-0.5,2.7
								c-0.3,0.6-0.8,0.9-1.4,0.9c-0.2,0-0.4,0-0.6-0.1c-0.2-0.1-0.4-0.1-0.6-0.2c-0.3-0.2-0.5-0.3-0.8-0.4
								c-0.3-0.1-0.5-0.2-0.6-0.2c-0.2,0-0.3,0.1-0.5,0.2c-0.1,0.1-0.2,0.3-0.3,0.5h-0.5h-0.5c0-1.1,0.2-2.1,0.6-2.9
								c0.4-0.8,1.2-1.7,2.3-2.8c0.4-0.4,0.7-0.8,0.9-1.2c0.2-0.4,0.3-0.8,0.3-1.2c0-0.4-0.1-0.8-0.4-1.1c-0.3-0.3-0.6-0.4-1-0.4
								c-0.4,0-0.8,0.1-1.1,0.4c-0.2,0.2-0.3,0.4-0.4,0.6c0.1-0.1,0.3-0.2,0.5-0.2c0.2,0,0.4,0.1,0.6,0.3c0.2,0.2,0.2,0.4,0.2,0.6
								c0,0.3-0.1,0.6-0.3,0.8c-0.2,0.2-0.5,0.3-0.9,0.3c-0.3,0-0.6-0.1-0.9-0.4c-0.2-0.3-0.3-0.6-0.3-1.1c0-0.7,0.3-1.2,0.8-1.7
								c0.6-0.5,1.2-0.7,2-0.7c0.9,0,1.6,0.3,2.2,0.8C338.6,118.4,338.9,119.1,338.9,119.9z"/>
						</g>
					</g>
				</g>
			</g>
			<g>
				<g>
					<g>
						<g>
							<path fill="#111424" d="M388.3,24.1c0.5,0,1.1,0.1,1.5,0.4c0.5,0.3,0.9,0.8,1.4,1.5c1,1.4,1.8,2.3,2.3,2.7
								c0.3,0.2,0.7,0.4,1.2,0.5c-0.1,0-0.1-0.1-0.2-0.1c-0.3-0.3-0.5-0.6-0.5-1c0-0.1,0-0.2,0-0.4c0-0.2,0.1-0.5,0.1-0.7
								c0-0.1,0-0.2,0-0.4c0-0.1,0-0.3,0-0.4c0-0.4-0.1-0.6-0.4-0.9c-0.3-0.2-0.7-0.3-1.3-0.3v-0.9c1.2,0,2.1,0.2,2.7,0.5
								c0.6,0.3,0.9,0.8,0.9,1.4c0,0.2,0,0.4-0.1,0.6c-0.1,0.2-0.1,0.4-0.2,0.6c-0.2,0.3-0.3,0.5-0.4,0.8c-0.1,0.3-0.2,0.5-0.2,0.6
								c0,0.2,0.1,0.3,0.2,0.5c0.1,0.1,0.3,0.2,0.5,0.3v0.5v0.5c-1.1,0-2.1-0.2-2.9-0.6c-0.8-0.4-1.7-1.2-2.8-2.3
								c-0.4-0.4-0.8-0.7-1.1-0.9c-0.4-0.2-0.8-0.3-1.2-0.3c-0.4,0-0.8,0.1-1.1,0.4c-0.3,0.3-0.4,0.6-0.4,1c0,0.4,0.1,0.8,0.3,1.1
								c0.2,0.2,0.4,0.3,0.6,0.4c-0.1-0.1-0.2-0.3-0.2-0.5c0-0.2,0.1-0.4,0.3-0.6c0.2-0.2,0.4-0.2,0.6-0.2c0.3,0,0.6,0.1,0.8,0.3
								c0.2,0.2,0.3,0.5,0.3,0.9c0,0.3-0.1,0.6-0.4,0.9c-0.3,0.2-0.6,0.3-1.1,0.3c-0.7,0-1.2-0.3-1.7-0.8c-0.5-0.6-0.7-1.2-0.7-2
								c0-0.9,0.3-1.6,0.8-2.2C386.8,24.3,387.5,24.1,388.3,24.1z"/>
							<path fill="#111424" d="M393.9,21.2h-5V22h-1.1c-0.1-0.6-0.2-1-0.5-1.2c-0.3-0.2-0.8-0.4-1.4-0.4v-1.1h1.9v-1.4h1.1v1.4h4.9
								c0.4,0,0.6,0,0.7-0.1c0.1-0.1,0.2-0.2,0.2-0.3c0-0.2-0.1-0.3-0.2-0.3c-0.1-0.1-0.4-0.1-0.7-0.1h-0.6v-0.9h0.6
								c0.7,0,1.2,0.1,1.6,0.4c0.3,0.3,0.5,0.7,0.5,1.4c0,0.7-0.2,1.1-0.5,1.4C395.1,21.1,394.6,21.2,393.9,21.2z"/>
							<path fill="#111424" d="M394.9,16.6c-0.7,0.5-1.7,0.7-3.2,0.7c-1.4,0-2.5-0.2-3.1-0.7c-0.7-0.5-1-1.2-1-2.2
								c0-1,0.3-1.7,1-2.2c0.7-0.5,1.7-0.7,3.1-0.7h0c1.5,0,2.5,0.2,3.2,0.7c0.7,0.5,1,1.2,1,2.2C395.9,15.4,395.5,16.1,394.9,16.6z
								 M394.1,13.7c-0.4-0.1-1.2-0.2-2.4-0.2c-1.2,0-2,0.1-2.3,0.2c-0.4,0.1-0.6,0.3-0.6,0.7c0,0.3,0.2,0.6,0.6,0.7
								c0.4,0.1,1.2,0.2,2.3,0.2c1.2,0,2-0.1,2.4-0.2c0.4-0.1,0.6-0.3,0.6-0.7C394.7,14.1,394.5,13.8,394.1,13.7z"/>
							<path fill="#111424" d="M394.5,8.7h-6.6v1.2h-1.1c0-0.7-0.1-1.2-0.3-1.6c-0.1-0.2-0.4-0.5-0.9-0.7V6.7h8.8
								c0.2,0,0.3,0,0.4-0.1c0.1-0.1,0.1-0.2,0.1-0.4V5.8h1.1v2.1v2.1H395V9.1c0-0.2,0-0.3-0.1-0.4C394.8,8.7,394.7,8.7,394.5,8.7z"
								/>
						</g>
					</g>
				</g>
			</g>
		</g>
		<g>
			<polygon fill="#B9333A" points="181.8,143.4 160.8,157.4 181.8,171.3 202.7,157.4 			"/>
			<polygon fill="#282828" points="237.5,143.4 216.6,157.4 237.5,171.3 258.4,157.4 			"/>
		</g>
		<g>
			<ellipse fill="#ACBB55" cx="23.1" cy="78.9" rx="14.9" ry="17.4"/>
			<g>
				<g>
					<path fill="#FFFFFF" d="M19.5,85.6c-0.7-1.2-1-3.5-1-6.7c0-3.2,0.3-5.4,1-6.6c0.7-1.2,1.8-1.8,3.6-1.8c1.7,0,2.9,0.6,3.6,1.8
						c0.7,1.2,1,3.4,1,6.5v0.1c0,3.2-0.3,5.5-1,6.7c-0.7,1.2-1.9,1.8-3.6,1.8C21.4,87.4,20.2,86.8,19.5,85.6z M24.3,84.3
						c0.2-1,0.3-2.8,0.3-5.4c0-2.6-0.1-4.3-0.3-5.3c-0.2-0.9-0.6-1.4-1.2-1.4c-0.6,0-1,0.5-1.2,1.4c-0.2,0.9-0.3,2.7-0.3,5.3
						c0,2.6,0.1,4.4,0.3,5.4c0.2,1,0.6,1.4,1.2,1.4C23.7,85.7,24.1,85.2,24.3,84.3z"/>
				</g>
			</g>
		</g>
		<g>
			<ellipse fill="#ACBB55" cx="23.1" cy="26.7" rx="14.9" ry="17.4"/>
			<g>
				<g>
					<path fill="#FFFFFF" d="M14.3,33.3c-0.7-1.2-1-3.5-1-6.7c0-3.2,0.3-5.4,1-6.6c0.7-1.2,1.8-1.8,3.6-1.8c1.7,0,2.9,0.6,3.6,1.8
						c0.7,1.2,1,3.4,1,6.5v0.1c0,3.2-0.3,5.5-1,6.7c-0.7,1.2-1.9,1.8-3.6,1.8C16.2,35.1,15,34.5,14.3,33.3z M19.1,32
						c0.2-1,0.3-2.8,0.3-5.4c0-2.6-0.1-4.3-0.3-5.3c-0.2-0.9-0.6-1.4-1.2-1.4c-0.6,0-1,0.5-1.2,1.4c-0.2,0.9-0.3,2.7-0.3,5.3
						c0,2.6,0.1,4.4,0.3,5.4c0.2,1,0.6,1.4,1.2,1.4C18.5,33.4,18.9,32.9,19.1,32z"/>
					<path fill="#FFFFFF" d="M24.7,33.3c-0.7-1.2-1-3.5-1-6.7c0-3.2,0.3-5.4,1-6.6c0.7-1.2,1.8-1.8,3.6-1.8c1.7,0,2.9,0.6,3.6,1.8
						c0.7,1.2,1,3.4,1,6.5v0.1c0,3.2-0.3,5.5-1,6.7c-0.7,1.2-1.9,1.8-3.6,1.8C26.5,35.1,25.3,34.5,24.7,33.3z M29.5,32
						c0.2-1,0.3-2.8,0.3-5.4c0-2.6-0.1-4.3-0.3-5.3c-0.2-0.9-0.6-1.4-1.2-1.4c-0.6,0-1,0.5-1.2,1.4c-0.2,0.9-0.3,2.7-0.3,5.3
						c0,2.6,0.1,4.4,0.3,5.4c0.2,1,0.6,1.4,1.2,1.4C28.9,33.4,29.3,32.9,29.5,32z"/>
				</g>
			</g>
		</g>
	</g>
	<g>
		<path fill="#AFB39E" d="M405.2,0.2C405.1,0.1,405,0,404.8,0h-27.9H349h-27.9h-27.9h-27.9h-27.9h-27.9h-27.9h-27.9H126H98.1H70.2
			H42.3H14.5c-0.2,0-0.4,0.1-0.5,0.3L0.1,26.4c-0.1,0.2-0.1,0.3,0,0.5l13.8,25.9L0.1,78.7C0,78.8,0,79,0.1,79.2L14,105.3
			c0.1,0.2,0.3,0.3,0.5,0.3h27.4v34.3v34.9c0,0.1,0.1,0.3,0.2,0.4c0.1,0.1,0.2,0.2,0.4,0.2h55.8h55.8h55.8h55.8h55.8h55.8
			c0.1,0,0.3-0.1,0.4-0.2c0.1-0.1,0.2-0.2,0.2-0.4v-34.9c0,0,0,0,0,0v-34.3h27.4c0.1,0,0.3-0.1,0.4-0.2c0.1-0.1,0.2-0.2,0.2-0.4
			V70.2v0V35.4v0V0.5C405.3,0.4,405.3,0.2,405.2,0.2z M376.4,139.4h-55.2h-55.2v-33.8h27.4h27.9H349h27.4V139.4z M209.6,139.4h-55.2
			v-33.8h27.4h27.9h27.9h27.4v33.8H209.6z M98.1,139.4H42.9v-33.8h27.4h27.9H126h27.4v33.8H98.1z M376.4,104.6h-26.8V70.7h26.8
			V104.6z M42.9,52.8V35.9h26.8v33.8H42.9V52.8z M348.5,69.7h-26.8V35.9h26.8V69.7z M320.6,69.7h-26.8V35.9h26.8V69.7z M292.8,69.7
			h-26.8V35.9h26.8V69.7z M264.9,69.7H238V35.9h26.8V69.7z M237,69.7h-26.8V35.9H237V69.7z M209.1,69.7h-26.8V35.9h26.8V69.7z
			 M181.2,69.7h-26.8V35.9h26.8V69.7z M153.3,69.7h-26.8V35.9h26.8V69.7z M125.5,69.7H98.6V35.9h26.8V69.7z M349.6,69.7V35.9h26.8
			v33.8H349.6z M97.6,69.7H70.8V35.9h26.8V69.7z M42.9,70.7h26.8v33.8H42.9V70.7z M70.8,70.7h26.8v33.8H70.8V70.7z M98.6,70.7h26.8
			v33.8H98.6V70.7z M126.5,70.7h26.8v33.8h-26.8V70.7z M154.4,70.7h26.8v33.8h-26.8V70.7z M182.3,70.7h26.8v33.8h-26.8V70.7z
			 M210.2,70.7H237v33.8h-26.8V70.7z M238,70.7h26.8v33.8H238V70.7z M265.9,70.7h26.8v33.8h-26.8V70.7z M293.8,70.7h26.8v33.8h-26.8
			V70.7z M321.7,70.7h26.8v33.8h-26.8V70.7z M377.5,69.7V35.9h26.8v33.8H377.5z M404.3,34.9h-26.8V1h26.8V34.9z M376.4,34.9h-26.8V1
			h26.8V34.9z M348.5,34.9h-26.8V1h26.8V34.9z M320.6,34.9h-26.8V1h26.8V34.9z M292.8,34.9h-26.8V1h26.8V34.9z M264.9,34.9H238V1
			h26.8V34.9z M237,34.9h-26.8V1H237V34.9z M209.1,34.9h-26.8V1h26.8V34.9z M181.2,34.9h-26.8V1h26.8V34.9z M153.3,34.9h-26.8V1
			h26.8V34.9z M125.5,34.9H98.6V1h26.8V34.9z M97.6,34.9H70.8V1h26.8V34.9z M69.7,34.9H42.9V1h26.8V34.9z M14.8,1h27v34.3v0v16.9
			h-27L1.1,26.7L14.8,1z M1.1,78.9l13.7-25.6h27v16.9v0v34.3h-27L1.1,78.9z M42.9,140.5h54.7v33.8H42.9V140.5z M98.6,140.5h54.7
			v33.8H98.6V140.5z M154.4,140.5h54.7v33.8h-54.7V140.5z M210.2,140.5h54.7v33.8h-54.7V140.5z M265.9,140.5h54.7v33.8h-54.7V140.5z
			 M321.7,140.5h54.7v33.8h-54.7V140.5z M377.5,70.7h26.8v33.8h-26.8V70.7z"/>
		<path fill="#AFB39E" d="M382.3,32.8l0.2,0.1h16.7l0.2-0.1l2.8-2.8l0.1-0.2V6.1l-0.1-0.2l-2.8-2.8L399.2,3h-16.7l-0.2,0.1l-2.8,2.8
			l-0.1,0.2v23.7l0.1,0.2L382.3,32.8z M380,6.2l2.6-2.6h16.5l2.6,2.6v23.5l-2.6,2.6h-16.5l-2.6-2.6V6.2z"/>
		<path fill="#AFB39E" d="M402.2,40.8l-2.8-2.8l-0.2-0.1h-16.7l-0.2,0.1l-2.8,2.8l-0.1,0.2v23.7l0.1,0.2l2.8,2.8l0.2,0.1h16.7
			l0.2-0.1l2.8-2.8l0.1-0.2V41L402.2,40.8z M401.8,64.5l-2.6,2.6h-16.5l-2.6-2.6V41.1l2.6-2.6h16.5l2.6,2.6V64.5z"/>
		<path fill="#AFB39E" d="M402.2,75.6l-2.8-2.8l-0.2-0.1h-16.7l-0.2,0.1l-2.8,2.8l-0.1,0.2v23.7l0.1,0.2l2.8,2.8l0.2,0.1h16.7
			l0.2-0.1l2.8-2.8l0.1-0.2V75.8L402.2,75.6z M401.8,99.4l-2.6,2.6h-16.5l-2.6-2.6V75.9l2.6-2.6h16.5l2.6,2.6V99.4z"/>
		<path fill="#AFB39E" d="M151.3,110.5l-2.8-2.8l-0.2-0.1H47.9l-0.2,0.1l-2.8,2.8l-0.1,0.2v23.7l0.1,0.2l2.8,2.8l0.2,0.1h100.4
			l0.2-0.1l2.8-2.8l0.1-0.2v-23.7L151.3,110.5z M150.8,134.2l-2.6,2.6H48l-2.6-2.6v-23.5l2.6-2.6h100.2l2.6,2.6V134.2z"/>
		<path fill="#AFB39E" d="M262.8,110.5l-2.8-2.8l-0.2-0.1H159.5l-0.2,0.1l-2.8,2.8l-0.1,0.2v23.7l0.1,0.2l2.8,2.8l0.2,0.1h100.4
			l0.2-0.1l2.8-2.8l0.1-0.2v-23.7L262.8,110.5z M262.3,134.2l-2.6,2.6H159.6l-2.6-2.6v-23.5l2.6-2.6h100.2l2.6,2.6V134.2z"/>
		<path fill="#AFB39E" d="M270.8,107.7l-2.8,2.8l-0.1,0.2v23.7l0.1,0.2l2.8,2.8l0.2,0.1h100.4l0.2-0.1l2.8-2.8l0.1-0.2v-23.7
			l-0.1-0.2l-2.8-2.8l-0.2-0.1H271L270.8,107.7z M371.2,108.1l2.6,2.6v23.5l-2.6,2.6H271.1l-2.6-2.6v-23.5l2.6-2.6H371.2z"/>
		<path fill="#AFB39E" d="M95.5,145.3l-2.8-2.8l-0.2-0.1H47.9l-0.2,0.1l-2.8,2.8l-0.1,0.2v23.7l0.1,0.2l2.8,2.8l0.2,0.1h44.6
			l0.2-0.1l2.8-2.8l0.1-0.2v-23.7L95.5,145.3z M95.1,169.1l-2.6,2.6H48l-2.6-2.6v-23.5L48,143h44.4l2.6,2.6V169.1z"/>
		<path fill="#AFB39E" d="M151.3,145.3l-2.8-2.8l-0.2-0.1h-44.6l-0.2,0.1l-2.8,2.8l-0.1,0.2v23.7l0.1,0.2l2.8,2.8l0.2,0.1h44.6
			l0.2-0.1l2.8-2.8l0.1-0.2v-23.7L151.3,145.3z M150.8,169.1l-2.6,2.6h-44.4l-2.6-2.6v-23.5l2.6-2.6h44.4l2.6,2.6V169.1z"/>
		<path fill="#AFB39E" d="M318.6,145.3l-2.8-2.8l-0.2-0.1H271l-0.2,0.1l-2.8,2.8l-0.1,0.2v23.7l0.1,0.2l2.8,2.8l0.2,0.1h44.6
			l0.2-0.1l2.8-2.8l0.1-0.2v-23.7L318.6,145.3z M318.1,169.1l-2.6,2.6h-44.4l-2.6-2.6v-23.5l2.6-2.6h44.4l2.6,2.6V169.1z"/>
		<path fill="#AFB39E" d="M374.3,145.3l-2.8-2.8l-0.2-0.1h-44.6l-0.2,0.1l-2.8,2.8l-0.1,0.2v23.7l0.1,0.2l2.8,2.8l0.2,0.1h44.6
			l0.2-0.1l2.8-2.8l0.1-0.2v-23.7L374.3,145.3z M373.9,169.1l-2.6,2.6h-44.4l-2.6-2.6v-23.5l2.6-2.6h44.4l2.6,2.6V169.1z"/>
	</g>
	<text transform="matrix(1 0 0 1 306 396)" font-family="'MyriadPro-Regular'" font-size="12">94a803</text>
</g>
</svg>
