<?xml version="1.0" encoding="utf-8"?>
<!-- Generator: Adobe Illustrator 18.1.0, SVG Export Plug-In . SVG Version: 6.00 Build 0)  -->
<svg version="1.1" id="Layer_1" xmlns="http://www.w3.org/2000/svg" xmlns:xlink="http://www.w3.org/1999/xlink" x="0px" y="0px"
	 viewBox="0 0 335.6 35.9" enable-background="new 0 0 335.6 35.9" xml:space="preserve">
<g>
	<g>
		<g>
			<g>
				<ellipse fill="#B9333A" cx="14.5" cy="-121.5" rx="11.8" ry="13.9"/>
				<g>
					<g>
						<path fill="#FFFFFF" d="M15.7-124.7c0-0.7-0.2-1.3-0.6-1.8c-0.4-0.5-0.9-0.7-1.5-0.7c-0.5,0-0.9,0.1-1.2,0.5
							c-0.2,0.2-0.3,0.4-0.4,0.7c0.2-0.1,0.4-0.2,0.6-0.2c0.4,0,0.7,0.1,0.9,0.3c0.2,0.2,0.3,0.5,0.3,0.8c0,0.4-0.1,0.7-0.4,1
							c-0.3,0.3-0.7,0.4-1.1,0.4c-0.4,0-0.8-0.2-1.1-0.5c-0.3-0.4-0.4-0.8-0.4-1.3c0-0.9,0.3-1.7,1-2.2c0.7-0.6,1.6-0.9,2.7-0.9
							c1.1,0,2,0.3,2.7,1c0.7,0.7,1,1.6,1,2.7c0,1-0.3,1.8-1,2.4c-0.4,0.4-1,0.6-1.6,0.8c0.7,0.1,1.3,0.4,1.7,0.8
							c0.7,0.6,1,1.4,1,2.5c0,1.2-0.4,2.1-1.1,2.9c-0.8,0.8-1.7,1.2-2.8,1.2c-1.1,0-2.1-0.3-2.8-0.9c-0.8-0.6-1.1-1.3-1.1-2.2
							c0-0.5,0.2-1,0.5-1.3c0.3-0.4,0.7-0.5,1.2-0.5c0.4,0,0.7,0.1,0.9,0.4c0.2,0.3,0.4,0.6,0.4,1c0,0.3-0.1,0.6-0.3,0.8
							c-0.2,0.2-0.4,0.3-0.7,0.3c-0.2,0-0.4-0.1-0.6-0.2c0.1,0.3,0.2,0.5,0.5,0.7c0.4,0.3,0.8,0.5,1.4,0.5c0.6,0,1.2-0.2,1.5-0.7
							c0.4-0.5,0.6-1.1,0.6-1.9c0-0.9-0.2-1.5-0.7-1.9c-0.4-0.4-1.1-0.6-2-0.6h-0.1v-1.2h0c0.9,0,1.5-0.2,2-0.6
							C15.5-123.2,15.7-123.8,15.7-124.7z"/>
					</g>
				</g>
			</g>
			<g>
				<ellipse fill="#111424" cx="42.3" cy="-121.5" rx="11.9" ry="13.9"/>
				<g>
					<g>
						<path fill="#FFFFFF" d="M42.8-128.5c1,0,1.8,0.3,2.5,0.8c0.7,0.5,1,1.2,1,2c0,0.5-0.1,0.9-0.4,1.2c-0.3,0.3-0.6,0.5-1,0.5
							c-0.4,0-0.7-0.1-1-0.3c-0.3-0.2-0.4-0.5-0.4-0.9c0-0.4,0.1-0.7,0.3-0.9c0.2-0.2,0.4-0.3,0.7-0.3c0.2,0,0.3,0,0.4,0.1
							c-0.1-0.2-0.2-0.4-0.3-0.5c-0.3-0.3-0.7-0.4-1.2-0.4c-0.8,0-1.3,0.4-1.7,1.2c-0.4,0.8-0.5,2.1-0.5,3.8l0,0.2
							c0.5-0.5,1.1-0.7,1.8-0.7c1.1,0,1.9,0.3,2.5,1c0.6,0.7,0.8,1.6,0.8,2.9c0,1.6-0.3,2.7-1,3.5c-0.6,0.8-1.6,1.1-3,1.1
							c-1.4,0-2.4-0.5-3-1.5c-0.6-1-0.9-2.5-0.9-4.7c0-2.8,0.4-4.8,1.1-6.1C40.2-127.9,41.3-128.5,42.8-128.5z M41-118.6
							c0,1,0.1,1.7,0.3,2.2c0.2,0.4,0.6,0.7,1,0.7c0.5,0,0.8-0.2,1-0.7c0.2-0.4,0.3-1.2,0.3-2.2c0-1-0.1-1.7-0.3-2.1
							c-0.2-0.5-0.6-0.7-1-0.7c-0.5,0-0.8,0.2-1,0.7C41.1-120.3,41-119.6,41-118.6z"/>
					</g>
				</g>
			</g>
			<g>
				<ellipse fill="#B9333A" cx="70.2" cy="-121.5" rx="11.8" ry="13.9"/>
				<g>
					<g>
						<path fill="#FFFFFF" d="M69.8-114.3c-1,0-1.8-0.3-2.4-0.8c-0.6-0.5-0.9-1.2-0.9-2c0-0.5,0.1-0.9,0.4-1.2
							c0.3-0.3,0.6-0.5,1-0.5c0.4,0,0.7,0.1,1,0.3c0.3,0.2,0.4,0.5,0.4,0.9c0,0.4-0.1,0.7-0.3,0.9c-0.2,0.2-0.4,0.3-0.7,0.3
							c-0.2,0-0.3,0-0.5-0.1c0.1,0.2,0.2,0.4,0.4,0.5c0.3,0.3,0.7,0.4,1.1,0.4c0.8,0,1.4-0.3,1.7-1c0.3-0.6,0.5-1.8,0.5-3.3v-0.8
							c-0.5,0.5-1.1,0.7-1.8,0.7c-1.1,0-1.9-0.3-2.5-1c-0.6-0.7-0.8-1.6-0.8-2.9c0-1.5,0.3-2.6,1-3.4c0.7-0.8,1.7-1.2,2.9-1.2
							c1.4,0,2.5,0.5,3,1.5c0.6,1,0.9,2.8,0.9,5.3c0,2.7-0.3,4.6-1,5.7C72.5-114.9,71.4-114.3,69.8-114.3z M71.5-124.3
							c0-1-0.1-1.7-0.3-2.2c-0.2-0.4-0.6-0.7-1-0.7c-0.5,0-0.8,0.2-1,0.7c-0.2,0.4-0.3,1.2-0.3,2.2c0,1,0.1,1.7,0.3,2.1
							c0.2,0.4,0.6,0.7,1,0.7c0.5,0,0.8-0.2,1-0.7C71.4-122.6,71.5-123.3,71.5-124.3z"/>
					</g>
				</g>
			</g>
			<g>
				<ellipse fill="#B9333A" cx="98.1" cy="-121.5" rx="11.9" ry="13.9"/>
				<g>
					<g>
						<path fill="#FFFFFF" d="M92.3-116.6v-8.7h-1.6v-1.4c0.9,0,1.6-0.1,2.2-0.4c0.3-0.2,0.6-0.6,0.9-1.2h1.1v11.6
							c0,0.2,0,0.4,0.1,0.5c0.1,0.1,0.2,0.1,0.5,0.1H96v1.4h-2.7h-2.7v-1.4h1c0.2,0,0.4,0,0.5-0.1C92.2-116.3,92.3-116.4,92.3-116.6
							z"/>
						<path fill="#FFFFFF" d="M105.4-124.9c0,0.7-0.2,1.4-0.6,2c-0.4,0.6-1,1.2-1.9,1.8c-1.8,1.3-3,2.3-3.5,3.1
							c-0.3,0.4-0.5,1-0.6,1.6c0-0.1,0.1-0.2,0.1-0.2c0.4-0.4,0.8-0.6,1.4-0.6c0.1,0,0.3,0,0.6,0.1c0.3,0,0.6,0.1,1,0.2
							c0.1,0,0.3,0,0.5,0.1c0.2,0,0.3,0,0.5,0c0.5,0,0.9-0.2,1.1-0.6c0.3-0.4,0.4-0.9,0.4-1.6h1.2c0,1.6-0.2,2.8-0.6,3.6
							c-0.4,0.8-1,1.2-1.9,1.2c-0.2,0-0.5,0-0.8-0.1c-0.3-0.1-0.6-0.2-0.8-0.3c-0.4-0.2-0.7-0.4-1.1-0.5c-0.4-0.1-0.6-0.2-0.8-0.2
							c-0.2,0-0.5,0.1-0.6,0.2c-0.2,0.2-0.3,0.4-0.4,0.6H98h-0.6c0-1.5,0.3-2.7,0.8-3.8c0.5-1,1.6-2.3,3-3.7c0.5-0.5,0.9-1,1.2-1.5
							c0.3-0.5,0.4-1,0.4-1.6c0-0.6-0.2-1.1-0.5-1.4c-0.4-0.4-0.8-0.6-1.4-0.6c-0.6,0-1,0.2-1.4,0.5c-0.3,0.2-0.4,0.5-0.5,0.8
							c0.2-0.2,0.4-0.3,0.7-0.3c0.3,0,0.5,0.1,0.8,0.4c0.2,0.2,0.3,0.5,0.3,0.8c0,0.4-0.1,0.7-0.4,1c-0.3,0.3-0.7,0.4-1.1,0.4
							c-0.5,0-0.8-0.2-1.1-0.6c-0.3-0.4-0.4-0.8-0.4-1.4c0-0.9,0.4-1.6,1.1-2.2c0.7-0.6,1.6-0.9,2.6-0.9c1.2,0,2.1,0.4,2.9,1.1
							C105.1-126.8,105.4-125.9,105.4-124.9z"/>
					</g>
				</g>
			</g>
			<g>
				<ellipse fill="#111424" cx="126" cy="-121.5" rx="11.9" ry="13.9"/>
				<g>
					<g>
						<path fill="#FFFFFF" d="M120.3-116.6v-8.7h-1.6v-1.4c0.9,0,1.6-0.1,2.2-0.4c0.3-0.2,0.6-0.6,0.9-1.2h1.1v11.6
							c0,0.2,0,0.4,0.1,0.5c0.1,0.1,0.3,0.1,0.5,0.1h0.6v1.4h-2.7h-2.7v-1.4h1c0.2,0,0.4,0,0.5-0.1
							C120.2-116.3,120.3-116.4,120.3-116.6z"/>
						<path fill="#FFFFFF" d="M133.4-119.3c0,1.5-0.4,2.7-1.1,3.6c-0.7,0.9-1.7,1.3-3,1.3c-1.1,0-2-0.3-2.7-0.8
							c-0.6-0.5-1-1.3-1-2.3c0-0.5,0.2-1,0.5-1.4c0.3-0.4,0.7-0.6,1.2-0.6c0.4,0,0.7,0.1,1,0.4c0.3,0.3,0.4,0.6,0.4,1
							c0,0.4-0.1,0.7-0.3,0.9c-0.2,0.2-0.5,0.3-0.8,0.3c-0.3,0-0.6-0.1-0.8-0.4c0.1,0.3,0.2,0.6,0.5,0.9c0.4,0.3,0.8,0.5,1.4,0.5
							c0.7,0,1.2-0.3,1.6-0.9c0.3-0.6,0.5-1.4,0.5-2.6c0-1-0.2-1.8-0.5-2.3c-0.3-0.5-0.8-0.8-1.4-0.8c-0.4,0-0.8,0.2-1.2,0.5
							c-0.3,0.3-0.5,0.7-0.6,1.2h-1.2l0.3-7.7c1.8,0.2,3.3,0.4,4.6,0.4c0.6,0,1.4-0.1,2.3-0.4c-0.2,1.1-0.7,1.8-1.5,2.1
							c-0.8,0.3-2.2,0.3-4.1,0.2l-0.2,3.3c0.6-0.7,1.4-1,2.3-1c1.2,0,2.2,0.4,2.8,1.1C133-121.8,133.4-120.7,133.4-119.3z"/>
					</g>
				</g>
			</g>
			<g>
				<ellipse fill="#B9333A" cx="153.9" cy="-121.5" rx="11.8" ry="13.9"/>
				<g>
					<g>
						<path fill="#FFFFFF" d="M148-116.6v-8.7h-1.6v-1.4c0.9,0,1.6-0.1,2.2-0.4c0.3-0.2,0.6-0.6,0.9-1.2h1.1v11.6
							c0,0.2,0,0.4,0.1,0.5c0.1,0.1,0.3,0.1,0.5,0.1h0.6v1.4h-2.7h-2.7v-1.4h1c0.2,0,0.4,0,0.5-0.1C148-116.3,148-116.4,148-116.6z"
							/>
						<path fill="#FFFFFF" d="M153.5-125c0-1,0.3-1.9,1-2.5c0.7-0.7,1.6-1,2.7-1c1.1,0,1.9,0.3,2.7,0.9c0.7,0.6,1.1,1.4,1.1,2.3
							c0,0.8-0.3,1.5-0.8,2.2c-0.3,0.4-0.7,0.8-1.2,1.1c0.6,0.4,1.1,0.9,1.5,1.4c0.6,0.8,0.9,1.6,0.9,2.5c0,1.1-0.4,2.1-1.2,2.8
							c-0.8,0.7-1.8,1.1-3,1.1c-1.2,0-2.2-0.3-3-1c-0.8-0.7-1.2-1.6-1.2-2.6c0-0.9,0.3-1.7,0.9-2.4c0.4-0.5,0.9-0.9,1.5-1.3
							c-0.5-0.3-0.8-0.7-1.1-1.1C153.8-123.5,153.5-124.2,153.5-125z M155.4-117.9c0,0.6,0.2,1.2,0.5,1.6c0.3,0.4,0.8,0.6,1.3,0.6
							c0.5,0,1-0.2,1.3-0.6c0.3-0.4,0.5-0.9,0.5-1.5c0-0.6-0.2-1.2-0.6-1.7c-0.3-0.4-0.9-0.9-1.5-1.3c-0.4,0.4-0.7,0.7-1,1.1
							C155.6-119,155.4-118.5,155.4-117.9z M159-125.4c0-0.5-0.1-0.9-0.4-1.2c-0.3-0.3-0.7-0.5-1.1-0.5c-0.5,0-0.8,0.2-1.1,0.5
							c-0.3,0.3-0.4,0.7-0.4,1.2c0,0.4,0.2,0.9,0.6,1.4c0.3,0.4,0.7,0.8,1.2,1.1c0.3-0.3,0.6-0.5,0.8-0.8
							C158.8-124.3,159-124.8,159-125.4z"/>
					</g>
				</g>
			</g>
			<g>
				<ellipse fill="#B9333A" cx="181.8" cy="-121.5" rx="11.9" ry="13.9"/>
				<g>
					<g>
						<path fill="#FFFFFF" d="M182.2-124.9c0,0.7-0.2,1.4-0.6,2c-0.4,0.6-1,1.2-1.9,1.8c-1.8,1.3-3,2.3-3.5,3.1
							c-0.3,0.4-0.5,1-0.6,1.6c0-0.1,0.1-0.2,0.1-0.2c0.4-0.4,0.8-0.6,1.4-0.6c0.1,0,0.3,0,0.6,0.1c0.3,0,0.6,0.1,1,0.2
							c0.1,0,0.3,0,0.5,0.1c0.2,0,0.3,0,0.5,0c0.5,0,0.9-0.2,1.1-0.6c0.3-0.4,0.4-0.9,0.4-1.6h1.2c0,1.6-0.2,2.8-0.6,3.6
							c-0.4,0.8-1,1.2-1.9,1.2c-0.2,0-0.5,0-0.8-0.1c-0.3-0.1-0.6-0.2-0.8-0.3c-0.4-0.2-0.7-0.4-1.1-0.5c-0.4-0.1-0.6-0.2-0.8-0.2
							c-0.2,0-0.5,0.1-0.6,0.2c-0.2,0.2-0.3,0.4-0.4,0.6h-0.6h-0.6c0-1.5,0.3-2.7,0.8-3.8c0.5-1,1.6-2.3,3-3.7
							c0.5-0.5,0.9-1,1.2-1.5c0.3-0.5,0.4-1,0.4-1.6c0-0.6-0.2-1.1-0.5-1.4c-0.4-0.4-0.8-0.6-1.4-0.6c-0.6,0-1,0.2-1.4,0.5
							c-0.3,0.2-0.4,0.5-0.5,0.8c0.2-0.2,0.4-0.3,0.7-0.3c0.3,0,0.5,0.1,0.8,0.4c0.2,0.2,0.3,0.5,0.3,0.8c0,0.4-0.1,0.7-0.4,1
							c-0.3,0.3-0.7,0.4-1.1,0.4c-0.5,0-0.8-0.2-1.1-0.6c-0.3-0.4-0.4-0.8-0.4-1.4c0-0.9,0.4-1.6,1.1-2.2c0.7-0.6,1.6-0.9,2.6-0.9
							c1.2,0,2.1,0.4,2.9,1.1C181.8-126.8,182.2-125.9,182.2-124.9z"/>
						<path fill="#FFFFFF" d="M185.6-116.6v-8.7H184v-1.4c0.9,0,1.6-0.1,2.2-0.4c0.3-0.2,0.6-0.6,0.9-1.2h1.1v11.6
							c0,0.2,0,0.4,0.1,0.5c0.1,0.1,0.3,0.1,0.5,0.1h0.6v1.4h-2.7H184v-1.4h1c0.2,0,0.4,0,0.5-0.1
							C185.6-116.3,185.6-116.4,185.6-116.6z"/>
					</g>
				</g>
			</g>
			<g>
				<ellipse fill="#111424" cx="209.6" cy="-121.5" rx="11.8" ry="13.9"/>
				<g>
					<g>
						<path fill="#FFFFFF" d="M209.2-124.9c0,0.7-0.2,1.4-0.6,2c-0.4,0.6-1,1.2-1.9,1.8c-1.8,1.3-3,2.3-3.5,3.1
							c-0.3,0.4-0.5,1-0.6,1.6c0-0.1,0.1-0.2,0.1-0.2c0.4-0.4,0.8-0.6,1.4-0.6c0.1,0,0.3,0,0.6,0.1c0.3,0,0.6,0.1,1,0.2
							c0.1,0,0.3,0,0.5,0.1c0.2,0,0.3,0,0.5,0c0.5,0,0.9-0.2,1.1-0.6c0.3-0.4,0.4-0.9,0.4-1.6h1.2c0,1.6-0.2,2.8-0.6,3.6
							c-0.4,0.8-1,1.2-1.9,1.2c-0.2,0-0.5,0-0.8-0.1c-0.3-0.1-0.6-0.2-0.8-0.3c-0.4-0.2-0.7-0.4-1.1-0.5c-0.4-0.1-0.6-0.2-0.8-0.2
							c-0.2,0-0.5,0.1-0.6,0.2c-0.2,0.2-0.3,0.4-0.4,0.6h-0.6h-0.6c0-1.5,0.3-2.7,0.8-3.8c0.5-1,1.6-2.3,3-3.7
							c0.5-0.5,0.9-1,1.2-1.5c0.3-0.5,0.4-1,0.4-1.6c0-0.6-0.2-1.1-0.5-1.4c-0.4-0.4-0.8-0.6-1.4-0.6c-0.6,0-1,0.2-1.4,0.5
							c-0.3,0.2-0.4,0.5-0.5,0.8c0.2-0.2,0.4-0.3,0.7-0.3c0.3,0,0.5,0.1,0.8,0.4c0.2,0.2,0.3,0.5,0.3,0.8c0,0.4-0.1,0.7-0.4,1
							c-0.3,0.3-0.7,0.4-1.1,0.4c-0.5,0-0.8-0.2-1.1-0.6c-0.3-0.4-0.4-0.8-0.4-1.4c0-0.9,0.4-1.6,1.1-2.2c0.7-0.6,1.6-0.9,2.6-0.9
							c1.2,0,2.1,0.4,2.9,1.1C208.9-126.8,209.2-125.9,209.2-124.9z"/>
						<path fill="#FFFFFF" d="M209.8-117.9v-0.7v-0.7l4.9-9h1.1h1.1v9.1h1.2v1.3h-1.2v1.2c0,0.3,0,0.5,0.1,0.6
							c0.1,0.1,0.3,0.1,0.6,0.1h0.5v1.4h-2.7h-2.7v-1.4h1.1c0.2,0,0.3,0,0.4-0.1c0.1-0.1,0.1-0.3,0.1-0.5v-1.3H209.8z M214.3-119.2
							v-5.9l-3.1,5.8l-0.1,0.1H214.3z"/>
					</g>
				</g>
			</g>
			<g>
				<ellipse fill="#B9333A" cx="237.5" cy="-121.5" rx="11.8" ry="13.9"/>
				<g>
					<g>
						<path fill="#FFFFFF" d="M237.1-124.9c0,0.7-0.2,1.4-0.6,2c-0.4,0.6-1,1.2-1.9,1.8c-1.8,1.3-3,2.3-3.5,3.1
							c-0.3,0.4-0.5,1-0.6,1.6c0-0.1,0.1-0.2,0.1-0.2c0.4-0.4,0.8-0.6,1.4-0.6c0.1,0,0.3,0,0.6,0.1c0.3,0,0.6,0.1,1,0.2
							c0.1,0,0.3,0,0.5,0.1c0.2,0,0.3,0,0.5,0c0.5,0,0.9-0.2,1.1-0.6c0.3-0.4,0.4-0.9,0.4-1.6h1.2c0,1.6-0.2,2.8-0.6,3.6
							c-0.4,0.8-1,1.2-1.9,1.2c-0.2,0-0.5,0-0.8-0.1c-0.3-0.1-0.6-0.2-0.8-0.3c-0.4-0.2-0.7-0.4-1.1-0.5c-0.4-0.1-0.6-0.2-0.8-0.2
							c-0.2,0-0.5,0.1-0.6,0.2c-0.2,0.2-0.3,0.4-0.4,0.6h-0.6H229c0-1.5,0.3-2.7,0.8-3.8c0.5-1,1.6-2.3,3-3.7c0.5-0.5,0.9-1,1.2-1.5
							c0.3-0.5,0.4-1,0.4-1.6c0-0.6-0.2-1.1-0.5-1.4c-0.4-0.4-0.8-0.6-1.4-0.6c-0.6,0-1,0.2-1.4,0.5c-0.3,0.2-0.4,0.5-0.5,0.8
							c0.2-0.2,0.4-0.3,0.7-0.3c0.3,0,0.5,0.1,0.8,0.4c0.2,0.2,0.3,0.5,0.3,0.8c0,0.4-0.1,0.7-0.4,1c-0.3,0.3-0.7,0.4-1.1,0.4
							c-0.5,0-0.8-0.2-1.1-0.6c-0.3-0.4-0.4-0.8-0.4-1.4c0-0.9,0.4-1.6,1.1-2.2c0.7-0.6,1.6-0.9,2.6-0.9c1.2,0,2.1,0.4,2.9,1.1
							C236.7-126.8,237.1-125.9,237.1-124.9z"/>
						<path fill="#FFFFFF" d="M239.1-114.6c0.2-2,0.7-4.1,1.7-6.3c0.8-1.8,1.9-3.7,3.3-5.6c-0.6,0.3-1.2,0.5-1.8,0.5
							c-0.1,0-0.2,0-0.3,0c-0.1,0-0.3,0-0.4-0.1c-0.7-0.1-1.1-0.2-1.1-0.2c-0.5,0-0.8,0.2-1,0.5c-0.2,0.4-0.3,0.9-0.3,1.6h-1.2v-4.2
							h1.2v0.9c0.6-0.6,1.3-0.9,2.2-0.9c0.1,0,0.3,0,0.5,0c0.2,0,0.4,0.1,0.5,0.1c0.4,0.1,0.8,0.3,1.1,0.3c0.3,0.1,0.6,0.1,0.7,0.1
							c0.2,0,0.3-0.1,0.5-0.2c0.1-0.1,0.3-0.3,0.4-0.5h0.6h0.6c0,0.2-0.2,0.7-0.5,1.4c-0.3,0.8-0.9,1.8-1.6,3.2
							c-0.8,1.5-1.2,2.8-1.5,4c-0.2,1.2-0.4,2.9-0.4,5.1H239.1z"/>
					</g>
				</g>
			</g>
			<g>
				<ellipse fill="#B9333A" cx="265.4" cy="-121.5" rx="11.9" ry="13.9"/>
				<g>
					<g>
						<path fill="#FFFFFF" d="M262.3-124.7c0-0.7-0.2-1.3-0.6-1.8c-0.4-0.5-0.9-0.7-1.5-0.7c-0.5,0-0.9,0.1-1.2,0.5
							c-0.2,0.2-0.3,0.4-0.4,0.7c0.2-0.1,0.4-0.2,0.6-0.2c0.4,0,0.7,0.1,0.9,0.3c0.2,0.2,0.3,0.5,0.3,0.8c0,0.4-0.1,0.7-0.4,1
							c-0.3,0.3-0.7,0.4-1.1,0.4c-0.4,0-0.8-0.2-1.1-0.5c-0.3-0.4-0.4-0.8-0.4-1.3c0-0.9,0.3-1.7,1-2.2c0.7-0.6,1.6-0.9,2.7-0.9
							c1.1,0,2,0.3,2.7,1c0.7,0.7,1,1.6,1,2.7c0,1-0.3,1.8-1,2.4c-0.4,0.4-1,0.6-1.6,0.8c0.7,0.1,1.3,0.4,1.7,0.8
							c0.7,0.6,1,1.4,1,2.5c0,1.2-0.4,2.1-1.1,2.9c-0.8,0.8-1.7,1.2-2.8,1.2c-1.1,0-2.1-0.3-2.8-0.9c-0.8-0.6-1.1-1.3-1.1-2.2
							c0-0.5,0.2-1,0.5-1.3c0.3-0.4,0.7-0.5,1.2-0.5c0.4,0,0.7,0.1,0.9,0.4c0.2,0.3,0.4,0.6,0.4,1c0,0.3-0.1,0.6-0.3,0.8
							c-0.2,0.2-0.4,0.3-0.7,0.3c-0.2,0-0.4-0.1-0.6-0.2c0.1,0.3,0.2,0.5,0.5,0.7c0.4,0.3,0.8,0.5,1.4,0.5c0.6,0,1.2-0.2,1.5-0.7
							c0.4-0.5,0.6-1.1,0.6-1.9c0-0.9-0.2-1.5-0.7-1.9c-0.5-0.4-1.1-0.6-2-0.6h-0.1v-1.2h0c0.9,0,1.5-0.2,2-0.6
							C262.1-123.2,262.3-123.8,262.3-124.7z"/>
						<path fill="#FFFFFF" d="M266.8-115.9c-0.6-1-0.8-2.9-0.8-5.6c0-2.7,0.3-4.5,0.8-5.5c0.5-1,1.6-1.5,3-1.5c1.5,0,2.5,0.5,3,1.5
							c0.5,1,0.8,2.8,0.8,5.4v0.1c0,2.7-0.3,4.6-0.8,5.6c-0.6,1-1.6,1.5-3,1.5C268.4-114.3,267.4-114.9,266.8-115.9z M270.9-117
							c0.2-0.8,0.3-2.3,0.3-4.5c0-2.2-0.1-3.6-0.3-4.4c-0.2-0.8-0.5-1.2-1-1.2c-0.5,0-0.8,0.4-1,1.2c-0.2,0.8-0.3,2.3-0.3,4.4
							c0,2.2,0.1,3.7,0.3,4.5c0.2,0.8,0.5,1.2,1,1.2C270.3-115.8,270.7-116.2,270.9-117z"/>
					</g>
				</g>
			</g>
			<g>
				<ellipse fill="#111424" cx="293.3" cy="-121.5" rx="11.8" ry="13.9"/>
				<g>
					<g>
						<path fill="#FFFFFF" d="M290.2-124.7c0-0.7-0.2-1.3-0.6-1.8c-0.4-0.5-0.9-0.7-1.5-0.7c-0.5,0-0.9,0.1-1.2,0.5
							c-0.2,0.2-0.3,0.4-0.4,0.7c0.2-0.1,0.4-0.2,0.6-0.2c0.4,0,0.7,0.1,0.9,0.3c0.2,0.2,0.3,0.5,0.3,0.8c0,0.4-0.1,0.7-0.4,1
							c-0.3,0.3-0.7,0.4-1.1,0.4c-0.4,0-0.8-0.2-1.1-0.5c-0.3-0.4-0.4-0.8-0.4-1.3c0-0.9,0.3-1.7,1-2.2c0.7-0.6,1.6-0.9,2.7-0.9
							c1.1,0,2,0.3,2.7,1c0.7,0.7,1,1.6,1,2.7c0,1-0.3,1.8-1,2.4c-0.4,0.4-1,0.6-1.6,0.8c0.7,0.1,1.3,0.4,1.7,0.8
							c0.7,0.6,1,1.4,1,2.5c0,1.2-0.4,2.1-1.1,2.9c-0.8,0.8-1.7,1.2-2.8,1.2c-1.1,0-2.1-0.3-2.8-0.9c-0.8-0.6-1.1-1.3-1.1-2.2
							c0-0.5,0.2-1,0.5-1.3c0.3-0.4,0.7-0.5,1.2-0.5c0.4,0,0.7,0.1,0.9,0.4c0.2,0.3,0.4,0.6,0.4,1c0,0.3-0.1,0.6-0.3,0.8
							c-0.2,0.2-0.4,0.3-0.7,0.3c-0.2,0-0.4-0.1-0.6-0.2c0.1,0.3,0.2,0.5,0.5,0.7c0.4,0.3,0.8,0.5,1.4,0.5c0.6,0,1.2-0.2,1.5-0.7
							c0.4-0.5,0.6-1.1,0.6-1.9c0-0.9-0.2-1.5-0.7-1.9c-0.4-0.4-1.1-0.6-2-0.6h-0.1v-1.2h0c0.9,0,1.5-0.2,2-0.6
							C290-123.2,290.2-123.8,290.2-124.7z"/>
						<path fill="#FFFFFF" d="M298.9-124.7c0-0.7-0.2-1.3-0.6-1.8c-0.4-0.5-0.9-0.7-1.5-0.7c-0.5,0-0.9,0.1-1.2,0.5
							c-0.2,0.2-0.3,0.4-0.4,0.7c0.2-0.1,0.4-0.2,0.6-0.2c0.4,0,0.7,0.1,0.9,0.3c0.2,0.2,0.3,0.5,0.3,0.8c0,0.4-0.1,0.7-0.4,1
							c-0.3,0.3-0.7,0.4-1.1,0.4c-0.4,0-0.8-0.2-1.1-0.5c-0.3-0.4-0.4-0.8-0.4-1.3c0-0.9,0.3-1.7,1-2.2c0.7-0.6,1.6-0.9,2.7-0.9
							c1.1,0,2,0.3,2.7,1c0.7,0.7,1,1.6,1,2.7c0,1-0.3,1.8-1,2.4c-0.4,0.4-1,0.6-1.6,0.8c0.7,0.1,1.3,0.4,1.7,0.8
							c0.7,0.6,1,1.4,1,2.5c0,1.2-0.4,2.1-1.1,2.9c-0.8,0.8-1.7,1.2-2.8,1.2c-1.1,0-2.1-0.3-2.8-0.9c-0.8-0.6-1.1-1.3-1.1-2.2
							c0-0.5,0.2-1,0.5-1.3c0.3-0.4,0.7-0.5,1.2-0.5c0.4,0,0.7,0.1,0.9,0.4c0.2,0.3,0.4,0.6,0.4,1c0,0.3-0.1,0.6-0.3,0.8
							c-0.2,0.2-0.4,0.3-0.7,0.3c-0.2,0-0.4-0.1-0.6-0.2c0.1,0.3,0.2,0.5,0.5,0.7c0.4,0.3,0.8,0.5,1.4,0.5c0.6,0,1.2-0.2,1.5-0.7
							c0.4-0.5,0.6-1.1,0.6-1.9c0-0.9-0.2-1.5-0.7-1.9c-0.5-0.4-1.1-0.6-2-0.6h-0.1v-1.2h0c0.9,0,1.5-0.2,2-0.6
							C298.7-123.2,298.9-123.8,298.9-124.7z"/>
					</g>
				</g>
			</g>
			<g>
				<ellipse fill="#B9333A" cx="321.2" cy="-121.5" rx="11.9" ry="13.9"/>
				<g>
					<g>
						<path fill="#FFFFFF" d="M318.1-124.7c0-0.7-0.2-1.3-0.6-1.8c-0.4-0.5-0.9-0.7-1.5-0.7c-0.5,0-0.9,0.1-1.2,0.5
							c-0.2,0.2-0.3,0.4-0.4,0.7c0.2-0.1,0.4-0.2,0.6-0.2c0.4,0,0.7,0.1,0.9,0.3c0.2,0.2,0.3,0.5,0.3,0.8c0,0.4-0.1,0.7-0.4,1
							c-0.3,0.3-0.7,0.4-1.1,0.4c-0.4,0-0.8-0.2-1.1-0.5c-0.3-0.4-0.4-0.8-0.4-1.3c0-0.9,0.3-1.7,1-2.2c0.7-0.6,1.6-0.9,2.7-0.9
							c1.1,0,2,0.3,2.7,1c0.7,0.7,1,1.6,1,2.7c0,1-0.3,1.8-1,2.4c-0.4,0.4-1,0.6-1.6,0.8c0.7,0.1,1.3,0.4,1.7,0.8
							c0.7,0.6,1,1.4,1,2.5c0,1.2-0.4,2.1-1.1,2.9c-0.8,0.8-1.7,1.2-2.8,1.2c-1.1,0-2.1-0.3-2.8-0.9c-0.8-0.6-1.1-1.3-1.1-2.2
							c0-0.5,0.2-1,0.5-1.3c0.3-0.4,0.7-0.5,1.2-0.5c0.4,0,0.7,0.1,0.9,0.4c0.2,0.3,0.4,0.6,0.4,1c0,0.3-0.1,0.6-0.3,0.8
							c-0.2,0.2-0.4,0.3-0.7,0.3c-0.2,0-0.4-0.1-0.6-0.2c0.1,0.3,0.2,0.5,0.5,0.7c0.4,0.3,0.8,0.5,1.4,0.5c0.6,0,1.2-0.2,1.5-0.7
							c0.4-0.5,0.6-1.1,0.6-1.9c0-0.9-0.2-1.5-0.7-1.9c-0.4-0.4-1.1-0.6-2-0.6h-0.1v-1.2h0c0.9,0,1.5-0.2,2-0.6
							C317.9-123.2,318.1-123.8,318.1-124.7z"/>
						<path fill="#FFFFFF" d="M326-128.5c1,0,1.8,0.3,2.5,0.8c0.7,0.5,1,1.2,1,2c0,0.5-0.1,0.9-0.4,1.2c-0.3,0.3-0.6,0.5-1,0.5
							c-0.4,0-0.7-0.1-1-0.3c-0.3-0.2-0.4-0.5-0.4-0.9c0-0.4,0.1-0.7,0.3-0.9c0.2-0.2,0.4-0.3,0.7-0.3c0.2,0,0.3,0,0.4,0.1
							c-0.1-0.2-0.2-0.4-0.3-0.5c-0.3-0.3-0.7-0.4-1.2-0.4c-0.8,0-1.3,0.4-1.7,1.2c-0.4,0.8-0.5,2.1-0.5,3.8l0,0.2
							c0.5-0.5,1.1-0.7,1.8-0.7c1.1,0,1.9,0.3,2.5,1c0.6,0.7,0.8,1.6,0.8,2.9c0,1.6-0.3,2.7-1,3.5c-0.6,0.8-1.6,1.1-3,1.1
							c-1.4,0-2.4-0.5-3-1.5c-0.6-1-0.9-2.5-0.9-4.7c0-2.8,0.4-4.8,1.1-6.1C323.4-127.9,324.5-128.5,326-128.5z M324.2-118.6
							c0,1,0.1,1.7,0.3,2.2c0.2,0.4,0.6,0.7,1,0.7c0.5,0,0.8-0.2,1-0.7c0.2-0.4,0.3-1.2,0.3-2.2c0-1-0.1-1.7-0.3-2.1
							c-0.2-0.5-0.6-0.7-1-0.7c-0.5,0-0.8,0.2-1,0.7C324.3-120.3,324.2-119.6,324.2-118.6z"/>
					</g>
				</g>
			</g>
			<g>
				<ellipse fill="#111424" cx="14.5" cy="-86.6" rx="11.8" ry="13.9"/>
				<g>
					<g>
						<path fill="#FFFFFF" d="M18.4-90c0,0.7-0.2,1.4-0.6,2c-0.4,0.6-1,1.2-1.9,1.8c-1.8,1.3-3,2.3-3.5,3.1c-0.3,0.4-0.5,1-0.6,1.6
							c0-0.1,0.1-0.2,0.1-0.2c0.4-0.4,0.8-0.6,1.4-0.6c0.1,0,0.3,0,0.6,0.1c0.3,0,0.6,0.1,1,0.2c0.1,0,0.3,0,0.5,0.1
							c0.2,0,0.3,0,0.5,0c0.5,0,0.9-0.2,1.1-0.6c0.3-0.4,0.4-0.9,0.4-1.6h1.2c0,1.6-0.2,2.8-0.6,3.6c-0.4,0.8-1,1.2-1.9,1.2
							c-0.2,0-0.5,0-0.8-0.1c-0.3-0.1-0.6-0.2-0.8-0.3c-0.4-0.2-0.7-0.4-1.1-0.5c-0.4-0.1-0.6-0.2-0.8-0.2c-0.2,0-0.5,0.1-0.6,0.2
							c-0.2,0.2-0.3,0.4-0.4,0.6H11h-0.6c0-1.5,0.3-2.7,0.8-3.8c0.5-1,1.6-2.3,3-3.7c0.5-0.5,0.9-1,1.2-1.5c0.3-0.5,0.4-1,0.4-1.6
							c0-0.6-0.2-1.1-0.5-1.4c-0.4-0.4-0.8-0.6-1.4-0.6c-0.6,0-1,0.2-1.4,0.5c-0.3,0.2-0.4,0.5-0.5,0.8c0.2-0.2,0.4-0.3,0.7-0.3
							c0.3,0,0.5,0.1,0.8,0.4c0.2,0.2,0.3,0.5,0.3,0.8c0,0.4-0.1,0.7-0.4,1c-0.3,0.3-0.7,0.4-1.1,0.4c-0.5,0-0.8-0.2-1.1-0.6
							c-0.3-0.4-0.4-0.8-0.4-1.4c0-0.9,0.4-1.6,1.1-2.2c0.7-0.6,1.6-0.9,2.6-0.9c1.2,0,2.1,0.4,2.9,1.1C18-91.9,18.4-91.1,18.4-90z"
							/>
					</g>
				</g>
			</g>
			<g>
				<ellipse fill="#B9333A" cx="42.3" cy="-86.6" rx="11.9" ry="13.9"/>
				<g>
					<g>
						<path fill="#FFFFFF" d="M46.2-84.5c0,1.5-0.4,2.7-1.1,3.6c-0.7,0.9-1.7,1.3-3,1.3c-1.1,0-2-0.3-2.7-0.8c-0.6-0.5-1-1.3-1-2.3
							c0-0.5,0.2-1,0.5-1.4c0.3-0.4,0.7-0.6,1.2-0.6c0.4,0,0.7,0.1,1,0.4c0.3,0.3,0.4,0.6,0.4,1c0,0.4-0.1,0.7-0.3,0.9
							c-0.2,0.2-0.5,0.3-0.8,0.3c-0.3,0-0.6-0.1-0.8-0.4c0.1,0.3,0.2,0.6,0.5,0.9c0.4,0.3,0.8,0.5,1.4,0.5c0.7,0,1.2-0.3,1.6-0.9
							c0.3-0.6,0.5-1.4,0.5-2.6c0-1-0.2-1.8-0.5-2.3c-0.3-0.5-0.8-0.8-1.4-0.8c-0.4,0-0.8,0.2-1.2,0.5c-0.3,0.3-0.5,0.7-0.6,1.2
							h-1.2l0.3-7.7c1.8,0.2,3.3,0.4,4.6,0.4c0.6,0,1.4-0.1,2.3-0.4c-0.2,1.1-0.7,1.9-1.5,2.1c-0.8,0.3-2.2,0.3-4.1,0.2l-0.2,3.3
							c0.6-0.7,1.4-1,2.3-1c1.2,0,2.2,0.4,2.8,1.1C45.9-86.9,46.2-85.9,46.2-84.5z"/>
					</g>
				</g>
			</g>
			<g>
				<ellipse fill="#111424" cx="70.2" cy="-86.6" rx="11.8" ry="13.9"/>
				<g>
					<g>
						<path fill="#FFFFFF" d="M66.6-90.2c0-1,0.3-1.9,1-2.5c0.7-0.7,1.6-1,2.7-1c1.1,0,1.9,0.3,2.7,0.9c0.7,0.6,1.1,1.4,1.1,2.3
							c0,0.8-0.3,1.5-0.8,2.2c-0.3,0.4-0.7,0.8-1.2,1.1c0.6,0.4,1.1,0.9,1.5,1.4c0.6,0.8,0.9,1.6,0.9,2.5c0,1.1-0.4,2.1-1.2,2.8
							c-0.8,0.7-1.8,1.1-3,1.1c-1.2,0-2.2-0.3-3-1c-0.8-0.7-1.2-1.6-1.2-2.6c0-0.9,0.3-1.7,0.9-2.4c0.4-0.5,0.9-0.9,1.5-1.3
							c-0.5-0.3-0.8-0.7-1.1-1.1C66.8-88.7,66.6-89.4,66.6-90.2z M68.4-83.1c0,0.6,0.2,1.2,0.5,1.6c0.3,0.4,0.8,0.6,1.3,0.6
							c0.5,0,1-0.2,1.3-0.6c0.3-0.4,0.5-0.9,0.5-1.5c0-0.6-0.2-1.2-0.6-1.7c-0.3-0.4-0.9-0.9-1.5-1.3c-0.4,0.4-0.7,0.7-1,1.1
							C68.6-84.2,68.4-83.6,68.4-83.1z M72-90.6c0-0.5-0.1-0.9-0.4-1.2c-0.3-0.3-0.7-0.5-1.1-0.5c-0.5,0-0.8,0.2-1.1,0.5
							c-0.3,0.3-0.4,0.7-0.4,1.2c0,0.4,0.2,0.9,0.6,1.4c0.3,0.4,0.7,0.8,1.2,1.1c0.3-0.3,0.6-0.5,0.8-0.8C71.8-89.4,72-90,72-90.6z"
							/>
					</g>
				</g>
			</g>
			<g>
				<ellipse fill="#111424" cx="98.1" cy="-86.6" rx="11.9" ry="13.9"/>
				<g>
					<g>
						<path fill="#FFFFFF" d="M92.9-81.8v-8.7h-1.6v-1.4c0.9,0,1.6-0.1,2.2-0.4c0.3-0.2,0.6-0.6,0.9-1.2h1.1v11.6
							c0,0.2,0,0.4,0.1,0.5c0.1,0.1,0.3,0.1,0.5,0.1h0.6v1.4H94h-2.7v-1.4h1c0.2,0,0.4,0,0.5-0.1C92.8-81.4,92.9-81.6,92.9-81.8z"/>
						<path fill="#FFFFFF" d="M101.2-81.8v-8.7h-1.6v-1.4c0.9,0,1.6-0.1,2.2-0.4c0.3-0.2,0.6-0.6,0.9-1.2h1.1v11.6
							c0,0.2,0,0.4,0.1,0.5c0.1,0.1,0.3,0.1,0.5,0.1h0.6v1.4h-2.7h-2.7v-1.4h1c0.2,0,0.4,0,0.5-0.1
							C101.2-81.4,101.2-81.6,101.2-81.8z"/>
					</g>
				</g>
			</g>
			<g>
				<ellipse fill="#B9333A" cx="126" cy="-86.6" rx="11.9" ry="13.9"/>
				<g>
					<g>
						<path fill="#FFFFFF" d="M120.2-81.8v-8.7h-1.6v-1.4c0.9,0,1.6-0.1,2.2-0.4c0.3-0.2,0.6-0.6,0.9-1.2h1.1v11.6
							c0,0.2,0,0.4,0.1,0.5c0.1,0.1,0.3,0.1,0.5,0.1h0.6v1.4h-2.7h-2.7v-1.4h1c0.2,0,0.4,0,0.5-0.1
							C120.1-81.4,120.2-81.6,120.2-81.8z"/>
						<path fill="#FFFFFF" d="M125.2-83v-0.7v-0.7l4.9-9h1.1h1.1v9.1h1.2v1.3h-1.2v1.2c0,0.3,0,0.5,0.1,0.6c0.1,0.1,0.3,0.1,0.6,0.1
							h0.5v1.4h-2.7h-2.7v-1.4h1.1c0.2,0,0.3,0,0.4-0.1c0.1-0.1,0.1-0.3,0.1-0.5V-83H125.2z M129.7-84.3v-5.9l-3.1,5.8l-0.1,0.1
							H129.7z"/>
					</g>
				</g>
			</g>
			<g>
				<ellipse fill="#111424" cx="153.9" cy="-86.6" rx="11.8" ry="13.9"/>
				<g>
					<g>
						<path fill="#FFFFFF" d="M148-81.8v-8.7h-1.6v-1.4c0.9,0,1.6-0.1,2.2-0.4c0.3-0.2,0.6-0.6,0.9-1.2h1.1v11.6
							c0,0.2,0,0.4,0.1,0.5c0.1,0.1,0.3,0.1,0.5,0.1h0.6v1.4h-2.7h-2.7v-1.4h1c0.2,0,0.4,0,0.5-0.1C147.9-81.4,148-81.6,148-81.8z"
							/>
						<path fill="#FFFFFF" d="M154.5-79.8c0.2-2,0.7-4.1,1.7-6.3c0.8-1.8,1.9-3.7,3.3-5.6c-0.6,0.3-1.2,0.5-1.8,0.5
							c-0.1,0-0.2,0-0.3,0c-0.1,0-0.3,0-0.4-0.1c-0.7-0.1-1.1-0.2-1.1-0.2c-0.5,0-0.8,0.2-1,0.5c-0.2,0.4-0.3,0.9-0.3,1.6h-1.2v-4.2
							h1.2v0.9c0.6-0.6,1.3-0.9,2.2-0.9c0.1,0,0.3,0,0.5,0c0.2,0,0.4,0.1,0.5,0.1c0.4,0.1,0.8,0.2,1.1,0.3c0.3,0.1,0.6,0.1,0.7,0.1
							c0.2,0,0.3-0.1,0.5-0.2c0.1-0.1,0.3-0.3,0.4-0.5h0.6h0.6c0,0.2-0.2,0.7-0.5,1.4c-0.3,0.8-0.9,1.8-1.6,3.2
							c-0.7,1.5-1.2,2.8-1.5,4c-0.2,1.2-0.4,2.9-0.4,5.1H154.5z"/>
					</g>
				</g>
			</g>
			<g>
				<ellipse fill="#111424" cx="181.8" cy="-86.6" rx="11.9" ry="13.9"/>
				<g>
					<g>
						<path fill="#FFFFFF" d="M181.5-90c0,0.7-0.2,1.4-0.6,2c-0.4,0.6-1,1.2-1.9,1.8c-1.8,1.3-3,2.3-3.5,3.1c-0.3,0.4-0.5,1-0.6,1.6
							c0-0.1,0.1-0.2,0.1-0.2c0.4-0.4,0.8-0.6,1.4-0.6c0.1,0,0.3,0,0.6,0.1c0.3,0,0.6,0.1,1,0.2c0.1,0,0.3,0,0.5,0.1
							c0.2,0,0.3,0,0.5,0c0.5,0,0.9-0.2,1.1-0.6c0.3-0.4,0.4-0.9,0.4-1.6h1.2c0,1.6-0.2,2.8-0.6,3.6c-0.4,0.8-1,1.2-1.9,1.2
							c-0.2,0-0.5,0-0.8-0.1c-0.3-0.1-0.6-0.2-0.8-0.3c-0.4-0.2-0.7-0.4-1.1-0.5c-0.4-0.1-0.6-0.2-0.8-0.2c-0.2,0-0.5,0.1-0.6,0.2
							c-0.2,0.2-0.3,0.4-0.4,0.6H174h-0.6c0-1.5,0.3-2.7,0.8-3.8c0.5-1,1.6-2.3,3-3.7c0.5-0.5,0.9-1,1.2-1.5c0.3-0.5,0.4-1,0.4-1.6
							c0-0.6-0.2-1.1-0.5-1.4c-0.4-0.4-0.8-0.6-1.4-0.6c-0.6,0-1,0.2-1.4,0.5c-0.3,0.2-0.4,0.5-0.5,0.8c0.2-0.2,0.4-0.3,0.7-0.3
							c0.3,0,0.5,0.1,0.8,0.4c0.2,0.2,0.3,0.5,0.3,0.8c0,0.4-0.1,0.7-0.4,1c-0.3,0.3-0.7,0.4-1.1,0.4c-0.5,0-0.8-0.2-1.1-0.6
							c-0.3-0.4-0.4-0.8-0.4-1.4c0-0.9,0.4-1.6,1.1-2.2c0.7-0.6,1.6-0.9,2.6-0.9c1.2,0,2.1,0.4,2.9,1.1
							C181.1-91.9,181.5-91.1,181.5-90z"/>
						<path fill="#FFFFFF" d="M183.3-81c-0.6-1-0.8-2.9-0.8-5.6c0-2.7,0.3-4.5,0.8-5.5c0.6-1,1.6-1.5,3-1.5c1.5,0,2.5,0.5,3,1.5
							c0.5,1,0.8,2.8,0.8,5.4v0.1c0,2.7-0.3,4.6-0.8,5.6c-0.6,1-1.6,1.5-3,1.5C184.8-79.5,183.8-80,183.3-81z M187.3-82.1
							c0.2-0.8,0.3-2.3,0.3-4.5c0-2.2-0.1-3.6-0.3-4.4c-0.2-0.8-0.5-1.2-1-1.2c-0.5,0-0.8,0.4-1,1.2c-0.2,0.8-0.3,2.3-0.3,4.4
							c0,2.2,0.1,3.7,0.3,4.5c0.2,0.8,0.5,1.2,1,1.2C186.8-80.9,187.1-81.3,187.3-82.1z"/>
					</g>
				</g>
			</g>
			<g>
				<ellipse fill="#B9333A" cx="209.6" cy="-86.6" rx="11.8" ry="13.9"/>
				<g>
					<g>
						<path fill="#FFFFFF" d="M209.3-90c0,0.7-0.2,1.4-0.6,2c-0.4,0.6-1,1.2-1.9,1.8c-1.8,1.3-3,2.3-3.5,3.1c-0.3,0.4-0.5,1-0.6,1.6
							c0-0.1,0.1-0.2,0.1-0.2c0.4-0.4,0.8-0.6,1.4-0.6c0.1,0,0.3,0,0.6,0.1c0.3,0,0.6,0.1,1,0.2c0.1,0,0.3,0,0.5,0.1
							c0.2,0,0.3,0,0.5,0c0.5,0,0.9-0.2,1.1-0.6c0.3-0.4,0.4-0.9,0.4-1.6h1.2c0,1.6-0.2,2.8-0.6,3.6c-0.4,0.8-1,1.2-1.9,1.2
							c-0.2,0-0.5,0-0.8-0.1c-0.3-0.1-0.6-0.2-0.8-0.3c-0.4-0.2-0.7-0.4-1.1-0.5c-0.4-0.1-0.6-0.2-0.8-0.2c-0.2,0-0.5,0.1-0.6,0.2
							c-0.2,0.2-0.3,0.4-0.4,0.6h-0.6h-0.6c0-1.5,0.3-2.7,0.8-3.8c0.5-1,1.6-2.3,3-3.7c0.5-0.5,0.9-1,1.2-1.5c0.3-0.5,0.4-1,0.4-1.6
							c0-0.6-0.2-1.1-0.5-1.4c-0.4-0.4-0.8-0.6-1.4-0.6c-0.6,0-1,0.2-1.4,0.5c-0.3,0.2-0.4,0.5-0.5,0.8c0.2-0.2,0.4-0.3,0.7-0.3
							c0.3,0,0.5,0.1,0.8,0.4c0.2,0.2,0.3,0.5,0.3,0.8c0,0.4-0.1,0.7-0.4,1c-0.3,0.3-0.7,0.4-1.1,0.4c-0.5,0-0.8-0.2-1.1-0.6
							c-0.3-0.4-0.4-0.8-0.4-1.4c0-0.9,0.4-1.6,1.1-2.2c0.7-0.6,1.6-0.9,2.6-0.9c1.2,0,2.1,0.4,2.9,1.1
							C208.9-91.9,209.3-91.1,209.3-90z"/>
						<path fill="#FFFFFF" d="M215.3-89.8c0-0.7-0.2-1.3-0.6-1.8c-0.4-0.5-0.9-0.7-1.5-0.7c-0.5,0-0.9,0.2-1.2,0.5
							c-0.2,0.2-0.3,0.4-0.4,0.7c0.2-0.1,0.4-0.2,0.6-0.2c0.4,0,0.7,0.1,0.9,0.3c0.2,0.2,0.3,0.5,0.3,0.8c0,0.4-0.1,0.7-0.4,1
							c-0.3,0.3-0.7,0.4-1.1,0.4c-0.4,0-0.8-0.2-1.1-0.5c-0.3-0.4-0.4-0.8-0.4-1.3c0-0.9,0.3-1.7,1-2.2c0.7-0.6,1.6-0.9,2.7-0.9
							c1.1,0,2,0.3,2.7,1c0.7,0.7,1,1.6,1,2.7c0,1-0.3,1.8-1,2.4c-0.4,0.4-1,0.6-1.6,0.8c0.7,0.1,1.3,0.4,1.7,0.8
							c0.7,0.6,1,1.4,1,2.5c0,1.2-0.4,2.1-1.1,2.9c-0.8,0.8-1.7,1.2-2.8,1.2c-1.1,0-2.1-0.3-2.8-0.9c-0.8-0.6-1.1-1.3-1.1-2.2
							c0-0.5,0.2-1,0.5-1.3c0.3-0.4,0.7-0.5,1.2-0.5c0.4,0,0.7,0.1,0.9,0.4c0.2,0.3,0.4,0.6,0.4,1c0,0.3-0.1,0.6-0.3,0.8
							c-0.2,0.2-0.4,0.3-0.7,0.3c-0.2,0-0.4-0.1-0.6-0.2c0.1,0.3,0.2,0.5,0.5,0.7c0.4,0.3,0.8,0.5,1.4,0.5c0.6,0,1.2-0.2,1.5-0.7
							c0.4-0.5,0.6-1.1,0.6-1.9c0-0.9-0.2-1.5-0.7-1.9c-0.4-0.4-1.1-0.6-2-0.6h-0.1v-1.2h0c0.9,0,1.5-0.2,2-0.6
							C215.1-88.3,215.3-89,215.3-89.8z"/>
					</g>
				</g>
			</g>
			<g>
				<ellipse fill="#111424" cx="237.5" cy="-86.6" rx="11.8" ry="13.9"/>
				<g>
					<g>
						<path fill="#FFFFFF" d="M237.2-90c0,0.7-0.2,1.4-0.6,2c-0.4,0.6-1,1.2-1.9,1.8c-1.8,1.3-3,2.3-3.5,3.1c-0.3,0.4-0.5,1-0.6,1.6
							c0-0.1,0.1-0.2,0.1-0.2c0.4-0.4,0.8-0.6,1.4-0.6c0.1,0,0.3,0,0.6,0.1c0.3,0,0.6,0.1,1,0.2c0.1,0,0.3,0,0.5,0.1
							c0.2,0,0.3,0,0.5,0c0.5,0,0.9-0.2,1.1-0.6c0.3-0.4,0.4-0.9,0.4-1.6h1.2c0,1.6-0.2,2.8-0.6,3.6c-0.4,0.8-1,1.2-1.9,1.2
							c-0.2,0-0.5,0-0.8-0.1c-0.3-0.1-0.6-0.2-0.8-0.3c-0.4-0.2-0.7-0.4-1.1-0.5c-0.4-0.1-0.6-0.2-0.8-0.2c-0.2,0-0.5,0.1-0.6,0.2
							c-0.2,0.2-0.3,0.4-0.4,0.6h-0.6h-0.6c0-1.5,0.3-2.7,0.8-3.8c0.5-1,1.6-2.3,3-3.7c0.5-0.5,0.9-1,1.2-1.5c0.3-0.5,0.4-1,0.4-1.6
							c0-0.6-0.2-1.1-0.5-1.4c-0.4-0.4-0.8-0.6-1.4-0.6c-0.6,0-1,0.2-1.4,0.5c-0.3,0.2-0.4,0.5-0.5,0.8c0.2-0.2,0.4-0.3,0.7-0.3
							c0.3,0,0.5,0.1,0.8,0.4c0.2,0.2,0.3,0.5,0.3,0.8c0,0.4-0.2,0.7-0.4,1c-0.3,0.3-0.7,0.4-1.1,0.4c-0.5,0-0.8-0.2-1.1-0.6
							c-0.3-0.4-0.4-0.8-0.4-1.4c0-0.9,0.4-1.6,1.1-2.2c0.7-0.6,1.6-0.9,2.6-0.9c1.2,0,2.1,0.4,2.9,1.1
							C236.8-91.9,237.2-91.1,237.2-90z"/>
						<path fill="#FFFFFF" d="M242.4-93.7c1,0,1.8,0.3,2.5,0.8c0.7,0.5,1,1.2,1,2c0,0.5-0.1,0.9-0.4,1.2c-0.3,0.3-0.6,0.5-1,0.5
							c-0.4,0-0.7-0.1-1-0.3c-0.3-0.2-0.4-0.5-0.4-0.9c0-0.4,0.1-0.7,0.3-0.9c0.2-0.2,0.4-0.3,0.7-0.3c0.2,0,0.3,0,0.4,0.1
							c-0.1-0.2-0.2-0.4-0.3-0.5c-0.3-0.3-0.7-0.4-1.2-0.4c-0.8,0-1.3,0.4-1.7,1.2c-0.4,0.8-0.5,2.1-0.5,3.8l0,0.2
							c0.5-0.5,1.1-0.7,1.8-0.7c1.1,0,1.9,0.3,2.5,1c0.6,0.7,0.8,1.6,0.8,2.9c0,1.6-0.3,2.7-1,3.5c-0.6,0.8-1.6,1.1-3,1.1
							c-1.4,0-2.4-0.5-3-1.5c-0.6-1-0.9-2.5-0.9-4.7c0-2.8,0.4-4.8,1.1-6.1C239.8-93.1,240.9-93.7,242.4-93.7z M240.6-83.7
							c0,1,0.1,1.7,0.3,2.2c0.2,0.4,0.6,0.7,1,0.7c0.5,0,0.8-0.2,1-0.7c0.2-0.4,0.3-1.2,0.3-2.2c0-1-0.1-1.7-0.3-2.1
							c-0.2-0.5-0.6-0.7-1-0.7c-0.5,0-0.8,0.2-1,0.7C240.7-85.4,240.6-84.7,240.6-83.7z"/>
					</g>
				</g>
			</g>
			<g>
				<ellipse fill="#111424" cx="265.4" cy="-86.6" rx="11.9" ry="13.9"/>
				<g>
					<g>
						<path fill="#FFFFFF" d="M265.1-90c0,0.7-0.2,1.4-0.6,2c-0.4,0.6-1,1.2-1.9,1.8c-1.8,1.3-3,2.3-3.5,3.1c-0.3,0.4-0.5,1-0.6,1.6
							c0-0.1,0.1-0.2,0.1-0.2c0.4-0.4,0.8-0.6,1.4-0.6c0.1,0,0.3,0,0.6,0.1c0.3,0,0.6,0.1,1,0.2c0.1,0,0.3,0,0.5,0.1
							c0.2,0,0.3,0,0.5,0c0.5,0,0.9-0.2,1.1-0.6c0.3-0.4,0.4-0.9,0.4-1.6h1.2c0,1.6-0.2,2.8-0.6,3.6c-0.4,0.8-1,1.2-1.9,1.2
							c-0.2,0-0.5,0-0.8-0.1c-0.3-0.1-0.6-0.2-0.8-0.3c-0.4-0.2-0.7-0.4-1.1-0.5c-0.4-0.1-0.6-0.2-0.8-0.2c-0.2,0-0.5,0.1-0.6,0.2
							c-0.2,0.2-0.3,0.4-0.4,0.6h-0.6H257c0-1.5,0.3-2.7,0.8-3.8c0.5-1,1.6-2.3,3-3.7c0.5-0.5,0.9-1,1.2-1.5c0.3-0.5,0.4-1,0.4-1.6
							c0-0.6-0.2-1.1-0.5-1.4c-0.4-0.4-0.8-0.6-1.4-0.6c-0.6,0-1,0.2-1.4,0.5c-0.3,0.2-0.4,0.5-0.5,0.8c0.2-0.2,0.4-0.3,0.7-0.3
							c0.3,0,0.5,0.1,0.8,0.4c0.2,0.2,0.3,0.5,0.3,0.8c0,0.4-0.2,0.7-0.4,1c-0.3,0.3-0.7,0.4-1.1,0.4c-0.5,0-0.8-0.2-1.1-0.6
							c-0.3-0.4-0.4-0.8-0.4-1.4c0-0.9,0.4-1.6,1.1-2.2c0.7-0.6,1.6-0.9,2.6-0.9c1.2,0,2.1,0.4,2.9,1.1
							C264.7-91.9,265.1-91.1,265.1-90z"/>
						<path fill="#FFFFFF" d="M269.4-79.5c-1,0-1.8-0.3-2.4-0.8c-0.6-0.5-0.9-1.2-0.9-2c0-0.5,0.1-0.9,0.4-1.2
							c0.3-0.3,0.6-0.5,1-0.5c0.4,0,0.7,0.1,1,0.3c0.3,0.2,0.4,0.5,0.4,0.9c0,0.4-0.1,0.7-0.3,0.9c-0.2,0.2-0.4,0.3-0.7,0.3
							c-0.2,0-0.3,0-0.5-0.1c0.1,0.2,0.2,0.4,0.4,0.5c0.3,0.3,0.7,0.4,1.1,0.4c0.8,0,1.4-0.3,1.7-1c0.3-0.6,0.5-1.8,0.5-3.3v-0.8
							c-0.5,0.5-1.1,0.7-1.8,0.7c-1.1,0-1.9-0.3-2.5-1c-0.6-0.7-0.8-1.6-0.8-2.9c0-1.5,0.3-2.6,1-3.4c0.7-0.8,1.7-1.2,2.9-1.2
							c1.4,0,2.5,0.5,3,1.5c0.6,1,0.9,2.8,0.9,5.3c0,2.7-0.3,4.6-1,5.7C272.1-80,271-79.5,269.4-79.5z M271.1-89.4
							c0-1-0.1-1.7-0.3-2.2c-0.2-0.4-0.6-0.7-1-0.7c-0.5,0-0.8,0.2-1,0.7c-0.2,0.4-0.3,1.2-0.3,2.2c0,1,0.1,1.7,0.3,2.1
							c0.2,0.4,0.6,0.7,1,0.7c0.5,0,0.8-0.2,1-0.7C271-87.8,271.1-88.5,271.1-89.4z"/>
					</g>
				</g>
			</g>
			<g>
				<ellipse fill="#B9333A" cx="293.3" cy="-86.6" rx="11.8" ry="13.9"/>
				<g>
					<g>
						<path fill="#FFFFFF" d="M290.1-89.8c0-0.7-0.2-1.3-0.6-1.8c-0.4-0.5-0.9-0.7-1.5-0.7c-0.5,0-0.9,0.2-1.2,0.5
							c-0.2,0.2-0.3,0.4-0.4,0.7c0.2-0.1,0.4-0.2,0.6-0.2c0.4,0,0.7,0.1,0.9,0.3c0.2,0.2,0.3,0.5,0.3,0.8c0,0.4-0.1,0.7-0.4,1
							c-0.3,0.3-0.7,0.4-1.1,0.4c-0.4,0-0.8-0.2-1.1-0.5c-0.3-0.4-0.4-0.8-0.4-1.3c0-0.9,0.3-1.7,1-2.2c0.7-0.6,1.6-0.9,2.7-0.9
							c1.1,0,2,0.3,2.7,1c0.7,0.7,1,1.6,1,2.7c0,1-0.3,1.8-1,2.4c-0.4,0.4-1,0.6-1.6,0.8c0.7,0.1,1.3,0.4,1.7,0.8
							c0.7,0.6,1,1.4,1,2.5c0,1.2-0.4,2.1-1.1,2.9c-0.8,0.8-1.7,1.2-2.8,1.2c-1.1,0-2.1-0.3-2.8-0.9c-0.8-0.6-1.1-1.3-1.1-2.2
							c0-0.5,0.2-1,0.5-1.3c0.3-0.4,0.7-0.5,1.2-0.5c0.4,0,0.7,0.1,0.9,0.4c0.2,0.3,0.4,0.6,0.4,1c0,0.3-0.1,0.6-0.3,0.8
							c-0.2,0.2-0.4,0.3-0.7,0.3c-0.2,0-0.4-0.1-0.6-0.2c0.1,0.3,0.2,0.5,0.5,0.7c0.4,0.3,0.8,0.5,1.4,0.5c0.6,0,1.2-0.2,1.5-0.7
							c0.4-0.5,0.6-1.1,0.6-1.9c0-0.9-0.2-1.5-0.7-1.9c-0.4-0.4-1.1-0.6-2-0.6h-0.1v-1.2h0c0.9,0,1.5-0.2,2-0.6
							C289.9-88.3,290.1-89,290.1-89.8z"/>
						<path fill="#FFFFFF" d="M301.5-90c0,0.7-0.2,1.4-0.6,2c-0.4,0.6-1,1.2-1.9,1.8c-1.8,1.3-3,2.3-3.5,3.1c-0.3,0.4-0.5,1-0.6,1.6
							c0-0.1,0.1-0.2,0.1-0.2c0.4-0.4,0.8-0.6,1.4-0.6c0.1,0,0.3,0,0.6,0.1c0.3,0,0.6,0.1,1,0.2c0.1,0,0.3,0,0.5,0.1
							c0.2,0,0.3,0,0.5,0c0.5,0,0.9-0.2,1.1-0.6c0.3-0.4,0.4-0.9,0.4-1.6h1.2c0,1.6-0.2,2.8-0.6,3.6c-0.4,0.8-1,1.2-1.9,1.2
							c-0.2,0-0.5,0-0.8-0.1c-0.3-0.1-0.6-0.2-0.8-0.3c-0.4-0.2-0.7-0.4-1.1-0.5c-0.4-0.1-0.6-0.2-0.8-0.2c-0.2,0-0.5,0.1-0.6,0.2
							c-0.2,0.2-0.3,0.4-0.4,0.6h-0.6h-0.6c0-1.5,0.3-2.7,0.8-3.8c0.5-1,1.6-2.3,3-3.7c0.5-0.5,0.9-1,1.2-1.5c0.3-0.5,0.4-1,0.4-1.6
							c0-0.6-0.2-1.1-0.5-1.4c-0.4-0.4-0.8-0.6-1.4-0.6c-0.6,0-1,0.2-1.4,0.5c-0.3,0.2-0.4,0.5-0.5,0.8c0.2-0.2,0.4-0.3,0.7-0.3
							c0.3,0,0.5,0.1,0.8,0.4c0.2,0.2,0.3,0.5,0.3,0.8c0,0.4-0.1,0.7-0.4,1c-0.3,0.3-0.7,0.4-1.1,0.4c-0.5,0-0.8-0.2-1.1-0.6
							c-0.3-0.4-0.4-0.8-0.4-1.4c0-0.9,0.4-1.6,1.1-2.2c0.7-0.6,1.6-0.9,2.6-0.9c1.2,0,2.1,0.4,2.9,1.1
							C301.1-91.9,301.5-91.1,301.5-90z"/>
					</g>
				</g>
			</g>
			<g>
				<ellipse fill="#111424" cx="321.2" cy="-86.6" rx="11.9" ry="13.9"/>
				<g>
					<g>
						<path fill="#FFFFFF" d="M318.1-89.8c0-0.7-0.2-1.3-0.6-1.8c-0.4-0.5-0.9-0.7-1.5-0.7c-0.5,0-0.9,0.2-1.2,0.5
							c-0.2,0.2-0.3,0.4-0.4,0.7c0.2-0.1,0.4-0.2,0.6-0.2c0.4,0,0.7,0.1,0.9,0.3c0.2,0.2,0.3,0.5,0.3,0.8c0,0.4-0.1,0.7-0.4,1
							c-0.3,0.3-0.7,0.4-1.1,0.4c-0.4,0-0.8-0.2-1.1-0.5c-0.3-0.4-0.4-0.8-0.4-1.3c0-0.9,0.3-1.7,1-2.2c0.7-0.6,1.6-0.9,2.7-0.9
							c1.1,0,2,0.3,2.7,1c0.7,0.7,1,1.6,1,2.7c0,1-0.3,1.8-1,2.4c-0.4,0.4-1,0.6-1.6,0.8c0.7,0.1,1.3,0.4,1.7,0.8
							c0.7,0.6,1,1.4,1,2.5c0,1.2-0.4,2.1-1.1,2.9c-0.8,0.8-1.7,1.2-2.8,1.2c-1.1,0-2.1-0.3-2.8-0.9c-0.8-0.6-1.1-1.3-1.1-2.2
							c0-0.5,0.2-1,0.5-1.3c0.3-0.4,0.7-0.5,1.2-0.5c0.4,0,0.7,0.1,0.9,0.4c0.2,0.3,0.4,0.6,0.4,1c0,0.3-0.1,0.6-0.3,0.8
							c-0.2,0.2-0.4,0.3-0.7,0.3c-0.2,0-0.4-0.1-0.6-0.2c0.1,0.3,0.2,0.5,0.5,0.7c0.4,0.3,0.8,0.5,1.4,0.5c0.6,0,1.2-0.2,1.5-0.7
							c0.4-0.5,0.6-1.1,0.6-1.9c0-0.9-0.2-1.5-0.7-1.9c-0.4-0.4-1.1-0.6-2-0.6h-0.1v-1.2h0c0.9,0,1.5-0.2,2-0.6
							C317.9-88.3,318.1-89,318.1-89.8z"/>
						<path fill="#FFFFFF" d="M329.4-84.5c0,1.5-0.4,2.7-1.1,3.6c-0.7,0.9-1.7,1.3-3,1.3c-1.1,0-2-0.3-2.7-0.8c-0.6-0.5-1-1.3-1-2.3
							c0-0.5,0.2-1,0.5-1.4c0.3-0.4,0.7-0.6,1.2-0.6c0.4,0,0.7,0.1,1,0.4c0.3,0.3,0.4,0.6,0.4,1c0,0.4-0.1,0.7-0.3,0.9
							c-0.2,0.2-0.5,0.3-0.8,0.3c-0.3,0-0.6-0.1-0.8-0.4c0.1,0.3,0.2,0.6,0.5,0.9c0.4,0.3,0.8,0.5,1.4,0.5c0.7,0,1.2-0.3,1.6-0.9
							c0.3-0.6,0.5-1.4,0.5-2.6c0-1-0.2-1.8-0.5-2.3c-0.3-0.5-0.8-0.8-1.4-0.8c-0.4,0-0.8,0.2-1.2,0.5c-0.3,0.3-0.5,0.7-0.6,1.2H322
							l0.3-7.7c1.8,0.2,3.3,0.4,4.6,0.4c0.6,0,1.4-0.1,2.3-0.4c-0.2,1.1-0.7,1.9-1.5,2.1c-0.8,0.3-2.2,0.3-4.1,0.2l-0.2,3.3
							c0.6-0.7,1.4-1,2.3-1c1.2,0,2.2,0.4,2.8,1.1C329.1-86.9,329.4-85.9,329.4-84.5z"/>
					</g>
				</g>
			</g>
			<g>
				<ellipse fill="#B9333A" cx="14.5" cy="-51.8" rx="11.8" ry="13.9"/>
				<g>
					<g>
						<path fill="#FFFFFF" d="M13.4-46.9v-8.7h-1.6V-57c0.9,0,1.6-0.1,2.2-0.4c0.3-0.2,0.6-0.6,0.9-1.2h1.1v11.6
							c0,0.2,0,0.4,0.1,0.5c0.1,0.1,0.3,0.1,0.5,0.1h0.6v1.4h-2.7h-2.7v-1.4h1c0.2,0,0.4,0,0.5-0.1C13.4-46.5,13.4-46.7,13.4-46.9z"
							/>
					</g>
				</g>
			</g>
			<g>
				<ellipse fill="#111424" cx="42.3" cy="-51.8" rx="11.9" ry="13.9"/>
				<g>
					<g>
						<path fill="#FFFFFF" d="M37.6-48.2v-0.7v-0.7l4.9-9h1.1h1.1v9.1h1.2v1.3h-1.2v1.2c0,0.3,0,0.5,0.1,0.6
							c0.1,0.1,0.3,0.1,0.6,0.1h0.5v1.4h-2.7h-2.7v-1.4h1.1c0.2,0,0.3,0,0.4-0.1c0.1-0.1,0.1-0.3,0.1-0.5v-1.3H37.6z M42.2-49.5
							v-5.9l-3.1,5.8L39-49.5H42.2z"/>
					</g>
				</g>
			</g>
			<g>
				<ellipse fill="#B9333A" cx="70.2" cy="-51.8" rx="11.8" ry="13.9"/>
				<g>
					<g>
						<path fill="#FFFFFF" d="M67.4-44.9c0.2-2,0.7-4.1,1.7-6.3c0.8-1.8,1.9-3.7,3.3-5.6c-0.6,0.3-1.2,0.5-1.8,0.5
							c-0.1,0-0.2,0-0.3,0c-0.1,0-0.3,0-0.4-0.1c-0.7-0.1-1.1-0.2-1.1-0.2c-0.5,0-0.8,0.2-1,0.5c-0.2,0.4-0.3,0.9-0.3,1.6h-1.2v-4.2
							h1.2v0.9c0.6-0.6,1.3-0.9,2.2-0.9c0.1,0,0.3,0,0.5,0c0.2,0,0.4,0.1,0.5,0.1c0.4,0.1,0.8,0.2,1.1,0.3c0.3,0.1,0.6,0.1,0.7,0.1
							c0.2,0,0.3-0.1,0.5-0.2c0.1-0.1,0.3-0.3,0.4-0.5h0.6h0.6c0,0.2-0.2,0.7-0.5,1.4c-0.3,0.8-0.9,1.8-1.6,3.2
							c-0.7,1.5-1.2,2.8-1.5,4c-0.2,1.2-0.4,2.9-0.4,5.1H67.4z"/>
					</g>
				</g>
			</g>
			<g>
				<ellipse fill="#111424" cx="98.1" cy="-51.8" rx="11.9" ry="13.9"/>
				<g>
					<g>
						<path fill="#FFFFFF" d="M92.4-46.9v-8.7h-1.6V-57c0.9,0,1.6-0.1,2.2-0.4c0.3-0.2,0.6-0.6,0.9-1.2h1.1v11.6
							c0,0.2,0,0.4,0.1,0.5c0.1,0.1,0.2,0.1,0.5,0.1h0.6v1.4h-2.7h-2.7v-1.4h1c0.2,0,0.4,0,0.5-0.1C92.3-46.5,92.4-46.7,92.4-46.9z"
							/>
						<path fill="#FFFFFF" d="M98.6-46.2c-0.5-1-0.8-2.9-0.8-5.6c0-2.7,0.3-4.5,0.8-5.5c0.5-1,1.6-1.5,3-1.5c1.5,0,2.5,0.5,3,1.5
							c0.5,1,0.8,2.8,0.8,5.4v0.1c0,2.7-0.3,4.6-0.8,5.6c-0.6,1-1.6,1.5-3,1.5C100.2-44.6,99.2-45.2,98.6-46.2z M102.7-47.3
							c0.2-0.8,0.3-2.3,0.3-4.5c0-2.2-0.1-3.6-0.3-4.4c-0.2-0.8-0.5-1.2-1-1.2c-0.5,0-0.8,0.4-1,1.2c-0.2,0.8-0.3,2.3-0.3,4.4
							c0,2.2,0.1,3.7,0.3,4.5c0.2,0.8,0.5,1.2,1,1.2C102.2-46.1,102.5-46.5,102.7-47.3z"/>
					</g>
				</g>
			</g>
			<g>
				<ellipse fill="#111424" cx="126" cy="-51.8" rx="11.9" ry="13.9"/>
				<g>
					<g>
						<path fill="#FFFFFF" d="M120.2-46.9v-8.7h-1.6V-57c0.9,0,1.6-0.1,2.2-0.4c0.3-0.2,0.6-0.6,0.9-1.2h1.1v11.6
							c0,0.2,0,0.4,0.1,0.5c0.1,0.1,0.3,0.1,0.5,0.1h0.6v1.4h-2.7h-2.7v-1.4h1c0.2,0,0.4,0,0.5-0.1
							C120.2-46.5,120.2-46.7,120.2-46.9z"/>
						<path fill="#FFFFFF" d="M130.7-55c0-0.7-0.2-1.3-0.6-1.8c-0.4-0.5-0.9-0.7-1.5-0.7c-0.5,0-0.9,0.2-1.2,0.5
							c-0.2,0.2-0.3,0.4-0.4,0.7c0.2-0.1,0.4-0.2,0.6-0.2c0.4,0,0.7,0.1,0.9,0.3c0.2,0.2,0.3,0.5,0.3,0.8c0,0.4-0.1,0.7-0.4,1
							c-0.3,0.3-0.7,0.4-1.1,0.4c-0.4,0-0.8-0.2-1.1-0.5c-0.3-0.4-0.4-0.8-0.4-1.3c0-0.9,0.3-1.7,1-2.2c0.7-0.6,1.6-0.9,2.7-0.9
							c1.1,0,2,0.3,2.7,1c0.7,0.7,1,1.6,1,2.7c0,1-0.3,1.8-1,2.4c-0.4,0.4-1,0.6-1.6,0.8c0.7,0.1,1.3,0.4,1.7,0.8
							c0.7,0.6,1,1.4,1,2.5c0,1.2-0.4,2.1-1.1,2.9c-0.8,0.8-1.7,1.2-2.8,1.2c-1.1,0-2.1-0.3-2.8-0.9c-0.8-0.6-1.1-1.3-1.1-2.2
							c0-0.5,0.2-1,0.5-1.3c0.3-0.4,0.7-0.5,1.2-0.5c0.4,0,0.7,0.1,0.9,0.4c0.2,0.3,0.4,0.6,0.4,1c0,0.3-0.1,0.6-0.3,0.8
							c-0.2,0.2-0.4,0.3-0.7,0.3c-0.2,0-0.4-0.1-0.6-0.2c0.1,0.3,0.2,0.5,0.5,0.7c0.4,0.3,0.8,0.5,1.4,0.5c0.6,0,1.2-0.2,1.5-0.7
							c0.4-0.5,0.6-1.1,0.6-1.9c0-0.9-0.2-1.5-0.7-1.9c-0.4-0.4-1.1-0.6-2-0.6h-0.1v-1.2h0c0.9,0,1.5-0.2,2-0.6
							C130.5-53.5,130.7-54.1,130.7-55z"/>
					</g>
				</g>
			</g>
			<g>
				<ellipse fill="#B9333A" cx="153.9" cy="-51.8" rx="11.8" ry="13.9"/>
				<g>
					<g>
						<path fill="#FFFFFF" d="M148.1-46.9v-8.7h-1.6V-57c0.9,0,1.6-0.1,2.2-0.4c0.3-0.2,0.6-0.6,0.9-1.2h1.1v11.6
							c0,0.2,0,0.4,0.1,0.5c0.1,0.1,0.3,0.1,0.5,0.1h0.6v1.4h-2.7h-2.7v-1.4h1c0.2,0,0.4,0,0.5-0.1
							C148.1-46.5,148.1-46.7,148.1-46.9z"/>
						<path fill="#FFFFFF" d="M157.8-58.8c1,0,1.8,0.3,2.5,0.8c0.7,0.5,1,1.2,1,2c0,0.5-0.1,0.9-0.4,1.2c-0.3,0.3-0.6,0.5-1,0.5
							c-0.4,0-0.7-0.1-1-0.3c-0.3-0.2-0.4-0.5-0.4-0.9c0-0.4,0.1-0.7,0.3-0.9c0.2-0.2,0.4-0.3,0.7-0.3c0.2,0,0.3,0,0.4,0.1
							c-0.1-0.2-0.2-0.4-0.3-0.5c-0.3-0.3-0.7-0.4-1.2-0.4c-0.8,0-1.3,0.4-1.7,1.2c-0.4,0.8-0.5,2.1-0.5,3.8l0,0.2
							c0.5-0.5,1.1-0.7,1.8-0.7c1.1,0,1.9,0.3,2.5,1c0.6,0.7,0.8,1.6,0.8,2.9c0,1.6-0.3,2.7-1,3.5c-0.6,0.8-1.6,1.1-3,1.1
							c-1.4,0-2.4-0.5-3-1.5c-0.6-1-0.9-2.5-0.9-4.7c0-2.8,0.4-4.8,1.1-6.1C155.2-58.2,156.3-58.8,157.8-58.8z M156-48.9
							c0,1,0.1,1.7,0.3,2.2c0.2,0.4,0.6,0.7,1,0.7c0.5,0,0.8-0.2,1-0.7c0.2-0.4,0.3-1.2,0.3-2.2c0-1-0.1-1.7-0.3-2.1
							c-0.2-0.5-0.6-0.7-1-0.7c-0.5,0-0.8,0.2-1,0.7C156.1-50.6,156-49.9,156-48.9z"/>
					</g>
				</g>
			</g>
			<g>
				<ellipse fill="#B9333A" cx="181.8" cy="-51.8" rx="11.9" ry="13.9"/>
				<g>
					<g>
						<path fill="#FFFFFF" d="M176-46.9v-8.7h-1.6V-57c0.9,0,1.6-0.1,2.2-0.4c0.3-0.2,0.6-0.6,0.9-1.2h1.1v11.6c0,0.2,0,0.4,0.1,0.5
							c0.1,0.1,0.2,0.1,0.5,0.1h0.6v1.4h-2.7h-2.7v-1.4h1c0.2,0,0.4,0,0.5-0.1C176-46.5,176-46.7,176-46.9z"/>
						<path fill="#FFFFFF" d="M184.8-44.6c-1,0-1.8-0.3-2.4-0.8c-0.6-0.5-0.9-1.2-0.9-2c0-0.5,0.1-0.9,0.4-1.2
							c0.3-0.3,0.6-0.5,1-0.5c0.4,0,0.7,0.1,1,0.3c0.3,0.2,0.4,0.5,0.4,0.9c0,0.4-0.1,0.7-0.3,0.9c-0.2,0.2-0.4,0.3-0.7,0.3
							c-0.2,0-0.3,0-0.5-0.1c0.1,0.2,0.2,0.4,0.4,0.5c0.3,0.3,0.7,0.4,1.1,0.4c0.8,0,1.4-0.3,1.7-1c0.3-0.6,0.5-1.8,0.5-3.3v-0.8
							c-0.5,0.5-1.1,0.7-1.8,0.7c-1.1,0-1.9-0.3-2.5-1c-0.6-0.7-0.8-1.6-0.8-2.9c0-1.5,0.3-2.6,1-3.4c0.7-0.8,1.7-1.2,2.9-1.2
							c1.4,0,2.5,0.5,3,1.5c0.6,1,0.9,2.8,0.9,5.3c0,2.7-0.3,4.6-1,5.7C187.5-45.2,186.4-44.6,184.8-44.6z M186.5-54.6
							c0-1-0.1-1.7-0.3-2.2c-0.2-0.4-0.6-0.7-1-0.7c-0.5,0-0.8,0.2-1,0.7c-0.2,0.4-0.3,1.2-0.3,2.2c0,1,0.1,1.7,0.3,2.1
							c0.2,0.4,0.6,0.7,1,0.7c0.5,0,0.8-0.2,1-0.7C186.4-52.9,186.5-53.6,186.5-54.6z"/>
					</g>
				</g>
			</g>
			<g>
				<ellipse fill="#111424" cx="209.6" cy="-51.8" rx="11.8" ry="13.9"/>
				<g>
					<g>
						<path fill="#FFFFFF" d="M209.2-55.2c0,0.7-0.2,1.4-0.6,2c-0.4,0.6-1,1.2-1.9,1.8c-1.8,1.3-3,2.3-3.5,3.1
							c-0.3,0.4-0.5,1-0.6,1.6c0-0.1,0.1-0.2,0.1-0.2c0.4-0.4,0.8-0.6,1.4-0.6c0.1,0,0.3,0,0.6,0.1c0.3,0,0.6,0.1,1,0.2
							c0.1,0,0.3,0,0.5,0.1c0.2,0,0.3,0,0.5,0c0.5,0,0.9-0.2,1.1-0.6c0.3-0.4,0.4-0.9,0.4-1.6h1.2c0,1.6-0.2,2.8-0.6,3.6
							c-0.4,0.8-1,1.2-1.9,1.2c-0.2,0-0.5,0-0.8-0.1c-0.3-0.1-0.6-0.2-0.8-0.3c-0.4-0.2-0.7-0.4-1.1-0.5c-0.4-0.1-0.6-0.2-0.8-0.2
							c-0.2,0-0.5,0.1-0.6,0.2c-0.2,0.2-0.3,0.4-0.4,0.6h-0.6h-0.6c0-1.5,0.3-2.7,0.8-3.8c0.5-1,1.6-2.3,3-3.7
							c0.5-0.5,0.9-1,1.2-1.5c0.3-0.5,0.4-1,0.4-1.6c0-0.6-0.2-1.1-0.5-1.4c-0.4-0.4-0.8-0.6-1.4-0.6c-0.6,0-1,0.2-1.4,0.5
							c-0.3,0.2-0.4,0.5-0.5,0.8c0.2-0.2,0.4-0.3,0.7-0.3c0.3,0,0.5,0.1,0.8,0.4c0.2,0.2,0.3,0.5,0.3,0.8c0,0.4-0.1,0.7-0.4,1
							c-0.3,0.3-0.7,0.4-1.1,0.4c-0.5,0-0.8-0.2-1.1-0.6c-0.3-0.4-0.4-0.8-0.4-1.4c0-0.9,0.4-1.6,1.1-2.2c0.7-0.6,1.6-0.9,2.6-0.9
							c1.2,0,2.1,0.4,2.9,1.1C208.8-57.1,209.2-56.2,209.2-55.2z"/>
						<path fill="#FFFFFF" d="M217.9-55.2c0,0.7-0.2,1.4-0.6,2c-0.4,0.6-1,1.2-1.9,1.8c-1.8,1.3-3,2.3-3.5,3.1
							c-0.3,0.4-0.5,1-0.6,1.6c0-0.1,0.1-0.2,0.1-0.2c0.4-0.4,0.8-0.6,1.4-0.6c0.1,0,0.3,0,0.6,0.1c0.3,0,0.6,0.1,1,0.2
							c0.1,0,0.3,0,0.5,0.1c0.2,0,0.3,0,0.5,0c0.5,0,0.9-0.2,1.1-0.6c0.3-0.4,0.4-0.9,0.4-1.6h1.2c0,1.6-0.2,2.8-0.6,3.6
							c-0.4,0.8-1,1.2-1.9,1.2c-0.2,0-0.5,0-0.8-0.1c-0.3-0.1-0.6-0.2-0.8-0.3c-0.4-0.2-0.7-0.4-1.1-0.5c-0.4-0.1-0.6-0.2-0.8-0.2
							c-0.2,0-0.5,0.1-0.6,0.2c-0.2,0.2-0.3,0.4-0.4,0.6h-0.6h-0.6c0-1.5,0.3-2.7,0.8-3.8c0.5-1,1.6-2.3,3-3.7
							c0.5-0.5,0.9-1,1.2-1.5c0.3-0.5,0.4-1,0.4-1.6c0-0.6-0.2-1.1-0.5-1.4c-0.4-0.4-0.8-0.6-1.4-0.6c-0.6,0-1,0.2-1.4,0.5
							c-0.3,0.2-0.4,0.5-0.5,0.8c0.2-0.2,0.4-0.3,0.7-0.3c0.3,0,0.5,0.1,0.8,0.4c0.2,0.2,0.3,0.5,0.3,0.8c0,0.4-0.1,0.7-0.4,1
							c-0.3,0.3-0.7,0.4-1.1,0.4c-0.5,0-0.8-0.2-1.1-0.6c-0.3-0.4-0.4-0.8-0.4-1.4c0-0.9,0.4-1.6,1.1-2.2c0.7-0.6,1.6-0.9,2.6-0.9
							c1.2,0,2.1,0.4,2.9,1.1C217.6-57.1,217.9-56.2,217.9-55.2z"/>
					</g>
				</g>
			</g>
			<g>
				<ellipse fill="#B9333A" cx="237.5" cy="-51.8" rx="11.8" ry="13.9"/>
				<g>
					<g>
						<path fill="#FFFFFF" d="M237.2-55.2c0,0.7-0.2,1.4-0.6,2c-0.4,0.6-1,1.2-1.9,1.8c-1.8,1.3-3,2.3-3.5,3.1
							c-0.3,0.4-0.5,1-0.6,1.6c0-0.1,0.1-0.2,0.1-0.2c0.4-0.4,0.8-0.6,1.4-0.6c0.1,0,0.3,0,0.6,0.1c0.3,0,0.6,0.1,1,0.2
							c0.1,0,0.3,0,0.5,0.1c0.2,0,0.3,0,0.5,0c0.5,0,0.9-0.2,1.1-0.6c0.3-0.4,0.4-0.9,0.4-1.6h1.2c0,1.6-0.2,2.8-0.6,3.6
							c-0.4,0.8-1,1.2-1.9,1.2c-0.2,0-0.5,0-0.8-0.1c-0.3-0.1-0.6-0.2-0.8-0.3c-0.4-0.2-0.7-0.4-1.1-0.5c-0.4-0.1-0.6-0.2-0.8-0.2
							c-0.2,0-0.5,0.1-0.6,0.2c-0.2,0.2-0.3,0.4-0.4,0.6h-0.6h-0.6c0-1.5,0.3-2.7,0.8-3.8c0.5-1,1.6-2.3,3-3.7
							c0.5-0.5,0.9-1,1.2-1.5c0.3-0.5,0.4-1,0.4-1.6c0-0.6-0.2-1.1-0.5-1.4c-0.4-0.4-0.8-0.6-1.4-0.6c-0.6,0-1,0.2-1.4,0.5
							c-0.3,0.2-0.4,0.5-0.5,0.8c0.2-0.2,0.4-0.3,0.7-0.3c0.3,0,0.5,0.1,0.8,0.4c0.2,0.2,0.3,0.5,0.3,0.8c0,0.4-0.1,0.7-0.4,1
							c-0.3,0.3-0.7,0.4-1.1,0.4c-0.5,0-0.8-0.2-1.1-0.6c-0.3-0.4-0.4-0.8-0.4-1.4c0-0.9,0.4-1.6,1.1-2.2c0.7-0.6,1.6-0.9,2.6-0.9
							c1.2,0,2.1,0.4,2.9,1.1C236.9-57.1,237.2-56.2,237.2-55.2z"/>
						<path fill="#FFFFFF" d="M245.8-49.6c0,1.5-0.4,2.7-1.1,3.6c-0.7,0.9-1.7,1.3-3,1.3c-1.1,0-2-0.3-2.7-0.8c-0.6-0.5-1-1.3-1-2.3
							c0-0.5,0.2-1,0.5-1.4c0.3-0.4,0.7-0.6,1.2-0.6c0.4,0,0.7,0.1,1,0.4c0.3,0.3,0.4,0.6,0.4,1c0,0.4-0.1,0.7-0.3,0.9
							c-0.2,0.2-0.5,0.3-0.8,0.3c-0.3,0-0.6-0.1-0.8-0.4c0.1,0.3,0.2,0.6,0.5,0.9c0.4,0.3,0.8,0.5,1.4,0.5c0.7,0,1.2-0.3,1.6-0.9
							c0.3-0.6,0.5-1.4,0.5-2.6c0-1-0.2-1.8-0.5-2.3c-0.3-0.5-0.8-0.8-1.4-0.8c-0.4,0-0.8,0.2-1.2,0.5c-0.3,0.3-0.5,0.7-0.6,1.2
							h-1.2l0.3-7.7c1.8,0.2,3.3,0.4,4.6,0.4c0.6,0,1.4-0.1,2.3-0.4c-0.2,1.1-0.7,1.8-1.5,2.1c-0.8,0.3-2.2,0.3-4.1,0.2l-0.2,3.3
							c0.6-0.7,1.4-1,2.3-1c1.2,0,2.2,0.4,2.8,1.1C245.5-52.1,245.8-51,245.8-49.6z"/>
					</g>
				</g>
			</g>
			<g>
				<ellipse fill="#111424" cx="265.4" cy="-51.8" rx="11.9" ry="13.9"/>
				<g>
					<g>
						<path fill="#FFFFFF" d="M265-55.2c0,0.7-0.2,1.4-0.6,2c-0.4,0.6-1,1.2-1.9,1.8c-1.8,1.3-3,2.3-3.5,3.1c-0.3,0.4-0.5,1-0.6,1.6
							c0-0.1,0.1-0.2,0.1-0.2c0.4-0.4,0.8-0.6,1.4-0.6c0.1,0,0.3,0,0.6,0.1c0.3,0,0.6,0.1,1,0.2c0.1,0,0.3,0,0.5,0.1
							c0.2,0,0.3,0,0.5,0c0.5,0,0.9-0.2,1.1-0.6c0.3-0.4,0.4-0.9,0.4-1.6h1.2c0,1.6-0.2,2.8-0.6,3.6c-0.4,0.8-1,1.2-1.9,1.2
							c-0.2,0-0.5,0-0.8-0.1c-0.3-0.1-0.6-0.2-0.8-0.3c-0.4-0.2-0.7-0.4-1.1-0.5c-0.4-0.1-0.6-0.2-0.8-0.2c-0.2,0-0.5,0.1-0.6,0.2
							c-0.2,0.2-0.3,0.4-0.4,0.6h-0.6h-0.6c0-1.5,0.3-2.7,0.8-3.8c0.5-1,1.6-2.3,3-3.7c0.5-0.5,0.9-1,1.2-1.5c0.3-0.5,0.4-1,0.4-1.6
							c0-0.6-0.2-1.1-0.5-1.4c-0.4-0.4-0.8-0.6-1.4-0.6c-0.6,0-1,0.2-1.4,0.5c-0.3,0.2-0.4,0.5-0.5,0.8c0.2-0.2,0.4-0.3,0.7-0.3
							c0.3,0,0.5,0.1,0.8,0.4c0.2,0.2,0.3,0.5,0.3,0.8c0,0.4-0.1,0.7-0.4,1c-0.3,0.3-0.7,0.4-1.1,0.4c-0.5,0-0.8-0.2-1.1-0.6
							c-0.3-0.4-0.4-0.8-0.4-1.4c0-0.9,0.4-1.6,1.1-2.2c0.7-0.6,1.6-0.9,2.6-0.9c1.2,0,2.1,0.4,2.9,1.1
							C264.6-57.1,265-56.2,265-55.2z"/>
						<path fill="#FFFFFF" d="M266-55.3c0-1,0.3-1.9,1-2.5c0.7-0.7,1.6-1,2.7-1c1.1,0,1.9,0.3,2.7,0.9c0.7,0.6,1.1,1.4,1.1,2.3
							c0,0.8-0.3,1.5-0.8,2.2c-0.3,0.4-0.7,0.8-1.2,1.1c0.6,0.4,1.1,0.9,1.5,1.4c0.6,0.8,0.9,1.6,0.9,2.5c0,1.1-0.4,2.1-1.2,2.8
							c-0.8,0.7-1.8,1.1-3,1.1c-1.2,0-2.2-0.3-3-1c-0.8-0.7-1.2-1.6-1.2-2.6c0-0.9,0.3-1.7,0.9-2.4c0.4-0.5,0.9-0.9,1.5-1.3
							c-0.5-0.3-0.8-0.7-1.1-1.1C266.3-53.8,266-54.5,266-55.3z M267.9-48.2c0,0.6,0.2,1.2,0.5,1.6c0.3,0.4,0.8,0.6,1.3,0.6
							c0.5,0,1-0.2,1.3-0.6c0.3-0.4,0.5-0.9,0.5-1.5s-0.2-1.2-0.6-1.7c-0.3-0.4-0.9-0.9-1.5-1.3c-0.4,0.4-0.7,0.7-1,1.1
							C268.1-49.3,267.9-48.8,267.9-48.2z M271.5-55.7c0-0.5-0.1-0.9-0.4-1.2c-0.3-0.3-0.7-0.5-1.1-0.5s-0.8,0.2-1.1,0.5
							c-0.3,0.3-0.4,0.7-0.4,1.2c0,0.4,0.2,0.9,0.6,1.4c0.3,0.4,0.7,0.8,1.2,1.1c0.3-0.3,0.6-0.5,0.8-0.8
							C271.3-54.6,271.5-55.1,271.5-55.7z"/>
					</g>
				</g>
			</g>
			<g>
				<ellipse fill="#111424" cx="293.3" cy="-51.8" rx="11.8" ry="13.9"/>
				<g>
					<g>
						<path fill="#FFFFFF" d="M290.9-55c0-0.7-0.2-1.3-0.6-1.8c-0.4-0.5-0.9-0.7-1.5-0.7c-0.5,0-0.9,0.2-1.2,0.5
							c-0.2,0.2-0.3,0.4-0.4,0.7c0.2-0.1,0.4-0.2,0.6-0.2c0.4,0,0.7,0.1,0.9,0.3c0.2,0.2,0.3,0.5,0.3,0.8c0,0.4-0.1,0.7-0.4,1
							c-0.3,0.3-0.7,0.4-1.1,0.4c-0.4,0-0.8-0.2-1.1-0.5c-0.3-0.4-0.4-0.8-0.4-1.3c0-0.9,0.3-1.7,1-2.2c0.7-0.6,1.6-0.9,2.7-0.9
							c1.1,0,2,0.3,2.7,1c0.7,0.7,1,1.6,1,2.7c0,1-0.3,1.8-1,2.4c-0.4,0.4-1,0.6-1.6,0.8c0.7,0.1,1.3,0.4,1.7,0.8
							c0.7,0.6,1,1.4,1,2.5c0,1.2-0.4,2.1-1.1,2.9c-0.8,0.8-1.7,1.2-2.8,1.2c-1.1,0-2.1-0.3-2.8-0.9c-0.8-0.6-1.1-1.3-1.1-2.2
							c0-0.5,0.2-1,0.5-1.3c0.3-0.4,0.7-0.5,1.2-0.5c0.4,0,0.7,0.1,0.9,0.4c0.2,0.3,0.4,0.6,0.4,1c0,0.3-0.1,0.6-0.3,0.8
							c-0.2,0.2-0.4,0.3-0.7,0.3c-0.2,0-0.4-0.1-0.6-0.2c0.1,0.3,0.2,0.5,0.5,0.7c0.4,0.3,0.8,0.5,1.4,0.5c0.6,0,1.2-0.2,1.5-0.7
							c0.4-0.5,0.6-1.1,0.6-1.9c0-0.9-0.2-1.5-0.7-1.9c-0.4-0.4-1.1-0.6-2-0.6h-0.1v-1.2h0c0.9,0,1.5-0.2,2-0.6
							C290.7-53.5,290.9-54.1,290.9-55z"/>
						<path fill="#FFFFFF" d="M297.1-46.9v-8.7h-1.6V-57c0.9,0,1.6-0.1,2.2-0.4c0.3-0.2,0.6-0.6,0.9-1.2h1.1v11.6
							c0,0.2,0,0.4,0.1,0.5c0.1,0.1,0.3,0.1,0.5,0.1h0.6v1.4h-2.7h-2.7v-1.4h1c0.2,0,0.4,0,0.5-0.1C297-46.5,297.1-46.7,297.1-46.9z
							"/>
					</g>
				</g>
			</g>
			<g>
				<ellipse fill="#B9333A" cx="321.2" cy="-51.8" rx="11.9" ry="13.9"/>
				<g>
					<g>
						<path fill="#FFFFFF" d="M318-55c0-0.7-0.2-1.3-0.6-1.8c-0.4-0.5-0.9-0.7-1.5-0.7c-0.5,0-0.9,0.2-1.2,0.5
							c-0.2,0.2-0.3,0.4-0.4,0.7c0.2-0.1,0.4-0.2,0.6-0.2c0.4,0,0.7,0.1,0.9,0.3c0.2,0.2,0.3,0.5,0.3,0.8c0,0.4-0.1,0.7-0.4,1
							c-0.3,0.3-0.7,0.4-1.1,0.4c-0.4,0-0.8-0.2-1.1-0.5c-0.3-0.4-0.4-0.8-0.4-1.3c0-0.9,0.3-1.7,1-2.2c0.7-0.6,1.6-0.9,2.7-0.9
							c1.1,0,2,0.3,2.7,1c0.7,0.7,1,1.6,1,2.7c0,1-0.3,1.8-1,2.4c-0.4,0.4-1,0.6-1.6,0.8c0.7,0.1,1.3,0.4,1.7,0.8
							c0.7,0.6,1,1.4,1,2.5c0,1.2-0.4,2.1-1.1,2.9c-0.8,0.8-1.7,1.2-2.8,1.2c-1.1,0-2.1-0.3-2.8-0.9c-0.8-0.6-1.1-1.3-1.1-2.2
							c0-0.5,0.2-1,0.5-1.3c0.3-0.4,0.7-0.5,1.2-0.5c0.4,0,0.7,0.1,0.9,0.4c0.2,0.3,0.4,0.6,0.4,1c0,0.3-0.1,0.6-0.3,0.8
							c-0.2,0.2-0.4,0.3-0.7,0.3c-0.2,0-0.4-0.1-0.6-0.2c0.1,0.3,0.2,0.5,0.5,0.7c0.4,0.3,0.8,0.5,1.4,0.5c0.6,0,1.2-0.2,1.5-0.7
							c0.4-0.5,0.6-1.1,0.6-1.9c0-0.9-0.2-1.5-0.7-1.9c-0.4-0.4-1.1-0.6-2-0.6h-0.1v-1.2h0c0.9,0,1.5-0.2,2-0.6
							C317.8-53.5,318-54.1,318-55z"/>
						<path fill="#FFFFFF" d="M321.2-48.2v-0.7v-0.7l4.9-9h1.1h1.1v9.1h1.2v1.3h-1.2v1.2c0,0.3,0,0.5,0.1,0.6
							c0.1,0.1,0.3,0.1,0.6,0.1h0.5v1.4h-2.7h-2.7v-1.4h1.1c0.2,0,0.3,0,0.4-0.1c0.1-0.1,0.1-0.3,0.1-0.5v-1.3H321.2z M325.8-49.5
							v-5.9l-3.1,5.8l-0.1,0.1H325.8z"/>
					</g>
				</g>
			</g>
		</g>
		<g>
			<g>
				<g>
					<g>
						<g>
							<path fill="#111424" d="M346.4-45.6c0.5,0,1.1,0.1,1.5,0.4c0.5,0.3,0.9,0.8,1.4,1.5c1,1.4,1.8,2.3,2.3,2.7
								c0.3,0.2,0.7,0.4,1.2,0.5c-0.1,0-0.1-0.1-0.2-0.1c-0.3-0.3-0.5-0.6-0.5-1c0-0.1,0-0.2,0-0.4c0-0.2,0.1-0.5,0.1-0.7
								c0-0.1,0-0.2,0-0.4c0-0.1,0-0.3,0-0.4c0-0.4-0.1-0.6-0.4-0.9c-0.3-0.2-0.7-0.3-1.3-0.3v-0.9c1.2,0,2.1,0.2,2.7,0.5
								c0.6,0.3,0.9,0.8,0.9,1.4c0,0.2,0,0.4-0.1,0.6c-0.1,0.2-0.1,0.4-0.2,0.6c-0.2,0.3-0.3,0.5-0.4,0.8c-0.1,0.3-0.2,0.5-0.2,0.6
								c0,0.2,0.1,0.3,0.2,0.5c0.1,0.1,0.3,0.2,0.5,0.3v0.5v0.5c-1.1,0-2.1-0.2-2.9-0.6c-0.8-0.4-1.7-1.2-2.8-2.3
								c-0.4-0.4-0.8-0.7-1.1-0.9c-0.4-0.2-0.8-0.3-1.2-0.3c-0.4,0-0.8,0.1-1.1,0.4c-0.3,0.3-0.4,0.6-0.4,1c0,0.4,0.1,0.8,0.3,1.1
								c0.2,0.2,0.4,0.3,0.6,0.4c-0.1-0.1-0.2-0.3-0.2-0.5c0-0.2,0.1-0.4,0.3-0.6c0.2-0.2,0.4-0.2,0.6-0.2c0.3,0,0.6,0.1,0.8,0.3
								c0.2,0.2,0.3,0.5,0.3,0.9c0,0.3-0.1,0.6-0.4,0.9c-0.3,0.2-0.6,0.3-1.1,0.3c-0.7,0-1.2-0.3-1.7-0.8c-0.5-0.6-0.7-1.2-0.7-2
								c0-0.9,0.3-1.6,0.8-2.2C345-45.4,345.6-45.6,346.4-45.6z"/>
							<path fill="#111424" d="M352.1-48.5h-5v0.8H346c-0.1-0.6-0.2-1-0.5-1.2c-0.3-0.2-0.8-0.4-1.4-0.4v-1.1h1.9v-1.4h1.1v1.4h4.9
								c0.4,0,0.6,0,0.7-0.1c0.1-0.1,0.2-0.2,0.2-0.3c0-0.2-0.1-0.3-0.2-0.3c-0.1-0.1-0.4-0.1-0.7-0.1h-0.6v-0.9h0.6
								c0.7,0,1.2,0.1,1.6,0.4c0.3,0.3,0.5,0.7,0.5,1.4c0,0.7-0.2,1.1-0.5,1.4C353.3-48.6,352.8-48.5,352.1-48.5z"/>
							<path fill="#111424" d="M353.1-53.1c-0.7,0.5-1.7,0.7-3.2,0.7c-1.4,0-2.5-0.2-3.1-0.7c-0.7-0.5-1-1.2-1-2.2
								c0-1,0.3-1.7,1-2.2c0.7-0.5,1.7-0.7,3.1-0.7h0c1.5,0,2.5,0.2,3.2,0.7c0.7,0.5,1,1.2,1,2.2C354.1-54.3,353.7-53.6,353.1-53.1z
								 M352.3-56c-0.4-0.1-1.2-0.2-2.4-0.2c-1.2,0-2,0.1-2.3,0.2c-0.4,0.1-0.6,0.3-0.6,0.7c0,0.3,0.2,0.6,0.6,0.7
								c0.4,0.1,1.2,0.2,2.3,0.2c1.2,0,2-0.1,2.4-0.2c0.4-0.1,0.6-0.3,0.6-0.7C352.9-55.6,352.7-55.9,352.3-56z"/>
							<path fill="#111424" d="M352.7-61h-6.6v1.2H345c0-0.7-0.1-1.2-0.3-1.6c-0.1-0.2-0.4-0.5-0.9-0.7V-63h8.8c0.2,0,0.3,0,0.4-0.1
								c0.1-0.1,0.1-0.2,0.1-0.4v-0.5h1.1v2.1v2.1h-1.1v-0.7c0-0.2,0-0.3-0.1-0.4C353-61,352.9-61,352.7-61z"/>
						</g>
					</g>
				</g>
			</g>
			<g>
				<g>
					<g>
						<g>
							<path fill="#111424" d="M14.9,21.6V15h-1.2v-1.1c0.7,0,1.2-0.1,1.6-0.3c0.2-0.1,0.5-0.4,0.7-0.9h0.9v8.8c0,0.2,0,0.3,0.1,0.4
								C17,22,17.1,22,17.3,22h0.5v1.1h-2.1h-2.1V22h0.7c0.2,0,0.3,0,0.4-0.1C14.9,21.9,14.9,21.8,14.9,21.6z"/>
							<path fill="#111424" d="M21.4,21v-5h-0.8v-1.1c0.6-0.1,1-0.2,1.2-0.5c0.2-0.3,0.4-0.8,0.4-1.4h1.1v1.9h1.4v1.1h-1.4v4.9
								c0,0.4,0,0.6,0.1,0.7c0.1,0.1,0.2,0.2,0.3,0.2c0.2,0,0.3-0.1,0.3-0.2c0.1-0.1,0.1-0.4,0.1-0.7v-0.6h0.9v0.6
								c0,0.7-0.1,1.2-0.4,1.6c-0.3,0.3-0.7,0.5-1.4,0.5c-0.7,0-1.1-0.2-1.4-0.5C21.6,22.2,21.4,21.7,21.4,21z"/>
							<path fill="#111424" d="M26.1,22c-0.5-0.7-0.7-1.7-0.7-3.2c0-1.4,0.2-2.5,0.7-3.1c0.5-0.7,1.2-1,2.2-1c1,0,1.7,0.3,2.2,1
								c0.5,0.7,0.7,1.7,0.7,3.1v0c0,1.5-0.2,2.5-0.7,3.2c-0.5,0.7-1.2,1-2.2,1C27.3,23,26.6,22.6,26.1,22z M29,21.2
								c0.1-0.4,0.2-1.2,0.2-2.4c0-1.2-0.1-2-0.2-2.3c-0.1-0.4-0.3-0.6-0.7-0.6c-0.3,0-0.6,0.2-0.7,0.6c-0.1,0.4-0.2,1.2-0.2,2.3
								c0,1.2,0.1,2,0.2,2.4c0.1,0.4,0.3,0.6,0.7,0.6C28.6,21.8,28.8,21.6,29,21.2z"/>
							<path fill="#111424" d="M35.1,21.6V15h-1.2v-1.1c0.7,0,1.2-0.1,1.6-0.3c0.2-0.1,0.5-0.4,0.7-0.9H37v8.8c0,0.2,0,0.3,0.1,0.4
								c0.1,0.1,0.2,0.1,0.4,0.1h0.5v1.1h-2.1h-2.1V22h0.7c0.2,0,0.3,0,0.4-0.1C35,21.9,35.1,21.8,35.1,21.6z"/>
							<path fill="#111424" d="M39.3,15.2c0-0.8,0.3-1.4,0.8-1.9c0.5-0.5,1.2-0.7,2-0.7c0.8,0,1.5,0.2,2,0.7c0.5,0.5,0.8,1,0.8,1.7
								c0,0.6-0.2,1.2-0.6,1.7c-0.2,0.3-0.6,0.6-0.9,0.8c0.5,0.3,0.8,0.7,1.1,1.1c0.5,0.6,0.7,1.2,0.7,1.9c0,0.9-0.3,1.6-0.9,2.1
								c-0.6,0.5-1.4,0.8-2.3,0.8c-0.9,0-1.7-0.3-2.3-0.8c-0.6-0.5-0.9-1.2-0.9-2c0-0.7,0.2-1.3,0.7-1.8c0.3-0.4,0.7-0.7,1.2-1
								c-0.3-0.3-0.6-0.5-0.9-0.8C39.5,16.4,39.3,15.8,39.3,15.2z M40.7,20.6c0,0.5,0.1,0.9,0.4,1.2c0.3,0.3,0.6,0.5,1,0.5
								c0.4,0,0.8-0.1,1-0.4c0.3-0.3,0.4-0.7,0.4-1.1c0-0.5-0.2-0.9-0.5-1.3c-0.3-0.3-0.6-0.7-1.2-1c-0.3,0.3-0.6,0.6-0.8,0.8
								C40.9,19.8,40.7,20.2,40.7,20.6z M43.5,14.9c0-0.4-0.1-0.7-0.3-0.9c-0.2-0.2-0.5-0.4-0.9-0.4s-0.6,0.1-0.9,0.4
								c-0.2,0.2-0.3,0.5-0.3,0.9c0,0.3,0.1,0.7,0.4,1.1c0.2,0.3,0.5,0.6,0.9,0.8c0.3-0.2,0.5-0.4,0.6-0.6
								C43.3,15.8,43.5,15.4,43.5,14.9z"/>
						</g>
					</g>
				</g>
			</g>
			<g>
				<g>
					<g>
						<g>
							<path fill="#111424" d="M289.8,21.6V15h-1.2v-1.1c0.7,0,1.2-0.1,1.6-0.3c0.2-0.1,0.5-0.4,0.7-0.9h0.9v8.8
								c0,0.2,0,0.3,0.1,0.4c0.1,0.1,0.2,0.1,0.4,0.1h0.5v1.1h-2h-2.1V22h0.7c0.2,0,0.3,0,0.4-0.1C289.8,21.9,289.8,21.8,289.8,21.6
								z"/>
							<path fill="#111424" d="M296.5,23.3c-0.7,0-1.4-0.2-1.8-0.6c-0.5-0.4-0.7-0.9-0.7-1.5c0-0.4,0.1-0.7,0.3-0.9
								c0.2-0.3,0.5-0.4,0.8-0.4c0.3,0,0.5,0.1,0.8,0.3c0.2,0.2,0.3,0.4,0.3,0.7c0,0.3-0.1,0.5-0.2,0.7c-0.1,0.2-0.3,0.2-0.6,0.2
								c-0.1,0-0.3,0-0.4-0.1c0.1,0.2,0.1,0.3,0.3,0.4c0.2,0.2,0.5,0.3,0.8,0.3c0.6,0,1.1-0.2,1.3-0.7c0.3-0.5,0.4-1.3,0.4-2.5v-0.6
								c-0.4,0.4-0.9,0.5-1.4,0.5c-0.8,0-1.4-0.2-1.9-0.7c-0.4-0.5-0.6-1.2-0.6-2.2c0-1.1,0.3-2,0.8-2.6c0.5-0.6,1.3-0.9,2.2-0.9
								c1.1,0,1.9,0.4,2.3,1.2c0.4,0.8,0.7,2.1,0.7,4c0,2.1-0.3,3.5-0.8,4.3C298.6,22.9,297.7,23.3,296.5,23.3z M297.8,15.8
								c0-0.8-0.1-1.3-0.2-1.7c-0.2-0.3-0.4-0.5-0.8-0.5c-0.4,0-0.6,0.2-0.8,0.5c-0.2,0.3-0.2,0.9-0.2,1.7c0,0.7,0.1,1.3,0.2,1.6
								c0.2,0.3,0.4,0.5,0.8,0.5c0.4,0,0.6-0.2,0.8-0.5C297.7,17.1,297.8,16.5,297.8,15.8z"/>
							<path fill="#111424" d="M302.7,21v-5h-0.8v-1.1c0.6-0.1,1-0.2,1.2-0.5c0.2-0.3,0.4-0.8,0.4-1.4h1.1v1.9h1.4v1.1h-1.4v4.9
								c0,0.4,0,0.6,0.1,0.7c0.1,0.1,0.1,0.2,0.3,0.2c0.2,0,0.3-0.1,0.3-0.2c0.1-0.1,0.1-0.4,0.1-0.7v-0.6h0.9v0.6
								c0,0.7-0.1,1.2-0.4,1.6c-0.3,0.3-0.7,0.5-1.4,0.5c-0.7,0-1.1-0.2-1.4-0.5C302.8,22.2,302.7,21.7,302.7,21z"/>
							<path fill="#111424" d="M307.3,22c-0.5-0.7-0.7-1.7-0.7-3.2c0-1.4,0.2-2.5,0.7-3.1c0.5-0.7,1.2-1,2.2-1c1,0,1.7,0.3,2.2,1
								c0.5,0.7,0.7,1.7,0.7,3.1v0c0,1.5-0.2,2.5-0.7,3.2c-0.5,0.7-1.2,1-2.2,1C308.5,23,307.8,22.6,307.3,22z M310.2,21.2
								c0.1-0.4,0.2-1.2,0.2-2.4c0-1.2-0.1-2-0.2-2.3c-0.1-0.4-0.3-0.6-0.7-0.6c-0.3,0-0.6,0.2-0.7,0.6c-0.1,0.4-0.2,1.2-0.2,2.3
								c0,1.2,0.1,2,0.2,2.4c0.1,0.4,0.3,0.6,0.7,0.6C309.8,21.8,310.1,21.6,310.2,21.2z"/>
							<path fill="#111424" d="M318.7,15.5c0-0.5-0.2-1-0.5-1.3c-0.3-0.4-0.7-0.5-1.1-0.5c-0.4,0-0.7,0.1-0.9,0.3
								c-0.1,0.1-0.2,0.3-0.3,0.5c0.1-0.1,0.3-0.1,0.5-0.1c0.3,0,0.5,0.1,0.7,0.2c0.2,0.2,0.2,0.4,0.2,0.6c0,0.3-0.1,0.6-0.3,0.8
								c-0.2,0.2-0.5,0.3-0.8,0.3c-0.3,0-0.6-0.1-0.8-0.4c-0.2-0.3-0.3-0.6-0.3-1c0-0.7,0.3-1.3,0.8-1.7c0.5-0.4,1.2-0.7,2-0.7
								c0.9,0,1.5,0.3,2.1,0.8c0.5,0.5,0.8,1.2,0.8,2c0,0.8-0.3,1.4-0.8,1.8c-0.3,0.3-0.7,0.5-1.2,0.6c0.5,0.1,1,0.3,1.3,0.6
								c0.5,0.4,0.8,1.1,0.8,1.9c0,0.9-0.3,1.6-0.9,2.2c-0.6,0.6-1.3,0.9-2.1,0.9c-0.9,0-1.6-0.2-2.1-0.7c-0.6-0.5-0.9-1-0.9-1.7
								c0-0.4,0.1-0.7,0.4-1c0.2-0.3,0.6-0.4,0.9-0.4c0.3,0,0.5,0.1,0.7,0.3c0.2,0.2,0.3,0.5,0.3,0.8c0,0.2-0.1,0.5-0.2,0.6
								c-0.1,0.2-0.3,0.2-0.6,0.2c-0.2,0-0.3,0-0.4-0.1c0.1,0.2,0.2,0.4,0.4,0.6c0.3,0.2,0.6,0.4,1,0.4c0.5,0,0.9-0.2,1.2-0.6
								c0.3-0.4,0.4-0.9,0.4-1.4c0-0.7-0.2-1.1-0.5-1.5c-0.3-0.3-0.9-0.5-1.5-0.5h-0.1v-0.9h0c0.7,0,1.2-0.2,1.5-0.5
								C318.6,16.6,318.7,16.1,318.7,15.5z"/>
							<path fill="#111424" d="M324.4,12.5c0.7,0,1.4,0.2,1.9,0.6c0.5,0.4,0.8,0.9,0.8,1.5c0,0.4-0.1,0.7-0.3,0.9
								c-0.2,0.3-0.5,0.4-0.8,0.4c-0.3,0-0.5-0.1-0.8-0.3c-0.2-0.2-0.3-0.4-0.3-0.6c0-0.3,0.1-0.5,0.2-0.7c0.1-0.2,0.3-0.2,0.6-0.2
								c0.1,0,0.2,0,0.3,0.1c0-0.2-0.1-0.3-0.3-0.4c-0.2-0.2-0.5-0.3-0.9-0.3c-0.6,0-1,0.3-1.3,0.9c-0.3,0.6-0.4,1.6-0.4,2.9l0,0.1
								c0.4-0.4,0.9-0.5,1.4-0.5c0.8,0,1.4,0.2,1.9,0.7c0.4,0.5,0.6,1.2,0.6,2.2c0,1.2-0.2,2.1-0.7,2.6c-0.5,0.6-1.2,0.9-2.3,0.9
								c-1,0-1.8-0.4-2.3-1.1c-0.5-0.7-0.7-1.9-0.7-3.6c0-2.1,0.3-3.7,0.8-4.7C322.4,13,323.3,12.5,324.4,12.5z M323.1,20.1
								c0,0.8,0.1,1.3,0.2,1.6c0.2,0.3,0.4,0.5,0.8,0.5c0.4,0,0.6-0.2,0.8-0.5c0.2-0.3,0.2-0.9,0.2-1.6c0-0.7-0.1-1.3-0.2-1.6
								c-0.2-0.3-0.4-0.5-0.8-0.5c-0.3,0-0.6,0.2-0.8,0.5C323.1,18.8,323.1,19.4,323.1,20.1z"/>
						</g>
					</g>
				</g>
			</g>
			<g>
				<g>
					<g>
						<g>
							<path fill="#111424" d="M69.2,23.1v-1.2h0.3c0.2,0,0.3,0,0.4-0.1c0.1-0.1,0.1-0.2,0.1-0.4v-7c0-0.2,0-0.4-0.1-0.4
								c-0.1-0.1-0.2-0.1-0.4-0.1h-0.3v-1.2h2.9H76v1.8v1.8h-1v-0.5c0-0.7-0.1-1.2-0.4-1.4c-0.2-0.3-0.7-0.4-1.3-0.4h-1.2v3.2h0.6
								c0.2,0,0.3-0.1,0.4-0.2c0.1-0.1,0.1-0.3,0.1-0.6v-0.7h1v2v2h-1V19c0-0.3,0-0.4-0.1-0.6c-0.1-0.1-0.2-0.2-0.4-0.2h-0.6v3.6
								h1.2c0.6,0,1.1-0.2,1.3-0.5c0.3-0.3,0.4-0.9,0.4-1.7v-0.5h1v1.9v1.9h-3.9H69.2z"/>
							<path fill="#111424" d="M77.7,14.4c0-0.2-0.1-0.3-0.1-0.4c0-0.1-0.1-0.1-0.3-0.1h-0.3v-1.2h1.8h1.8v1.2h-0.3
								c-0.2,0-0.3,0-0.4,0.1c-0.1,0.1-0.1,0.2,0,0.4l1.1,6.1h0l1.3-6.1c0-0.2,0-0.3,0-0.4c-0.1-0.1-0.2-0.1-0.3-0.1h-0.3v-1.2H83
								h1.3v1.2h-0.3c-0.1,0-0.2,0-0.3,0.1c-0.1,0.1-0.1,0.2-0.2,0.3l-2,8.7h-1h-1L77.7,14.4z"/>
							<path fill="#111424" d="M84.9,23.1v-1.2h0.3c0.2,0,0.3,0,0.4-0.1c0.1-0.1,0.1-0.2,0.1-0.4v-7c0-0.2,0-0.4-0.1-0.4
								c-0.1-0.1-0.2-0.1-0.4-0.1h-0.3v-1.2h2.9h3.9v1.8v1.8h-1v-0.5c0-0.7-0.1-1.2-0.4-1.4C90,14.1,89.6,14,89,14h-1.2v3.2h0.6
								c0.2,0,0.3-0.1,0.4-0.2c0.1-0.1,0.1-0.3,0.1-0.6v-0.7h1v2v2h-1V19c0-0.3,0-0.4-0.1-0.6c-0.1-0.1-0.2-0.2-0.4-0.2h-0.6v3.6H89
								c0.6,0,1.1-0.2,1.3-0.5c0.3-0.3,0.4-0.9,0.4-1.7v-0.5h1v1.9v1.9h-3.9H84.9z"/>
							<path fill="#111424" d="M94.6,21.5c0,0.2,0,0.3,0.1,0.4c0.1,0.1,0.2,0.1,0.4,0.1h0.3v1.2H94h-1.4v-1.2h0.3
								c0.2,0,0.3,0,0.4-0.1c0.1-0.1,0.1-0.2,0.1-0.4v-7.1c0-0.2,0-0.3-0.1-0.4c-0.1-0.1-0.2-0.1-0.4-0.1h-0.3v-1.2h1.5h1.5l2.6,6.9
								v-5.2c0-0.2,0-0.3-0.1-0.4c-0.1-0.1-0.2-0.1-0.4-0.1h-0.3v-1.2h1.4h1.4v1.2h-0.3c-0.2,0-0.3,0-0.4,0.1
								c-0.1,0.1-0.1,0.2-0.1,0.4v8.7h-0.9h-0.9l-2.9-7.2V21.5z"/>
						</g>
					</g>
				</g>
			</g>
			<g>
				<g>
					<g>
						<g>
							<path fill="#111424" d="M241.8,22.2c-0.5-0.7-0.7-2-0.7-3.7v-1.3c0-1.6,0.3-2.8,0.8-3.6c0.5-0.8,1.3-1.1,2.4-1.1
								c1.1,0,1.9,0.4,2.4,1.1c0.5,0.7,0.7,1.9,0.7,3.5v0.1v1.3c0,1.7-0.2,3-0.7,3.7c-0.5,0.7-1.3,1.1-2.4,1.1
								C243.1,23.3,242.3,23,241.8,22.2z M245,21.5c0.1-0.4,0.2-1.4,0.2-2.9v-1.3c0-1.5-0.1-2.5-0.2-2.9c-0.1-0.4-0.4-0.6-0.8-0.6
								c-0.4,0-0.7,0.2-0.8,0.6c-0.1,0.4-0.2,1.4-0.2,2.9v1.3c0,1.5,0.1,2.5,0.2,2.9c0.1,0.4,0.4,0.6,0.8,0.6
								C244.6,22.1,244.9,21.9,245,21.5z"/>
							<path fill="#111424" d="M249.2,21.5v-6.7c0-0.3,0-0.6-0.1-0.7c-0.1-0.1-0.2-0.2-0.4-0.2h-0.3v-1.2h1.8h2
								c1.1,0,1.9,0.4,2.4,1.2c0.5,0.8,0.7,2.1,0.7,3.9v0.1c0,1.8-0.2,3.2-0.7,4c-0.5,0.8-1.2,1.2-2.3,1.2h-2.1h-1.8v-1.2h0.3
								c0.2,0,0.3,0,0.4-0.1C249.1,21.8,249.2,21.6,249.2,21.5z M251.3,21.9h0.4c0.6,0,1-0.2,1.2-0.7c0.2-0.5,0.3-1.6,0.3-3.3
								c0-1.7-0.1-2.7-0.3-3.2c-0.2-0.5-0.6-0.7-1.3-0.7h-0.3V21.9z"/>
							<path fill="#111424" d="M256.9,21.5v-6.7c0-0.3,0-0.6-0.1-0.7c-0.1-0.1-0.2-0.2-0.4-0.2h-0.3v-1.2h1.8h2
								c1.1,0,1.9,0.4,2.4,1.2c0.5,0.8,0.7,2.1,0.7,3.9v0.1c0,1.8-0.2,3.2-0.7,4c-0.5,0.8-1.2,1.2-2.3,1.2H258h-1.8v-1.2h0.3
								c0.2,0,0.3,0,0.4-0.1C256.9,21.8,256.9,21.6,256.9,21.5z M259,21.9h0.4c0.6,0,1-0.2,1.2-0.7c0.2-0.5,0.3-1.6,0.3-3.3
								c0-1.7-0.1-2.7-0.3-3.2c-0.2-0.5-0.6-0.7-1.3-0.7H259V21.9z"/>
						</g>
					</g>
				</g>
			</g>
			<g>
				<g>
					<g>
						<g>
							<path fill="#111424" d="M346.4-80.5c0.5,0,1.1,0.1,1.5,0.4c0.5,0.3,0.9,0.8,1.4,1.5c1,1.4,1.8,2.3,2.3,2.7
								c0.3,0.2,0.7,0.4,1.2,0.5c-0.1,0-0.1-0.1-0.2-0.1c-0.3-0.3-0.5-0.6-0.5-1c0-0.1,0-0.2,0-0.4c0-0.2,0.1-0.5,0.1-0.7
								c0-0.1,0-0.2,0-0.4c0-0.1,0-0.3,0-0.4c0-0.4-0.1-0.6-0.4-0.9c-0.3-0.2-0.7-0.3-1.3-0.3v-0.9c1.2,0,2.1,0.2,2.7,0.5
								c0.6,0.3,0.9,0.8,0.9,1.4c0,0.2,0,0.4-0.1,0.6c-0.1,0.2-0.1,0.4-0.2,0.6c-0.2,0.3-0.3,0.5-0.4,0.8c-0.1,0.3-0.2,0.5-0.2,0.6
								c0,0.2,0.1,0.3,0.2,0.5c0.1,0.1,0.3,0.2,0.5,0.3v0.5v0.5c-1.1,0-2.1-0.2-2.9-0.6c-0.8-0.4-1.7-1.2-2.8-2.3
								c-0.4-0.4-0.8-0.7-1.1-0.9c-0.4-0.2-0.8-0.3-1.2-0.3c-0.4,0-0.8,0.1-1.1,0.4c-0.3,0.3-0.4,0.6-0.4,1c0,0.4,0.1,0.8,0.3,1.1
								c0.2,0.2,0.4,0.3,0.6,0.4c-0.1-0.1-0.2-0.3-0.2-0.5c0-0.2,0.1-0.4,0.3-0.6c0.2-0.2,0.4-0.2,0.6-0.2c0.3,0,0.6,0.1,0.8,0.3
								c0.2,0.2,0.3,0.5,0.3,0.9c0,0.3-0.1,0.6-0.4,0.9c-0.3,0.2-0.6,0.3-1.1,0.3c-0.7,0-1.2-0.3-1.7-0.8c-0.5-0.6-0.7-1.2-0.7-2
								c0-0.9,0.3-1.6,0.8-2.2C345-80.2,345.6-80.5,346.4-80.5z"/>
							<path fill="#111424" d="M352.1-83.3h-5v0.8H346c-0.1-0.6-0.2-1-0.5-1.2c-0.3-0.2-0.8-0.4-1.4-0.4v-1.1h1.9v-1.4h1.1v1.4h4.9
								c0.4,0,0.6,0,0.7-0.1c0.1-0.1,0.2-0.2,0.2-0.3c0-0.2-0.1-0.3-0.2-0.3c-0.1-0.1-0.4-0.1-0.7-0.1h-0.6V-87h0.6
								c0.7,0,1.2,0.1,1.6,0.4c0.3,0.3,0.5,0.7,0.5,1.4c0,0.7-0.2,1.1-0.5,1.4C353.3-83.5,352.8-83.3,352.1-83.3z"/>
							<path fill="#111424" d="M353.1-88c-0.7,0.5-1.7,0.7-3.2,0.7c-1.4,0-2.5-0.2-3.1-0.7c-0.7-0.5-1-1.2-1-2.2c0-1,0.3-1.7,1-2.2
								c0.7-0.5,1.7-0.7,3.1-0.7h0c1.5,0,2.5,0.2,3.2,0.7c0.7,0.5,1,1.2,1,2.2C354.1-89.2,353.7-88.4,353.1-88z M352.3-90.8
								c-0.4-0.1-1.2-0.2-2.4-0.2c-1.2,0-2,0.1-2.3,0.2c-0.4,0.1-0.6,0.3-0.6,0.7c0,0.3,0.2,0.6,0.6,0.7c0.4,0.1,1.2,0.2,2.3,0.2
								c1.2,0,2-0.1,2.4-0.2c0.4-0.1,0.6-0.3,0.6-0.7C352.9-90.5,352.7-90.7,352.3-90.8z"/>
							<path fill="#111424" d="M352.7-95.9h-6.6v1.2H345c0-0.7-0.1-1.2-0.3-1.6c-0.1-0.2-0.4-0.5-0.9-0.7v-0.9h8.8
								c0.2,0,0.3,0,0.4-0.1c0.1-0.1,0.1-0.2,0.1-0.4v-0.5h1.1v2.1v2.1h-1.1v-0.7c0-0.2,0-0.3-0.1-0.4
								C353-95.9,352.9-95.9,352.7-95.9z"/>
						</g>
					</g>
				</g>
			</g>
			<g>
				<g>
					<g>
						<g>
							<path fill="#111424" d="M43-13.3v-6.6h-1.2v-1.1c0.7,0,1.2-0.1,1.6-0.3c0.2-0.1,0.5-0.4,0.7-0.9h0.9v8.8c0,0.2,0,0.3,0.1,0.4
								c0.1,0.1,0.2,0.1,0.4,0.1h0.5v1.1h-2.1h-2.1v-1.1h0.7c0.2,0,0.3,0,0.4-0.1C43-13,43-13.1,43-13.3z"/>
							<path fill="#111424" d="M51.2-16.8c-0.1-0.6-0.3-1-0.6-1.3c-0.3-0.3-0.6-0.5-1-0.5c-0.3,0-0.5,0.1-0.6,0.2
								c-0.2,0.1-0.2,0.3-0.2,0.5c0,0.2,0.1,0.4,0.4,0.6c0.3,0.2,0.6,0.4,1.1,0.6c0.8,0.3,1.4,0.7,1.8,1.1c0.4,0.4,0.5,0.9,0.5,1.6
								c0,0.7-0.2,1.3-0.6,1.8c-0.4,0.4-1,0.7-1.7,0.7c-0.8,0-1.4-0.3-1.9-0.9l-0.1-0.1L48-11.7h-0.8v-3.1h0.9
								c0.2,0.7,0.4,1.2,0.8,1.6c0.4,0.4,0.8,0.5,1.3,0.5c0.3,0,0.5-0.1,0.6-0.2c0.1-0.1,0.2-0.3,0.2-0.6c0-0.2-0.1-0.4-0.4-0.7
								c-0.3-0.2-0.6-0.4-1.2-0.6c-0.8-0.3-1.4-0.7-1.8-1.1c-0.3-0.4-0.5-0.9-0.5-1.5c0-0.7,0.2-1.3,0.6-1.7
								c0.4-0.4,0.9-0.6,1.6-0.6c0.7,0,1.2,0.3,1.6,0.8l0,0l0.4-0.6h0.8v2.8H51.2z"/>
							<path fill="#111424" d="M53.8-13.5v-5H53v-1.1c0.6-0.1,1-0.2,1.2-0.5c0.2-0.3,0.4-0.8,0.4-1.4h1.1v1.9h1.4v1.1h-1.4v4.9
								c0,0.4,0,0.6,0.1,0.7c0.1,0.1,0.2,0.2,0.3,0.2c0.2,0,0.3-0.1,0.3-0.2c0.1-0.1,0.1-0.4,0.1-0.7v-0.6h0.9v0.6
								c0,0.7-0.1,1.2-0.4,1.6c-0.3,0.3-0.7,0.5-1.4,0.5c-0.7,0-1.1-0.2-1.4-0.5C53.9-12.3,53.8-12.8,53.8-13.5z"/>
							<path fill="#111424" d="M62.7-13.3v-6.6h-1.2v-1.1c0.7,0,1.2-0.1,1.6-0.3c0.2-0.1,0.5-0.4,0.7-0.9h0.9v8.8
								c0,0.2,0,0.3,0.1,0.4c0.1,0.1,0.2,0.1,0.4,0.1h0.5v1.1h-2.1h-2.1v-1.1h0.7c0.2,0,0.3,0,0.4-0.1C62.7-13,62.7-13.1,62.7-13.3z
								"/>
							<path fill="#111424" d="M72.8-19.5c0,0.5-0.1,1.1-0.4,1.5c-0.3,0.5-0.8,0.9-1.5,1.4c-1.4,1-2.3,1.8-2.7,2.3
								c-0.2,0.3-0.4,0.7-0.5,1.2c0-0.1,0.1-0.1,0.1-0.2c0.3-0.3,0.6-0.5,1-0.5c0.1,0,0.2,0,0.4,0c0.2,0,0.5,0.1,0.7,0.1
								c0.1,0,0.2,0,0.4,0c0.1,0,0.3,0,0.4,0c0.4,0,0.6-0.1,0.9-0.4c0.2-0.3,0.3-0.7,0.3-1.3h0.9c0,1.2-0.2,2.1-0.5,2.7
								c-0.3,0.6-0.8,0.9-1.4,0.9c-0.2,0-0.4,0-0.6-0.1c-0.2-0.1-0.4-0.1-0.6-0.2c-0.3-0.2-0.5-0.3-0.8-0.4
								c-0.3-0.1-0.5-0.2-0.6-0.2c-0.2,0-0.3,0.1-0.5,0.2c-0.1,0.1-0.2,0.3-0.3,0.5h-0.5h-0.5c0-1.1,0.2-2.1,0.6-2.9
								c0.4-0.8,1.2-1.7,2.3-2.8c0.4-0.4,0.7-0.8,0.9-1.2c0.2-0.4,0.3-0.8,0.3-1.2c0-0.4-0.1-0.8-0.4-1.1c-0.3-0.3-0.6-0.4-1-0.4
								c-0.4,0-0.8,0.1-1.1,0.4c-0.2,0.2-0.3,0.4-0.4,0.6c0.1-0.1,0.3-0.2,0.5-0.2c0.2,0,0.4,0.1,0.6,0.3c0.2,0.2,0.2,0.4,0.2,0.6
								c0,0.3-0.1,0.6-0.3,0.8c-0.2,0.2-0.5,0.3-0.9,0.3s-0.6-0.1-0.9-0.4c-0.2-0.3-0.3-0.6-0.3-1.1c0-0.7,0.3-1.2,0.8-1.7
								c0.6-0.5,1.2-0.7,2-0.7c0.9,0,1.6,0.3,2.2,0.8C72.5-21,72.8-20.3,72.8-19.5z"/>
						</g>
					</g>
				</g>
			</g>
			<g>
				<g>
					<g>
						<g>
							<path fill="#111424" d="M155.8-19.5c0,0.5-0.1,1.1-0.4,1.5c-0.3,0.5-0.8,0.9-1.5,1.4c-1.4,1-2.3,1.8-2.7,2.3
								c-0.2,0.3-0.4,0.7-0.5,1.2c0-0.1,0.1-0.1,0.1-0.2c0.3-0.3,0.6-0.5,1-0.5c0.1,0,0.2,0,0.4,0c0.2,0,0.5,0.1,0.7,0.1
								c0.1,0,0.2,0,0.4,0c0.1,0,0.3,0,0.4,0c0.4,0,0.7-0.1,0.9-0.4c0.2-0.3,0.3-0.7,0.3-1.3h0.9c0,1.2-0.2,2.1-0.5,2.7
								c-0.3,0.6-0.8,0.9-1.4,0.9c-0.2,0-0.4,0-0.6-0.1c-0.2-0.1-0.4-0.1-0.6-0.2c-0.3-0.2-0.5-0.3-0.8-0.4
								c-0.3-0.1-0.5-0.2-0.6-0.2c-0.2,0-0.3,0.1-0.5,0.2c-0.1,0.1-0.2,0.3-0.3,0.5h-0.5h-0.5c0-1.1,0.2-2.1,0.6-2.9
								c0.4-0.8,1.2-1.7,2.3-2.8c0.4-0.4,0.7-0.8,0.9-1.2c0.2-0.4,0.3-0.8,0.3-1.2c0-0.4-0.1-0.8-0.4-1.1c-0.3-0.3-0.6-0.4-1-0.4
								c-0.4,0-0.8,0.1-1.1,0.4c-0.2,0.2-0.3,0.4-0.4,0.6c0.1-0.1,0.3-0.2,0.5-0.2c0.2,0,0.4,0.1,0.6,0.3c0.2,0.2,0.2,0.4,0.2,0.6
								c0,0.3-0.1,0.6-0.3,0.8c-0.2,0.2-0.5,0.3-0.9,0.3c-0.3,0-0.6-0.1-0.9-0.4c-0.2-0.3-0.3-0.6-0.3-1.1c0-0.7,0.3-1.2,0.8-1.7
								c0.6-0.5,1.2-0.7,2-0.7c0.9,0,1.6,0.3,2.2,0.8C155.5-21,155.8-20.3,155.8-19.5z"/>
							<path fill="#111424" d="M158-13.3v-4.8c0-0.2,0-0.3-0.1-0.4c-0.1-0.1-0.2-0.1-0.3-0.1h-0.3v-1.1h1.1h1.1h0.5v1l0.2-0.2
								c0.5-0.7,1.2-1,1.9-1c0.5,0,0.9,0.2,1.2,0.5c0.3,0.3,0.4,0.7,0.4,1.3v4.8c0,0.2,0,0.3,0.1,0.4c0.1,0.1,0.2,0.1,0.3,0.1h0.3
								v1.1h-1.6H161v-1.1h0.2c0.1,0,0.2,0,0.3-0.1c0.1-0.1,0.1-0.2,0.1-0.4v-4.3c0-0.2-0.1-0.4-0.2-0.5c-0.1-0.1-0.3-0.2-0.4-0.2
								c-0.4,0-0.6,0.2-0.8,0.5c-0.2,0.4-0.3,0.9-0.2,1.6v2.9c0,0.2,0,0.3,0.1,0.4s0.1,0.1,0.3,0.1h0.2v1.1H159h-1.6v-1.1h0.3
								c0.1,0,0.3,0,0.3-0.1C158-13,158-13.1,158-13.3z"/>
							<path fill="#111424" d="M167-11.5c-0.7,0-1.2-0.3-1.6-1c-0.4-0.7-0.6-1.6-0.6-2.9c0-1.5,0.2-2.6,0.6-3.3
								c0.4-0.8,0.9-1.1,1.7-1.1c0.7,0,1.2,0.2,1.5,0.7v-1.5c0-0.2,0-0.3-0.1-0.4c0-0.1-0.1-0.1-0.2-0.1H168v-1.1h1.1h1.1h0.5v8.8
								c0,0.2,0,0.3,0.1,0.4c0.1,0.1,0.2,0.1,0.3,0.1h0.3v1.1H170h-1.3v-0.7C168.3-11.8,167.8-11.5,167-11.5z M167.8-18.5
								c-0.3,0-0.6,0.2-0.7,0.6c-0.1,0.4-0.2,1.1-0.2,2.2c0,1.1,0.1,1.9,0.2,2.2c0.1,0.4,0.4,0.6,0.7,0.6c0.3,0,0.5-0.2,0.7-0.6
								c0.2-0.4,0.2-0.9,0.2-1.7v-1.1c0-0.8-0.1-1.4-0.2-1.7C168.3-18.3,168.1-18.5,167.8-18.5z"/>
							<path fill="#111424" d="M176.7-13.3v-6.6h-1.2v-1.1c0.7,0,1.2-0.1,1.6-0.3c0.2-0.1,0.5-0.4,0.7-0.9h0.9v8.8
								c0,0.2,0,0.3,0.1,0.4c0.1,0.1,0.2,0.1,0.4,0.1h0.5v1.1h-2.1h-2.1v-1.1h0.7c0.2,0,0.3,0,0.4-0.1
								C176.7-13,176.7-13.1,176.7-13.3z"/>
							<path fill="#111424" d="M186.7-19.5c0,0.5-0.1,1.1-0.4,1.5c-0.3,0.5-0.8,0.9-1.5,1.4c-1.4,1-2.3,1.8-2.7,2.3
								c-0.2,0.3-0.4,0.7-0.5,1.2c0-0.1,0.1-0.1,0.1-0.2c0.3-0.3,0.6-0.5,1-0.5c0.1,0,0.2,0,0.4,0c0.2,0,0.5,0.1,0.7,0.1
								c0.1,0,0.2,0,0.4,0c0.1,0,0.3,0,0.4,0c0.4,0,0.6-0.1,0.9-0.4c0.2-0.3,0.3-0.7,0.3-1.3h0.9c0,1.2-0.2,2.1-0.5,2.7
								c-0.3,0.6-0.8,0.9-1.4,0.9c-0.2,0-0.4,0-0.6-0.1c-0.2-0.1-0.4-0.1-0.6-0.2c-0.3-0.2-0.5-0.3-0.8-0.4
								c-0.3-0.1-0.5-0.2-0.6-0.2c-0.2,0-0.3,0.1-0.5,0.2c-0.1,0.1-0.2,0.3-0.3,0.5h-0.5h-0.5c0-1.1,0.2-2.1,0.6-2.9
								c0.4-0.8,1.2-1.7,2.3-2.8c0.4-0.4,0.7-0.8,0.9-1.2c0.2-0.4,0.3-0.8,0.3-1.2c0-0.4-0.1-0.8-0.4-1.1c-0.3-0.3-0.6-0.4-1-0.4
								c-0.4,0-0.8,0.1-1.1,0.4c-0.2,0.2-0.3,0.4-0.4,0.6c0.1-0.1,0.3-0.2,0.5-0.2c0.2,0,0.4,0.1,0.6,0.3c0.2,0.2,0.2,0.4,0.2,0.6
								c0,0.3-0.1,0.6-0.3,0.8c-0.2,0.2-0.5,0.3-0.9,0.3s-0.6-0.1-0.9-0.4c-0.2-0.3-0.3-0.6-0.3-1.1c0-0.7,0.3-1.2,0.8-1.7
								c0.6-0.5,1.2-0.7,2-0.7c0.9,0,1.6,0.3,2.2,0.8C186.5-21,186.7-20.3,186.7-19.5z"/>
						</g>
					</g>
				</g>
			</g>
			<g>
				<g>
					<g>
						<g>
							<path fill="#111424" d="M266.4-19.4c0-0.5-0.1-1-0.4-1.3c-0.3-0.4-0.7-0.5-1.1-0.5c-0.4,0-0.7,0.1-0.9,0.3
								c-0.1,0.1-0.2,0.3-0.3,0.5c0.1-0.1,0.3-0.1,0.5-0.1c0.3,0,0.5,0.1,0.7,0.2c0.2,0.2,0.2,0.4,0.2,0.6c0,0.3-0.1,0.6-0.3,0.8
								c-0.2,0.2-0.5,0.3-0.8,0.3c-0.3,0-0.6-0.1-0.8-0.4c-0.2-0.3-0.3-0.6-0.3-1c0-0.7,0.3-1.3,0.8-1.7c0.5-0.4,1.2-0.7,2-0.7
								c0.9,0,1.5,0.3,2.1,0.8c0.5,0.5,0.8,1.2,0.8,2c0,0.8-0.2,1.4-0.8,1.8c-0.3,0.3-0.7,0.5-1.2,0.6c0.5,0.1,1,0.3,1.3,0.6
								c0.5,0.4,0.8,1.1,0.8,1.9c0,0.9-0.3,1.6-0.9,2.2c-0.6,0.6-1.3,0.9-2.2,0.9c-0.9,0-1.6-0.2-2.1-0.7c-0.6-0.5-0.9-1-0.9-1.7
								c0-0.4,0.1-0.7,0.4-1c0.2-0.3,0.6-0.4,0.9-0.4c0.3,0,0.5,0.1,0.7,0.3c0.2,0.2,0.3,0.5,0.3,0.8c0,0.2-0.1,0.5-0.2,0.6
								c-0.2,0.2-0.3,0.2-0.6,0.2c-0.2,0-0.3,0-0.4-0.1c0.1,0.2,0.2,0.4,0.4,0.6c0.3,0.2,0.6,0.4,1,0.4c0.5,0,0.9-0.2,1.2-0.5
								c0.3-0.4,0.4-0.9,0.4-1.5c0-0.7-0.2-1.1-0.5-1.5c-0.3-0.3-0.9-0.5-1.5-0.5h-0.1v-0.9h0c0.7,0,1.2-0.2,1.5-0.5
								C266.3-18.2,266.4-18.7,266.4-19.4z"/>
							<path fill="#111424" d="M270.4-13.3v-4.8c0-0.2,0-0.3-0.1-0.4c-0.1-0.1-0.2-0.1-0.3-0.1h-0.3v-1.1h0.9h0.9h0.5v0.7l0-0.1
								c0.3-0.5,0.7-0.8,1.3-0.8c0.5,0,0.8,0.1,1.1,0.4s0.4,0.7,0.4,1.2c0,0.4-0.1,0.7-0.3,0.9c-0.2,0.2-0.5,0.4-0.8,0.4
								c-0.3,0-0.5-0.1-0.7-0.2c-0.2-0.2-0.3-0.4-0.3-0.7c0-0.3,0.1-0.5,0.2-0.7c0.1-0.2,0.3-0.3,0.6-0.3c0.1,0,0.2,0,0.3,0.1
								l-0.1-0.1c-0.1-0.1-0.3-0.2-0.5-0.2c-0.5,0-0.8,0.2-1,0.6c-0.2,0.4-0.3,1.1-0.2,2.2v2.9c0,0.2,0,0.3,0.1,0.4
								c0.1,0.1,0.3,0.1,0.5,0.1h0.4v1.1h-1.8h-1.8v-1.1h0.3c0.2,0,0.3,0,0.3-0.1C270.4-13,270.4-13.1,270.4-13.3z"/>
							<path fill="#111424" d="M277.4-11.5c-0.7,0-1.2-0.3-1.6-1c-0.4-0.7-0.6-1.6-0.6-2.9c0-1.5,0.2-2.6,0.6-3.3
								c0.4-0.8,0.9-1.1,1.7-1.1c0.7,0,1.2,0.2,1.5,0.7v-1.5c0-0.2,0-0.3-0.1-0.4c0-0.1-0.1-0.1-0.2-0.1h-0.4v-1.1h1.1h1.1h0.5v8.8
								c0,0.2,0,0.3,0.1,0.4c0.1,0.1,0.2,0.1,0.3,0.1h0.3v1.1h-1.3H279v-0.7C278.7-11.8,278.1-11.5,277.4-11.5z M278.2-18.5
								c-0.3,0-0.6,0.2-0.7,0.6c-0.1,0.4-0.2,1.1-0.2,2.2c0,1.1,0.1,1.9,0.2,2.2c0.1,0.4,0.4,0.6,0.7,0.6c0.3,0,0.5-0.2,0.7-0.6
								c0.2-0.4,0.2-0.9,0.2-1.7v-1.1c0-0.8-0.1-1.4-0.2-1.7C278.7-18.3,278.5-18.5,278.2-18.5z"/>
							<path fill="#111424" d="M287.1-13.3v-6.6h-1.2v-1.1c0.7,0,1.2-0.1,1.6-0.3c0.2-0.1,0.5-0.4,0.7-0.9h0.9v8.8
								c0,0.2,0,0.3,0.1,0.4c0.1,0.1,0.2,0.1,0.4,0.1h0.5v1.1h-2h-2.1v-1.1h0.7c0.2,0,0.3,0,0.4-0.1C287.1-13,287.1-13.1,287.1-13.3
								z"/>
							<path fill="#111424" d="M297.1-19.5c0,0.5-0.1,1.1-0.4,1.5c-0.3,0.5-0.8,0.9-1.5,1.4c-1.4,1-2.3,1.8-2.7,2.3
								c-0.2,0.3-0.4,0.7-0.5,1.2c0-0.1,0.1-0.1,0.1-0.2c0.3-0.3,0.6-0.5,1-0.5c0.1,0,0.2,0,0.4,0c0.2,0,0.5,0.1,0.7,0.1
								c0.1,0,0.2,0,0.4,0c0.1,0,0.3,0,0.4,0c0.4,0,0.6-0.1,0.9-0.4c0.2-0.3,0.3-0.7,0.3-1.3h0.9c0,1.2-0.2,2.1-0.5,2.7
								c-0.3,0.6-0.8,0.9-1.4,0.9c-0.2,0-0.4,0-0.6-0.1c-0.2-0.1-0.4-0.1-0.6-0.2c-0.3-0.2-0.5-0.3-0.8-0.4
								c-0.3-0.1-0.5-0.2-0.6-0.2c-0.2,0-0.3,0.1-0.5,0.2c-0.1,0.1-0.2,0.3-0.3,0.5h-0.5H291c0-1.1,0.2-2.1,0.6-2.9
								c0.4-0.8,1.2-1.7,2.3-2.8c0.4-0.4,0.7-0.8,0.9-1.2c0.2-0.4,0.3-0.8,0.3-1.2c0-0.4-0.1-0.8-0.4-1.1c-0.3-0.3-0.6-0.4-1-0.4
								c-0.4,0-0.8,0.1-1.1,0.4c-0.2,0.2-0.3,0.4-0.4,0.6c0.1-0.1,0.3-0.2,0.5-0.2c0.2,0,0.4,0.1,0.6,0.3c0.2,0.2,0.2,0.4,0.2,0.6
								c0,0.3-0.1,0.6-0.3,0.8c-0.2,0.2-0.5,0.3-0.9,0.3s-0.6-0.1-0.9-0.4c-0.2-0.3-0.3-0.6-0.3-1.1c0-0.7,0.3-1.2,0.8-1.7
								c0.6-0.5,1.2-0.7,2-0.7c0.9,0,1.6,0.3,2.2,0.8C296.8-21,297.1-20.3,297.1-19.5z"/>
						</g>
					</g>
				</g>
			</g>
			<g>
				<g>
					<g>
						<g>
							<path fill="#111424" d="M346.4-115.4c0.5,0,1.1,0.1,1.5,0.4c0.5,0.3,0.9,0.8,1.4,1.5c1,1.4,1.8,2.3,2.3,2.7
								c0.3,0.2,0.7,0.4,1.2,0.5c-0.1,0-0.1-0.1-0.2-0.1c-0.3-0.3-0.5-0.6-0.5-1c0-0.1,0-0.2,0-0.4c0-0.2,0.1-0.5,0.1-0.7
								c0-0.1,0-0.2,0-0.4c0-0.1,0-0.3,0-0.4c0-0.4-0.1-0.6-0.4-0.9c-0.3-0.2-0.7-0.3-1.3-0.3v-0.9c1.2,0,2.1,0.2,2.7,0.5
								c0.6,0.3,0.9,0.8,0.9,1.4c0,0.2,0,0.4-0.1,0.6c-0.1,0.2-0.1,0.4-0.2,0.6c-0.2,0.3-0.3,0.5-0.4,0.8c-0.1,0.3-0.2,0.5-0.2,0.6
								c0,0.2,0.1,0.3,0.2,0.5c0.1,0.1,0.3,0.2,0.5,0.3v0.5v0.5c-1.1,0-2.1-0.2-2.9-0.6c-0.8-0.4-1.7-1.2-2.8-2.3
								c-0.4-0.4-0.8-0.7-1.1-0.9c-0.4-0.2-0.8-0.3-1.2-0.3c-0.4,0-0.8,0.1-1.1,0.4c-0.3,0.3-0.4,0.6-0.4,1c0,0.4,0.1,0.8,0.3,1.1
								c0.2,0.2,0.4,0.3,0.6,0.4c-0.1-0.1-0.2-0.3-0.2-0.5c0-0.2,0.1-0.4,0.3-0.6c0.2-0.2,0.4-0.2,0.6-0.2c0.3,0,0.6,0.1,0.8,0.3
								c0.2,0.2,0.3,0.5,0.3,0.9c0,0.3-0.1,0.6-0.4,0.9c-0.3,0.2-0.6,0.3-1.1,0.3c-0.7,0-1.2-0.3-1.7-0.8c-0.5-0.6-0.7-1.2-0.7-2
								c0-0.9,0.3-1.6,0.8-2.2C345-115.1,345.6-115.4,346.4-115.4z"/>
							<path fill="#111424" d="M352.1-118.2h-5v0.8H346c-0.1-0.6-0.2-1-0.5-1.2c-0.3-0.2-0.8-0.4-1.4-0.4v-1.1h1.9v-1.4h1.1v1.4h4.9
								c0.4,0,0.6,0,0.7-0.1c0.1-0.1,0.2-0.2,0.2-0.3c0-0.2-0.1-0.3-0.2-0.3c-0.1-0.1-0.4-0.1-0.7-0.1h-0.6v-0.9h0.6
								c0.7,0,1.2,0.1,1.6,0.4c0.3,0.3,0.5,0.7,0.5,1.4c0,0.7-0.2,1.1-0.5,1.4C353.3-118.3,352.8-118.2,352.1-118.2z"/>
							<path fill="#111424" d="M353.1-122.8c-0.7,0.5-1.7,0.7-3.2,0.7c-1.4,0-2.5-0.2-3.1-0.7c-0.7-0.5-1-1.2-1-2.2
								c0-1,0.3-1.7,1-2.2c0.7-0.5,1.7-0.7,3.1-0.7h0c1.5,0,2.5,0.2,3.2,0.7c0.7,0.5,1,1.2,1,2.2C354.1-124,353.7-123.3,353.1-122.8
								z M352.3-125.7c-0.4-0.1-1.2-0.2-2.4-0.2c-1.2,0-2,0.1-2.3,0.2c-0.4,0.1-0.6,0.3-0.6,0.7c0,0.3,0.2,0.6,0.6,0.7
								c0.4,0.1,1.2,0.2,2.3,0.2c1.2,0,2-0.1,2.4-0.2c0.4-0.1,0.6-0.3,0.6-0.7C352.9-125.3,352.7-125.6,352.3-125.7z"/>
							<path fill="#111424" d="M352.7-130.8h-6.6v1.2H345c0-0.7-0.1-1.2-0.3-1.6c-0.1-0.2-0.4-0.5-0.9-0.7v-0.9h8.8
								c0.2,0,0.3,0,0.4-0.1c0.1-0.1,0.1-0.2,0.1-0.4v-0.5h1.1v2.1v2.1h-1.1v-0.7c0-0.2,0-0.3-0.1-0.4
								C353-130.7,352.9-130.8,352.7-130.8z"/>
						</g>
					</g>
				</g>
			</g>
		</g>
		<g>
			<polygon fill="#B9333A" points="139.9,4 119,17.9 139.9,31.9 160.8,17.9 			"/>
			<polygon fill="#282828" points="195.7,4 174.8,17.9 195.7,31.9 216.6,17.9 			"/>
		</g>
		<g>
			<ellipse fill="#ACBB55" cx="-18.7" cy="-60.5" rx="14.9" ry="17.4"/>
			<g>
				<g>
					<path fill="#FFFFFF" d="M-22.3-53.8c-0.7-1.2-1-3.5-1-6.7c0-3.2,0.3-5.4,1-6.6c0.7-1.2,1.8-1.8,3.6-1.8c1.7,0,2.9,0.6,3.6,1.8
						c0.7,1.2,1,3.4,1,6.5v0.1c0,3.2-0.3,5.5-1,6.7c-0.7,1.2-1.9,1.8-3.6,1.8C-20.5-52-21.7-52.6-22.3-53.8z M-17.5-55.1
						c0.2-1,0.3-2.8,0.3-5.4c0-2.6-0.1-4.3-0.3-5.3c-0.2-0.9-0.6-1.4-1.2-1.4c-0.6,0-1,0.5-1.2,1.4c-0.2,0.9-0.3,2.7-0.3,5.3
						c0,2.6,0.1,4.4,0.3,5.4c0.2,1,0.6,1.4,1.2,1.4C-18.1-53.7-17.7-54.2-17.5-55.1z"/>
				</g>
			</g>
		</g>
		<g>
			<ellipse fill="#ACBB55" cx="-18.7" cy="-112.7" rx="14.9" ry="17.4"/>
			<g>
				<g>
					<path fill="#FFFFFF" d="M-27.5-106.1c-0.7-1.2-1-3.5-1-6.7c0-3.2,0.3-5.4,1-6.6c0.7-1.2,1.8-1.8,3.6-1.8c1.7,0,2.9,0.6,3.6,1.8
						c0.7,1.2,1,3.4,1,6.5v0.1c0,3.2-0.3,5.5-1,6.7c-0.7,1.2-1.9,1.8-3.6,1.8C-25.6-104.3-26.8-104.9-27.5-106.1z M-22.7-107.4
						c0.2-1,0.3-2.8,0.3-5.4c0-2.6-0.1-4.3-0.3-5.3c-0.2-0.9-0.6-1.4-1.2-1.4c-0.6,0-1,0.5-1.2,1.4c-0.2,0.9-0.3,2.7-0.3,5.3
						c0,2.6,0.1,4.4,0.3,5.4c0.2,1,0.6,1.4,1.2,1.4C-23.3-106-22.9-106.5-22.7-107.4z"/>
					<path fill="#FFFFFF" d="M-17.1-106.1c-0.7-1.2-1-3.5-1-6.7c0-3.2,0.3-5.4,1-6.6c0.7-1.2,1.8-1.8,3.6-1.8c1.7,0,2.9,0.6,3.6,1.8
						c0.7,1.2,1,3.4,1,6.5v0.1c0,3.2-0.3,5.5-1,6.7c-0.7,1.2-1.9,1.8-3.6,1.8C-15.3-104.3-16.5-104.9-17.1-106.1z M-12.3-107.4
						c0.2-1,0.3-2.8,0.3-5.4c0-2.6-0.1-4.3-0.3-5.3c-0.2-0.9-0.6-1.4-1.2-1.4c-0.6,0-1,0.5-1.2,1.4c-0.2,0.9-0.3,2.7-0.3,5.3
						c0,2.6,0.1,4.4,0.3,5.4c0.2,1,0.6,1.4,1.2,1.4C-13-106-12.6-106.5-12.3-107.4z"/>
				</g>
			</g>
		</g>
	</g>
	<g>
		<path fill="#AFB39E" d="M363.4-139.3c-0.1-0.1-0.2-0.2-0.4-0.2h-27.9h-27.9h-27.9h-27.9h-27.9h-27.9h-27.9h-27.9h-27.9H84.2H56.3
			H28.4H0.5h-27.9c-0.2,0-0.4,0.1-0.5,0.3L-41.8-113c-0.1,0.2-0.1,0.3,0,0.5l13.8,25.9l-13.8,25.9c-0.1,0.2-0.1,0.3,0,0.5l13.9,26.1
			c0.1,0.2,0.3,0.3,0.5,0.3H0V0.5v34.9c0,0.1,0.1,0.3,0.2,0.4c0.1,0.1,0.2,0.2,0.4,0.2h55.8h55.8h55.8h55.8h55.8h55.8
			c0.1,0,0.3-0.1,0.4-0.2c0.1-0.1,0.2-0.2,0.2-0.4V0.5c0,0,0,0,0,0v-34.3H363c0.1,0,0.3-0.1,0.4-0.2c0.1-0.1,0.2-0.2,0.2-0.4v-34.9
			v0V-104v0v-34.9C363.5-139,363.5-139.2,363.4-139.3z M334.6,0h-55.2h-55.2v-33.8h27.4h27.9h27.9h27.4V0z M167.8,0h-55.2v-33.8
			h27.4h27.9h27.9h27.4V0H167.8z M56.3,0H1v-33.8h27.4h27.9h27.9h27.4V0H56.3z M334.6-34.9h-26.8v-33.8h26.8V-34.9z M1-86.6v-16.9
			h26.8v33.8H1V-86.6z M306.7-69.7h-26.8v-33.8h26.8V-69.7z M278.8-69.7H252v-33.8h26.8V-69.7z M250.9-69.7h-26.8v-33.8h26.8V-69.7z
			 M223.1-69.7h-26.8v-33.8h26.8V-69.7z M195.2-69.7h-26.8v-33.8h26.8V-69.7z M167.3-69.7h-26.8v-33.8h26.8V-69.7z M139.4-69.7
			h-26.8v-33.8h26.8V-69.7z M111.5-69.7H84.7v-33.8h26.8V-69.7z M83.6-69.7H56.8v-33.8h26.8V-69.7z M307.7-69.7v-33.8h26.8v33.8
			H307.7z M55.8-69.7H28.9v-33.8h26.8V-69.7z M1-68.7h26.8v33.8H1V-68.7z M28.9-68.7h26.8v33.8H28.9V-68.7z M56.8-68.7h26.8v33.8
			H56.8V-68.7z M84.7-68.7h26.8v33.8H84.7V-68.7z M112.6-68.7h26.8v33.8h-26.8V-68.7z M140.5-68.7h26.8v33.8h-26.8V-68.7z
			 M168.3-68.7h26.8v33.8h-26.8V-68.7z M196.2-68.7h26.8v33.8h-26.8V-68.7z M224.1-68.7h26.8v33.8h-26.8V-68.7z M252-68.7h26.8v33.8
			H252V-68.7z M279.9-68.7h26.8v33.8h-26.8V-68.7z M335.6-69.7v-33.8h26.8v33.8H335.6z M362.5-104.6h-26.8v-33.8h26.8V-104.6z
			 M334.6-104.6h-26.8v-33.8h26.8V-104.6z M306.7-104.6h-26.8v-33.8h26.8V-104.6z M278.8-104.6H252v-33.8h26.8V-104.6z M250.9-104.6
			h-26.8v-33.8h26.8V-104.6z M223.1-104.6h-26.8v-33.8h26.8V-104.6z M195.2-104.6h-26.8v-33.8h26.8V-104.6z M167.3-104.6h-26.8
			v-33.8h26.8V-104.6z M139.4-104.6h-26.8v-33.8h26.8V-104.6z M111.5-104.6H84.7v-33.8h26.8V-104.6z M83.6-104.6H56.8v-33.8h26.8
			V-104.6z M55.8-104.6H28.9v-33.8h26.8V-104.6z M27.9-104.6H1v-33.8h26.8V-104.6z M-27-138.4H0v34.3v0v16.9h-27l-13.7-25.6
			L-27-138.4z M-40.7-60.5L-27-86.1H0v16.9v0v34.3h-27L-40.7-60.5z M1,1h54.7v33.8H1V1z M56.8,1h54.7v33.8H56.8V1z M112.6,1h54.7
			v33.8h-54.7V1z M168.3,1h54.7v33.8h-54.7V1z M224.1,1h54.7v33.8h-54.7V1z M279.9,1h54.7v33.8h-54.7V1z M335.6-68.7h26.8v33.8
			h-26.8V-68.7z"/>
		<path fill="#AFB39E" d="M340.5-106.6l0.2,0.1h16.7l0.2-0.1l2.8-2.8l0.1-0.2v-23.7l-0.1-0.2l-2.8-2.8l-0.2-0.1h-16.7l-0.2,0.1
			l-2.8,2.8l-0.1,0.2v23.7l0.1,0.2L340.5-106.6z M338.2-133.2l2.6-2.6h16.5l2.6,2.6v23.5l-2.6,2.6h-16.5l-2.6-2.6V-133.2z"/>
		<path fill="#AFB39E" d="M360.4-98.6l-2.8-2.8l-0.2-0.1h-16.7l-0.2,0.1l-2.8,2.8l-0.1,0.2v23.7l0.1,0.2l2.8,2.8l0.2,0.1h16.7
			l0.2-0.1l2.8-2.8l0.1-0.2v-23.7L360.4-98.6z M359.9-74.9l-2.6,2.6h-16.5l-2.6-2.6v-23.5l2.6-2.6h16.5l2.6,2.6V-74.9z"/>
		<path fill="#AFB39E" d="M360.4-63.8l-2.8-2.8l-0.2-0.1h-16.7l-0.2,0.1l-2.8,2.8l-0.1,0.2v23.7l0.1,0.2l2.8,2.8l0.2,0.1h16.7
			l0.2-0.1l2.8-2.8l0.1-0.2v-23.7L360.4-63.8z M359.9-40l-2.6,2.6h-16.5l-2.6-2.6v-23.5l2.6-2.6h16.5l2.6,2.6V-40z"/>
		<path fill="#AFB39E" d="M109.4-28.9l-2.8-2.8l-0.2-0.1H6.1l-0.2,0.1l-2.8,2.8l-0.1,0.2v23.7l0.1,0.2l2.8,2.8L6.1-2h100.4l0.2-0.1
			l2.8-2.8l0.1-0.2v-23.7L109.4-28.9z M109-5.2l-2.6,2.6H6.2L3.6-5.2v-23.5l2.6-2.6h100.2l2.6,2.6V-5.2z"/>
		<path fill="#AFB39E" d="M221-28.9l-2.8-2.8l-0.2-0.1H117.6l-0.2,0.1l-2.8,2.8l-0.1,0.2v23.7l0.1,0.2l2.8,2.8l0.2,0.1H218l0.2-0.1
			l2.8-2.8l0.1-0.2v-23.7L221-28.9z M220.5-5.2l-2.6,2.6H117.7l-2.6-2.6v-23.5l2.6-2.6h100.2l2.6,2.6V-5.2z"/>
		<path fill="#AFB39E" d="M229-31.7l-2.8,2.8l-0.1,0.2v23.7l0.1,0.2l2.8,2.8l0.2,0.1h100.4l0.2-0.1l2.8-2.8l0.1-0.2v-23.7l-0.1-0.2
			l-2.8-2.8l-0.2-0.1H229.2L229-31.7z M329.4-31.3l2.6,2.6v23.5l-2.6,2.6H229.3l-2.6-2.6v-23.5l2.6-2.6H329.4z"/>
		<path fill="#AFB39E" d="M53.7,5.9l-2.8-2.8l-0.2-0.1H6.1L5.9,3.1L3.1,5.9L3.1,6.1v23.7L3.1,30l2.8,2.8l0.2,0.1h44.6l0.2-0.1
			l2.8-2.8l0.1-0.2V6.1L53.7,5.9z M53.2,29.7l-2.6,2.6H6.2l-2.6-2.6V6.2l2.6-2.6h44.4l2.6,2.6V29.7z"/>
		<path fill="#AFB39E" d="M109.4,5.9l-2.8-2.8l-0.2-0.1H61.9l-0.2,0.1l-2.8,2.8l-0.1,0.2v23.7l0.1,0.2l2.8,2.8l0.2,0.1h44.6l0.2-0.1
			l2.8-2.8l0.1-0.2V6.1L109.4,5.9z M109,29.7l-2.6,2.6H62l-2.6-2.6V6.2L62,3.6h44.4l2.6,2.6V29.7z"/>
		<path fill="#AFB39E" d="M276.7,5.9l-2.8-2.8l-0.2-0.1h-44.6L229,3.1l-2.8,2.8l-0.1,0.2v23.7l0.1,0.2l2.8,2.8l0.2,0.1h44.6l0.2-0.1
			l2.8-2.8l0.1-0.2V6.1L276.7,5.9z M276.3,29.7l-2.6,2.6h-44.4l-2.6-2.6V6.2l2.6-2.6h44.4l2.6,2.6V29.7z"/>
		<path fill="#AFB39E" d="M332.5,5.9l-2.8-2.8l-0.2-0.1h-44.6l-0.2,0.1l-2.8,2.8l-0.1,0.2v23.7l0.1,0.2l2.8,2.8l0.2,0.1h44.6
			l0.2-0.1l2.8-2.8l0.1-0.2V6.1L332.5,5.9z M332.1,29.7l-2.6,2.6H285l-2.6-2.6V6.2l2.6-2.6h44.4l2.6,2.6V29.7z"/>
	</g>
	<text transform="matrix(1 0 0 1 264.1787 256.5918)" font-family="'MyriadPro-Regular'" font-size="12">94a803</text>
</g>
</svg>
