<?xml version="1.0" encoding="utf-8"?>
<!-- Generator: Adobe Illustrator 18.1.0, SVG Export Plug-In . SVG Version: 6.00 Build 0)  -->
<svg version="1.1" id="Layer_1" xmlns="http://www.w3.org/2000/svg" xmlns:xlink="http://www.w3.org/1999/xlink" x="0px" y="0px"
	 viewBox="0 0 612 612.4" enable-background="new 0 0 612 612.4" xml:space="preserve">
<g>
	<path fill="#EFA428" d="M307.4,0C138.2,0,1.2,137.1,1.2,306.2c0,169.1,137.1,306.2,306.2,306.2c169.1,0,306.2-137.1,306.2-306.2
		C613.6,137.1,476.5,0,307.4,0z M307.4,540.2c-129.2,0-234-104.8-234-234c0-129.2,104.7-234,234-234s234,104.8,234,234
		C541.3,435.4,436.6,540.2,307.4,540.2z"/>
	<path fill="#FEE077" d="M307.4,32C156.2,32,33.2,155,33.2,306.2s123,274.2,274.2,274.2c151.2,0,274.2-123,274.2-274.2
		S458.5,32,307.4,32z M555.1,303.1h-33.1c-0.1-5.5-0.3-10.9-0.8-16.3l32.9-3.5C554.7,289.9,555.1,296.5,555.1,303.1z M553.5,277.2
		l-32.9,3.5c-0.6-5.4-1.5-10.8-2.5-16.1l32.4-6.9C551.7,264.1,552.7,270.6,553.5,277.2z M549.1,251.7l-32.4,6.9
		c-1.2-5.3-2.6-10.6-4.2-15.8l31.5-10.2C546,238.8,547.7,245.2,549.1,251.7z M364.6,472.3c3.9-1.3,7.7-2.8,11.5-4.4l13.4,30.1
		c-4.8,2.1-9.7,3.9-14.7,5.6L364.6,472.3z M368.9,505.6c-5,1.5-10.1,2.8-15.2,4l-6.8-32.2c4-0.9,8-1.9,11.8-3.1L368.9,505.6z
		 M381.6,465.4c3.7-1.7,7.3-3.6,10.9-5.6l16.4,28.5c-4.6,2.6-9.2,4.9-14,7.1L381.6,465.4z M397.8,456.8c3.5-2.1,6.9-4.4,10.3-6.7
		l19.3,26.6c-4.3,3-8.6,5.9-13.1,8.6L397.8,456.8z M413.1,446.5c3.3-2.5,6.4-5.1,9.5-7.7l22,24.4c-3.9,3.4-8,6.8-12.2,9.9
		L413.1,446.5z M427.2,434.6c3-2.8,5.9-5.7,8.7-8.7l24.4,22c-3.6,3.8-7.3,7.5-11.1,11.1L427.2,434.6z M439.9,421.4
		c2.7-3.1,5.3-6.2,7.7-9.5l26.6,19.3c-3.2,4.2-6.5,8.2-9.9,12.2L439.9,421.4z M451.2,406.9c2.3-3.3,4.6-6.8,6.7-10.3l28.5,16.4
		c-2.7,4.5-5.6,8.9-8.6,13.1L451.2,406.9z M461,391.4c2-3.6,3.8-7.2,5.6-10.9l30.1,13.4c-2.2,4.8-4.6,9.4-7.1,14L461,391.4z
		 M469.1,374.8c1.6-3.8,3-7.6,4.4-11.5l31.3,10.2c-1.7,5-3.5,9.9-5.6,14.7L469.1,374.8z M374.7,108.8c5,1.7,9.9,3.5,14.7,5.6
		L376,144.4c-3.8-1.6-7.6-3-11.5-4.4L374.7,108.8z M358.7,138.2c-3.9-1.2-7.8-2.2-11.8-3.1l6.8-32.2c5.1,1.2,10.2,2.5,15.2,4
		L358.7,138.2z M395,116.9c4.8,2.2,9.4,4.6,14,7.1l-16.4,28.5c-3.6-2-7.2-3.8-10.9-5.6L395,116.9z M414.3,127.1
		c4.5,2.7,8.9,5.6,13.1,8.6l-19.3,26.6c-3.3-2.3-6.8-4.6-10.3-6.7L414.3,127.1z M432.4,139.3c4.2,3.1,8.2,6.5,12.2,9.9l-22,24.4
		c-3.1-2.7-6.2-5.3-9.5-7.7L432.4,139.3z M449.2,153.3c3.8,3.6,7.5,7.3,11.1,11.1l-24.4,22c-2.8-3-5.7-5.9-8.7-8.7L449.2,153.3z
		 M464.3,169c3.4,3.9,6.8,8,9.9,12.2l-26.6,19.3c-2.5-3.3-5.1-6.4-7.7-9.5L464.3,169z M477.8,186.1c3,4.3,5.9,8.6,8.6,13.1
		L458,215.7c-2.1-3.5-4.4-6.9-6.7-10.2L477.8,186.1z M489.5,204.6c2.6,4.6,4.9,9.2,7.1,14l-30.1,13.4c-1.7-3.7-3.6-7.3-5.6-10.9
		L489.5,204.6z M499.2,224.2c2.1,4.8,3.9,9.7,5.6,14.7L473.5,249c-1.3-3.9-2.8-7.7-4.4-11.5L499.2,224.2z M478.5,266.7
		c-0.9-4-1.9-8-3.1-11.9l31.3-10.2c1.5,5,2.8,10.1,4,15.2L478.5,266.7z M512.1,265.8c1,5.1,1.8,10.3,2.4,15.5l-32.8,3.5
		c-0.5-4.1-1.1-8.1-1.9-12.1L512.1,265.8z M475.4,357.6c1.2-3.9,2.2-7.8,3.1-11.8l32.2,6.8c-1.2,5.1-2.5,10.2-4,15.2L475.4,357.6z
		 M479.8,339.7c0.8-4,1.4-8,1.9-12.1l32.8,3.5c-0.6,5.2-1.4,10.4-2.4,15.5L479.8,339.7z M482.3,321.5c0.4-4,0.6-8.1,0.6-12.2h33
		c-0.1,5.3-0.3,10.5-0.8,15.7L482.3,321.5z M483,303.1c-0.1-4.1-0.3-8.2-0.6-12.2l32.8-3.5c0.5,5.2,0.7,10.4,0.8,15.7H483z
		 M542.1,226.7l-31.5,10.2c-1.8-5.2-3.7-10.3-5.8-15.3l30.3-13.5C537.6,214.2,540,220.4,542.1,226.7z M532.5,202.6l-30.3,13.5
		c-2.3-4.9-4.8-9.8-7.4-14.5l28.7-16.6C526.7,190.7,529.7,196.6,532.5,202.6z M520.5,179.6l-28.7,16.6c-2.8-4.7-5.8-9.2-8.9-13.7
		l26.8-19.5C513.4,168.4,517.1,173.9,520.5,179.6z M506.1,158l-26.8,19.5c-3.3-4.4-6.7-8.6-10.3-12.7l24.6-22.2
		C497.9,147.6,502.1,152.7,506.1,158z M489.5,138.1l-24.6,22.2c-3.7-4-7.6-7.8-11.6-11.5l22.2-24.6
		C480.3,128.6,485,133.3,489.5,138.1z M470.9,120l-22.2,24.6c-4.1-3.6-8.3-7.1-12.7-10.3l19.5-26.8
		C460.8,111.4,465.9,115.7,470.9,120z M450.5,103.9L431,130.7c-4.4-3.1-9-6.1-13.7-8.9l16.6-28.7
		C439.6,96.5,445.1,100.1,450.5,103.9z M428.6,90L412,118.7c-4.7-2.7-9.6-5.1-14.5-7.4L411,81.1C417,83.8,422.9,86.8,428.6,90z
		 M405.4,78.5l-13.5,30.2c-5-2.1-10.1-4.1-15.3-5.8l10.2-31.5C393.1,73.6,399.3,75.9,405.4,78.5z M381,69.5L370.8,101
		c-5.2-1.6-10.5-3-15.8-4.2l6.9-32.4C368.4,65.9,374.8,67.5,381,69.5z M336.3,60.1c6.6,0.8,13.1,1.8,19.6,3L349,95.5
		c-5.3-1-10.7-1.9-16.1-2.5L336.3,60.1z M347.7,101.5l-6.9,32.3c-4-0.8-8-1.4-12.1-1.9l3.5-32.8C337.4,99.7,342.6,100.5,347.7,101.5
		z M310.4,58.4c6.7,0.1,13.3,0.4,19.8,1l-3.5,32.9c-5.4-0.5-10.8-0.8-16.3-0.8V58.4z M310.4,97.6c5.3,0.1,10.5,0.3,15.7,0.8
		l-3.4,32.8c-4-0.3-8.1-0.6-12.2-0.6V97.6z M304.3,58.4v33.1c-5.5,0.1-10.9,0.4-16.3,0.8l-3.5-32.9C291,58.8,297.6,58.5,304.3,58.4z
		 M304.3,97.6v33c-4.1,0.1-8.2,0.3-12.2,0.6l-3.5-32.8C293.8,98,299,97.7,304.3,97.6z M286,131.9c-4.1,0.5-8.1,1.1-12.1,1.9
		l-6.8-32.3c5.1-1,10.3-1.8,15.5-2.4L286,131.9z M240,503.6c-5-1.7-9.9-3.5-14.7-5.6l13.4-30.1c3.8,1.6,7.6,3,11.5,4.4L240,503.6z
		 M256,474.2c3.9,1.2,7.8,2.2,11.8,3.1l-6.8,32.2c-5.1-1.2-10.2-2.5-15.2-4L256,474.2z M219.7,495.5c-4.8-2.2-9.4-4.6-14-7.1
		l16.4-28.5c3.6,2,7.2,3.8,10.9,5.6L219.7,495.5z M200.4,485.3c-4.5-2.7-8.9-5.6-13.1-8.6l19.3-26.6c3.4,2.3,6.8,4.6,10.3,6.7
		L200.4,485.3z M182.3,473.1c-4.2-3.2-8.2-6.5-12.2-9.9l22-24.4c3.1,2.7,6.2,5.3,9.5,7.7L182.3,473.1z M165.6,459.1
		c-3.8-3.6-7.5-7.3-11.1-11.1l24.4-22c2.8,3,5.7,5.9,8.7,8.7L165.6,459.1z M150.4,443.4c-3.5-3.9-6.8-8-9.9-12.2l26.6-19.3
		c2.5,3.3,5.1,6.4,7.7,9.5L150.4,443.4z M136.9,426.3c-3-4.3-5.9-8.6-8.6-13.1l28.5-16.4c2.1,3.5,4.4,6.9,6.7,10.3L136.9,426.3z
		 M125.2,407.8c-2.6-4.6-4.9-9.2-7.1-14l30.1-13.4c1.7,3.7,3.6,7.4,5.6,10.9L125.2,407.8z M115.5,388.2c-2.1-4.8-3.9-9.7-5.6-14.7
		l31.3-10.2c1.3,3.9,2.8,7.7,4.3,11.5L115.5,388.2z M134.9,272.7c-0.8,4-1.4,8-1.9,12.1l-32.8-3.4c0.6-5.2,1.4-10.4,2.4-15.5
		L134.9,272.7z M104,259.8c1.2-5.1,2.5-10.2,4-15.2l31.3,10.2c-1.2,3.9-2.2,7.8-3.1,11.9L104,259.8z M132.4,290.9
		c-0.3,4-0.6,8.1-0.6,12.2h-33c0.1-5.3,0.3-10.5,0.8-15.7L132.4,290.9z M131.8,309.3c0.1,4.1,0.3,8.2,0.6,12.2l-32.8,3.5
		c-0.5-5.2-0.7-10.4-0.8-15.7H131.8z M133,327.6c0.5,4.1,1.1,8.1,1.9,12.1l-32.2,6.9c-1-5.1-1.8-10.3-2.4-15.5L133,327.6z
		 M136.2,345.7c0.9,4,1.9,8,3.1,11.8L108,367.7c-1.5-5-2.8-10.1-4-15.2L136.2,345.7z M109.9,238.8c1.7-5,3.5-9.9,5.6-14.7l30.1,13.4
		c-1.6,3.7-3,7.6-4.3,11.5L109.9,238.8z M118.1,218.6c2.2-4.8,4.6-9.4,7.1-14l28.5,16.5c-2,3.6-3.8,7.2-5.6,10.9L118.1,218.6z
		 M128.3,199.3c2.7-4.5,5.6-8.9,8.6-13.1l26.6,19.3c-2.3,3.3-4.6,6.8-6.7,10.3L128.3,199.3z M140.5,181.1c3.1-4.2,6.5-8.2,9.9-12.2
		l24.4,22c-2.7,3.1-5.3,6.2-7.7,9.5L140.5,181.1z M154.5,164.4c3.6-3.8,7.3-7.5,11.1-11.1l22,24.4c-3,2.8-5.9,5.7-8.7,8.7
		L154.5,164.4z M170.1,149.2c3.9-3.4,8-6.8,12.2-9.9l19.3,26.6c-3.3,2.5-6.4,5.1-9.5,7.7L170.1,149.2z M187.3,135.7
		c4.3-3,8.6-5.9,13.1-8.6l16.4,28.5c-3.5,2.1-6.9,4.4-10.3,6.7L187.3,135.7z M205.7,124.1c4.6-2.6,9.2-4.9,14-7.1l13.4,30.1
		c-3.7,1.7-7.3,3.6-10.9,5.6L205.7,124.1z M225.3,114.4c4.8-2.1,9.7-3.9,14.7-5.6l10.2,31.3c-3.9,1.3-7.7,2.8-11.5,4.4L225.3,114.4z
		 M245.8,106.8c5-1.5,10.1-2.8,15.2-4l6.8,32.2c-4,0.9-8,1.9-11.8,3.1L245.8,106.8z M278.4,60.1l3.5,32.9
		c-5.4,0.6-10.8,1.5-16.1,2.5l-6.9-32.4C265.3,61.9,271.8,60.9,278.4,60.1z M252.8,64.4l6.9,32.4c-5.3,1.2-10.6,2.6-15.8,4.2
		l-10.2-31.5C240,67.5,246.4,65.9,252.8,64.4z M227.9,71.5l10.2,31.5c-5.2,1.8-10.3,3.7-15.3,5.8l-13.5-30.2
		C215.4,75.9,221.6,73.6,227.9,71.5z M203.8,81.1l13.5,30.2c-5,2.3-9.8,4.8-14.5,7.4L186.1,90C191.9,86.8,197.7,83.8,203.8,81.1z
		 M180.8,93.1l16.6,28.7c-4.7,2.8-9.2,5.8-13.7,8.9l-19.5-26.8C169.6,100.1,175.1,96.5,180.8,93.1z M159.2,107.5l19.5,26.8
		c-4.4,3.3-8.6,6.7-12.7,10.3L143.8,120C148.8,115.7,153.9,111.4,159.2,107.5z M139.3,124.1l22.2,24.6c-4,3.7-7.8,7.6-11.6,11.5
		l-24.6-22.2C129.8,133.3,134.4,128.6,139.3,124.1z M121.2,142.7l24.6,22.2c-3.6,4.1-7.1,8.3-10.3,12.6L108.7,158
		C112.6,152.7,116.8,147.6,121.2,142.7z M105.1,163l26.8,19.5c-3.1,4.5-6.1,9-9,13.7l-28.7-16.6C97.7,173.9,101.3,168.4,105.1,163z
		 M91.2,184.9l28.7,16.6c-2.7,4.7-5.1,9.6-7.4,14.5l-30.3-13.5C85,196.6,88,190.7,91.2,184.9z M79.7,208.2l30.3,13.5
		c-2.1,5-4.1,10.1-5.8,15.3l-31.5-10.2C74.7,220.4,77.1,214.2,79.7,208.2z M70.6,232.5l31.5,10.2c-1.6,5.2-3,10.5-4.2,15.8
		l-32.4-6.9C67.1,245.2,68.7,238.8,70.6,232.5z M64.3,257.7l32.4,6.9c-1,5.3-1.9,10.7-2.5,16.1l-32.9-3.5
		C62,270.6,63,264.1,64.3,257.7z M60.6,283.4l32.9,3.5c-0.5,5.4-0.8,10.8-0.8,16.3H59.6C59.7,296.5,60,289.9,60.6,283.4z
		 M59.6,309.3h33.1c0.1,5.5,0.3,10.9,0.8,16.3L60.6,329C60,322.5,59.7,315.9,59.6,309.3z M61.2,335.1l32.9-3.5
		c0.6,5.4,1.5,10.8,2.5,16.1l-32.4,6.9C63,348.3,62,341.8,61.2,335.1z M65.6,360.7l32.4-6.9c1.2,5.3,2.6,10.6,4.2,15.8l-31.5,10.2
		C68.7,373.6,67.1,367.2,65.6,360.7z M72.6,385.7l31.5-10.2c1.8,5.2,3.7,10.3,5.8,15.3l-30.3,13.5C77.1,398.2,74.7,392,72.6,385.7z
		 M82.2,409.8l30.3-13.5c2.3,5,4.8,9.8,7.4,14.5l-28.7,16.6C88,421.7,85,415.8,82.2,409.8z M94.3,432.8l28.7-16.6
		c2.8,4.7,5.8,9.2,9,13.7l-26.8,19.5C101.3,444,97.7,438.5,94.3,432.8z M108.7,454.4l26.8-19.5c3.3,4.4,6.7,8.6,10.3,12.7
		l-24.6,22.2C116.8,464.7,112.6,459.7,108.7,454.4z M125.3,474.3l24.6-22.2c3.7,4,7.6,7.8,11.6,11.6l-22.2,24.6
		C134.4,483.8,129.8,479.1,125.3,474.3z M143.8,492.4l22.2-24.6c4.1,3.6,8.3,7.1,12.7,10.3l-19.5,26.8
		C153.9,500.9,148.8,496.7,143.8,492.4z M164.2,508.5l19.5-26.8c4.4,3.1,9,6.1,13.7,8.9l-16.6,28.7
		C175.1,515.9,169.6,512.3,164.2,508.5z M186.1,522.3l16.6-28.7c4.7,2.7,9.6,5.1,14.5,7.4l-13.5,30.2
		C197.7,528.6,191.9,525.6,186.1,522.3z M209.4,533.9l13.5-30.2c5,2.1,10.1,4.1,15.3,5.8l-10.2,31.5
		C221.6,538.8,215.4,536.5,209.4,533.9z M233.7,542.9l10.2-31.5c5.2,1.6,10.5,3,15.8,4.2l-6.9,32.4
		C246.4,546.5,240,544.9,233.7,542.9z M278.4,552.3c-6.6-0.8-13.1-1.8-19.6-3l6.9-32.4c5.3,1,10.7,1.9,16.1,2.5L278.4,552.3z
		 M267,510.9l6.8-32.2c4,0.8,8,1.4,12.1,1.9l-3.4,32.8C277.3,512.7,272.1,511.9,267,510.9z M304.3,554c-6.7-0.1-13.3-0.4-19.8-1
		l3.5-32.9c5.4,0.5,10.8,0.8,16.3,0.8V554z M304.3,514.8c-5.3-0.1-10.5-0.3-15.7-0.8l3.5-32.8c4,0.3,8.1,0.6,12.2,0.6V514.8z
		 M307.4,470.3c-90.5,0-164.1-73.6-164.1-164.1c0-90.5,73.6-164.1,164.1-164.1c90.5,0,164.1,73.6,164.1,164.1
		C471.5,396.7,397.9,470.3,307.4,470.3z M326.1,514c-5.2,0.5-10.4,0.7-15.7,0.8v-33c4.1-0.1,8.2-0.3,12.2-0.6L326.1,514z M310.4,554
		v-33.1c5.5-0.1,10.9-0.3,16.3-0.8l3.5,32.9C323.7,553.6,317.1,553.9,310.4,554z M328.8,480.5c4.1-0.5,8.1-1.1,12.1-1.9l6.9,32.2
		c-5.1,1-10.3,1.8-15.5,2.4L328.8,480.5z M336.3,552.3l-3.5-32.9c5.4-0.6,10.8-1.5,16.1-2.5l6.9,32.4
		C349.4,550.5,342.9,551.5,336.3,552.3z M361.9,548l-6.9-32.4c5.3-1.2,10.6-2.6,15.8-4.2l10.2,31.5
		C374.8,544.9,368.4,546.5,361.9,548z M386.9,540.9l-10.2-31.5c5.2-1.8,10.3-3.7,15.3-5.8l13.5,30.2
		C399.3,536.5,393.1,538.8,386.9,540.9z M411,531.3l-13.5-30.3c5-2.3,9.8-4.8,14.5-7.4l16.6,28.7C422.9,525.6,417,528.6,411,531.3z
		 M433.9,519.3l-16.6-28.7c4.7-2.8,9.2-5.8,13.7-8.9l19.5,26.8C445.1,512.3,439.6,515.9,433.9,519.3z M455.5,504.9L436,478.1
		c4.4-3.3,8.6-6.7,12.7-10.3l22.2,24.6C465.9,496.7,460.8,500.9,455.5,504.9z M475.4,488.3l-22.2-24.6c4-3.7,7.9-7.6,11.6-11.5
		l24.6,22.2C485,479.1,480.3,483.8,475.4,488.3z M493.5,469.7l-24.6-22.2c3.6-4.1,7.1-8.3,10.3-12.7l26.8,19.5
		C502.1,459.7,497.9,464.7,493.5,469.7z M509.6,449.4l-26.8-19.5c3.1-4.4,6.1-9,8.9-13.7l28.7,16.6
		C517.1,438.5,513.4,444,509.6,449.4z M523.5,427.4l-28.7-16.6c2.7-4.7,5.1-9.6,7.4-14.6l30.3,13.5
		C529.7,415.8,526.7,421.7,523.5,427.4z M535,404.2l-30.3-13.5c2.1-5,4.1-10.1,5.8-15.3l31.5,10.2C540,392,537.6,398.2,535,404.2z
		 M544.1,379.9l-31.5-10.2c1.6-5.2,3-10.5,4.2-15.8l32.4,6.9C547.7,367.2,546,373.6,544.1,379.9z M550.4,354.7l-32.4-6.9
		c1-5.3,1.9-10.7,2.5-16.1l32.9,3.5C552.7,341.8,551.7,348.3,550.4,354.7z M554.1,329l-32.9-3.5c0.5-5.4,0.8-10.8,0.8-16.3h33.1
		C555.1,315.9,554.7,322.5,554.1,329z M307.4,0C138.2,0,1.2,137.1,1.2,306.2c0,169.1,137.1,306.2,306.2,306.2
		c169.1,0,306.2-137.1,306.2-306.2C613.6,137.1,476.5,0,307.4,0z M307.4,586.5c-154.6,0-280.3-125.7-280.3-280.3
		c0-154.6,125.7-280.3,280.3-280.3c154.6,0,280.3,125.7,280.3,280.3C587.7,460.8,461.9,586.5,307.4,586.5z M311.8,318.9
		c0.6,3.7,1.1,8,1.5,12.9c9.8-2.3,17.4-9.9,19.7-19.7c-4.9-0.4-9.3-0.9-12.9-1.5C318.7,314.5,315.7,317.6,311.8,318.9z M294.6,310.7
		c-3.7,0.6-8,1.1-12.9,1.5c2.3,9.8,9.9,17.4,19.7,19.7c0.4-4.9,0.9-9.3,1.5-12.9C299,317.6,296,314.5,294.6,310.7z M281.7,300.2
		c4.9,0.4,9.3,0.9,12.9,1.5c1.4-3.9,4.4-6.9,8.3-8.3c-0.6-3.7-1.1-8-1.5-12.9C291.6,282.8,284,290.5,281.7,300.2z M313.3,280.5
		c-0.4,4.9-0.9,9.3-1.5,12.9c3.9,1.4,6.9,4.4,8.3,8.3c3.7-0.6,8-1.1,12.9-1.5C330.7,290.5,323.1,282.8,313.3,280.5z M307.4,147.2
		c-87.6,0-158.9,71.3-158.9,158.9c0,87.6,71.3,159,158.9,159c87.6,0,159-71.3,159-159C466.3,218.6,395,147.2,307.4,147.2z
		 M430,319.8c-5.9,0-10.9-3.8-12.7-9.1c-11.2,1.8-28.8,2.9-48.6,2.9c-10.7,0-20.7-0.3-29.4-0.9c-2.6,12.8-12.7,22.9-25.4,25.4
		c0.6,8.7,0.9,18.7,0.9,29.4c0,19.8-1.1,37.4-2.9,48.6c5.3,1.9,9.1,6.8,9.1,12.7c0,7.5-6.1,13.6-13.6,13.6
		c-7.5,0-13.6-6.1-13.6-13.6c0-5.9,3.8-10.9,9.1-12.7c-1.7-11.2-2.9-28.8-2.9-48.6c0-10.7,0.3-20.7,0.9-29.4
		c-12.8-2.6-22.9-12.7-25.5-25.4c-8.7,0.6-18.7,0.9-29.4,0.9c-19.8,0-37.4-1.1-48.6-2.9c-1.9,5.3-6.8,9.1-12.7,9.1
		c-7.5,0-13.6-6.1-13.6-13.6c0-7.5,6.1-13.6,13.6-13.6c5.9,0,10.9,3.8,12.7,9.1c11.2-1.8,28.8-2.9,48.6-2.9
		c10.7,0,20.7,0.3,29.4,0.9c2.6-12.8,12.7-22.9,25.5-25.4c-0.6-8.7-0.9-18.7-0.9-29.4c0-19.8,1.1-37.4,2.9-48.6
		c-5.3-1.9-9.1-6.8-9.1-12.7c0-7.5,6.1-13.6,13.6-13.6c7.5,0,13.6,6.1,13.6,13.6c0,5.9-3.8,10.9-9.1,12.7
		c1.7,11.2,2.9,28.8,2.9,48.6c0,10.7-0.3,20.7-0.9,29.4c12.8,2.6,22.9,12.7,25.4,25.4c8.7-0.6,18.7-0.9,29.4-0.9
		c19.8,0,37.3,1.1,48.6,2.9c1.9-5.3,6.8-9.1,12.7-9.1c7.5,0,13.6,6.1,13.6,13.6C443.5,313.7,437.4,319.8,430,319.8z"/>
	<path fill="#4F594F" d="M59.6,303.1h33.1c0.1-5.5,0.3-10.9,0.8-16.3l-32.9-3.5C60,289.9,59.7,296.5,59.6,303.1z"/>
	<path fill="#4F594F" d="M65.6,251.7l32.4,6.9c1.2-5.3,2.6-10.6,4.2-15.8l-31.5-10.2C68.7,238.8,67.1,245.2,65.6,251.7z"/>
	<path fill="#CD4C27" d="M61.2,277.2l32.9,3.5c0.6-5.4,1.5-10.8,2.5-16.1l-32.4-6.9C63,264.1,62,270.6,61.2,277.2z"/>
	<path fill="#CD4C27" d="M60.6,329l32.9-3.5c-0.5-5.4-0.8-10.8-0.8-16.3H59.6C59.7,315.9,60,322.5,60.6,329z"/>
	<path fill="#CD4C27" d="M102.1,369.6c-1.6-5.2-3-10.5-4.2-15.8l-32.4,6.9c1.5,6.5,3.1,12.9,5,19.2L102.1,369.6z"/>
	<path fill="#4F594F" d="M96.7,347.8c-1-5.3-1.9-10.7-2.5-16.1l-32.9,3.5c0.8,6.6,1.8,13.1,3,19.6L96.7,347.8z"/>
	<path fill="#CD4C27" d="M164.2,103.9l19.5,26.8c4.4-3.1,9-6.1,13.7-8.9l-16.6-28.7C175.1,96.5,169.6,100.1,164.2,103.9z"/>
	<path fill="#CD4C27" d="M125.3,138.1l24.6,22.2c3.7-4,7.6-7.8,11.6-11.5l-22.2-24.6C134.4,128.6,129.8,133.3,125.3,138.1z"/>
	<path fill="#4F594F" d="M108.7,158l26.8,19.5c3.3-4.4,6.7-8.6,10.3-12.6l-24.6-22.2C116.8,147.6,112.6,152.7,108.7,158z"/>
	<path fill="#4F594F" d="M109.9,390.7c-2.1-5-4.1-10.1-5.8-15.3l-31.5,10.2c2.1,6.3,4.5,12.5,7.1,18.5L109.9,390.7z"/>
	<path fill="#CD4C27" d="M72.6,226.7l31.5,10.2c1.8-5.2,3.7-10.3,5.8-15.3l-30.3-13.5C77.1,214.2,74.7,220.4,72.6,226.7z"/>
	<path fill="#4F594F" d="M82.2,202.6l30.3,13.5c2.3-5,4.8-9.8,7.4-14.5l-28.7-16.6C88,190.7,85,196.6,82.2,202.6z"/>
	<path fill="#CD4C27" d="M94.3,179.6l28.7,16.6c2.8-4.7,5.8-9.2,9-13.7L105.1,163C101.3,168.4,97.7,173.9,94.3,179.6z"/>
	<path fill="#EFA428" d="M286,480.5c-4.1-0.5-8.1-1.1-12.1-1.9l-6.8,32.2c5.1,1,10.3,1.8,15.5,2.4L286,480.5z"/>
	<path fill="#4F594F" d="M281.9,519.4c-5.4-0.6-10.8-1.5-16.1-2.5l-6.9,32.4c6.4,1.3,13,2.3,19.6,3L281.9,519.4z"/>
	<path fill="#4F594F" d="M238.1,509.5c-5.2-1.8-10.3-3.7-15.3-5.8l-13.5,30.2c6,2.6,12.2,4.9,18.5,7.1L238.1,509.5z"/>
	<path fill="#CD4C27" d="M259.7,515.6c-5.3-1.2-10.6-2.6-15.8-4.2l-10.2,31.5c6.3,2,12.7,3.6,19.1,5L259.7,515.6z"/>
	<path fill="#4F594F" d="M186.1,90l16.6,28.7c4.7-2.7,9.6-5.1,14.5-7.4l-13.5-30.2C197.7,83.8,191.9,86.8,186.1,90z"/>
	<path fill="#EFA428" d="M304.3,481.8c-4.1-0.1-8.2-0.3-12.2-0.6l-3.5,32.8c5.2,0.5,10.4,0.7,15.7,0.8V481.8z"/>
	<path fill="#CD4C27" d="M119.9,410.9c-2.7-4.7-5.1-9.6-7.4-14.5l-30.3,13.5c2.8,6,5.8,11.9,9,17.6L119.9,410.9z"/>
	<path fill="#CD4C27" d="M304.3,520.9c-5.5-0.1-10.9-0.3-16.3-0.8l-3.5,32.9c6.5,0.6,13.1,0.9,19.8,1V520.9z"/>
	<path fill="#4F594F" d="M139.3,488.3l22.2-24.6c-4-3.7-7.8-7.6-11.6-11.6l-24.6,22.2C129.8,479.1,134.4,483.8,139.3,488.3z"/>
	<path fill="#CD4C27" d="M145.8,447.5c-3.6-4.1-7.1-8.3-10.3-12.7l-26.8,19.5c4,5.3,8.2,10.4,12.5,15.3L145.8,447.5z"/>
	<path fill="#4F594F" d="M131.9,429.9c-3.1-4.4-6.1-9-9-13.7l-28.7,16.6c3.4,5.7,7,11.2,10.8,16.6L131.9,429.9z"/>
	<path fill="#4F594F" d="M197.4,490.6c-4.7-2.8-9.2-5.8-13.7-8.9l-19.5,26.8c5.4,3.8,10.9,7.4,16.6,10.8L197.4,490.6z"/>
	<path fill="#CD4C27" d="M217.2,501.1c-5-2.3-9.8-4.8-14.5-7.4l-16.6,28.7c5.7,3.2,11.6,6.2,17.6,9L217.2,501.1z"/>
	<path fill="#CD4C27" d="M178.7,478.1c-4.4-3.3-8.6-6.7-12.7-10.3l-22.2,24.6c5,4.4,10.1,8.6,15.3,12.5L178.7,478.1z"/>
	<path fill="#EFA428" d="M187.3,476.7c4.3,3,8.6,5.9,13.1,8.6l16.4-28.5c-3.5-2.1-6.9-4.4-10.3-6.7L187.3,476.7z"/>
	<path fill="#EFA428" d="M128.3,413.1c2.7,4.5,5.6,8.9,8.6,13.1l26.6-19.3c-2.3-3.3-4.6-6.7-6.7-10.3L128.3,413.1z"/>
	<path fill="#EFA428" d="M140.5,431.3c3.1,4.2,6.5,8.2,9.9,12.2l24.4-22c-2.7-3.1-5.3-6.2-7.7-9.5L140.5,431.3z"/>
	<path fill="#EFA428" d="M118.1,393.8c2.2,4.8,4.6,9.4,7.1,14l28.5-16.4c-2-3.6-3.8-7.2-5.6-10.9L118.1,393.8z"/>
	<path fill="#EFA428" d="M109.9,373.6c1.7,5,3.5,9.9,5.6,14.7l30.1-13.4c-1.6-3.7-3-7.6-4.3-11.5L109.9,373.6z"/>
	<path fill="#EFA428" d="M139.3,254.8L108,244.6c-1.5,5-2.8,10.1-4,15.2l32.2,6.9C137.1,262.7,138.1,258.7,139.3,254.8z"/>
	<path fill="#EFA428" d="M100.2,281.3l32.8,3.4c0.5-4.1,1.1-8.1,1.9-12.1l-32.2-6.9C101.7,270.9,100.9,276.1,100.2,281.3z"/>
	<path fill="#EFA428" d="M154.5,448c3.6,3.8,7.3,7.5,11.1,11.1l22-24.4c-3-2.8-5.9-5.7-8.7-8.7L154.5,448z"/>
	<path fill="#EFA428" d="M170.1,463.2c3.9,3.5,8,6.8,12.2,9.9l19.3-26.6c-3.3-2.5-6.4-5.1-9.5-7.7L170.1,463.2z"/>
	<path fill="#EFA428" d="M98.8,303.1h33c0.1-4.1,0.3-8.2,0.6-12.2l-32.8-3.5C99.1,292.6,98.9,297.9,98.8,303.1z"/>
	<path fill="#CD4C27" d="M209.4,78.5l13.5,30.2c5-2.1,10.1-4.1,15.3-5.8l-10.2-31.5C221.6,73.6,215.4,75.9,209.4,78.5z"/>
	<path fill="#EFA428" d="M267,101.5l6.8,32.3c4-0.8,8-1.4,12.1-1.9l-3.4-32.8C277.3,99.7,272.1,100.5,267,101.5z"/>
	<path fill="#EFA428" d="M304.3,130.6v-33c-5.3,0.1-10.5,0.3-15.7,0.8l3.5,32.8C296.1,130.9,300.2,130.7,304.3,130.6z"/>
	<path fill="#EFA428" d="M205.7,488.3c4.6,2.6,9.2,4.9,14,7.1l13.4-30.1c-3.7-1.7-7.3-3.6-10.9-5.6L205.7,488.3z"/>
	<path fill="#EFA428" d="M225.3,498c4.8,2.1,9.7,3.9,14.7,5.6l10.2-31.3c-3.9-1.3-7.7-2.8-11.5-4.4L225.3,498z"/>
	<path fill="#EFA428" d="M267.8,477.4c-4-0.9-8-1.9-11.8-3.1l-10.2,31.3c5,1.5,10.1,2.8,15.2,4L267.8,477.4z"/>
	<path fill="#4F594F" d="M304.3,58.4c-6.7,0.1-13.3,0.4-19.8,1l3.5,32.9c5.4-0.5,10.8-0.8,16.3-0.8V58.4z"/>
	<path fill="#EFA428" d="M233.1,147l-13.4-30.1c-4.8,2.2-9.4,4.6-14,7.1l16.4,28.5C225.8,150.6,229.4,148.7,233.1,147z"/>
	<path fill="#EFA428" d="M250.2,140.1L240,108.8c-5,1.7-9.9,3.5-14.7,5.6l13.4,30.1C242.5,142.9,246.3,141.4,250.2,140.1z"/>
	<path fill="#EFA428" d="M99.6,324.9l32.8-3.5c-0.3-4-0.6-8.1-0.6-12.2h-33C98.9,314.5,99.1,319.8,99.6,324.9z"/>
	<path fill="#EFA428" d="M267.8,135l-6.8-32.2c-5.1,1.2-10.2,2.5-15.2,4l10.2,31.3C259.9,137,263.8,136,267.8,135z"/>
	<path fill="#4F594F" d="M233.7,69.5l10.2,31.5c5.2-1.6,10.5-3,15.8-4.2l-6.9-32.4C246.4,65.9,240,67.5,233.7,69.5z"/>
	<path fill="#EFA428" d="M201.6,165.9l-19.3-26.6c-4.2,3.1-8.2,6.5-12.2,9.9l22,24.4C195.2,171,198.4,168.4,201.6,165.9z"/>
	<path fill="#CD4C27" d="M258.8,63.1l6.9,32.4c5.3-1,10.7-1.9,16.1-2.5l-3.5-32.9C271.8,60.9,265.3,61.9,258.8,63.1z"/>
	<path fill="#EFA428" d="M216.9,155.6l-16.4-28.5c-4.5,2.7-8.9,5.6-13.1,8.6l19.3,26.6C210,160,213.4,157.7,216.9,155.6z"/>
	<path fill="#EFA428" d="M139.3,357.6c-1.2-3.9-2.2-7.8-3.1-11.8l-32.2,6.8c1.2,5.1,2.5,10.2,4,15.2L139.3,357.6z"/>
	<path fill="#EFA428" d="M187.6,177.7l-22-24.4c-3.8,3.6-7.5,7.3-11.1,11.1l24.4,22C181.7,183.4,184.6,180.5,187.6,177.7z"/>
	<path fill="#EFA428" d="M134.9,339.7c-0.8-4-1.4-8-1.9-12.1l-32.8,3.4c0.6,5.2,1.4,10.4,2.4,15.5L134.9,339.7z"/>
	<path fill="#EFA428" d="M115.5,224.2c-2.1,4.8-3.9,9.7-5.6,14.7l31.3,10.2c1.3-3.9,2.8-7.7,4.3-11.5L115.5,224.2z"/>
	<path fill="#EFA428" d="M174.8,191l-24.4-22c-3.5,3.9-6.8,8-9.9,12.2l26.6,19.3C169.5,197.2,172.1,194.1,174.8,191z"/>
	<path fill="#EFA428" d="M163.5,205.4l-26.6-19.3c-3,4.3-5.9,8.6-8.6,13.1l28.5,16.4C158.9,212.2,161.1,208.8,163.5,205.4z"/>
	<path fill="#EFA428" d="M153.7,221l-28.5-16.5c-2.6,4.6-4.9,9.2-7.1,14l30.1,13.4C149.9,228.2,151.7,224.6,153.7,221z"/>
	<path fill="#4F594F" d="M143.8,120l22.2,24.6c4.1-3.6,8.3-7.1,12.7-10.3l-19.5-26.8C153.9,111.4,148.8,115.7,143.8,120z"/>
	<path fill="#CD4C27" d="M355,96.8c5.3,1.2,10.6,2.6,15.8,4.2L381,69.5c-6.3-2-12.7-3.6-19.2-5L355,96.8z"/>
	<path fill="#EFA428" d="M328.8,131.9c4.1,0.5,8.1,1.1,12.1,1.9l6.9-32.3c-5.1-1-10.3-1.8-15.5-2.4L328.8,131.9z"/>
	<path fill="#4F594F" d="M332.9,93c5.4,0.6,10.8,1.5,16.1,2.5l6.9-32.4c-6.4-1.3-13-2.3-19.6-3L332.9,93z"/>
	<path fill="#EFA428" d="M347.7,510.9l-6.9-32.2c-4,0.8-8,1.4-12.1,1.9l3.5,32.8C337.4,512.7,342.6,511.9,347.7,510.9z"/>
	<path fill="#EFA428" d="M320.9,428.8c0-5.9-3.8-10.9-9.1-12.7c1.7-11.2,2.9-28.8,2.9-48.6c0-10.7-0.3-20.7-0.9-29.4
		c12.8-2.6,22.9-12.7,25.4-25.4c8.7,0.6,18.7,0.9,29.4,0.9c19.8,0,37.3-1.1,48.6-2.9c1.9,5.3,6.8,9.1,12.7,9.1
		c7.5,0,13.6-6.1,13.6-13.6c0-7.5-6.1-13.6-13.6-13.6c-5.9,0-10.9,3.8-12.7,9.1c-11.2-1.8-28.8-2.9-48.6-2.9
		c-10.7,0-20.7,0.3-29.4,0.9c-2.6-12.8-12.7-22.9-25.4-25.4c0.6-8.7,0.9-18.7,0.9-29.4c0-19.8-1.1-37.4-2.9-48.6
		c5.3-1.9,9.1-6.8,9.1-12.7c0-7.5-6.1-13.6-13.6-13.6c-7.5,0-13.6,6.1-13.6,13.6c0,5.9,3.8,10.9,9.1,12.7
		c-1.7,11.2-2.9,28.8-2.9,48.6c0,10.7,0.3,20.7,0.9,29.4c-12.8,2.6-22.9,12.7-25.5,25.4c-8.7-0.6-18.7-0.9-29.4-0.9
		c-19.8,0-37.4,1.1-48.6,2.9c-1.9-5.3-6.8-9.1-12.7-9.1c-7.5,0-13.6,6.1-13.6,13.6c0,7.5,6.1,13.6,13.6,13.6
		c5.9,0,10.9-3.8,12.7-9.1c11.2,1.8,28.8,2.9,48.6,2.9c10.7,0,20.7-0.3,29.4-0.9c2.6,12.8,12.7,22.9,25.5,25.4
		c-0.6,8.7-0.9,18.7-0.9,29.4c0,19.8,1.1,37.4,2.9,48.6c-5.3,1.9-9.1,6.8-9.1,12.7c0,7.5,6.1,13.6,13.6,13.6
		C314.8,442.4,320.9,436.3,320.9,428.8z M313.3,280.5c9.8,2.3,17.4,9.9,19.7,19.7c-4.9,0.4-9.3,0.9-12.9,1.5
		c-1.4-3.9-4.4-6.9-8.3-8.3C312.4,289.8,312.9,285.4,313.3,280.5z M320.1,310.7c3.7,0.6,8,1.1,12.9,1.5c-2.3,9.8-9.9,17.4-19.7,19.7
		c-0.4-4.9-0.9-9.3-1.5-12.9C315.7,317.6,318.7,314.5,320.1,310.7z M301.4,331.9c-9.8-2.3-17.4-9.9-19.7-19.7
		c4.9-0.4,9.3-0.9,12.9-1.5c1.4,3.9,4.4,6.9,8.3,8.3C302.3,322.6,301.8,327,301.4,331.9z M294.6,301.7c-3.7-0.6-8-1.1-12.9-1.5
		c2.3-9.8,9.9-17.4,19.7-19.7c0.4,4.9,0.9,9.3,1.5,12.9C299,294.8,296,297.9,294.6,301.7z"/>
	<path fill="#EFA428" d="M310.4,514.8c5.3-0.1,10.5-0.3,15.7-0.8l-3.4-32.8c-4,0.3-8.1,0.6-12.2,0.6V514.8z"/>
	<path fill="#EFA428" d="M310.4,130.6c4.1,0.1,8.2,0.3,12.2,0.6l3.4-32.8c-5.2-0.5-10.4-0.7-15.7-0.8V130.6z"/>
	<path fill="#1DB78D" d="M310.4,91.5c5.5,0.1,10.9,0.4,16.3,0.8l3.5-32.9c-6.5-0.6-13.1-0.9-19.8-1V91.5z"/>
	<path fill="#4F594F" d="M453.3,148.7c4,3.7,7.9,7.6,11.6,11.5l24.6-22.2c-4.5-4.9-9.2-9.5-14-14L453.3,148.7z"/>
	<path fill="#CD4C27" d="M468.9,164.9c3.6,4.1,7.1,8.3,10.3,12.7l26.8-19.5c-4-5.3-8.2-10.4-12.5-15.3L468.9,164.9z"/>
	<path fill="#4F594F" d="M482.8,182.5c3.1,4.5,6.1,9,8.9,13.7l28.7-16.6c-3.4-5.7-7-11.2-10.8-16.6L482.8,182.5z"/>
	<path fill="#4F594F" d="M376.6,102.9c5.2,1.8,10.3,3.7,15.3,5.8l13.5-30.2c-6-2.6-12.2-4.9-18.5-7.1L376.6,102.9z"/>
	<path fill="#CD4C27" d="M436,134.3c4.4,3.3,8.6,6.7,12.7,10.3l22.2-24.6c-5-4.4-10-8.6-15.3-12.5L436,134.3z"/>
	<path fill="#CD4C27" d="M397.5,111.3c5,2.3,9.8,4.8,14.5,7.4L428.6,90c-5.7-3.2-11.6-6.2-17.6-9L397.5,111.3z"/>
	<path fill="#CD4C27" d="M494.8,201.5c2.7,4.7,5.1,9.6,7.4,14.5l30.3-13.5c-2.8-6-5.8-11.9-9-17.6L494.8,201.5z"/>
	<path fill="#4F594F" d="M417.4,121.8c4.7,2.8,9.2,5.8,13.7,8.9l19.5-26.8c-5.4-3.8-10.9-7.4-16.6-10.8L417.4,121.8z"/>
	<path fill="#CD4C27" d="M542.1,385.7l-31.5-10.2c-1.8,5.2-3.7,10.3-5.8,15.3l30.3,13.5C537.6,398.2,540,392,542.1,385.7z"/>
	<path fill="#4F594F" d="M532.5,409.8l-30.3-13.5c-2.3,5-4.8,9.8-7.4,14.6l28.7,16.6C526.7,421.7,529.7,415.8,532.5,409.8z"/>
	<path fill="#4F594F" d="M549.1,360.7l-32.4-6.9c-1.2,5.3-2.6,10.6-4.2,15.8l31.5,10.2C546,373.6,547.7,367.2,549.1,360.7z"/>
	<path fill="#4F594F" d="M555.1,309.3h-33.1c-0.1,5.5-0.3,10.9-0.8,16.3l32.9,3.5C554.7,322.5,555.1,315.9,555.1,309.3z"/>
	<path fill="#CD4C27" d="M553.5,335.1l-32.9-3.5c-0.6,5.4-1.5,10.8-2.5,16.1l32.4,6.9C551.7,348.3,552.7,341.8,553.5,335.1z"/>
	<path fill="#CD4C27" d="M554.1,283.4l-32.9,3.5c0.5,5.4,0.8,10.8,0.8,16.3h33.1C555.1,296.5,554.7,289.9,554.1,283.4z"/>
	<path fill="#CD4C27" d="M520.5,432.8l-28.7-16.6c-2.8,4.7-5.8,9.2-8.9,13.7l26.8,19.5C513.4,444,517.1,438.5,520.5,432.8z"/>
	<path fill="#CD4C27" d="M489.5,474.3l-24.6-22.2c-3.7,4-7.6,7.8-11.6,11.5l22.2,24.6C480.3,483.8,485,479.1,489.5,474.3z"/>
	<path fill="#CD4C27" d="M405.4,533.9l-13.5-30.2c-5,2.1-10.1,4.1-15.3,5.8l10.2,31.5C393.1,538.8,399.3,536.5,405.4,533.9z"/>
	<path fill="#4F594F" d="M506.1,454.4l-26.8-19.5c-3.3,4.4-6.7,8.6-10.3,12.7l24.6,22.2C497.9,464.7,502.1,459.7,506.1,454.4z"/>
	<path fill="#4F594F" d="M381,542.9l-10.2-31.5c-5.2,1.6-10.5,3-15.8,4.2l6.9,32.4C368.4,546.5,374.8,544.9,381,542.9z"/>
	<path fill="#4F594F" d="M428.6,522.3L412,493.6c-4.7,2.7-9.6,5.1-14.5,7.4l13.5,30.3C417,528.6,422.9,525.6,428.6,522.3z"/>
	<path fill="#CD4C27" d="M355.9,549.3l-6.9-32.4c-5.3,1-10.7,1.9-16.1,2.5l3.5,32.9C342.9,551.5,349.4,550.5,355.9,549.3z"/>
	<path fill="#CD4C27" d="M450.5,508.5L431,481.7c-4.4,3.1-9,6.1-13.7,8.9l16.6,28.7C439.6,515.9,445.1,512.3,450.5,508.5z"/>
	<path fill="#4F594F" d="M470.9,492.4l-22.2-24.6c-4.1,3.6-8.3,7.1-12.7,10.3l19.5,26.8C460.8,500.9,465.9,496.7,470.9,492.4z"/>
	<path fill="#4F594F" d="M326.8,520.1c-5.4,0.5-10.8,0.8-16.3,0.8V554c6.7-0.1,13.3-0.4,19.8-1L326.8,520.1z"/>
	<path fill="#EFA428" d="M474.3,431.3l-26.6-19.3c-2.5,3.3-5.1,6.4-7.7,9.5l24.4,22C467.8,439.5,471.1,435.4,474.3,431.3z"/>
	<path fill="#EFA428" d="M460.2,448l-24.4-22c-2.8,3-5.7,5.9-8.7,8.7l22,24.4C453,455.5,456.7,451.8,460.2,448z"/>
	<path fill="#EFA428" d="M486.4,413.1L458,396.7c-2.1,3.5-4.4,6.9-6.7,10.3l26.6,19.3C480.9,422,483.7,417.6,486.4,413.1z"/>
	<path fill="#EFA428" d="M504.8,373.6l-31.3-10.2c-1.3,3.9-2.8,7.7-4.4,11.5l30.1,13.4C501.2,383.4,503.1,378.5,504.8,373.6z"/>
	<path fill="#EFA428" d="M389.4,114.4c-4.8-2.1-9.7-3.9-14.7-5.6l-10.2,31.3c3.9,1.3,7.7,2.8,11.5,4.4L389.4,114.4z"/>
	<path fill="#EFA428" d="M444.6,463.2l-22-24.4c-3.1,2.7-6.2,5.3-9.5,7.7l19.3,26.6C436.6,470,440.6,466.6,444.6,463.2z"/>
	<path fill="#EFA428" d="M346.9,135c4,0.9,8,1.9,11.8,3.1l10.2-31.3c-5-1.5-10.1-2.8-15.2-4L346.9,135z"/>
	<path fill="#EFA428" d="M496.6,393.8l-30.1-13.4c-1.7,3.7-3.6,7.4-5.6,10.9l28.5,16.4C492.1,403.3,494.4,398.6,496.6,393.8z"/>
	<path fill="#4F594F" d="M553.5,277.2c-0.8-6.6-1.8-13.1-3-19.6l-32.4,6.9c1,5.3,1.9,10.7,2.5,16.1L553.5,277.2z"/>
	<path fill="#CD4C27" d="M512.6,242.7c1.6,5.2,3,10.5,4.2,15.8l32.4-6.9c-1.5-6.5-3.1-12.9-5-19.2L512.6,242.7z"/>
	<path fill="#EFA428" d="M427.4,476.7l-19.3-26.6c-3.3,2.3-6.8,4.6-10.3,6.7l16.4,28.5C418.8,482.6,423.2,479.7,427.4,476.7z"/>
	<path fill="#EFA428" d="M471.5,306.2c0-90.5-73.6-164.1-164.1-164.1c-90.5,0-164.1,73.6-164.1,164.1c0,90.5,73.6,164.1,164.1,164.1
		C397.9,470.3,471.5,396.7,471.5,306.2z M148.4,306.2c0-87.6,71.3-158.9,158.9-158.9c87.6,0,159,71.3,159,158.9
		c0,87.6-71.3,159-159,159C219.7,465.2,148.4,393.8,148.4,306.2z"/>
	<path fill="#EFA428" d="M409,488.3l-16.4-28.5c-3.6,2-7.2,3.8-10.9,5.6l13.4,30.1C399.8,493.3,404.4,490.9,409,488.3z"/>
	<path fill="#EFA428" d="M346.9,477.4l6.8,32.2c5.1-1.2,10.2-2.5,15.2-4l-10.2-31.3C354.8,475.4,350.9,476.4,346.9,477.4z"/>
	<path fill="#EFA428" d="M389.4,498L376,467.9c-3.8,1.6-7.6,3-11.5,4.4l10.2,31.3C379.7,501.9,384.6,500.1,389.4,498z"/>
	<path fill="#EFA428" d="M486.4,199.3c-2.7-4.5-5.6-8.9-8.6-13.1l-26.6,19.3c2.3,3.3,4.6,6.7,6.7,10.2L486.4,199.3z"/>
	<path fill="#EFA428" d="M510.7,352.6l-32.2-6.8c-0.9,4-1.9,8-3.1,11.8l31.3,10.2C508.3,362.8,509.6,357.7,510.7,352.6z"/>
	<path fill="#EFA428" d="M514.5,281.3c-0.6-5.2-1.4-10.4-2.4-15.5l-32.2,6.9c0.8,4,1.4,8,1.9,12.1L514.5,281.3z"/>
	<path fill="#EFA428" d="M475.4,254.8c1.2,3.9,2.2,7.8,3.1,11.9l32.2-6.9c-1.2-5.1-2.5-10.2-4-15.2L475.4,254.8z"/>
	<path fill="#EFA428" d="M515.1,287.4l-32.8,3.5c0.4,4,0.6,8.1,0.6,12.2h33C515.9,297.9,515.6,292.6,515.1,287.4z"/>
	<path fill="#EFA428" d="M504.8,238.8c-1.7-5-3.5-9.9-5.6-14.7l-30.1,13.4c1.6,3.8,3,7.6,4.4,11.5L504.8,238.8z"/>
	<path fill="#EFA428" d="M515.9,309.3h-33c-0.1,4.1-0.3,8.2-0.6,12.2l32.8,3.5C515.6,319.8,515.9,314.5,515.9,309.3z"/>
	<path fill="#EFA428" d="M514.5,331.1l-32.8-3.5c-0.5,4.1-1.1,8.1-1.9,12.1l32.2,6.9C513.1,341.5,513.9,336.3,514.5,331.1z"/>
	<path fill="#4F594F" d="M504.8,221.7c2.1,5,4.1,10.1,5.8,15.3l31.5-10.2c-2.1-6.3-4.5-12.5-7.1-18.5L504.8,221.7z"/>
	<path fill="#EFA428" d="M460.2,164.4c-3.6-3.8-7.3-7.5-11.1-11.1l-22,24.4c3,2.8,5.9,5.7,8.7,8.7L460.2,164.4z"/>
	<path fill="#EFA428" d="M444.6,149.2c-3.9-3.4-8-6.8-12.2-9.9l-19.3,26.6c3.3,2.5,6.4,5.1,9.5,7.7L444.6,149.2z"/>
	<path fill="#EFA428" d="M496.6,218.6c-2.2-4.8-4.6-9.4-7.1-14L461,221c2,3.6,3.8,7.2,5.6,10.9L496.6,218.6z"/>
	<path fill="#EFA428" d="M427.4,135.7c-4.3-3-8.6-5.9-13.1-8.6l-16.4,28.5c3.5,2.1,6.9,4.4,10.3,6.7L427.4,135.7z"/>
	<path fill="#EFA428" d="M474.3,181.1c-3.2-4.2-6.5-8.2-9.9-12.2l-24.4,22c2.7,3.1,5.3,6.2,7.7,9.5L474.3,181.1z"/>
	<path fill="#EFA428" d="M409,124.1c-4.6-2.6-9.2-4.9-14-7.1L381.6,147c3.7,1.7,7.3,3.6,10.9,5.6L409,124.1z"/>
</g>
</svg>
