<svg id="Layer_1" xmlns="http://www.w3.org/2000/svg" width="56.6" height="70.5" viewBox="0 0 56.6 70.5"><style>.st0{fill:#50514f}.st1{fill:#70bbc0}.st2{fill:#2288a4}.st3{fill:#a7bbbc}.st4{fill:#6a7577}.st5{opacity:.3;fill:#FFF}.st6{opacity:.15}.st7{fill:#d1eca9}.st8{fill:#7a5574}.st9{fill:#d19f97}.st10{fill:#f15c6b}.st11{fill:#ffb743}.st12{fill:#dbd17e}.st13{opacity:.2;fill:#aeaeae}</style><path class="st0" d="M24.2-52h8.1v2.5h-8.1z"/><path class="st0" d="M23.7-50.2h9.2v2.5h-9.2zM24.2-47.7h8.1v2.5h-8.1z"/><path class="st0" d="M23.7-45.9h9.2v2.5h-9.2zM24.2-43.3h8.1v2.5h-8.1z"/><path class="st0" d="M23.7-41.5h9.2v2.5h-9.2zM24.2-39h8.1v2.5h-8.1z"/><path class="st0" d="M23.7-37.2h9.2v2.5h-9.2zM24.2-34.7h8.1v2.5h-8.1z"/><path class="st0" d="M23.7-32.9h9.2v2.5h-9.2zM24.2-30.3h8.1v2.5h-8.1z"/><path class="st0" d="M23.7-28.5h9.2v2.5h-9.2zM24.2-26h8.1v2.5h-8.1z"/><path class="st0" d="M23.7-24.2h9.2v2.5h-9.2z"/><g><path class="st0" d="M24.2-21.7h8.1v2.5h-8.1z"/><path class="st0" d="M23.7-19.9h9.2v2.5h-9.2z"/></g><g><path class="st0" d="M24.2-17.3h8.1v2.5h-8.1z"/><path class="st0" d="M23.7-15.5h9.2v2.5h-9.2z"/></g><g><path class="st0" d="M24.2-13h8.1v2.5h-8.1z"/><path class="st0" d="M23.7-11.2h9.2v2.5h-9.2z"/></g><g><path class="st0" d="M24.2-8.7h8.1v2.5h-8.1z"/><path class="st0" d="M23.7-6.9h9.2v2.5h-9.2z"/></g><g><path class="st0" d="M24.2-4.3h8.1v2.5h-8.1z"/><path class="st0" d="M23.7-2.5h9.2V0h-9.2z"/></g><g><path class="st0" d="M24.2 0h8.1v2.5h-8.1z"/><path class="st0" d="M23.7 1.8h9.2v2.5h-9.2z"/></g><g><path class="st0" d="M24.2 4.3h8.1v2.5h-8.1z"/><path class="st0" d="M23.7 6.1h9.2v2.5h-9.2z"/></g><path class="st0" d="M31.6 8.7h1.3V6.1h-.5V4.3h.5V1.8h-.5V0h.5v-2.5h-.5v-1.8h.5v-2.6h-.5v-1.8h.5v-2.5h-.5V-13h.5v-2.5h-.5v-1.8h.5v-2.6h-.5v-1.8h.5v-2.5h-.5V-26h.5v-2.5h-.5v-1.8h.5v-2.6h-.5v-1.8h.5v-2.5h-.5V-39h.5v-2.5h-.5v-1.8h.5v-2.6h-.5v-1.8h.5v-2.5h-.5V-52h-.8zM26.2-52h-2v1.8h-.5v2.5h.5v1.8h-.5v2.6h.5v1.8h-.5v2.5h.5v1.8h-.5v2.5h.5v1.8h-.5v2.6h.5v1.8h-.5v2.5h.5v1.8h-.5v2.5h.5v1.8h-.5v2.6h.5v1.8h-.5v2.5h.5v1.8h-.5v2.5h.5v1.8h-.5v2.6h.5v1.8h-.5V0h.5v1.8h-.5v2.5h.5v1.8h-.5v2.6h2.5z"/><g><path class="st0" d="M48.2 58.3H8.4c-4.6 0-8.4-3.8-8.4-8.4V32.2c0-4.6 3.8-8.4 8.4-8.4h39.9c4.6 0 8.4 3.8 8.4 8.4V50c-.1 4.5-3.8 8.3-8.5 8.3zM8.4 27.8c-2.4 0-4.4 2-4.4 4.4V50c0 2.4 2 4.4 4.4 4.4h39.9c2.4 0 4.4-2 4.4-4.4V32.2c0-2.4-2-4.4-4.4-4.4H8.4z"/><path class="st0" d="M40.3 70.5h-24c-2.8 0-5.1-2.3-5.1-5.1V16.7c0-2.8 2.3-5.1 5.1-5.1h24c2.8 0 5.1 2.3 5.1 5.1v48.6c0 2.9-2.3 5.2-5.1 5.2z"/><circle class="st0" cx="28.3" cy="36.7" r="7.9"/><circle class="st0" cx="20.4" cy="21.8" r="5.2"/><circle class="st0" cx="20.4" cy="21.8" r="5.2"/><circle class="st0" cx="20.4" cy="21.8" r="3.4"/><circle class="st0" cx="36.2" cy="21.8" r="5.2"/><circle class="st0" cx="36.2" cy="21.8" r="3.4"/><path class="st0" d="M17.5 49.2h5c.7 0 1.2.5 1.2 1.2v3.9c0 .7-.5 1.2-1.2 1.2h-5c-.7 0-1.2-.5-1.2-1.2v-3.9c0-.7.5-1.2 1.2-1.2zM25.8 49.2h5c.7 0 1.2.5 1.2 1.2v3.9c0 .7-.5 1.2-1.2 1.2h-5c-.7 0-1.2-.5-1.2-1.2v-3.9c0-.7.6-1.2 1.2-1.2zM34.2 49.2h5c.7 0 1.2.5 1.2 1.2v3.9c0 .7-.5 1.2-1.2 1.2h-5c-.7 0-1.2-.5-1.2-1.2v-3.9c0-.7.5-1.2 1.2-1.2zM17.5 56.5h5c.7 0 1.2.5 1.2 1.2v3.9c0 .7-.5 1.2-1.2 1.2h-5c-.7 0-1.2-.5-1.2-1.2v-3.9c0-.7.5-1.2 1.2-1.2zM25.8 56.5h5c.7 0 1.2.5 1.2 1.2v3.9c0 .7-.5 1.2-1.2 1.2h-5c-.7 0-1.2-.5-1.2-1.2v-3.9c0-.7.6-1.2 1.2-1.2zM34.2 56.5h5c.7 0 1.2.5 1.2 1.2v3.9c0 .7-.5 1.2-1.2 1.2h-5c-.7 0-1.2-.5-1.2-1.2v-3.9c0-.7.5-1.2 1.2-1.2z"/></g><path class="st0" d="M18.2 8.2h20.1v3.5H18.2z"/><g><path class="st1" d="M24.2-52h8.1v2.5h-8.1z"/><path class="st2" d="M23.7-50.2h9.2v2.5h-9.2z"/><path class="st1" d="M24.2-47.7h8.1v2.5h-8.1z"/><path class="st2" d="M23.7-45.9h9.2v2.5h-9.2z"/><path class="st1" d="M24.2-43.3h8.1v2.5h-8.1z"/><path class="st2" d="M23.7-41.5h9.2v2.5h-9.2z"/><path class="st1" d="M24.2-39h8.1v2.5h-8.1z"/><path class="st2" d="M23.7-37.2h9.2v2.5h-9.2z"/><path class="st1" d="M24.2-34.7h8.1v2.5h-8.1z"/><path class="st2" d="M23.7-32.9h9.2v2.5h-9.2z"/><path class="st1" d="M24.2-30.3h8.1v2.5h-8.1z"/><path class="st2" d="M23.7-28.5h9.2v2.5h-9.2z"/><path class="st1" d="M24.2-26h8.1v2.5h-8.1z"/><path class="st2" d="M23.7-24.2h9.2v2.5h-9.2z"/><g><path class="st1" d="M24.2-21.7h8.1v2.5h-8.1z"/><path class="st2" d="M23.7-19.9h9.2v2.5h-9.2z"/></g><g><path class="st1" d="M24.2-17.3h8.1v2.5h-8.1z"/><path class="st2" d="M23.7-15.5h9.2v2.5h-9.2z"/></g><g><path class="st1" d="M24.2-13h8.1v2.5h-8.1z"/><path class="st2" d="M23.7-11.2h9.2v2.5h-9.2z"/></g><g><path class="st1" d="M24.2-8.7h8.1v2.5h-8.1z"/><path class="st2" d="M23.7-6.9h9.2v2.5h-9.2z"/></g><g><path class="st1" d="M24.2-4.3h8.1v2.5h-8.1z"/><path class="st2" d="M23.7-2.5h9.2V0h-9.2z"/></g><g><path class="st3" d="M24.2 0h8.1v2.5h-8.1z"/><path class="st4" d="M23.7 1.8h9.2v2.5h-9.2z"/></g><g><path class="st3" d="M24.2 4.3h8.1v2.5h-8.1z"/><path class="st4" d="M23.7 6.1h9.2v2.5h-9.2z"/></g><path class="st5" d="M31.6 8.7h1.3V6.1h-.5V4.3h.5V1.8h-.5V0h.5v-2.5h-.5v-1.8h.5v-2.6h-.5v-1.8h.5v-2.5h-.5V-13h.5v-2.5h-.5v-1.8h.5v-2.6h-.5v-1.8h.5v-2.5h-.5V-26h.5v-2.5h-.5v-1.8h.5v-2.6h-.5v-1.8h.5v-2.5h-.5V-39h.5v-2.5h-.5v-1.8h.5v-2.6h-.5v-1.8h.5v-2.5h-.5V-52h-.8z"/><path class="st6" d="M26.2-52h-2v1.8h-.5v2.5h.5v1.8h-.5v2.6h.5v1.8h-.5v2.5h.5v1.8h-.5v2.5h.5v1.8h-.5v2.6h.5v1.8h-.5v2.5h.5v1.8h-.5v2.5h.5v1.8h-.5v2.6h.5v1.8h-.5v2.5h.5v1.8h-.5v2.5h.5v1.8h-.5v2.6h.5v1.8h-.5V0h.5v1.8h-.5v2.5h.5v1.8h-.5v2.6h2.5z"/><g><path class="st7" d="M48.2 58.3H8.4c-4.6 0-8.4-3.8-8.4-8.4V32.2c0-4.6 3.8-8.4 8.4-8.4h39.9c4.6 0 8.4 3.8 8.4 8.4V50c-.1 4.5-3.8 8.3-8.5 8.3zM8.4 27.8c-2.4 0-4.4 2-4.4 4.4V50c0 2.4 2 4.4 4.4 4.4h39.9c2.4 0 4.4-2 4.4-4.4V32.2c0-2.4-2-4.4-4.4-4.4H8.4z"/><path class="st8" d="M40.3 70.5h-24c-2.8 0-5.1-2.3-5.1-5.1V16.7c0-2.8 2.3-5.1 5.1-5.1h24c2.8 0 5.1 2.3 5.1 5.1v48.6c0 2.9-2.3 5.2-5.1 5.2z"/><circle class="st9" cx="28.3" cy="36.7" r="7.9"/><circle class="st10" cx="20.4" cy="21.8" r="5.2"/><circle class="st7" cx="20.4" cy="21.8" r="5.2"/><circle class="st9" cx="20.4" cy="21.8" r="3.4"/><circle class="st7" cx="36.2" cy="21.8" r="5.2"/><circle class="st11" cx="36.2" cy="21.8" r="3.4"/><path class="st12" d="M17.5 49.2h5c.7 0 1.2.5 1.2 1.2v3.9c0 .7-.5 1.2-1.2 1.2h-5c-.7 0-1.2-.5-1.2-1.2v-3.9c0-.7.5-1.2 1.2-1.2zM25.8 49.2h5c.7 0 1.2.5 1.2 1.2v3.9c0 .7-.5 1.2-1.2 1.2h-5c-.7 0-1.2-.5-1.2-1.2v-3.9c0-.7.6-1.2 1.2-1.2zM34.2 49.2h5c.7 0 1.2.5 1.2 1.2v3.9c0 .7-.5 1.2-1.2 1.2h-5c-.7 0-1.2-.5-1.2-1.2v-3.9c0-.7.5-1.2 1.2-1.2zM17.5 56.5h5c.7 0 1.2.5 1.2 1.2v3.9c0 .7-.5 1.2-1.2 1.2h-5c-.7 0-1.2-.5-1.2-1.2v-3.9c0-.7.5-1.2 1.2-1.2z"/><path class="st9" d="M25.8 56.5h5c.7 0 1.2.5 1.2 1.2v3.9c0 .7-.5 1.2-1.2 1.2h-5c-.7 0-1.2-.5-1.2-1.2v-3.9c0-.7.6-1.2 1.2-1.2zM34.2 56.5h5c.7 0 1.2.5 1.2 1.2v3.9c0 .7-.5 1.2-1.2 1.2h-5c-.7 0-1.2-.5-1.2-1.2v-3.9c0-.7.5-1.2 1.2-1.2z"/></g><path class="st11" d="M18.2 8.2h20.1v3.5H18.2z"/></g><path class="st13" d="M52.6 37.9v12c0 2.4-2 4.4-4.4 4.4h-2.9V43.6c-5.4 3.3-11.3 5.2-17.5 5.2-5.9 0-11.5-1.6-16.6-4.6v10.1H8.4c-2.4 0-4.4-2-4.4-4.4V38.8c-1.4-1.3-2.7-2.6-4-4.1v15.2c0 4.6 3.8 8.4 8.4 8.4h2.9v7.1c0 2.8 2.3 5.1 5.1 5.1h24c2.8 0 5.1-2.3 5.1-5.1v-7.1h2.9c4.6 0 8.4-3.8 8.4-8.4V33.6c-1.5 1.5-2.8 3-4.2 4.3z"/><path class="st5" d="M40.3 11.6h-1.9V8.1h-5.5v-.2h-9.2v.2h-5.5v3.5h-1.9c-1.8 0-3.3.9-4.2 2.3 10.9-2.3 21.7-2.4 32.5 0-1-1.4-2.5-2.3-4.3-2.3z"/></svg>