<svg xmlns="http://www.w3.org/2000/svg" width="2808.712" height="385.315" viewBox="0 0 2808.712 385.315"><g fill="#B51F24"><path d="M0 156.948v-131.446h338.851v131.446h-74.231v-65.846h-42.418v221.955h41.925v65.6h-187.922v-65.6h41.432v-221.955h-43.406v65.847h-74.231zM358.827 378.656v-65.6h21.209v-247.498h-21.209v-65.704h122.321v157.588c4.096-6.739 14.258-15.167 30.484-25.278 16.227-10.111 32.372-15.167 48.437-15.167 18.319 0 33.636 3.133 45.959 9.395 12.319 6.266 21.274 15.205 26.87 26.827 5.591 11.622 9.402 23.159 11.429 34.611 2.027 11.456 3.04 25.012 3.04 40.672v84.555h25.155v65.6h-129.72v-137.366c0-6.412-.166-11.468-.493-15.167-.332-3.699-1.356-8.423-3.083-14.18-1.726-5.753-4.771-10.15-9.125-13.194-4.358-3.04-10.073-4.562-17.14-4.562-21.209 0-31.813 15.768-31.813 47.3v71.569h36.253v65.6h-158.574zM687.566 303.184c0-29.059 10.192-52.433 30.581-70.128 20.384-17.691 45.211-26.538 74.478-26.538 9.04 0 17.51 1.457 25.401 4.366 7.892 2.91 13.603 5.642 17.14 8.2 3.533 2.559 5.957 4.716 7.275 6.478v-18.631c0-19.837-15.949-29.76-47.843-29.76-22.196 0-47.27 8.081-75.218 24.242l-21.209-56.814c39.786-22.018 76.451-33.027 109.991-33.027 16.261 0 31.833 1.68 46.715 5.033s29.231 8.712 43.058 16.072c13.826 7.364 24.885 18.161 33.178 32.396 8.292 14.234 12.442 30.842 12.442 49.82v98.165h30.334v65.6h-106.898l-11.911-22.688c-8.362 11.51-18.939 19.771-31.729 24.785-12.79 5.013-24.924 7.522-36.399 7.522-26.634 0-49.859-7.298-69.669-21.895-19.814-14.599-29.717-35.662-29.717-63.198zm95.934-5.059c0 7.256 2.505 13.163 7.522 17.718 5.013 4.555 11.383 6.832 19.113 6.832 7.067 0 13.564-1.765 19.483-5.294 5.918-3.53 10.192-7.618 12.824-12.269v-18.785c-5.757-9.472-15.622-14.208-29.594-14.208-19.568-.163-29.348 8.504-29.348 26.006zM993.124 378.656v-65.6h23.429v-121.335h-23.429v-65.6h107.791l11.572 31.32c19.66-26.962 43.786-40.445 72.374-40.445 15.267 0 28.631 2.185 40.083 6.554 11.452 4.37 20.415 10.015 26.889 16.936 6.474 6.92 11.661 15.533 15.56 25.833 3.899 10.304 6.512 20.276 7.842 29.917 1.325 9.641 1.992 20.396 1.992 32.264v84.555h22.688v65.6h-127.255v-149.695c0-1.807-.416-5.672-1.241-11.591s-2.189-10.069-4.084-12.454c-1.9-2.381-4.79-4.848-8.667-7.398-3.88-2.547-8.627-3.823-14.238-3.823-21.297 0-31.944 15.768-31.944 47.3v72.062h38.472v65.6h-157.834zM1328.768 378.656v-65.106h20.716v-247.457h-20.716v-66.093h116.65v228.367l58.447-35.166h-36.252v-65.6h141.311v65.6h-38.719l-34.279 21.791 68.066 98.064h25.154v65.6h-149.449v-65.6h21.209l-38.227-54.726-17.756 12.134v42.591h18.742v65.6h-134.897zM1761.086 91.102v-65.6h172.632v65.6h-26.388l29.347 53.339c.986 2.624 3.699 9.302 8.139 20.034 4.439 10.735 6.986 17.656 7.645 20.77h1.974c.655-2.948 6.905-17.452 18.742-43.508l27.621-50.634h-27.621v-65.6h135.886v65.6h-27.374l-93.468 163.457v58.498h28.361v65.6h-161.78v-65.6h28.854v-59.484l-97.906-162.47h-24.664zM2110.834 155.715c27.652-23.675 60.186-35.594 97.606-35.759 41.393.655 75.125 12.735 101.205 36.241 26.079 23.506 39.45 55.735 40.113 96.681v1.476c0 40.106-13.082 71.877-39.242 95.313-26.492 23.602-59.689 35.482-99.591 35.647-39.409 0-73.021-11.753-100.835-35.266-27.486-23.182-41.146-55.57-40.981-97.167-.164-40.772 13.742-73.159 41.725-97.166zm62.841 95.691c0 20.477 3.522 36.981 10.566 49.512 7.044 12.531 15.976 18.797 26.792 18.797 10.319 0 18.593-6.266 24.82-18.797s9.34-28.542 9.34-48.036c0-19.49-3.279-35.505-9.83-48.036-6.554-12.531-15.482-18.958-26.788-19.29-9.668 0-17.903 6.351-24.7 19.043-6.801 12.697-10.2 28.299-10.2 46.807zM2361.104 191.721v-65.6h122.075v121.829c0 22.195 2.004 38.349 6.015 48.46 4.012 10.111 11.095 15.167 21.244 15.167 9.005 0 16.539-3.646 22.596-10.94 6.058-7.294 9.087-16.577 9.087-27.852v-81.063h-34.773v-65.6h130.707v185.456h26.388v67.08h-96.092l-13.359-31.813-4.859 5.672c-3.236 4.111-5.464 6.701-6.678 7.768-1.218 1.071-3.664 3.372-7.349 6.905-3.684 3.538-7.04 6.004-10.068 7.398-3.029 1.399-6.717 3.167-11.056 5.302s-9.129 3.657-14.369 4.562c-5.24.902-10.886 1.356-16.943 1.356-37.412 0-63.7-9.83-78.859-29.498-15.163-19.664-22.742-51.142-22.742-94.438v-70.151h-20.965zM2685.897 327.113c0-13.811 5.303-26.18 15.907-37.116 10.604-10.932 24.538-16.4 41.802-16.4 17.425 0 31.813 5.221 43.157 15.66 11.345 10.443 17.017 23.059 17.017 37.855 0 14.47-5.591 26.758-16.77 36.869-11.183 10.111-25.648 15.167-43.404 15.167-16.115 0-29.76-5.302-40.938-15.907-11.183-10.603-16.771-22.645-16.771-36.128zm2.22-205.431v-96.18h120.596v96.18l-26.881 127.254h-66.587l-27.128-127.254z"/></g></svg>