<svg xmlns="http://www.w3.org/2000/svg" width="155" height="35"><g fill="none"><path fill="#3AC" d="M31.69 5.478L16.413.173a1.102 1.102 0 0 0-.724 0L.74 5.48a1.11 1.11 0 0 0-.734 1.17l2.105 20.106c.038.362.248.682.563.859l13.008 7.221c.334.186.74.184 1.074-.005l12.684-7.223a1.12 1.12 0 0 0 .553-.835L32.42 6.667a1.121 1.121 0 0 0-.73-1.189z"/><path fill="#3D4251" d="M54.718 16.924a9.795 9.795 0 0 1-.651 3.627 8.106 8.106 0 0 1-4.677 4.696 9.935 9.935 0 0 1-3.691.662h-6.781V7.943h6.78a9.86 9.86 0 0 1 3.691.665 8.322 8.322 0 0 1 2.845 1.847 8.276 8.276 0 0 1 1.834 2.84 9.796 9.796 0 0 1 .65 3.629zm-3.396 0a8.438 8.438 0 0 0-.387-2.652 5.513 5.513 0 0 0-1.12-1.988 4.891 4.891 0 0 0-1.772-1.25 6.029 6.029 0 0 0-2.344-.435h-3.458v12.648h3.458a6.029 6.029 0 0 0 2.344-.436 4.884 4.884 0 0 0 1.772-1.25 5.51 5.51 0 0 0 1.12-1.987c.27-.857.4-1.752.387-2.65zm5.568-1.988c1.452-1.341 3.2-2.012 5.242-2.012a5.084 5.084 0 0 1 1.982.366 4.19 4.19 0 0 1 1.477 1.023c.41.449.722.98.916 1.559a6.04 6.04 0 0 1 .314 1.987v8.05h-1.379a1.382 1.382 0 0 1-.664-.13c-.156-.088-.28-.264-.37-.529l-.27-.92c-.297.272-.61.527-.935.764a5.51 5.51 0 0 1-.948.553c-.337.151-.69.266-1.052.34-.408.081-.823.12-1.239.114-.5.005-.998-.068-1.477-.217a3.231 3.231 0 0 1-1.168-.652 2.923 2.923 0 0 1-.763-1.08 3.864 3.864 0 0 1-.27-1.504c0-.328.054-.653.16-.963a2.82 2.82 0 0 1 .523-.909 4.36 4.36 0 0 1 .94-.82 6.149 6.149 0 0 1 1.423-.67c.64-.209 1.297-.365 1.963-.466a19.448 19.448 0 0 1 2.56-.217v-.745c0-.853-.18-1.485-.542-1.894-.36-.41-.881-.615-1.562-.615a3.683 3.683 0 0 0-1.225.174 5.033 5.033 0 0 0-.856.39c-.246.145-.47.276-.675.392a1.316 1.316 0 0 1-.675.173.871.871 0 0 1-.542-.168 1.396 1.396 0 0 1-.357-.39l-.531-.984zm6.965 5.528a16.63 16.63 0 0 0-2.216.227 5.86 5.86 0 0 0-1.44.428 1.88 1.88 0 0 0-.775.61 1.33 1.33 0 0 0-.234.757c0 .539.158.924.474 1.156.316.232.728.348 1.238.348a3.574 3.574 0 0 0 1.618-.341 4.811 4.811 0 0 0 1.335-1.035v-2.15zm10.195 5.641c-1.1 0-1.943-.313-2.529-.938-.586-.625-.88-1.488-.88-2.59v-7.122h-1.296a.589.589 0 0 1-.419-.162.632.632 0 0 1-.172-.484v-1.214l2.026-.34.64-3.479a.683.683 0 0 1 .234-.385.691.691 0 0 1 .443-.136h1.576v4.018h3.378v2.182h-3.378v6.906c0 .398.097.709.29.932a.992.992 0 0 0 .788.341c.16.004.32-.019.474-.068a2.704 2.704 0 0 0 .59-.286.42.42 0 0 1 .225-.069c.08-.004.16.02.225.069.07.06.132.128.185.204l.91 1.491c-.45.377-.968.663-1.525.844a5.633 5.633 0 0 1-1.786.286zm4.989-11.169c1.452-1.341 3.2-2.012 5.242-2.012a5.084 5.084 0 0 1 1.982.366c.56.23 1.063.578 1.476 1.023.41.449.723.98.917 1.559a6.04 6.04 0 0 1 .314 1.987v8.05h-1.38a1.381 1.381 0 0 1-.663-.13c-.156-.088-.28-.264-.37-.529l-.27-.92c-.297.272-.61.527-.935.764-.297.216-.615.4-.948.553-.338.151-.69.266-1.053.34-.407.081-.822.12-1.238.114-.5.005-.999-.068-1.477-.217a3.231 3.231 0 0 1-1.168-.652 2.925 2.925 0 0 1-.764-1.08 3.864 3.864 0 0 1-.27-1.504c0-.328.055-.653.16-.963a2.82 2.82 0 0 1 .524-.909c.273-.317.59-.593.94-.82a6.161 6.161 0 0 1 1.422-.67 12.272 12.272 0 0 1 1.964-.466 19.45 19.45 0 0 1 2.562-.219v-.745c0-.853-.18-1.485-.542-1.895-.36-.41-.881-.614-1.562-.614a3.683 3.683 0 0 0-1.225.173 5.03 5.03 0 0 0-.855.391 56.74 56.74 0 0 1-.676.391 1.317 1.317 0 0 1-.675.174.871.871 0 0 1-.542-.168 1.396 1.396 0 0 1-.357-.391l-.533-.98zm6.967 5.529c-.743.026-1.483.102-2.216.227a5.86 5.86 0 0 0-1.44.428 1.896 1.896 0 0 0-.775.61 1.33 1.33 0 0 0-.234.758c0 .538.158.923.474 1.155.316.232.728.348 1.238.348a3.574 3.574 0 0 0 1.618-.341 4.81 4.81 0 0 0 1.335-1.036v-2.15zm18.622 1.205a.66.66 0 0 1 .48.21l1.304 1.43a7.173 7.173 0 0 1-2.665 2.074c-1.05.48-2.316.72-3.796.72-1.32 0-2.508-.227-3.563-.681a7.847 7.847 0 0 1-2.701-1.901 8.334 8.334 0 0 1-1.715-2.908 11.003 11.003 0 0 1-.596-3.69 10.355 10.355 0 0 1 .639-3.708 8.535 8.535 0 0 1 1.801-2.9 8.158 8.158 0 0 1 2.772-1.894 9.13 9.13 0 0 1 3.568-.682c1.296 0 2.447.215 3.452.645a8.22 8.22 0 0 1 2.57 1.695l-1.108 1.552c-.068.101-.153.19-.252.26a.71.71 0 0 1-.424.114.805.805 0 0 1-.382-.106 5.586 5.586 0 0 1-.431-.26 16.911 16.911 0 0 0-.542-.341 4.447 4.447 0 0 0-.713-.341 5.79 5.79 0 0 0-.942-.26 6.455 6.455 0 0 0-1.238-.106 5.442 5.442 0 0 0-2.182.43 4.748 4.748 0 0 0-1.704 1.243 5.74 5.74 0 0 0-1.108 1.987 8.399 8.399 0 0 0-.394 2.678 7.937 7.937 0 0 0 .425 2.695 5.936 5.936 0 0 0 1.15 1.988 4.91 4.91 0 0 0 1.711 1.228c.67.288 1.39.434 2.117.428.41.003.818-.022 1.225-.075a5.157 5.157 0 0 0 1.013-.236 4.45 4.45 0 0 0 .873-.416c.292-.183.566-.393.819-.627a1.16 1.16 0 0 1 .258-.18.621.621 0 0 1 .279-.066zm3.622-6.734c1.452-1.341 3.2-2.012 5.243-2.012a5.084 5.084 0 0 1 1.981.366 4.18 4.18 0 0 1 1.477 1.023c.41.449.723.98.916 1.559.215.64.322 1.311.314 1.987v8.05h-1.377a1.381 1.381 0 0 1-.665-.13c-.156-.088-.279-.264-.369-.529l-.27-.92c-.298.272-.61.527-.935.764-.298.216-.615.4-.948.553-.338.151-.69.266-1.053.34a5.92 5.92 0 0 1-1.238.114c-.5.005-.999-.068-1.477-.217a3.231 3.231 0 0 1-1.169-.652 2.925 2.925 0 0 1-.763-1.08 3.865 3.865 0 0 1-.27-1.504c0-.328.055-.653.16-.963a2.82 2.82 0 0 1 .523-.909c.273-.317.59-.593.941-.82a6.161 6.161 0 0 1 1.422-.67c.64-.209 1.297-.365 1.963-.466a19.444 19.444 0 0 1 2.56-.217v-.745c0-.853-.18-1.485-.541-1.894-.361-.41-.882-.615-1.563-.615a3.683 3.683 0 0 0-1.224.174 5.03 5.03 0 0 0-.856.39 52.41 52.41 0 0 1-.675.392 1.317 1.317 0 0 1-.676.173.871.871 0 0 1-.541-.168 1.396 1.396 0 0 1-.357-.39l-.533-.984zm6.965 5.528c-.742.026-1.483.102-2.215.227a5.86 5.86 0 0 0-1.44.432c-.307.13-.575.34-.776.609a1.33 1.33 0 0 0-.234.758c0 .538.158.924.474 1.155.316.232.729.348 1.238.348a3.574 3.574 0 0 0 1.618-.34 4.81 4.81 0 0 0 1.335-1.038v-2.151zm6.159 5.446V13.16h1.859a.747.747 0 0 1 .775.56l.197.944c.217-.243.45-.471.696-.682.24-.205.5-.384.776-.534a3.91 3.91 0 0 1 1.926-.485c.795 0 1.45.217 1.962.652a3.93 3.93 0 0 1 1.15 1.733c.183-.403.433-.77.739-1.088.285-.294.612-.543.971-.738a4.45 4.45 0 0 1 1.126-.423c.394-.09.796-.136 1.2-.136a5.003 5.003 0 0 1 1.859.322c.522.203.99.526 1.365.945.384.44.671.956.843 1.515.203.663.3 1.353.29 2.046v8.118h-3.04v-8.115c0-.811-.176-1.422-.529-1.832-.353-.41-.87-.614-1.55-.614a2.296 2.296 0 0 0-.868.161 2.066 2.066 0 0 0-.701.466c-.21.217-.372.478-.474.764-.12.338-.179.696-.172 1.055v8.115h-3.052v-8.115c0-.853-.17-1.474-.511-1.863-.341-.39-.84-.584-1.495-.584a2.44 2.44 0 0 0-1.239.33 4.136 4.136 0 0 0-1.065.9v9.332h-3.038zm23.828-11.01a6.598 6.598 0 0 1 1.76-1.428c.656-.365 1.427-.547 2.313-.547a4.11 4.11 0 0 1 1.89.435c.581.3 1.087.731 1.476 1.26.444.613.77 1.304.96 2.038.238.905.352 1.84.338 2.776a8.808 8.808 0 0 1-.381 2.646 6.499 6.499 0 0 1-1.089 2.11 5.044 5.044 0 0 1-1.71 1.399 4.94 4.94 0 0 1-2.246.503 4.491 4.491 0 0 1-1.809-.33 4.414 4.414 0 0 1-1.342-.909v5.217h-3.04V13.16h1.86a.747.747 0 0 1 .775.56l.245 1.18zm.16 7.701a2.99 2.99 0 0 0 1.126.894c.419.177.869.266 1.323.262a2.88 2.88 0 0 0 1.238-.262c.376-.18.7-.453.941-.795.281-.407.484-.865.597-1.348.149-.628.22-1.273.21-1.919a8.6 8.6 0 0 0-.179-1.894 3.68 3.68 0 0 0-.51-1.26 2.037 2.037 0 0 0-.807-.709 2.495 2.495 0 0 0-1.077-.227 3.048 3.048 0 0 0-1.612.404c-.48.302-.905.687-1.255 1.136l.005 5.718z"/><path fill="#FFF" d="M23.152 14.935c.317-1.322.278-2.566-.437-4.304 0 0 1.152.454 1.032-.444-.119-.897-1.389-1.837-2.341-2.436-.419-.264-1.555-.826-3.077-1.168l.284-.648-.079-.038c-2.364-1.16-5.092-.114-5.12-.098l-.084.033.27.72a9.34 9.34 0 0 0-2.295.863c-6.41 3.448-3.155 10.177-1.173 11.78 1.98 1.604 1.071 4.87 0 7.825h8.617c.12-.554.016.273.417-1.931.4-2.205 1.95-1.388 3.17-1.463 1.22-.075 1.026-.932 1.013-1.893.595-.27.595-.556.198-.901.517-.48.437-.48.159-.952s-.08-.691-.08-.691.833-.164.952-.604c.042-.971-1.744-2.327-1.426-3.65zm-1.781-.276l-1.277-.437c-.067.176-.718 1.818-1.576 2.1l-.806-1.074c-.387.305-1.27.575-1.696.449v-.04h-.023l.024 2.963c-1.689.178-3.715-.859-4.687-2.284l-1.059.812c-1.204-1.468-1.388-3.239-1.4-4.255h1.428c0-1.127.437-2.596 1.052-3.409l1.112.796c.09-.114.93-1.128 2.056-1.495h.016l-.801-2.15c1.699-.493 2.946-.486 4.304.023.04.014.077.034.112.059l.022.016-.233.64c.063.028.964.436 1.337.82l.3-.418s1.757.956 2.292 3.083l-.467.165v-.012a6.792 6.792 0 0 1-.03 3.648z"/><path fill="#FFF" d="M15.943 10.742c-.784 0-1.419.641-1.419 1.432 0 .79.635 1.432 1.419 1.432.783 0 1.418-.641 1.418-1.432 0-.79-.635-1.431-1.418-1.432z"/></g></svg>