<svg data-name="Layer 1" xmlns="http://www.w3.org/2000/svg" width="220.83" height="391.46"><path d="M173.33 375.22c-12.3-42.6-60-147.7-60-147.7L77.23 222s5.7 83.8 22 153.2c0 0-30-.1-47.7 14.6 0 0 39 5.9 63.5-5-8.9-30.9-18.7-86.3-20.7-136.1-.5-4.1 9.1-4.6 11.6.3 0 0 29.4 55.7 57.6 137.7 0 0 24.8 7.8 57.3 3 0 .22-15.2-14.48-47.5-14.48z" fill="#3b464c"/><path d="M163.53 386.82s24.8 7.8 57.3 3a21.39 21.39 0 0 0-2.8-2.2 116.59 116.59 0 0 1-42.7-2c-2-.5-3.2-.9-4.3-2.7-1-1.6-1.1-3.6.4-4.9s4.4-2.8 5.1-2.8c-1 0-2.1-.1-3.2-.1l-.6-2.1-6 6.5c-1 1.48-4.73 3.1-3.2 7.3zM114.93 384.92c-.5-1.9-1.1-3.8-1.6-5.9-1.6-.3-3.1-.7-4.7-1.1-3.4-.9-6.5-2.8-9.8-4.2l.3 1.5s-1 0-2.8.1c2.3 1.3 5.1 1.7 7 3.6 2.9 2.9 2 5.8-1.4 7.3-4.2 1.8-34.6 4.2-47.1 1-1.2.8-2.4 1.7-3.5 2.6.1.1 39.1 5.9 63.6-4.9z" fill="#242e33"/><path d="M173.33 375.22c-12.3-42.6-60-147.7-60-147.7L77.23 222s.3 4.6.9 12.3h.1c.5 6.2 1.3 14.3 2.3 24 4 0 7.9-.4 11.3-2.7-.1 12.8 2.4 26.8 5.5 39.2.2 1 .7 2.9 1.3 4.9-2.1-16.9-3.6-34.2-4.3-50.9-.5-4.1 9.1-4.6 11.6.3 0 0 1.2 2.2 3.3 6.5a20.33 20.33 0 0 0 9.7 2 29.62 29.62 0 0 1 4.5.2c10.8 20.92 29 59.32 49.9 117.42z" fill="#242e33"/><path d="M77.73 229l.4 5.3a57.85 57.85 0 0 0 37.5-1.8l-1.8-6.2z" fill="#141b1e"/><path d="M130.73 36.72s30.6 2.6 32.3 5.6-15 3.4-31.7 5.6c-13.4 1.7-.6-11.2-.6-11.2z" fill="#1c2428"/><path d="M125 116.32s-4.6-9.8 1.3-25l-20.6 1.4s-2.4 18.7-7.2 23.1c.03 0 3.63 13.5 26.5.5z" fill="#fba78e"/><path d="M101.83 23.82c-14.5 3.8-20.8 12.1-23 27.3-.7 6.1-.5 7.1-2.6 12.9-5 14.6-7.2 27.1 6 35.3 11.7 7.3 37.4 10.7 49.4-15.8 3.8-10.2 4.1-14.9 5.3-25.7 3.4-30.3-20.8-38-35.1-34z" fill="#ffb696"/><path d="M116.83 23.72q-7.35-.15-14.7 0c-.1 0-.1 0-.2.1-14.5 3.8-20.8 12.1-23 27.3-.5 4.7-.5 6.4-1.5 9.5a12.43 12.43 0 0 0 5.8 3c9.7 2.2 10.2-5.7 15-6.4 4.1-.6 3.1 3.9 6.7 5.5 3.2 1.4 6.3.6 9.6 0 6.4-1.3 12.4-6.9 18.7-6.6a6.52 6.52 0 0 1 3.9 1.4c2.1-20.7-8.7-30.8-20.3-33.8z" fill="#fba78e"/><path d="M82.93 84.52s7.8 22.8 23-.1c-6.7 3-15.8 3.58-23 .1z" fill="#f4e7e6"/><path d="M111.13 54.92c-1.9.5-2 2-2.1 4.2a10.9 10.9 0 0 1-.3 2.6c-.4 2.2 0 3.6 1.5 4.8s4.6 1.4 5.5-2.9a15.68 15.68 0 0 0 .5-3.7c-.3-4.2-3.5-5.4-5.1-5z" fill="#161614"/><path d="M83.13 74c-1.3.9-1.6 4.5.8 6.5 2.7 2.3 6.8 2.3 9.3-1.9 4.1-7 3.7-12.6 4.1-15-1.5 2.82-12.4 9.22-14.2 10.4z" fill="#f98163"/><path d="M82.83 54.92c-1.9.5-2 2-2.1 4.2a10.9 10.9 0 0 1-.3 2.6c-.4 2.2 0 3.6 1.5 4.8s4.6 1.4 5.5-2.9a15.68 15.68 0 0 0 .5-3.7c-.3-4.2-3.5-5.4-5.1-5z" fill="#161614"/><path d="M79.73 46.32l4.4-5.7s13.6-8.1 42.8-7c9.3 11.6 5.4 40.8 5.4 40.8-.5 3 4.4-7.3 7.8-3.2 4.3-7.3 17.7-45-4.9-49.6-16.3-15.8-54.5-16-55.5 24.7z" fill="#823b2d"/><path d="M85.83 24.12c-3.6 5.4-5.8 12.7-6.1 22.2l4.4-5.7s13.6-8.1 42.8-7c4.3 5.3 5.8 14.3 6.1 22.5 6.8.3 6.6 7.8 5.6 14.1a2.85 2.85 0 0 1 1.6 1c3.8-6.5 14.8-36.8 1.4-46.8-4.2-.2-8.4-.3-12.5-.4-14.4-.5-28.9-.5-43.3.1z" fill="#6b261d"/><path d="M132.73 67.92s6.6-8.4 10.4-.8-4.6 16.8-11.7 15.5 1.3-14.7 1.3-14.7z" fill="#ffb696"/><path d="M118.43 49.52a1.62 1.62 0 0 0 1.2-1.6c.1-1.5-1.3-2.4-1.8-2.7a11.94 11.94 0 0 0-10.7-1.1c-.6.2-2.3.8-1.9 2.6s2.3 1.8 2.9 1.7a31.43 31.43 0 0 1 8.5.9 3 3 0 0 0 1.8.2zM82.23 50.22a1.42 1.42 0 0 0 .6-.2 12.77 12.77 0 0 1 5-.8h.6a1.81 1.81 0 0 0 1.5-1.9 2.75 2.75 0 0 0-1.8-2.6 5.85 5.85 0 0 0-6.8 1.2 2.81 2.81 0 0 0-1 3 1.68 1.68 0 0 0 1.9 1.3z" fill="#823b2d"/><path d="M125.73 28.22s-21.3-1-38.2 5.2a43.7 43.7 0 0 1 25.7-11.6s-14-1.2-26.4 6.6c0 0 12.6-24.3 44.5-6.6a10.56 10.56 0 0 0-5.2.3 12.3 12.3 0 0 1 4.3 1.7 35.82 35.82 0 0 0-6.2.9 6.76 6.76 0 0 1 4.1 1.4 10.21 10.21 0 0 0-5.4.3 4.16 4.16 0 0 1 2.8 1.8z" fill="#b2695f"/><path d="M133.83 70.52s6.5-4.5 6.9 1-8.9 7.3-8.9 7.3 10.6-7.6 2-8.3z" fill="#df8072"/><path d="M36.43 104s8.1-3 10.2-6.1-9-16.4-12.6-9-4.2 18.1 2.4 15.1z" fill="#1c2428"/><path d="M34.83 95.92s-2.4-5.2 1-9.5 13.1 0 8.6 6.6-9.6 2.9-9.6 2.9z" fill="#d6ccbd"/><path d="M51.63 63.22c.4 3.5-10.5 5.2-7.8 16.2 0 0-.2-11 9.6-11.3 7.8-.3 11.4 9 9.6 13.1s-5.1 3.5-6.5-3.8-8.3-2.7-8 4.4.8 11.5 3.5 11.1 2.3-5.5 5.6-6.2a3 3 0 0 1 3.7 1.8c1 1.8 0 5.4-3.1 8.2s-10.5 3.7-14-5.9l-4.7 6.4-5.53-5.3 4.5-6.4c-2.4-1-5.5-5.1-7.5-9.5-3.7-8.2 2.3-16.7 5.9-16.8 2.5-.1 6.2 2.3 3.5 5.2-7 7.7-1.1 14.7-.7 15.2-1.9-2.7-2.2-14.5 7.4-19.8 1.13-.82 4.13 0 4.53 3.4z" fill="#ffb696"/><path d="M37.43 137.22s-.6-25 7.1-44.2c0 0-10.3 2.9-8.6-6.6 0 0-20 28.4-20.2 72.9 0 0 39-.8 80.6-27 0 0 3.5-23.7-14.3-19.2-16.03 4.1-24.2 17.8-44.6 24.1z" fill="#f2e9da"/><path d="M85.33 111.62c-23.9 12.3-37.6 45.4-69.5 44.3 0 1.1-.1 2.2-.1 3.4 0 0 39-.8 80.6-27 0-.1 3.1-21.4-11-20.7z" fill="#e4dbcc"/><path d="M142.63 113.12s-12.7-.7-14.4-2.5c-2.5.3-8.5 4.2-23.4 4.7-5.6.2-3.3-5.6-5.9-4.7-4.2 1.4-9 .6-11.2.7-11.7.8-36 14.8-10.1 117.7 0 0 17.9 6 36.5-.2 0 0-1.9-56.1 28-82.2l6.4-16.2z" fill="#f2e9da"/><path d="M109.93 128.62s-4-2.2-8.7-4.2c0 0-6.2-5.7-8.2 2.4 0 0-2.3-11.3 8.9-15.9 0 0-2 6 2.2 6.3 5.7.5 18.3-2.7 18.7-10.3 0 0 4.5-2.5 6.4 4.4 0 0 0 14.2-19.3 17.3z" fill="#e4dbcc"/><path d="M103 88.32a41.81 41.81 0 0 1-7.4 1.4 15.15 15.15 0 0 1 5.3.8 14.88 14.88 0 0 0 2.1-2.2z" fill="#d8adab"/><path d="M96.63 115.12s-1.8 6.3 4.3 8.8 12.9-4.2 12.9-4.2-7-8.2-17.2-4.6z" fill="#d82d16"/><path d="M103.73 126.12c-3.9.3-2.6 2.9-.2 7.6 2.7 4.7 3.1 10.8 2.8 10.8s7.1-1.5 7.2-8.1c-.2-6.6-6.3-10.7-9.8-10.3z" fill="#e4dbcc"/><path d="M90.73 134.22c-.1 6.6 6.4 9.5 6.2 9.4s.2-6.1 2.8-10.3c2.3-4.2 3.5-6.6 0-7.6-3.1-1-8.73 1.9-9 8.5z" fill="#e4dbcc"/><path d="M106.83 123a6.08 6.08 0 1 1-8.6 0 6 6 0 0 1 8.6 0z" fill="#e4dbcc"/><path d="M89.33 230.82s-.6 3.7 1 6.3c2.9 1.4 6.9 1.1 11.1 0 1.5-2.5-1-6.3-1-6.3a15.09 15.09 0 0 0-11.1 0z" fill="#f9b63e"/><path d="M142.63 113.12l-.4 33.5s19.4 3.6 29.4 26.2l22.6 3.4c0-.1-3-40.22-51.6-63.1z" fill="#f2e9da"/><path d="M114.23 228.82s-1.9-56.1 28-82.2c0 0 19.4 3.6 29.4 26.2a47.71 47.71 0 0 0-30.5-31.4c-37 21.5-32.6 84.9-32.6 84.9-11.2 4.1-30.8 2.8-30.8 2.8s17.9 5.88 36.5-.3z" fill="#e4dbcc"/><path d="M84.13 58.82c0 1.2-.4 2.2-1 2.2s-1-1-1-2.2.4-2.2 1-2.2 1 1 1 2.2zM112.43 58.82c0 1.2-.4 2.2-1 2.2s-1-1-1-2.2.4-2.2 1-2.2 1 1 1 2.2z" fill="#f4e7e6"/><path d="M57.13 80.72a19.65 19.65 0 0 0-8 5l2.1 5.9a20.33 20.33 0 0 0 9.3-1.2c6.1-2.2 10.2-6.1 9.3-8.7-.9-2.8-6.6-3.2-12.7-1z" fill="#ad713b"/><path d="M61.13 79.72c-.9.2-1.9.4-2.9.7l-1 .3a25.57 25.57 0 0 0-3.7 1.7 5.38 5.38 0 0 1 2.5.9 4.36 4.36 0 0 1 1.9 2.5 4.73 4.73 0 0 1 .1 3.1 4.87 4.87 0 0 1-1.6 2.4 26.22 26.22 0 0 0 4.2-1.1 7.74 7.74 0 0 0 1.6-.7 8 8 0 0 0 1.6-.8 4.94 4.94 0 0 0-2.7-9z" fill="#cda465"/><path d="M52.33 86.72c.9 1.5.8 3.5-.1 4.4s-2.4.4-3.2-1.1-.8-3.5.1-4.4 2.4-.4 3.2 1.1z" fill="#f15a24"/><path d="M49.43 88.12c.2.5.7.9.5 1a1.15 1.15 0 0 1-1-.8.87.87 0 0 1 .3-1.1c.3-.3 0 .4.2.9zM61.23 80.72c.2.6-.6 1.5-1.9 2s-2.5.3-2.7-.3.6-1.5 1.9-2 2.4-.42 2.7.3z" fill="#ffde73"/><path d="M53.33 68.12l3.1 9.2c1.4 7.3 4.6 7.9 6.5 3.8s-1.7-13.3-9.6-13z" fill="#ffb696"/><path d="M51.83 89.12c.4.4 1.1.4.7.6a1 1 0 0 1-1.2-.4.8.8 0 0 1-.1-1.1c.2-.3.2.5.6.9z" fill="#ff9b00"/><path d="M50.33 90.42c.1-.1.1.1.3.3s.6.2.3.3-.4.1-.5-.1c-.3-.2-.2-.4-.1-.5zM51.53 86.62c.1-.1.1.2.2.3s.5.3.2.3-.4 0-.5-.2 0-.3.1-.4z" fill="#ffde73"/><path d="M50 85.62c.1-.1.1.2.1.4s.3.3.1.4-.3-.1-.4-.3.03-.4.2-.5z" fill="#ff9b00"/><path d="M45.93 80.42a.35.35 0 0 1 .2-.1l.1-.1a3.12 3.12 0 0 0-2-5.6c.1-.1.3-.1.4-.2a3 3 0 0 1 3.7 2.1 3.1 3.1 0 0 1-1 3.4.22.22 0 0 0-.2.2l-.1.1a3.12 3.12 0 0 0 2 5.6c-.1.1-.3.1-.4.2a3 3 0 0 1-3.7-2 3.06 3.06 0 0 1 1-3.6z" fill="#fff"/><path d="M98.93 110.62c-4.2 1.4-9 .6-11.2.7a9.69 9.69 0 0 0-2.3.3 14.71 14.71 0 0 0-3.4.5c-16 4.1-23.3 17.8-43.7 24.1 0 0 2.6-21.4 8.2-38.4-2 2.7-14.3.5-12.6-9 0 0-19.1 26.9-19.3 71.4 0 0 23-.9 51.6-12-2.9 49 10.8 106.9 10.8 106.9 5.6 2 18.9-5.6 21.1-8.3 9.6-10.3 6.9-60.4-1.6-87.6-4.7-14.6-5.9-33.5 2.4-48.6z" fill="#3b464c"/><path d="M98.23 246.92c9.6-10.3 6.9-60.4-1.6-87.6a70.4 70.4 0 0 1-2.2-8.2c-7.5 10.2-10.7 24.6-10.6 36.6.4 40 2 49.5 13.3 60.1a3.53 3.53 0 0 0 1.1-.9z" fill="#1c2428"/><path d="M93.33 130.12a57 57 0 0 1 5.7-19.5 15.53 15.53 0 0 1-3.6.8c-12.7 6-15.6 22.6-15.6 22.6l10.1 3.1-10.1 4.3s7.3 23.8 15.7 32.3l-.2-15.6a79.05 79.05 0 0 1-2-28z" fill="#1c2428"/><path d="M93.33 128.72a50.38 50.38 0 0 1 5.7-18.1 15.28 15.28 0 0 1-3.6.7c-12.7 5.5-15.6 20.5-15.6 20.5l11 2.3-10.6 4.6s6.9 22.5 15.3 30.4l-.2-14.5a67.72 67.72 0 0 1-2-25.9z" fill="#5e686d"/><path d="M142.63 113.12s-12.7-.7-14.4-2.5a21.67 21.67 0 0 0-4 1.3c-14.5 18.8-39.5 49-39.2 75.9.4 40 1.7 46.3 10.8 57.7 6.1 7.6 31 11.6 36.6 9.7 0 0-20.1-82.5 9.8-108.6 0 0 19.4 3.6 29.4 26.2l22.6 3.4c0-.1-3-40.22-51.6-63.1z" fill="#3b464c"/><path d="M117.83 146.12l-5.2-5.4 10.7.3s15.1-23.4 4.9-28.8c1.3-4.8-2.4 4.4-4 5-8.8 10.5-37.5 38.5-38.7 63.4z" fill="#1c2428"/><path d="M117.83 143.22l-5.2-5.8 10.7.3s14.8-21.2 4.6-27c-.9.2-2 .7-3.7 1.3-8.8 11.4-37.5 41.8-38.7 68.7z" fill="#5e686d"/><path d="M104.13 120.52c-3.9.3-2.6 2.9-.2 7.6 2.7 4.7 3.1 10.8 2.8 10.8s7.1-1.5 7.2-8.1c-.2-6.6-6.3-10.6-9.8-10.3z" fill="#f24c30"/><path d="M91.13 128.62c-.1 6.6 6.4 9.5 6.2 9.4s.2-6.1 2.8-10.3c2.3-4.2 3.5-6.6 0-7.6-3.13-1-8.7 1.88-9 8.5z" fill="#f24c30"/><path d="M107.23 117.42a6.08 6.08 0 1 1-8.6 0 6.22 6.22 0 0 1 8.6 0z" fill="#d82d16"/><path d="M105 117.42a4.53 4.53 0 1 1-6.4 0 4.65 4.65 0 0 1 6.4 0z" fill="#f24c30"/><path d="M110.43 125.72s-1.1-9.1-5.8-11.1c0 0-9 1.2-11.1 9.2 0 0-2.3-11.3 8.9-15.9 0 0-2 6 2.2 6.3 5.7.5 18.3-2.7 18.7-10.3 0 0 3.9.5 5.8 7.3.1.1-2.8 11.4-18.7 14.5z" fill="#f2e9da"/><path d="M112.63 156s5.8-6.9 8.4-6.3c2 .5 3.5 7.3 3.5 7.3z" fill="#f24c30"/><path d="M111.53 155.82s10.6 0 15 1.7a14.59 14.59 0 0 1-.7 4.1s-5.7-2.3-14.8-1.8a8.13 8.13 0 0 1 .5-4z" fill="#5e686d"/><path d="M125.83 200.12c-.3-.3-.7-.6-1-.9a38.12 38.12 0 0 0-29.4-8.3c-10.2 1.6-18.8 7.9-26.8 14.1 1.9 16.6 4.5 31 6.3 40a11.79 11.79 0 0 0 11.1 1.8c3.3-1 5.8-2.8 9.5-2.7 5.3.2 9.5.3 14.6-1.5 4.9-1.7 9.1-3.7 14.3-2.1a27.78 27.78 0 0 0 5.3 1.4 255.44 255.44 0 0 1-3.9-41.8z" fill="#242e33"/><path d="M119.53 208.52l-6.7 2.4a7.24 7.24 0 1 1-5-13.6l6.7-2.4a7.2 7.2 0 0 1 9.3 4.4 7.08 7.08 0 0 1-4.3 9.2zm-10.5-8a3.83 3.83 0 1 0 2.6 7.2l6.7-2.4a3.83 3.83 0 1 0-2.6-7.2zM63.527 210.137l23.304-8.482 1.881 5.168-23.304 8.482zM3.494 223.43l138.886-50.55 1.813 4.98L5.306 228.41z" fill="#0a1117"/><path d="M116.23 216.92c3.1 8.5.4 17.3-6.1 19.7s-14.2-2.6-17.3-11.2-.4-17.4 6.1-19.7 14.2 2.7 17.3 11.2z" fill="#0a1117"/><path fill="#0a1117" d="M82.19 196.25l12.216-4.446 16.246 44.635-12.216 4.447zM119.754 177.995l18.418-6.704 2.702 7.424-18.418 6.704zM152.63 179a4.26 4.26 0 0 1-2.6 5.5 4.26 4.26 0 0 1-5.5-2.6l-.8-2.3a4.26 4.26 0 0 1 2.6-5.5 4.26 4.26 0 0 1 5.5 2.6z"/><path d="M148.63 177.52A4.26 4.26 0 0 1 146 183a4.26 4.26 0 0 1-5.5-2.6l-.8-2.3a4.26 4.26 0 0 1 2.6-5.5 4.26 4.26 0 0 1 5.5 2.6z" fill="#0a1117"/><path d="M144.53 176.22a4.26 4.26 0 0 1-2.6 5.5 4.26 4.26 0 0 1-5.5-2.6l-.8-2.3a4.26 4.26 0 0 1 2.6-5.5 4.26 4.26 0 0 1 5.5 2.6zM122.13 179.82a1.63 1.63 0 0 1-1 2.1 1.63 1.63 0 0 1-2.1-1l-.3-.8a1.63 1.63 0 0 1 1-2.1 1.63 1.63 0 0 1 2.1 1z" fill="#0a1117"/><path fill="#0a1117" d="M87.528 195.53l58.73-21.377 3.763 10.336-58.73 21.377z"/><path d="M140.53 216.52l-5.2 1.9a5.73 5.73 0 0 1-5.7-1.3l-18.2-18.2c-1.3-1.3-1-3 .8-3.6l5.2-1.9a5.73 5.73 0 0 1 5.7 1.3l18.2 18.2c1.3 1.3 1 2.9-.8 3.6z" fill="#6e5c50"/><path d="M142.43 215a3.56 3.56 0 0 1-2.2 4.6l-7.7 2.8a3.56 3.56 0 0 1-4.6-2.2 3.56 3.56 0 0 1 2.2-4.6l7.7-2.8a3.78 3.78 0 0 1 4.6 2.2z" fill="#6e5c50"/><path d="M142.43 215l-.3-.6a2.45 2.45 0 0 0-.8-1.6l-18.2-18.2a6.17 6.17 0 0 0-5.7-1.3l-5.2 1.9c-1.8.7-2.1 2.3-.8 3.6l17.3 17.2c7.5-2.7 12.9-4.1 13.5 1.8a3.77 3.77 0 0 0 .2-2.8z" fill="#564539"/><path d="M74.53 210.42a3.89 3.89 0 0 1-2.4 5.1l-27.9 10.2a3.89 3.89 0 0 1-5.1-2.4 3.89 3.89 0 0 1 2.4-5.1L69.43 208a3.89 3.89 0 0 1 5.1 2.4z" fill="#6e5c50"/><path fill="#0a1117" d="M73.27 200.766l66.812-24.318 4.617 12.686-66.812 24.317z"/><path d="M149.73 183.62l-20.1 7.3a3.5 3.5 0 0 0-2.1 4.4 5.74 5.74 0 0 0 4.6 3.5c10.9.8 46.5 6.8 59.7 2 6.2-2.2-4.9-29.4-11-27.1-10.83 4-18.6 5.9-31.1 9.9z" fill="#6e5c50"/><path d="M28.23 217.22c1 2.8.1 5.6-2 6.4s-4.6-.9-5.6-3.6-.1-5.6 2-6.4 4.6.8 5.6 3.6z" fill="#0a1117"/><path fill="#0a1117" d="M15.93 216.061l6.766-2.462 3.625 9.96-6.765 2.463z"/><path fill="#0a1117" d="M17.208 213.105l2.35-.854 1.982 5.45-2.35.855zM99 189.32a2.63 2.63 0 0 1-1.6 3.4 2.63 2.63 0 0 1-3.4-1.6l-.8-2.3a2.63 2.63 0 0 1 1.6-3.4 2.63 2.63 0 0 1 3.4 1.6z"/><path d="M21.53 219.62c1 2.8.1 5.6-2 6.4s-4.6-.9-5.6-3.6-.1-5.6 2-6.4 4.6.9 5.6 3.6z" fill="#2d3235"/><path fill="#0a1117" d="M1.615 222.54l14.66-5.336 2.77 7.611-14.66 5.336zM74.63 204.62l-22.7 4.6-.4-1.1 20.3-11.11 2.8 7.61zM71.892 197l50.837-18.504 2.77 7.612-50.837 18.503z"/><path d="M6.13 225.22c.8 2.1.1 4.3-1.5 4.9s-3.5-.7-4.3-2.8-.1-4.3 1.5-4.9 3.5.7 4.3 2.8z" fill="#2d3235"/><path d="M5.63 225.12c-.2.1-.4 0-.4-.2a2.76 2.76 0 0 0-2.6-1.9c-.2 0-.3-.1-.4-.3s.1-.3.3-.4a3.51 3.51 0 0 1 3.3 2.4.76.76 0 0 1-.2.4z" fill="#fff"/><path d="M20.63 220c.8 2.1.1 4.3-1.5 4.9s-3.5-.7-4.3-2.8-.1-4.3 1.5-4.9 3.5.72 4.3 2.8zM4.83 225.72a2.12 2.12 0 0 1-.8 2.7 2.1 2.1 0 0 1-2.4-1.5 2.12 2.12 0 0 1 .8-2.7c.9-.4 2 .3 2.4 1.5z" fill="#0a1117"/><path d="M104.53 221.22c3.1 8.5.4 17.3-6.1 19.7s-14.2-2.6-17.3-11.2-.4-17.4 6.1-19.7 14.2 2.7 17.3 11.2z" fill="#2d3235"/><path d="M104.23 221.42c-.2.1-.4 0-.4-.2-2.9-8-10.2-12.8-16.3-10.6-.2.1-.4 0-.4-.2s0-.4.2-.4c6.4-2.3 14.1 2.6 17.1 11 .1.1 0 .3-.2.4z" fill="#fff"/><path d="M61.33 216.12s-16.8 8.1-13.7 8.7c17.9 3.3 25.9 16.1 25.9 16.1l-1.1.4a2.5 2.5 0 1 0 1.7 4.7l3.8-1.4 6.9-2.5 4.8-1.7c-2.8-17.6-28.3-24.3-28.3-24.3z" fill="#6e5c50"/><path d="M15.23 218.52a.42.42 0 0 1-.3.6l-9.3 3.4a.42.42 0 0 1-.6-.3H5a.42.42 0 0 1 .3-.6l9.3-3.4a.45.45 0 0 1 .6.3zM61.23 203.22a.42.42 0 0 1-.3.6L29 215.52a.42.42 0 0 1-.6-.3.42.42 0 0 1 .3-.6L60.63 203a.45.45 0 0 1 .6.2zM136.13 172.42c.1.2 0 .3-.2.4l-15.7 5.7c-.2.1-.3 0-.4-.2-.1-.2 0-.3.2-.4l15.7-5.7c.2-.1.4 0 .4.2zM89.13 191.42c.1.2 0 .3-.2.4l-15.7 5.7c-.2.1-.3 0-.4-.2-.1-.2 0-.3.2-.4l15.7-5.7c.2-.1.3 0 .4.2zM94.83 186.92a.68.68 0 0 1-.4.8.6.6 0 0 1-.8-.4.63.63 0 0 1 1.2-.4z" fill="#fff"/><path d="M45.83 220.72a2.51 2.51 0 0 1-1.4 3.3 2.54 2.54 0 0 1-3.2-1.6 2.51 2.51 0 0 1 1.4-3.3 2.46 2.46 0 0 1 3.2 1.6zM79.23 241.42a1.53 1.53 0 0 1-1 2l-3.5 1.3a1.53 1.53 0 0 1-2-1 1.53 1.53 0 0 1 1-2l3.5-1.3a1.61 1.61 0 0 1 2 1zM138.13 216.62a2.12 2.12 0 0 1-1.3 2.7l-4.7 1.7a2.12 2.12 0 0 1-2.7-1.3 2.12 2.12 0 0 1 1.3-2.7l4.7-1.7a2.12 2.12 0 0 1 2.7 1.3z" fill="#84746a"/><path d="M66.13 217.72l6-2.2a4 4 0 0 0 2.4-5.1l-20.8 7.5c.4.5 1.3.1 2.4.7 2.9 1.7 7.2-2.1 6.2 2-1.5 6.5 5.5 5.1 6.6 6.4.3.4-.6 1.6-.3 1.9 1.1 1.3 1.1.7 2.3 1.6 1.6 1.2 1.2.4 2.8 3.5.8 1.6 4.7-.8 5 1 .2 1.4-4.5 5.6-3.3 5.1 3-1.1 5.3-1.6 7 .5.5.6-2.2 3-2.2 3l4.5-1.6 4.8-1.7c-2-12.7-15.9-19.7-23.4-22.6zM180.73 173.82c-4.6 1.7-8.7 3-12.9 4.3a10 10 0 0 0 4.5.2c4.2-.7 7-3.2 11.3-.3 3.5 2.3 6 9.4 6 13.5 0 5.6-5.5 6.3-10.1 7a15.82 15.82 0 0 0-4.6-7.5c-1.6-1.5-5.1-4.6-6.5-6-1.2-1.1-.3-4-1-5.5-2.9 3.5.6 8 2.9 10.6s15.2 9.2-3.9 7.1c-3.3-.4-4.2-2-5.9-4.1-2.2-2.7-3.5-3.8-7.2-4.6 3.6 3 3.6 8.4-1.3 8.9s-13.1-3.6-18.5-2.2c-.5.1 3.1 1.2 3.1 1.2-1.4 0-2.9.1-4.4 0-2.1-.2-4.1.1-5.2-2.4a2.62 2.62 0 0 0 .2 1.5 5.74 5.74 0 0 0 4.6 3.5c10.9.8 46.5 6.8 59.7 2 6.47-2.4-4.6-29.5-10.8-27.2z" fill="#564539"/><path d="M145.93 187.52a1.4 1.4 0 0 1-.8 1.8l-13.9 5.1a1.4 1.4 0 0 1-1.8-.8 1.4 1.4 0 0 1 .8-1.8l13.9-5.1a1.27 1.27 0 0 1 1.8.8z" fill="#84746a"/><path d="M147.93 201.32s-8.2-6.9-12.7-4.7 1 20.6 7.7 17.4 6.5-9.4 5-12.7z" fill="#1c2428"/><path d="M143.83 202.12s-3.5-6.6-8.6-4.3-3.2 14 4.5 11.5c8.2-2.7 4.1-7.2 4.1-7.2z" fill="#d6ccbd"/><path d="M139.43 206.82c.9-2 7.1-5.2 7.1-5.2l-3.8-7.5s-6.2 5.4-8.9 5-5.9-4-10.3-2.9-14.9 4.6-6.4 10.6c0 0-.6 11.7 10.8 12.1s9.6-7.8 11.5-12.1z" fill="#ffb696"/><path d="M171.63 172.82s-17.3 16.5-36.3 25c0 0 10 3.6 4.4 11.5 0 0 30.6-6.3 54.5-33.1l-10.5-4.1z" fill="#f2e9da"/><path d="M171.63 172.82s-18.7 14.8-36.3 23.8c6.9-2 14.4 12.2 7.7 17.4 0 0 27.3-11 51.3-37.9l-9.4-5.7zM115 379.42a25.29 25.29 0 0 1-4-9.2 2.43 2.43 0 0 0-1.2 0 12.8 12.8 0 0 0 1.3 4.2c1.2 3.3-1.2 2.6-3.3 1.2-3.3-2.3-6.8-5.6-10.4-7.6a9 9 0 0 1 .2 3.9c-.3 1.1-1.3 1.9-1.1 3.2l.1.1c6 .2 11.2 3 12.8 5.5 1 1.6 2.8 4.8 5.4 4.1s1.2-4 .2-5.4zM174.33 373.42a7.22 7.22 0 0 1-2.3-2.6l-3.1-3c-7.6-.5-9.8 6.7-7.4 13.5.5 1.4-1.4 3.4.3 4.6a1.93 1.93 0 0 0 3-1.3c1.3-4.9 5.1-9.2 10.8-9.3.1-1-.63-1.4-1.3-1.9z" fill="#3b464c"/><path d="M145.43 43.82a46.89 46.89 0 0 0-7.5 1.2c-.8.2-1.8.4-2.7.7.8 5.1 1.2 9.1 1.2 9.1.6-1.6 1.8-8.9 1.8-8.9 1.9 2.7.7 11 .7 11 1.5-2.4 3.3-11.5 3.3-11.5 1.3 3.5.2 9.2.2 9.2a75 75 0 0 0 3-10.8z" fill="#823b2d"/><path d="M149.63 33.42c-3.2-20.5-8.9-31.6-13-32.9-7.1-2.2-17.2 3.2-26.2 5.8s-17.6-14.8-24.3.5c-4.2 9.7-6.4 23.7-6.9 27.6-4.5 1.6-15.6 5-15.5 8 .1 3.7 17.7 10.5 30 10.5s33.4-7.3 43.8-9.8 25.7-.8 25.7-.8-8.1-6.4-13.6-8.9z" fill="#3b464c"/><path d="M94.43 27.42c-4.8.2-9.9-1.3-13.6-2.7-.9 4.3-1.4 8-1.7 9.7 0 0 6.3 5.3 14.5 5.3s41.1-7.2 55.9-6.2c-.6-3.6-1.2-6.9-1.9-10-15.2-.52-38.2 3.4-53.2 3.9z" fill="#5e686d"/><path d="M101 9.82c3.4-1.2 8.4-3 12.5-4.5h-.1c-1 .3-2 .7-3 1s-8.7 2.1-11.7 2.2c-2.7.1-4.3-1.8-2.3-2.4 1.7-.6 4.6-2.4.5-1.8-7.47 1.1-2.57 7.9 4.1 5.5zM120.13 9.42c3.3-2.1 12.7-6.1 17.7-2.3s-1.2.2-6 .5-14.4 3.5-11.7 1.8z" fill="#1c2428"/><path d="M123.83 200.42a4.22 4.22 0 0 1-2.7 5.3l-3.8 1.3a4.22 4.22 0 0 1-5.3-2.7 4.22 4.22 0 0 1 2.7-5.3l7.6-2.4c2.1-.7.7 1.6 1.5 3.8z" fill="#ffb696"/></svg>