<?xml version="1.0" encoding="utf-8"?>
<!-- Generator: Adobe Illustrator 17.0.0, SVG Export Plug-In . SVG Version: 6.00 Build 0)  -->
<!DOCTYPE svg PUBLIC "-//W3C//DTD SVG 1.1//EN" "http://www.w3.org/Graphics/SVG/1.1/DTD/svg11.dtd">
<svg version="1.1" id="Layer_1" xmlns="http://www.w3.org/2000/svg" xmlns:xlink="http://www.w3.org/1999/xlink" x="0px" y="0px"
	 width="639px" height="256px" viewBox="0 0 639 256" enable-background="new 0 0 639 256" xml:space="preserve">
<path opacity="0.8" fill="#FFFFFF" d="M292.816,116.43c1.591-3.425,2.504-7.235,2.504-11.263c0-14.847-12.032-26.88-26.875-26.88
	c-3.202,0-6.265,0.589-9.105,1.614c-5.862-27.536-30.298-48.191-59.583-48.191c-20.709,0-38.984,10.328-49.998,26.102
	c-5.597-2.176-11.704-3.413-18.098-3.413c-27.693,0-50.167,22.463-50.167,50.164c0,3.481,0.362,6.876,1.04,10.166
	c-16.51,5.088-28.501,20.471-28.501,38.64c0,22.327,18.092,40.436,40.428,40.436h40.271c14.936,12.662,36.784,20.652,61.144,20.652
	c24.363,0,46.214-7.989,61.148-20.652h19.35c22.334,0,40.435-18.109,40.435-40.436C316.81,136.889,306.955,122.749,292.816,116.43z"
	/>
<path opacity="0.8" fill="#FFFFFF" d="M571.15,160.846c1.18-2.547,1.86-5.384,1.86-8.388c0-11.048-8.96-19.998-19.991-19.998
	c-2.388,0-4.68,0.431-6.785,1.202c-4.365-20.488-22.548-35.867-44.346-35.867c-15.413,0-29.014,7.682-37.211,19.427
	c-4.165-1.625-8.712-2.538-13.454-2.538c-20.621,0-37.344,16.714-37.344,37.328c0,2.587,0.266,5.117,0.781,7.564
	c-12.295,3.783-21.22,15.23-21.22,28.749c0,16.624,13.472,30.095,30.093,30.095h29.963c11.115,9.423,27.389,15.379,45.506,15.379
	c18.134,0,34.391-5.957,45.505-15.379h14.4c16.624,0,30.092-13.47,30.092-30.095C589,176.066,581.669,165.548,571.15,160.846z"/>
</svg>
