<?xml version="1.0" encoding="utf-8"?>
<!-- Generator: Adobe Illustrator 16.0.0, SVG Export Plug-In . SVG Version: 6.00 Build 0)  -->
<!DOCTYPE svg PUBLIC "-//W3C//DTD SVG 1.1//EN" "http://www.w3.org/Graphics/SVG/1.1/DTD/svg11.dtd">
<svg version="1.1" id="Layer_1" xmlns="http://www.w3.org/2000/svg" xmlns:xlink="http://www.w3.org/1999/xlink" x="0px" y="0px"
	 width="595.28px" height="841.89px" viewBox="0 0 595.28 841.89" enable-background="new 0 0 595.28 841.89" xml:space="preserve">
<path opacity="0.1" d="M512.622,766.71c0,8.824-90.533,15.973-202.224,15.973c-111.695,0-202.229-7.148-202.229-15.973
	c0-8.825,90.534-15.96,202.229-15.96C422.089,750.75,512.622,757.885,512.622,766.71z"/>
<polygon fill="#231F20" points="255.708,625.141 364.395,620.052 360.517,749.777 351.206,748.925 353.522,651.971 269.702,645.189 
	267.371,748.925 255.727,748.925 "/>
<path fill="#231F20" d="M360.789,749.626c0,0,8.011,12.762,27.419,12.762l0.522,3.972c0,0-24.833,1.974-32.33-9.933l0.489,9.08
	l-8.258-0.851l2.586-16.446L360.789,749.626z"/>
<path fill="#231F20" d="M257.355,749.426c0,0-8.034,12.755-27.434,12.755l-0.528,3.96c0,0,24.839,1.988,32.332-9.919l-0.499,9.085
	l8.271-0.853l-2.585-16.448L257.355,749.426z"/>
<path fill="#E9C09B" d="M352.984,460.509c0,0,214.463,111.759,79.552,134.778l-0.762,11.919c0,0,190.588-16.199-77.105-160.618
	L352.984,460.509z"/>
<g>
	<path fill="#E9C09B" d="M442.006,599.578c1.6,4.675-0.403,9.896-4.449,11.603c-4.047,1.706-8.252,7.045-9.344,11.863l-1.07,4.729
		c-1.092,4.818-5.191,8.206-9.109,7.525c-3.917-0.68-5.726-5.029-4.019-9.666l2.171-5.896c1.707-4.637-0.686-7.022-5.316-5.301
		l-15.222,5.657c-4.631,1.722-9.746-0.01-11.366-3.847c-1.621-3.837,0.896-8.237,5.59-9.777l15.461-5.073
		c4.694-1.54,4.545-3.448-0.332-4.238l-9.906-1.606c-4.877-0.79-8.769-4.154-8.647-7.474c0.121-3.32,4.229-5.508,9.127-4.859
		l19.823,2.619c4.898,0.648,7.204-2.139,5.123-6.191c-2.081-4.054-0.748-8.975,2.961-10.936s8.053,0.26,9.652,4.935L442.006,599.578
		z"/>
</g>
<path fill="#272826" d="M375.088,438.998c0,0,29.86,20.253,59.915,46.135l-26.467,26.101l-36.563-28.969L375.088,438.998z"/>
<path fill="#E9C09B" d="M278.429,456.449c0,0-279.178,76.696-179.591-53.409l-9.052-11.068c0,0-153.976,169.466,198.474,78.065
	L278.429,456.449z"/>
<path fill="#272826" d="M285.66,478.951c0,0-84.548,26.417-105.622,21.033l-2.814-38.486l64.256-6.655l18.165-0.011L285.66,478.951z
	"/>
<g>
	<path fill="#E9C09B" d="M82.574,408.545c-4.551-1.925-7.111-6.893-5.689-11.04c1.422-4.146,0.245-10.836-2.616-14.864l-2.823-3.976
		c-2.861-4.028-2.656-9.342,0.457-11.809s7.554-0.913,9.869,3.453l2.958,5.575c2.315,4.365,5.687,4.173,7.492-0.427l5.939-15.133
		c1.805-4.6,6.511-7.257,10.457-5.904c3.946,1.353,5.551,6.162,3.567,10.687l-6.533,14.902c-1.984,4.525-0.465,5.685,3.376,2.576
		l7.803-6.314c3.841-3.108,8.943-3.769,11.336-1.468c2.394,2.301,1.287,6.818-2.461,10.039l-15.156,13.025
		c-3.748,3.221-3.207,6.8,1.202,7.954s7.186,5.428,6.172,9.497c-1.014,4.069-5.567,5.824-10.118,3.899L82.574,408.545z"/>
</g>
<polyline fill="#272826" points="294.681,631.402 252.139,630.458 238.454,429.846 380.031,424.786 367.275,634.809 
	312.056,631.634 "/>
<path fill="#121212" d="M247,477.98c0,0,64.105,52.792,128.753-15.624L247,477.98z"/>
<g>
	<path fill="#D09F78" d="M380.607,324.901c8.088,21.371,24.408,25.836,36.188,10.575c11.77-15.267,14.964-43.4,7.418-63.422
		c-7.576-20.027-23.487-25.442-35.791-11.547C376.105,274.402,372.48,303.546,380.607,324.901z"/>
	<path fill="#231F20" d="M208.074,221.528c0,0,71.646-42.587,90.905,10.824l-3.685,5.949
		C295.295,238.301,275.558,211.013,208.074,221.528z"/>
	<g>
		<path fill="#E9C09B" d="M406.8,228.562c-3.515,41.201-1.494,108.387,4.488,149.303l0.002,0.009
			c5.982,40.916-19.248,83.933-56.069,95.594s-85.914,13.849-109.095,4.86s-50.13-49.219-59.886-89.402l-6.429-26.478
			c-9.756-40.184-14.188-106.686-9.849-147.782s23.701-85.25,43.025-98.117c19.325-12.868,67.402-13.888,106.84-2.267
			s76.87,21.808,83.183,22.638c6.313,0.831,8.604,35.22,5.089,76.421L406.8,228.562z"/>
	</g>
	<path fill="#D09F78" d="M288.273,336.526c0,0,27.021,21.401,70.642,0C358.915,336.526,323.59,392.154,288.273,336.526z"/>
	<g>
		<path fill="#E9C09B" d="M184.613,330.03c-11.62,27.086-33.232,30.198-47.964,7.788c-14.713-22.409-17.603-60.467-6.752-85.851
			c10.865-25.377,31.989-29.844,47.476-9.154C192.867,263.481,196.267,302.958,184.613,330.03z"/>
		<path fill="#D09F78" d="M165.097,315.597c0,0,15.661-90.342-30.985-35.669C134.112,279.928,168.476,253.532,165.097,315.597z"/>
		<path fill="#D09F78" d="M165.249,315.915c0,0-1.239-49.184-27.115,1.032C138.134,316.947,158.852,286.652,165.249,315.915z"/>
	</g>
	<g>
		<path fill="#CA8B84" d="M288.787,386.736c0,0-12.395,47.398,8.783,62.657c0,0-37.514,9.156-41.835,6.366
			c0,0-5.946-2.726-6.635-19.037c0,0,1.148-52.967,6.643-68.69C255.743,368.031,280.71,387.311,288.787,386.736z"/>
		<path fill="#6C2E29" d="M278.003,453.06c0,0-13.807-45.438-28.306-34.35c0,0-2.987,39.953,10.031,37.806L278.003,453.06z"/>
		<path fill="#FFFFFF" d="M324.48,444.049l-5.082-17.975l-67.796,24.483c0,0,1.728,7.593,10.153,6.594L324.48,444.049z"/>
		<path fill="#A58060" d="M270.997,356.894c0,0-25.244-7.049-28.904,23.212C242.092,380.105,247.736,359.017,270.997,356.894z"/>
		<path fill="#FFFFFF" d="M362.635,387.187l4.484,17.584c0,0-65.873,35.892-114.712-19.31l3.335-17.43
			C255.743,368.031,314.354,418.113,362.635,387.187z"/>
		<path fill="none" stroke="#A58060" stroke-width="2.5981" d="M323.128,456.828c16.229,1.655,5.763-13.862,5.763-13.862
			s-47.512,10.95-69.163,13.55c-21.681,2.587-3.985-88.484-3.985-88.484c64.391,45.261,101.041,29.463,120.944,6.252"/>
		<polygon fill="#CA8B84" points="252.228,415.574 253.686,427.759 251.066,428.501 251.524,431.346 260.745,429.572 
			259.742,425.491 256.417,425.689 255.733,417.32 		"/>
	</g>
	<path fill="#D09F78" d="M175.49,344.491c0,0,10.88-13.32,11.767-21.965c0,0,1.11,21.498-9.765,30.376L175.49,344.491z"/>
	<path fill="#D09F78" d="M304.763,292.921c0,0-46.658-65.467-84.076,7.501C220.687,300.422,272.639,362.63,304.763,292.921z"/>
	<path fill="#FFFFFF" d="M304.763,292.921c0,0-41.557-45.932-81.358,6.373C223.405,299.294,258.086,331.083,304.763,292.921z"/>
	<g>
		<defs>
			<path id="SVGID_1_" d="M313.653,292.937c0,0-50.583-55.91-99.031,7.757C214.623,300.693,256.841,339.389,313.653,292.937z"/>
		</defs>
		<clipPath id="SVGID_2_">
			<use xlink:href="#SVGID_1_"  overflow="visible"/>
		</clipPath>
		<path clip-path="url(#SVGID_2_)" fill="#08777C" d="M248.161,297.313c-2.118-7.844,2.215-15.994,9.686-18.219
			c7.449-2.218,15.195,2.351,17.304,10.191c2.11,7.851-2.226,16.005-9.686,18.222C258.006,309.728,250.259,305.161,248.161,297.313z
			"/>
		<path clip-path="url(#SVGID_2_)" d="M255.933,295.002c-0.9-3.326,0.939-6.781,4.105-7.723c3.159-0.941,6.445,0.995,7.337,4.319
			c0.894,3.33-0.944,6.786-4.107,7.727C260.11,300.266,256.823,298.33,255.933,295.002z"/>
		<path clip-path="url(#SVGID_2_)" fill="#FFFFFF" d="M252.513,290.869c-0.495-1.824,0.515-3.721,2.253-4.239
			c1.732-0.515,3.538,0.547,4.026,2.371c0.494,1.827-0.518,3.725-2.254,4.241C254.804,293.758,253.001,292.696,252.513,290.869z"/>
	</g>
	<path fill="#D09F78" d="M398.815,286.304c0,0-39.438-55.337-71.068,6.343C327.747,292.647,371.664,345.232,398.815,286.304z"/>
	<path fill="#FFFFFF" d="M398.815,286.304c0,0-35.127-38.824-68.77,5.384C330.046,291.688,359.365,318.561,398.815,286.304z"/>
	<path fill="#3B2416" d="M207.563,271.302l-5.172-13.226c0,0,46.451-46.904,94.152-3.303l-1.844,1.981
		C294.698,256.755,239.574,232.324,207.563,271.302z"/>
	<path fill="#3B2416" d="M403.474,263.712l5.055-13.748c0,0-44.447-36.67-82.471,5.788l0.493,1.636
		C326.551,257.388,372.283,232.633,403.474,263.712z"/>
	<g>
		<defs>
			<path id="SVGID_3_" d="M400.348,286.972c0,0-41.614-45.998-81.473,6.381C318.875,293.353,353.608,325.188,400.348,286.972z"/>
		</defs>
		<clipPath id="SVGID_4_">
			<use xlink:href="#SVGID_3_"  overflow="visible"/>
		</clipPath>
		<path clip-path="url(#SVGID_4_)" fill="#08777C" d="M346.466,290.57c-1.743-6.452,1.822-13.157,7.969-14.988
			c6.128-1.824,12.501,1.935,14.235,8.386c1.738,6.458-1.829,13.166-7.969,14.989C354.566,300.784,348.193,297.027,346.466,290.57z"
			/>
		<path clip-path="url(#SVGID_4_)" d="M352.859,288.669c-0.738-2.735,0.773-5.579,3.381-6.353c2.6-0.775,5.297,0.818,6.035,3.552
			c0.735,2.74-0.778,5.583-3.38,6.357C356.296,293,353.594,291.407,352.859,288.669z"/>
		<path clip-path="url(#SVGID_4_)" fill="#FFFFFF" d="M350.044,285.269c-0.404-1.5,0.428-3.062,1.856-3.486
			c1.425-0.425,2.908,0.451,3.313,1.95c0.404,1.504-0.427,3.066-1.854,3.49C351.93,287.648,350.45,286.773,350.044,285.269z"/>
	</g>
	<path fill="#3B2416" d="M175.49,344.491l8.656-1.417l3.855-156.054l211.912-30.35l5.366,89.991c0,0,3.52-116.458,40.714-186.475
		c0,0-43.678,32.427-76.873,49.366l-26.209-57.696L326.816,81.5l-22.596-18.551l-17.642,19.611c0,0-25.362-17.455-71.434-5.603
		c0,0,9.07,7.719,14.098,10.895c0,0-69.406,6.353-87.515,43.409c0,0,10.061-9.529,20.119-9.529c0,0-27.158,64.583-7.041,96.343
		c0,0,11.065,12.705,11.065,24.352L175.49,344.491z"/>
</g>
<polyline opacity="0.55" fill="#D09F78" points="189.046,210.425 399.913,156.67 188.001,187.021 189.046,212.212 "/>
<g>
	<path fill="#C68044" d="M330.62,529.071l-17.816-17.815c-0.243-0.243-0.56-0.363-0.873-0.363c-0.318,0-0.634,0.12-0.876,0.363
		l-0.021,0.021c-0.231,0.231-0.363,0.547-0.363,0.874v4.931c0,0.327,0.132,0.642,0.363,0.874l11.99,11.99l-11.99,11.992
		c-0.231,0.231-0.363,0.547-0.363,0.872v4.934c0,0.324,0.132,0.641,0.363,0.872l0.021,0.021c0.23,0.232,0.547,0.363,0.876,0.363
		c0.326,0,0.64-0.131,0.873-0.363l17.817-17.816"/>
	<path fill="#C68044" d="M285.429,529.071l17.817-17.815c0.239-0.243,0.557-0.363,0.873-0.363c0.315,0,0.634,0.12,0.876,0.363
		l0.021,0.021c0.231,0.231,0.361,0.547,0.361,0.874v4.931c0,0.327-0.13,0.642-0.361,0.874l-11.99,11.99l11.99,11.992
		c0.231,0.231,0.361,0.547,0.361,0.872v4.934c0,0.324-0.13,0.641-0.361,0.872l-0.021,0.021c-0.232,0.232-0.547,0.363-0.876,0.363
		c-0.328,0-0.642-0.131-0.875-0.363l-17.815-17.816"/>
</g>
</svg>
